{
	"asset":{
		"generator":"Khronos glTF Blender I/O v4.3.47",
		"version":"2.0"
	},
	"extensionsUsed":[
		"KHR_materials_specular",
		"KHR_materials_ior"
	],
	"scene":0,
	"scenes":[
		{
			"name":"Scene",
			"nodes":[
				0
			]
		}
	],
	"nodes":[
		{
			"mesh":0,
			"name":"scp_096",
			"rotation":[
				0.7071068286895752,
				0,
				0,
				0.7071068286895752
			]
		}
	],
	"materials":[
		{
			"doubleSided":true,
			"extensions":{
				"KHR_materials_specular":{
					"specularColorFactor":[
						2.0,
						2.0,
						2.0
					]
				},
				"KHR_materials_ior":{
					"ior":1.100000023841858
				}
			},
			"name":"scp_096",
			"pbrMetallicRoughness":{
				"metallicFactor":0,
				"roughnessFactor":0
			}
		}
	],
	"meshes":[
		{
			"name":"scp_096",
			"primitives":[
				{
					"attributes":{
						"POSITION":0,
						"NORMAL":1,
						"TEXCOORD_0":2,
						"TANGENT":3
					},
					"indices":4,
					"material":0
				}
			]
		}
	],
	"accessors":[
		{
			"bufferView":0,
			"componentType":5126,
			"count":3869,
			"max":[
				3.6471099853515625,
				0.5017750859260559,
				4.236390113830566
			],
			"min":[
				-3.6459100246429443,
				-0.47411489486694336,
				-2.2529499530792236
			],
			"type":"VEC3"
		},
		{
			"bufferView":1,
			"componentType":5126,
			"count":3869,
			"type":"VEC3"
		},
		{
			"bufferView":2,
			"componentType":5126,
			"count":3869,
			"type":"VEC2"
		},
		{
			"bufferView":3,
			"componentType":5126,
			"count":3869,
			"type":"VEC4"
		},
		{
			"bufferView":4,
			"componentType":5123,
			"count":19128,
			"type":"SCALAR"
		}
	],
	"bufferViews":[
		{
			"buffer":0,
			"byteLength":46428,
			"byteOffset":0,
			"target":34962
		},
		{
			"buffer":0,
			"byteLength":46428,
			"byteOffset":46428,
			"target":34962
		},
		{
			"buffer":0,
			"byteLength":30952,
			"byteOffset":92856,
			"target":34962
		},
		{
			"buffer":0,
			"byteLength":61904,
			"byteOffset":123808,
			"target":34962
		},
		{
			"buffer":0,
			"byteLength":38256,
			"byteOffset":185712,
			"target":34963
		}
	],
	"buffers":[
		{
			"byteLength":223968,
			"uri":"096-3449378c465c76e1931c5d17bc1361af.bin"
		}
	]
}
