{
	"asset":{
		"generator":"Khronos glTF Blender I/O v4.4.56",
		"version":"2.0"
	},
	"scene":0,
	"scenes":[
		{
			"name":"Scene",
			"nodes":[
				7
			]
		}
	],
	"nodes":[
		{
			"name":"Bone",
			"rotation":[
				-0.21714133024215698,
				4.922518570538159e-08,
				-0.0032031359151005745,
				0.9761348962783813
			],
			"scale":[
				0.9999999403953552,
				1,
				0.9999999403953552
			],
			"translation":[
				-0.039076533168554306,
				0.030129075050354004,
				0.07694687694311142
			]
		},
		{
			"name":"Bone.001",
			"rotation":[
				1.6801075730654702e-07,
				5.5367184614851794e-08,
				-0.975608766078949,
				0.21951663494110107
			],
			"scale":[
				1,
				1.0000001192092896,
				1
			],
			"translation":[
				0.4714031219482422,
				-0.25449442863464355,
				-0.02134089544415474
			]
		},
		{
			"name":"Bone.002",
			"rotation":[
				-0.002070362912490964,
				0.009200462140142918,
				0.9895960092544556,
				0.1435646116733551
			],
			"scale":[
				0.9999999403953552,
				0.9999998807907104,
				0.9999999403953552
			],
			"translation":[
				-0.4953650236129761,
				-0.19760143756866455,
				0.023342154920101166
			]
		},
		{
			"name":"Bone.003",
			"rotation":[
				-0.0012526226928457618,
				0.02981748804450035,
				0.9982638359069824,
				0.05078068748116493
			],
			"translation":[
				-0.17633302509784698,
				-1.4294975996017456,
				-0.07488901913166046
			]
		},
		{
			"name":"Bone.004",
			"rotation":[
				-0.0017757316818460822,
				-0.02080673538148403,
				-0.9970816969871521,
				0.07343066483736038
			],
			"scale":[
				0.9999998807907104,
				0.9999997615814209,
				0.9999999403953552
			],
			"translation":[
				0.14302191138267517,
				-1.4364376068115234,
				-0.0959939956665039
			]
		},
		{
			"name":"neutral_bone",
			"rotation":[
				-0.7071067690849304,
				0,
				0,
				0.7071067690849304
			]
		},
		{
			"mesh":0,
			"name":"Cube",
			"skin":0
		},
		{
			"children":[
				6,
				0,
				1,
				2,
				3,
				4,
				5
			],
			"name":"Armature",
			"translation":[
				0,
				1.5447688102722168,
				0
			]
		}
	],
	"materials":[
		{
			"doubleSided":true,
			"name":"173",
			"normalTexture":{
				"index":0
			},
			"pbrMetallicRoughness":{
				"baseColorTexture":{
					"index":1
				},
				"metallicFactor":0
			}
		}
	],
	"meshes":[
		{
			"name":"Cube.001",
			"primitives":[
				{
					"attributes":{
						"POSITION":0,
						"NORMAL":1,
						"TEXCOORD_0":2,
						"JOINTS_0":3,
						"JOINTS_1":4,
						"WEIGHTS_0":5,
						"WEIGHTS_1":6
					},
					"indices":7,
					"material":0
				}
			]
		}
	],
	"textures":[
		{
			"sampler":0,
			"source":0
		},
		{
			"sampler":0,
			"source":1
		}
	],
	"images":[
		{
			"mimeType":"image/png",
			"name":"173normal.png",
			"uri":"../../entities/SCPs/173normal.png"
		},
		{
			"mimeType":"image/png",
			"name":"173",
			"uri":"../../entities/SCPs/textures/173.png"
		}
	],
	"skins":[
		{
			"inverseBindMatrices":8,
			"joints":[
				0,
				1,
				2,
				3,
				4,
				5
			],
			"name":"Armature"
		}
	],
	"accessors":[
		{
			"bufferView":0,
			"componentType":5126,
			"count":1050,
			"max":[
				0.8059340715408325,
				2.0952796936035156,
				0.3365453779697418
			],
			"min":[
				-0.749885618686676,
				-1.4553170204162598,
				-0.25646063685417175
			],
			"type":"VEC3"
		},
		{
			"bufferView":1,
			"componentType":5126,
			"count":1050,
			"type":"VEC3"
		},
		{
			"bufferView":2,
			"componentType":5126,
			"count":1050,
			"type":"VEC2"
		},
		{
			"bufferView":3,
			"componentType":5121,
			"count":1050,
			"type":"VEC4"
		},
		{
			"bufferView":4,
			"componentType":5121,
			"count":1050,
			"type":"VEC4"
		},
		{
			"bufferView":5,
			"componentType":5126,
			"count":1050,
			"type":"VEC4"
		},
		{
			"bufferView":6,
			"componentType":5126,
			"count":1050,
			"type":"VEC4"
		},
		{
			"bufferView":7,
			"componentType":5123,
			"count":4392,
			"type":"SCALAR"
		},
		{
			"bufferView":8,
			"componentType":5126,
			"count":6,
			"type":"MAT4"
		}
	],
	"bufferViews":[
		{
			"buffer":0,
			"byteLength":12600,
			"byteOffset":0,
			"target":34962
		},
		{
			"buffer":0,
			"byteLength":12600,
			"byteOffset":12600,
			"target":34962
		},
		{
			"buffer":0,
			"byteLength":8400,
			"byteOffset":25200,
			"target":34962
		},
		{
			"buffer":0,
			"byteLength":4200,
			"byteOffset":33600,
			"target":34962
		},
		{
			"buffer":0,
			"byteLength":4200,
			"byteOffset":37800,
			"target":34962
		},
		{
			"buffer":0,
			"byteLength":16800,
			"byteOffset":42000,
			"target":34962
		},
		{
			"buffer":0,
			"byteLength":16800,
			"byteOffset":58800,
			"target":34962
		},
		{
			"buffer":0,
			"byteLength":8784,
			"byteOffset":75600,
			"target":34963
		},
		{
			"buffer":0,
			"byteLength":384,
			"byteOffset":84384
		}
	],
	"samplers":[
		{
			"magFilter":9729,
			"minFilter":9987
		}
	],
	"buffers":[
		{
			"byteLength":84768,
			"uri":"173-260876d1e1d568ef8dfad38ea5830691.bin"
		}
	]
}
