{
	"asset":{
		"generator":"Khronos glTF Blender I/O v4.4.56",
		"version":"2.0"
	},
	"scene":0,
	"scenes":[
		{
			"name":"Scene",
			"nodes":[
				0,
				1,
				2,
				3
			]
		}
	],
	"nodes":[
		{
			"mesh":0,
			"name":"914-col",
			"translation":[
				3.905212879180908,
				0,
				0
			]
		},
		{
			"mesh":1,
			"name":"914-col.001",
			"translation":[
				-4.126646041870117,
				0,
				0
			]
		},
		{
			"mesh":2,
			"name":"Cube-col"
		},
		{
			"mesh":3,
			"name":"Knob",
			"scale":[
				0.09999999403953552,
				0.09999999403953552,
				0.09999999403953552
			],
			"translation":[
				0,
				0.08332701027393341,
				-1.5195034742355347
			]
		}
	],
	"materials":[
		{
			"name":"Material.013",
			"pbrMetallicRoughness":{
				"baseColorTexture":{
					"index":0
				},
				"metallicFactor":0,
				"roughnessFactor":0.5
			}
		},
		{
			"alphaMode":"BLEND",
			"name":"Material",
			"pbrMetallicRoughness":{
				"baseColorTexture":{
					"index":1
				},
				"metallicFactor":0,
				"roughnessFactor":0.5
			}
		},
		{
			"name":"Material.001",
			"pbrMetallicRoughness":{
				"baseColorTexture":{
					"index":2
				},
				"metallicFactor":0,
				"roughnessFactor":0.5
			}
		},
		{
			"doubleSided":true,
			"name":"Material.002",
			"pbrMetallicRoughness":{
				"baseColorTexture":{
					"index":3
				},
				"metallicFactor":0,
				"roughnessFactor":0.5
			}
		}
	],
	"meshes":[
		{
			"name":"Cube.007",
			"primitives":[
				{
					"attributes":{
						"POSITION":0,
						"NORMAL":1,
						"TEXCOORD_0":2,
						"TANGENT":3
					},
					"indices":4,
					"material":0
				}
			]
		},
		{
			"name":"Cube.001",
			"primitives":[
				{
					"attributes":{
						"POSITION":5,
						"NORMAL":6,
						"TEXCOORD_0":7,
						"TANGENT":8
					},
					"indices":4,
					"material":0
				}
			]
		},
		{
			"name":"Cube",
			"primitives":[
				{
					"attributes":{
						"POSITION":9,
						"NORMAL":10,
						"TEXCOORD_0":11,
						"TANGENT":12
					},
					"indices":13,
					"material":1
				},
				{
					"attributes":{
						"POSITION":14,
						"NORMAL":15,
						"TEXCOORD_0":16,
						"TANGENT":17
					},
					"indices":18,
					"material":2
				}
			]
		},
		{
			"name":"Cylinder",
			"primitives":[
				{
					"attributes":{
						"POSITION":19,
						"NORMAL":20,
						"TEXCOORD_0":21
					},
					"indices":22,
					"material":3
				}
			]
		}
	],
	"textures":[
		{
			"sampler":0,
			"source":0
		},
		{
			"sampler":0,
			"source":1
		},
		{
			"sampler":0,
			"source":0
		},
		{
			"sampler":0,
			"source":1
		}
	],
	"images":[
		{
			"mimeType":"image/jpeg",
			"name":"dirtymetal.jpg",
			"uri":"../../rooms/Textures/dirtymetal.jpg"
		},
		{
			"mimeType":"image/png",
			"name":"914.png",
			"uri":"../../rooms/Textures/914.png"
		}
	],
	"accessors":[
		{
			"bufferView":0,
			"componentType":5126,
			"count":86,
			"max":[
				1.819397211074829,
				1.7728103399276733,
				1.325925350189209
			],
			"min":[
				-1.4306666851043701,
				-1.3271898031234741,
				-0.7740745544433594
			],
			"type":"VEC3"
		},
		{
			"bufferView":1,
			"componentType":5126,
			"count":86,
			"type":"VEC3"
		},
		{
			"bufferView":2,
			"componentType":5126,
			"count":86,
			"type":"VEC2"
		},
		{
			"bufferView":3,
			"componentType":5126,
			"count":86,
			"type":"VEC4"
		},
		{
			"bufferView":4,
			"componentType":5123,
			"count":174,
			"type":"SCALAR"
		},
		{
			"bufferView":5,
			"componentType":5126,
			"count":86,
			"max":[
				1.819397211074829,
				1.7728103399276733,
				1.325925350189209
			],
			"min":[
				-1.4306666851043701,
				-1.3271898031234741,
				-0.7740745544433594
			],
			"type":"VEC3"
		},
		{
			"bufferView":6,
			"componentType":5126,
			"count":86,
			"type":"VEC3"
		},
		{
			"bufferView":7,
			"componentType":5126,
			"count":86,
			"type":"VEC2"
		},
		{
			"bufferView":8,
			"componentType":5126,
			"count":86,
			"type":"VEC4"
		},
		{
			"bufferView":9,
			"componentType":5126,
			"count":206,
			"max":[
				2.4913198947906494,
				2.343777656555176,
				1.3202112913131714
			],
			"min":[
				-2.326639175415039,
				-1.4000002145767212,
				-1.7000001668930054
			],
			"type":"VEC3"
		},
		{
			"bufferView":10,
			"componentType":5126,
			"count":206,
			"type":"VEC3"
		},
		{
			"bufferView":11,
			"componentType":5126,
			"count":206,
			"type":"VEC2"
		},
		{
			"bufferView":12,
			"componentType":5126,
			"count":206,
			"type":"VEC4"
		},
		{
			"bufferView":13,
			"componentType":5123,
			"count":318,
			"type":"SCALAR"
		},
		{
			"bufferView":14,
			"componentType":5126,
			"count":32,
			"max":[
				1.7057044506072998,
				2.281684160232544,
				1.3202112913131714
			],
			"min":[
				-1.7057044506072998,
				-1.4000002145767212,
				-1.5000001192092896
			],
			"type":"VEC3"
		},
		{
			"bufferView":15,
			"componentType":5126,
			"count":32,
			"type":"VEC3"
		},
		{
			"bufferView":16,
			"componentType":5126,
			"count":32,
			"type":"VEC2"
		},
		{
			"bufferView":17,
			"componentType":5126,
			"count":32,
			"type":"VEC4"
		},
		{
			"bufferView":18,
			"componentType":5123,
			"count":48,
			"type":"SCALAR"
		},
		{
			"bufferView":19,
			"componentType":5126,
			"count":533,
			"max":[
				1,
				1.0000001192092896,
				-0.7066305875778198
			],
			"min":[
				-1,
				-1.0000001192092896,
				-1.173887848854065
			],
			"type":"VEC3"
		},
		{
			"bufferView":20,
			"componentType":5126,
			"count":533,
			"type":"VEC3"
		},
		{
			"bufferView":21,
			"componentType":5126,
			"count":533,
			"type":"VEC2"
		},
		{
			"bufferView":22,
			"componentType":5123,
			"count":885,
			"type":"SCALAR"
		}
	],
	"bufferViews":[
		{
			"buffer":0,
			"byteLength":1032,
			"byteOffset":0,
			"target":34962
		},
		{
			"buffer":0,
			"byteLength":1032,
			"byteOffset":1032,
			"target":34962
		},
		{
			"buffer":0,
			"byteLength":688,
			"byteOffset":2064,
			"target":34962
		},
		{
			"buffer":0,
			"byteLength":1376,
			"byteOffset":2752,
			"target":34962
		},
		{
			"buffer":0,
			"byteLength":348,
			"byteOffset":4128,
			"target":34963
		},
		{
			"buffer":0,
			"byteLength":1032,
			"byteOffset":4476,
			"target":34962
		},
		{
			"buffer":0,
			"byteLength":1032,
			"byteOffset":5508,
			"target":34962
		},
		{
			"buffer":0,
			"byteLength":688,
			"byteOffset":6540,
			"target":34962
		},
		{
			"buffer":0,
			"byteLength":1376,
			"byteOffset":7228,
			"target":34962
		},
		{
			"buffer":0,
			"byteLength":2472,
			"byteOffset":8604,
			"target":34962
		},
		{
			"buffer":0,
			"byteLength":2472,
			"byteOffset":11076,
			"target":34962
		},
		{
			"buffer":0,
			"byteLength":1648,
			"byteOffset":13548,
			"target":34962
		},
		{
			"buffer":0,
			"byteLength":3296,
			"byteOffset":15196,
			"target":34962
		},
		{
			"buffer":0,
			"byteLength":636,
			"byteOffset":18492,
			"target":34963
		},
		{
			"buffer":0,
			"byteLength":384,
			"byteOffset":19128,
			"target":34962
		},
		{
			"buffer":0,
			"byteLength":384,
			"byteOffset":19512,
			"target":34962
		},
		{
			"buffer":0,
			"byteLength":256,
			"byteOffset":19896,
			"target":34962
		},
		{
			"buffer":0,
			"byteLength":512,
			"byteOffset":20152,
			"target":34962
		},
		{
			"buffer":0,
			"byteLength":96,
			"byteOffset":20664,
			"target":34963
		},
		{
			"buffer":0,
			"byteLength":6396,
			"byteOffset":20760,
			"target":34962
		},
		{
			"buffer":0,
			"byteLength":6396,
			"byteOffset":27156,
			"target":34962
		},
		{
			"buffer":0,
			"byteLength":4264,
			"byteOffset":33552,
			"target":34962
		},
		{
			"buffer":0,
			"byteLength":1770,
			"byteOffset":37816,
			"target":34963
		}
	],
	"samplers":[
		{
			"magFilter":9729,
			"minFilter":9987
		}
	],
	"buffers":[
		{
			"byteLength":39588,
			"uri":"914-e018be4a9318f9ea77c89c4147bd1fc2.bin"
		}
	]
}
