{
	"asset":{
		"generator":"Khronos glTF Blender I/O v4.3.47",
		"version":"2.0"
	},
	"scene":0,
	"scenes":[
		{
			"name":"Scene",
			"nodes":[
				0,
				1
			]
		}
	],
	"nodes":[
		{
			"mesh":0,
			"name":"Elev1-col",
			"translation":[
				0,
				0,
				0.001138493069447577
			]
		},
		{
			"mesh":1,
			"name":"Plane"
		}
	],
	"materials":[
		{
			"name":"Material",
			"normalTexture":{
				"index":0
			},
			"pbrMetallicRoughness":{
				"baseColorTexture":{
					"index":1
				},
				"metallicFactor":0,
				"roughnessFactor":0.5
			}
		},
		{
			"name":"Material.001",
			"pbrMetallicRoughness":{
				"baseColorTexture":{
					"index":2
				},
				"metallicFactor":0,
				"roughnessFactor":0.5
			}
		},
		{
			"name":"Material.002",
			"normalTexture":{
				"index":3
			},
			"pbrMetallicRoughness":{
				"baseColorTexture":{
					"index":4
				},
				"metallicFactor":0,
				"roughnessFactor":0.5
			}
		},
		{
			"name":"Material.004",
			"normalTexture":{
				"index":5
			},
			"pbrMetallicRoughness":{
				"baseColorTexture":{
					"index":6
				},
				"metallicFactor":0,
				"roughnessFactor":0.5
			}
		}
	],
	"meshes":[
		{
			"name":"Cube.002",
			"primitives":[
				{
					"attributes":{
						"POSITION":0,
						"NORMAL":1,
						"TEXCOORD_0":2
					},
					"indices":3,
					"material":0
				},
				{
					"attributes":{
						"POSITION":4,
						"NORMAL":5,
						"TEXCOORD_0":6
					},
					"indices":7,
					"material":1
				},
				{
					"attributes":{
						"POSITION":8,
						"NORMAL":9,
						"TEXCOORD_0":10
					},
					"indices":11,
					"material":2
				},
				{
					"attributes":{
						"POSITION":12,
						"NORMAL":13,
						"TEXCOORD_0":14
					},
					"indices":15,
					"material":3
				}
			]
		},
		{
			"name":"Plane",
			"primitives":[
				{
					"attributes":{
						"POSITION":16,
						"NORMAL":17,
						"TEXCOORD_0":18,
						"TANGENT":19
					},
					"indices":20
				}
			]
		}
	],
	"textures":[
		{
			"sampler":0,
			"source":0
		},
		{
			"sampler":0,
			"source":1
		},
		{
			"sampler":0,
			"source":2
		},
		{
			"sampler":0,
			"source":3
		},
		{
			"sampler":0,
			"source":4
		},
		{
			"sampler":0,
			"source":5
		},
		{
			"sampler":0,
			"source":6
		}
	],
	"images":[
		{
			"mimeType":"image/png",
			"name":"concrete_wall.png",
			"uri":"../../rooms/Textures/normals/concrete_wall.png"
		},
		{
			"mimeType":"image/jpeg",
			"name":"concretewall.jpg",
			"uri":"../../rooms/Textures/concretewall.jpg"
		},
		{
			"mimeType":"image/jpeg",
			"name":"dirtymetal.jpg",
			"uri":"../../rooms/Textures/dirtymetal.jpg"
		},
		{
			"mimeType":"image/png",
			"name":"metal3_specular.png",
			"uri":"../../rooms/Textures/normals/metal3_specular.png"
		},
		{
			"mimeType":"image/jpeg",
			"name":"metal3.jpg",
			"uri":"../../rooms/Textures/metal3.jpg"
		},
		{
			"mimeType":"image/png",
			"name":"concrete_floor.png",
			"uri":"../../rooms/Textures/normals/concrete_floor.png"
		},
		{
			"mimeType":"image/jpeg",
			"name":"concretefloor.jpg",
			"uri":"../../rooms/Textures/concretefloor.jpg"
		}
	],
	"accessors":[
		{
			"bufferView":0,
			"componentType":5126,
			"count":698,
			"max":[
				27.456111907958984,
				1.9519332647323608,
				19.52722930908203
			],
			"min":[
				-40.677833557128906,
				-1.1536264419555664,
				-20.485876083374023
			],
			"type":"VEC3"
		},
		{
			"bufferView":1,
			"componentType":5126,
			"count":698,
			"type":"VEC3"
		},
		{
			"bufferView":2,
			"componentType":5126,
			"count":698,
			"type":"VEC2"
		},
		{
			"bufferView":3,
			"componentType":5123,
			"count":1293,
			"type":"SCALAR"
		},
		{
			"bufferView":4,
			"componentType":5126,
			"count":726,
			"max":[
				26.30666732788086,
				1.8480675220489502,
				19.507614135742188
			],
			"min":[
				-35.28360366821289,
				-1.1480674743652344,
				-20.465837478637695
			],
			"type":"VEC3"
		},
		{
			"bufferView":5,
			"componentType":5126,
			"count":726,
			"type":"VEC3"
		},
		{
			"bufferView":6,
			"componentType":5126,
			"count":726,
			"type":"VEC2"
		},
		{
			"bufferView":7,
			"componentType":5123,
			"count":1878,
			"type":"SCALAR"
		},
		{
			"bufferView":8,
			"componentType":5126,
			"count":399,
			"max":[
				27.261445999145508,
				1.8480675220489502,
				18.679336547851562
			],
			"min":[
				-35.283599853515625,
				-1.1536264419555664,
				-20.465837478637695
			],
			"type":"VEC3"
		},
		{
			"bufferView":9,
			"componentType":5126,
			"count":399,
			"type":"VEC3"
		},
		{
			"bufferView":10,
			"componentType":5126,
			"count":399,
			"type":"VEC2"
		},
		{
			"bufferView":11,
			"componentType":5123,
			"count":936,
			"type":"SCALAR"
		},
		{
			"bufferView":12,
			"componentType":5126,
			"count":118,
			"max":[
				27.456111907958984,
				1.8519333600997925,
				18.229541778564453
			],
			"min":[
				-40.677833557128906,
				-1.1536264419555664,
				-21.49966812133789
			],
			"type":"VEC3"
		},
		{
			"bufferView":13,
			"componentType":5126,
			"count":118,
			"type":"VEC3"
		},
		{
			"bufferView":14,
			"componentType":5126,
			"count":118,
			"type":"VEC2"
		},
		{
			"bufferView":15,
			"componentType":5123,
			"count":285,
			"type":"SCALAR"
		},
		{
			"bufferView":16,
			"componentType":5126,
			"count":9,
			"max":[
				24.998624801635742,
				16,
				24.998624801635742
			],
			"min":[
				-24.998624801635742,
				16,
				-24.998624801635742
			],
			"type":"VEC3"
		},
		{
			"bufferView":17,
			"componentType":5126,
			"count":9,
			"type":"VEC3"
		},
		{
			"bufferView":18,
			"componentType":5126,
			"count":9,
			"type":"VEC2"
		},
		{
			"bufferView":19,
			"componentType":5126,
			"count":9,
			"type":"VEC4"
		},
		{
			"bufferView":20,
			"componentType":5123,
			"count":24,
			"type":"SCALAR"
		}
	],
	"bufferViews":[
		{
			"buffer":0,
			"byteLength":8376,
			"byteOffset":0,
			"target":34962
		},
		{
			"buffer":0,
			"byteLength":8376,
			"byteOffset":8376,
			"target":34962
		},
		{
			"buffer":0,
			"byteLength":5584,
			"byteOffset":16752,
			"target":34962
		},
		{
			"buffer":0,
			"byteLength":2586,
			"byteOffset":22336,
			"target":34963
		},
		{
			"buffer":0,
			"byteLength":8712,
			"byteOffset":24924,
			"target":34962
		},
		{
			"buffer":0,
			"byteLength":8712,
			"byteOffset":33636,
			"target":34962
		},
		{
			"buffer":0,
			"byteLength":5808,
			"byteOffset":42348,
			"target":34962
		},
		{
			"buffer":0,
			"byteLength":3756,
			"byteOffset":48156,
			"target":34963
		},
		{
			"buffer":0,
			"byteLength":4788,
			"byteOffset":51912,
			"target":34962
		},
		{
			"buffer":0,
			"byteLength":4788,
			"byteOffset":56700,
			"target":34962
		},
		{
			"buffer":0,
			"byteLength":3192,
			"byteOffset":61488,
			"target":34962
		},
		{
			"buffer":0,
			"byteLength":1872,
			"byteOffset":64680,
			"target":34963
		},
		{
			"buffer":0,
			"byteLength":1416,
			"byteOffset":66552,
			"target":34962
		},
		{
			"buffer":0,
			"byteLength":1416,
			"byteOffset":67968,
			"target":34962
		},
		{
			"buffer":0,
			"byteLength":944,
			"byteOffset":69384,
			"target":34962
		},
		{
			"buffer":0,
			"byteLength":570,
			"byteOffset":70328,
			"target":34963
		},
		{
			"buffer":0,
			"byteLength":108,
			"byteOffset":70900,
			"target":34962
		},
		{
			"buffer":0,
			"byteLength":108,
			"byteOffset":71008,
			"target":34962
		},
		{
			"buffer":0,
			"byteLength":72,
			"byteOffset":71116,
			"target":34962
		},
		{
			"buffer":0,
			"byteLength":144,
			"byteOffset":71188,
			"target":34962
		},
		{
			"buffer":0,
			"byteLength":48,
			"byteOffset":71332,
			"target":34963
		}
	],
	"samplers":[
		{
			"magFilter":9729,
			"minFilter":9987
		}
	],
	"buffers":[
		{
			"byteLength":71380,
			"uri":"939UndergroundStorage-6f6b67a70b504d52778e88a668c0d680.bin"
		}
	]
}
