{
	"asset":{
		"generator":"Khronos glTF Blender I/O v4.3.47",
		"version":"2.0"
	},
	"scene":0,
	"scenes":[
		{
			"name":"Scene",
			"nodes":[
				0,
				5
			]
		}
	],
	"nodes":[
		{
			"mesh":0,
			"name":"Frame-col"
		},
		{
			"mesh":1,
			"name":"DoorR-col",
			"rotation":[
				0,
				0,
				0.7071067690849304,
				0.7071067690849304
			],
			"translation":[
				2.000000238418579,
				2.249999761581421,
				0
			]
		},
		{
			"children":[
				1
			],
			"name":"Bone"
		},
		{
			"mesh":2,
			"name":"DoorL-col",
			"rotation":[
				0.7071067690849304,
				-0.7071067690849304,
				-2.6692537957728746e-08,
				2.6692536181371906e-08
			],
			"translation":[
				2,
				8.606659783094574e-22,
				-1.5099580252808664e-07
			]
		},
		{
			"children":[
				3
			],
			"name":"Bone.001",
			"rotation":[
				1,
				-3.774895063202166e-08,
				-3.774895063202166e-08,
				0
			]
		},
		{
			"children":[
				2,
				4
			],
			"name":"Armature",
			"rotation":[
				0,
				0,
				-0.7071068286895752,
				0.7071068286895752
			],
			"translation":[
				0,
				2,
				0
			]
		}
	],
	"animations":[
		{
			"channels":[
				{
					"sampler":0,
					"target":{
						"node":2,
						"path":"translation"
					}
				},
				{
					"sampler":1,
					"target":{
						"node":2,
						"path":"rotation"
					}
				},
				{
					"sampler":2,
					"target":{
						"node":2,
						"path":"scale"
					}
				},
				{
					"sampler":3,
					"target":{
						"node":4,
						"path":"translation"
					}
				},
				{
					"sampler":4,
					"target":{
						"node":4,
						"path":"rotation"
					}
				},
				{
					"sampler":5,
					"target":{
						"node":4,
						"path":"scale"
					}
				}
			],
			"name":"close",
			"samplers":[
				{
					"input":15,
					"interpolation":"LINEAR",
					"output":16
				},
				{
					"input":17,
					"interpolation":"STEP",
					"output":18
				},
				{
					"input":17,
					"interpolation":"STEP",
					"output":19
				},
				{
					"input":15,
					"interpolation":"LINEAR",
					"output":20
				},
				{
					"input":17,
					"interpolation":"STEP",
					"output":21
				},
				{
					"input":17,
					"interpolation":"STEP",
					"output":22
				}
			]
		},
		{
			"channels":[
				{
					"sampler":0,
					"target":{
						"node":2,
						"path":"translation"
					}
				},
				{
					"sampler":1,
					"target":{
						"node":2,
						"path":"rotation"
					}
				},
				{
					"sampler":2,
					"target":{
						"node":2,
						"path":"scale"
					}
				},
				{
					"sampler":3,
					"target":{
						"node":4,
						"path":"translation"
					}
				},
				{
					"sampler":4,
					"target":{
						"node":4,
						"path":"rotation"
					}
				},
				{
					"sampler":5,
					"target":{
						"node":4,
						"path":"scale"
					}
				}
			],
			"name":"open",
			"samplers":[
				{
					"input":15,
					"interpolation":"LINEAR",
					"output":23
				},
				{
					"input":17,
					"interpolation":"STEP",
					"output":24
				},
				{
					"input":17,
					"interpolation":"STEP",
					"output":25
				},
				{
					"input":15,
					"interpolation":"LINEAR",
					"output":26
				},
				{
					"input":17,
					"interpolation":"STEP",
					"output":27
				},
				{
					"input":17,
					"interpolation":"STEP",
					"output":28
				}
			]
		}
	],
	"materials":[
		{
			"doubleSided":true,
			"name":"Material.002",
			"normalTexture":{
				"index":0
			},
			"pbrMetallicRoughness":{
				"baseColorTexture":{
					"index":1
				},
				"metallicFactor":0,
				"roughnessFactor":0.5
			}
		},
		{
			"name":"Material",
			"normalTexture":{
				"index":2
			},
			"pbrMetallicRoughness":{
				"baseColorTexture":{
					"index":3
				},
				"metallicFactor":0.5396825671195984
			}
		},
		{
			"name":"Material.001",
			"normalTexture":{
				"index":4
			},
			"pbrMetallicRoughness":{
				"baseColorTexture":{
					"index":5
				},
				"metallicFactor":0,
				"roughnessFactor":0.5
			}
		}
	],
	"meshes":[
		{
			"name":"Cube.002",
			"primitives":[
				{
					"attributes":{
						"POSITION":0,
						"NORMAL":1,
						"TEXCOORD_0":2,
						"TANGENT":3
					},
					"indices":4,
					"material":0
				}
			]
		},
		{
			"name":"Cube.001",
			"primitives":[
				{
					"attributes":{
						"POSITION":5,
						"NORMAL":6,
						"TEXCOORD_0":7,
						"TANGENT":8
					},
					"indices":9,
					"material":1
				}
			]
		},
		{
			"name":"Cube",
			"primitives":[
				{
					"attributes":{
						"POSITION":10,
						"NORMAL":11,
						"TEXCOORD_0":12,
						"TANGENT":13
					},
					"indices":14,
					"material":2
				}
			]
		}
	],
	"textures":[
		{
			"sampler":0,
			"source":0
		},
		{
			"sampler":0,
			"source":1
		},
		{
			"sampler":0,
			"source":0
		},
		{
			"sampler":0,
			"source":1
		},
		{
			"sampler":0,
			"source":0
		},
		{
			"sampler":0,
			"source":1
		}
	],
	"images":[
		{
			"mimeType":"image/png",
			"name":"big_door.png",
			"uri":"../../rooms/Textures/normals/big_door.png"
		},
		{
			"mimeType":"image/jpeg",
			"name":"containment_doors.jpg",
			"uri":"../../rooms/Textures/containment_doors.jpg"
		}
	],
	"skins":[
		{
			"inverseBindMatrices":29,
			"joints":[
				2,
				4
			],
			"name":"Armature"
		}
	],
	"accessors":[
		{
			"bufferView":0,
			"componentType":5126,
			"count":178,
			"max":[
				3.5350608825683594,
				2,
				0.5679747462272644
			],
			"min":[
				-3.535060405731201,
				-1.5,
				-0.5679747462272644
			],
			"type":"VEC3"
		},
		{
			"bufferView":1,
			"componentType":5126,
			"count":178,
			"type":"VEC3"
		},
		{
			"bufferView":2,
			"componentType":5126,
			"count":178,
			"type":"VEC2"
		},
		{
			"bufferView":3,
			"componentType":5126,
			"count":178,
			"type":"VEC4"
		},
		{
			"bufferView":4,
			"componentType":5123,
			"count":288,
			"type":"SCALAR"
		},
		{
			"bufferView":5,
			"componentType":5126,
			"count":68,
			"max":[
				0,
				1.5,
				0.10000002384185791
			],
			"min":[
				-2.7929110527038574,
				-1.5,
				-0.10000002384185791
			],
			"type":"VEC3"
		},
		{
			"bufferView":6,
			"componentType":5126,
			"count":68,
			"type":"VEC3"
		},
		{
			"bufferView":7,
			"componentType":5126,
			"count":68,
			"type":"VEC2"
		},
		{
			"bufferView":8,
			"componentType":5126,
			"count":68,
			"type":"VEC4"
		},
		{
			"bufferView":9,
			"componentType":5123,
			"count":120,
			"type":"SCALAR"
		},
		{
			"bufferView":10,
			"componentType":5126,
			"count":86,
			"max":[
				0.5913845300674438,
				1.5010000467300415,
				0.10000002384185791
			],
			"min":[
				-2.2485196590423584,
				-1.5010000467300415,
				-0.10000002384185791
			],
			"type":"VEC3"
		},
		{
			"bufferView":11,
			"componentType":5126,
			"count":86,
			"type":"VEC3"
		},
		{
			"bufferView":12,
			"componentType":5126,
			"count":86,
			"type":"VEC2"
		},
		{
			"bufferView":13,
			"componentType":5126,
			"count":86,
			"type":"VEC4"
		},
		{
			"bufferView":14,
			"componentType":5123,
			"count":138,
			"type":"SCALAR"
		},
		{
			"bufferView":15,
			"componentType":5126,
			"count":71,
			"max":[
				2.9166666666666665
			],
			"min":[
				0
			],
			"type":"SCALAR"
		},
		{
			"bufferView":16,
			"componentType":5126,
			"count":71,
			"type":"VEC3"
		},
		{
			"bufferView":17,
			"componentType":5126,
			"count":2,
			"max":[
				2.9166666666666665
			],
			"min":[
				0
			],
			"type":"SCALAR"
		},
		{
			"bufferView":18,
			"componentType":5126,
			"count":2,
			"type":"VEC4"
		},
		{
			"bufferView":19,
			"componentType":5126,
			"count":2,
			"type":"VEC3"
		},
		{
			"bufferView":20,
			"componentType":5126,
			"count":71,
			"type":"VEC3"
		},
		{
			"bufferView":21,
			"componentType":5126,
			"count":2,
			"type":"VEC4"
		},
		{
			"bufferView":22,
			"componentType":5126,
			"count":2,
			"type":"VEC3"
		},
		{
			"bufferView":23,
			"componentType":5126,
			"count":71,
			"type":"VEC3"
		},
		{
			"bufferView":24,
			"componentType":5126,
			"count":2,
			"type":"VEC4"
		},
		{
			"bufferView":25,
			"componentType":5126,
			"count":2,
			"type":"VEC3"
		},
		{
			"bufferView":26,
			"componentType":5126,
			"count":71,
			"type":"VEC3"
		},
		{
			"bufferView":27,
			"componentType":5126,
			"count":2,
			"type":"VEC4"
		},
		{
			"bufferView":28,
			"componentType":5126,
			"count":2,
			"type":"VEC3"
		},
		{
			"bufferView":29,
			"componentType":5126,
			"count":2,
			"type":"MAT4"
		}
	],
	"bufferViews":[
		{
			"buffer":0,
			"byteLength":2136,
			"byteOffset":0,
			"target":34962
		},
		{
			"buffer":0,
			"byteLength":2136,
			"byteOffset":2136,
			"target":34962
		},
		{
			"buffer":0,
			"byteLength":1424,
			"byteOffset":4272,
			"target":34962
		},
		{
			"buffer":0,
			"byteLength":2848,
			"byteOffset":5696,
			"target":34962
		},
		{
			"buffer":0,
			"byteLength":576,
			"byteOffset":8544,
			"target":34963
		},
		{
			"buffer":0,
			"byteLength":816,
			"byteOffset":9120,
			"target":34962
		},
		{
			"buffer":0,
			"byteLength":816,
			"byteOffset":9936,
			"target":34962
		},
		{
			"buffer":0,
			"byteLength":544,
			"byteOffset":10752,
			"target":34962
		},
		{
			"buffer":0,
			"byteLength":1088,
			"byteOffset":11296,
			"target":34962
		},
		{
			"buffer":0,
			"byteLength":240,
			"byteOffset":12384,
			"target":34963
		},
		{
			"buffer":0,
			"byteLength":1032,
			"byteOffset":12624,
			"target":34962
		},
		{
			"buffer":0,
			"byteLength":1032,
			"byteOffset":13656,
			"target":34962
		},
		{
			"buffer":0,
			"byteLength":688,
			"byteOffset":14688,
			"target":34962
		},
		{
			"buffer":0,
			"byteLength":1376,
			"byteOffset":15376,
			"target":34962
		},
		{
			"buffer":0,
			"byteLength":276,
			"byteOffset":16752,
			"target":34963
		},
		{
			"buffer":0,
			"byteLength":284,
			"byteOffset":17028
		},
		{
			"buffer":0,
			"byteLength":852,
			"byteOffset":17312
		},
		{
			"buffer":0,
			"byteLength":8,
			"byteOffset":18164
		},
		{
			"buffer":0,
			"byteLength":32,
			"byteOffset":18172
		},
		{
			"buffer":0,
			"byteLength":24,
			"byteOffset":18204
		},
		{
			"buffer":0,
			"byteLength":852,
			"byteOffset":18228
		},
		{
			"buffer":0,
			"byteLength":32,
			"byteOffset":19080
		},
		{
			"buffer":0,
			"byteLength":24,
			"byteOffset":19112
		},
		{
			"buffer":0,
			"byteLength":852,
			"byteOffset":19136
		},
		{
			"buffer":0,
			"byteLength":32,
			"byteOffset":19988
		},
		{
			"buffer":0,
			"byteLength":24,
			"byteOffset":20020
		},
		{
			"buffer":0,
			"byteLength":852,
			"byteOffset":20044
		},
		{
			"buffer":0,
			"byteLength":32,
			"byteOffset":20896
		},
		{
			"buffer":0,
			"byteLength":24,
			"byteOffset":20928
		},
		{
			"buffer":0,
			"byteLength":128,
			"byteOffset":20952
		}
	],
	"samplers":[
		{
			"magFilter":9729,
			"minFilter":9987
		}
	],
	"buffers":[
		{
			"byteLength":21080,
			"uri":"big_door-b69e99f20aef21693fe8dd1db9174ed0.bin"
		}
	]
}
