{
	"asset":{
		"generator":"Khronos glTF Blender I/O v4.4.56",
		"version":"2.0"
	},
	"scene":0,
	"scenes":[
		{
			"name":"Scene",
			"nodes":[
				0
			]
		}
	],
	"nodes":[
		{
			"mesh":0,
			"name":"Cube"
		}
	],
	"materials":[
		{
			"name":"Material.004",
			"pbrMetallicRoughness":{
				"baseColorTexture":{
					"index":0
				},
				"metallicFactor":0.14960630238056183,
				"roughnessFactor":0.6062992215156555
			}
		},
		{
			"name":"Material.006",
			"pbrMetallicRoughness":{
				"baseColorTexture":{
					"index":1
				},
				"metallicFactor":0,
				"roughnessFactor":0.5
			}
		},
		{
			"name":"Material.007",
			"pbrMetallicRoughness":{
				"baseColorTexture":{
					"index":2
				},
				"metallicFactor":0,
				"roughnessFactor":0
			}
		}
	],
	"meshes":[
		{
			"name":"Cube",
			"primitives":[
				{
					"attributes":{
						"POSITION":0,
						"NORMAL":1,
						"TEXCOORD_0":2,
						"TANGENT":3
					},
					"indices":4,
					"material":0
				},
				{
					"attributes":{
						"POSITION":5,
						"NORMAL":6,
						"TEXCOORD_0":7,
						"TANGENT":8
					},
					"indices":9,
					"material":1
				},
				{
					"attributes":{
						"POSITION":10,
						"NORMAL":11,
						"TEXCOORD_0":12,
						"TANGENT":13
					},
					"indices":14,
					"material":2
				}
			]
		}
	],
	"textures":[
		{
			"sampler":0,
			"source":0
		},
		{
			"sampler":0,
			"source":1
		},
		{
			"sampler":0,
			"source":2
		}
	],
	"images":[
		{
			"mimeType":"image/jpeg",
			"name":"keyboard.jpg",
			"uri":"../../rooms/Textures/keyboard.jpg"
		},
		{
			"mimeType":"image/jpeg",
			"name":"Keypad.jpg",
			"uri":"../../rooms/Textures/Keypad.jpg"
		},
		{
			"mimeType":"image/png",
			"name":"button.png",
			"uri":"../../rooms/Textures/button.png"
		}
	],
	"accessors":[
		{
			"bufferView":0,
			"componentType":5126,
			"count":112,
			"max":[
				0.1499999761581421,
				0.25,
				0.050000011920928955
			],
			"min":[
				-0.1499999761581421,
				-0.25,
				-0.050000011920928955
			],
			"type":"VEC3"
		},
		{
			"bufferView":1,
			"componentType":5126,
			"count":112,
			"type":"VEC3"
		},
		{
			"bufferView":2,
			"componentType":5126,
			"count":112,
			"type":"VEC2"
		},
		{
			"bufferView":3,
			"componentType":5126,
			"count":112,
			"type":"VEC4"
		},
		{
			"bufferView":4,
			"componentType":5123,
			"count":240,
			"type":"SCALAR"
		},
		{
			"bufferView":5,
			"componentType":5126,
			"count":4,
			"max":[
				0.10280478745698929,
				0.2039737105369568,
				-0.03612140566110611
			],
			"min":[
				-0.10280478745698929,
				0.047159068286418915,
				-0.03612140566110611
			],
			"type":"VEC3"
		},
		{
			"bufferView":6,
			"componentType":5126,
			"count":4,
			"type":"VEC3"
		},
		{
			"bufferView":7,
			"componentType":5126,
			"count":4,
			"type":"VEC2"
		},
		{
			"bufferView":8,
			"componentType":5126,
			"count":4,
			"type":"VEC4"
		},
		{
			"bufferView":9,
			"componentType":5123,
			"count":6,
			"type":"SCALAR"
		},
		{
			"bufferView":10,
			"componentType":5126,
			"count":36,
			"max":[
				0.0931866243481636,
				-0.01279962807893753,
				-0.021826263517141342
			],
			"min":[
				-0.09288564324378967,
				-0.19688455760478973,
				-0.0437156967818737
			],
			"type":"VEC3"
		},
		{
			"bufferView":11,
			"componentType":5126,
			"count":36,
			"type":"VEC3"
		},
		{
			"bufferView":12,
			"componentType":5126,
			"count":36,
			"type":"VEC2"
		},
		{
			"bufferView":13,
			"componentType":5126,
			"count":36,
			"type":"VEC4"
		},
		{
			"bufferView":14,
			"componentType":5123,
			"count":90,
			"type":"SCALAR"
		}
	],
	"bufferViews":[
		{
			"buffer":0,
			"byteLength":1344,
			"byteOffset":0,
			"target":34962
		},
		{
			"buffer":0,
			"byteLength":1344,
			"byteOffset":1344,
			"target":34962
		},
		{
			"buffer":0,
			"byteLength":896,
			"byteOffset":2688,
			"target":34962
		},
		{
			"buffer":0,
			"byteLength":1792,
			"byteOffset":3584,
			"target":34962
		},
		{
			"buffer":0,
			"byteLength":480,
			"byteOffset":5376,
			"target":34963
		},
		{
			"buffer":0,
			"byteLength":48,
			"byteOffset":5856,
			"target":34962
		},
		{
			"buffer":0,
			"byteLength":48,
			"byteOffset":5904,
			"target":34962
		},
		{
			"buffer":0,
			"byteLength":32,
			"byteOffset":5952,
			"target":34962
		},
		{
			"buffer":0,
			"byteLength":64,
			"byteOffset":5984,
			"target":34962
		},
		{
			"buffer":0,
			"byteLength":12,
			"byteOffset":6048,
			"target":34963
		},
		{
			"buffer":0,
			"byteLength":432,
			"byteOffset":6060,
			"target":34962
		},
		{
			"buffer":0,
			"byteLength":432,
			"byteOffset":6492,
			"target":34962
		},
		{
			"buffer":0,
			"byteLength":288,
			"byteOffset":6924,
			"target":34962
		},
		{
			"buffer":0,
			"byteLength":576,
			"byteOffset":7212,
			"target":34962
		},
		{
			"buffer":0,
			"byteLength":180,
			"byteOffset":7788,
			"target":34963
		}
	],
	"samplers":[
		{
			"magFilter":9729,
			"minFilter":9987
		}
	],
	"buffers":[
		{
			"byteLength":7968,
			"uri":"buttonold-211ff39bf2ec6f85e7704ba2232bd4c8.bin"
		}
	]
}
