{
	"asset":{
		"generator":"Khronos glTF Blender I/O v4.3.47",
		"version":"2.0"
	},
	"scene":0,
	"scenes":[
		{
			"name":"Scene",
			"nodes":[
				0
			]
		}
	],
	"nodes":[
		{
			"mesh":0,
			"name":"Cube",
			"scale":[
				0.8500000238418579,
				0.8500000238418579,
				0.8500000238418579
			]
		}
	],
	"materials":[
		{
			"name":"Material.004",
			"pbrMetallicRoughness":{
				"baseColorTexture":{
					"index":0
				},
				"metallicFactor":0.14960630238056183,
				"roughnessFactor":0.6062992215156555
			}
		},
		{
			"name":"Material.006",
			"pbrMetallicRoughness":{
				"baseColorTexture":{
					"index":1
				},
				"metallicFactor":0,
				"roughnessFactor":0.5
			}
		},
		{
			"name":"Material.008",
			"pbrMetallicRoughness":{
				"baseColorTexture":{
					"index":2
				},
				"metallicFactor":0
			}
		}
	],
	"meshes":[
		{
			"name":"Cube",
			"primitives":[
				{
					"attributes":{
						"POSITION":0,
						"NORMAL":1,
						"TEXCOORD_0":2
					},
					"indices":3,
					"material":0
				},
				{
					"attributes":{
						"POSITION":4,
						"NORMAL":5,
						"TEXCOORD_0":6
					},
					"indices":7,
					"material":1
				},
				{
					"attributes":{
						"POSITION":8,
						"NORMAL":9,
						"TEXCOORD_0":10
					},
					"indices":11,
					"material":2
				}
			]
		}
	],
	"textures":[
		{
			"sampler":0,
			"source":0
		},
		{
			"sampler":0,
			"source":1
		},
		{
			"sampler":0,
			"source":2
		}
	],
	"images":[
		{
			"mimeType":"image/jpeg",
			"name":"keyboard.jpg",
			"uri":"../../rooms/Textures/keyboard.jpg"
		},
		{
			"mimeType":"image/jpeg",
			"name":"Keypad.jpg",
			"uri":"../../rooms/Textures/Keypad.jpg"
		},
		{
			"mimeType":"image/png",
			"name":"button.png",
			"uri":"../../rooms/Textures/button.png"
		}
	],
	"accessors":[
		{
			"bufferView":0,
			"componentType":5126,
			"count":136,
			"max":[
				0.1499999761581421,
				0.25,
				0.050000011920928955
			],
			"min":[
				-0.1499999761581421,
				-0.25,
				-0.05568306893110275
			],
			"type":"VEC3"
		},
		{
			"bufferView":1,
			"componentType":5126,
			"count":136,
			"type":"VEC3"
		},
		{
			"bufferView":2,
			"componentType":5126,
			"count":136,
			"type":"VEC2"
		},
		{
			"bufferView":3,
			"componentType":5123,
			"count":288,
			"type":"SCALAR"
		},
		{
			"bufferView":4,
			"componentType":5126,
			"count":4,
			"max":[
				0.10280478745698929,
				0.2039737105369568,
				-0.03612140566110611
			],
			"min":[
				-0.10280478745698929,
				0.047159068286418915,
				-0.03612140566110611
			],
			"type":"VEC3"
		},
		{
			"bufferView":5,
			"componentType":5126,
			"count":4,
			"type":"VEC3"
		},
		{
			"bufferView":6,
			"componentType":5126,
			"count":4,
			"type":"VEC2"
		},
		{
			"bufferView":7,
			"componentType":5123,
			"count":6,
			"type":"SCALAR"
		},
		{
			"bufferView":8,
			"componentType":5126,
			"count":106,
			"max":[
				0.08382149785757065,
				-0.019406527280807495,
				-0.007303889840841293
			],
			"min":[
				-0.08382149785757065,
				-0.1870494782924652,
				-0.05568306893110275
			],
			"type":"VEC3"
		},
		{
			"bufferView":9,
			"componentType":5126,
			"count":106,
			"type":"VEC3"
		},
		{
			"bufferView":10,
			"componentType":5126,
			"count":106,
			"type":"VEC2"
		},
		{
			"bufferView":11,
			"componentType":5123,
			"count":246,
			"type":"SCALAR"
		}
	],
	"bufferViews":[
		{
			"buffer":0,
			"byteLength":1632,
			"byteOffset":0,
			"target":34962
		},
		{
			"buffer":0,
			"byteLength":1632,
			"byteOffset":1632,
			"target":34962
		},
		{
			"buffer":0,
			"byteLength":1088,
			"byteOffset":3264,
			"target":34962
		},
		{
			"buffer":0,
			"byteLength":576,
			"byteOffset":4352,
			"target":34963
		},
		{
			"buffer":0,
			"byteLength":48,
			"byteOffset":4928,
			"target":34962
		},
		{
			"buffer":0,
			"byteLength":48,
			"byteOffset":4976,
			"target":34962
		},
		{
			"buffer":0,
			"byteLength":32,
			"byteOffset":5024,
			"target":34962
		},
		{
			"buffer":0,
			"byteLength":12,
			"byteOffset":5056,
			"target":34963
		},
		{
			"buffer":0,
			"byteLength":1272,
			"byteOffset":5068,
			"target":34962
		},
		{
			"buffer":0,
			"byteLength":1272,
			"byteOffset":6340,
			"target":34962
		},
		{
			"buffer":0,
			"byteLength":848,
			"byteOffset":7612,
			"target":34962
		},
		{
			"buffer":0,
			"byteLength":492,
			"byteOffset":8460,
			"target":34963
		}
	],
	"samplers":[
		{
			"magFilter":9729,
			"minFilter":9987
		}
	],
	"buffers":[
		{
			"byteLength":8952,
			"uri":"button-af2d2d638d6ec7b5a5916b304c12506a.bin"
		}
	]
}
