{
	"asset":{
		"generator":"Khronos glTF Blender I/O v4.4.56",
		"version":"2.0"
	},
	"scene":0,
	"scenes":[
		{
			"name":"Scene",
			"nodes":[
				0
			]
		}
	],
	"nodes":[
		{
			"mesh":0,
			"name":"Cube",
			"scale":[
				0.8500000238418579,
				0.8500000238418579,
				0.8500000238418579
			]
		}
	],
	"materials":[
		{
			"name":"Material.004",
			"pbrMetallicRoughness":{
				"baseColorTexture":{
					"index":0
				},
				"metallicFactor":0.14960630238056183,
				"roughnessFactor":0.6062992215156555
			}
		},
		{
			"name":"Material.006",
			"pbrMetallicRoughness":{
				"baseColorTexture":{
					"index":1
				},
				"metallicFactor":0,
				"roughnessFactor":0.5
			}
		},
		{
			"name":"Material.008",
			"pbrMetallicRoughness":{
				"baseColorTexture":{
					"index":2
				},
				"metallicFactor":0
			}
		}
	],
	"meshes":[
		{
			"name":"Cube",
			"primitives":[
				{
					"attributes":{
						"POSITION":0,
						"NORMAL":1,
						"TEXCOORD_0":2
					},
					"indices":3,
					"material":0
				},
				{
					"attributes":{
						"POSITION":4,
						"NORMAL":5,
						"TEXCOORD_0":6
					},
					"indices":7,
					"material":1
				},
				{
					"attributes":{
						"POSITION":8,
						"NORMAL":9,
						"TEXCOORD_0":10
					},
					"indices":11,
					"material":2
				}
			]
		}
	],
	"textures":[
		{
			"sampler":0,
			"source":0
		},
		{
			"sampler":0,
			"source":1
		},
		{
			"sampler":0,
			"source":2
		}
	],
	"images":[
		{
			"mimeType":"image/jpeg",
			"name":"keyboard.jpg",
			"uri":"../../rooms/Textures/keyboard.jpg"
		},
		{
			"mimeType":"image/jpeg",
			"name":"Keypad.jpg",
			"uri":"../../rooms/Textures/Keypad.jpg"
		},
		{
			"mimeType":"image/png",
			"name":"button.png",
			"uri":"../../rooms/Textures/button.png"
		}
	],
	"accessors":[
		{
			"bufferView":0,
			"componentType":5126,
			"count":52,
			"max":[
				0.12068600207567215,
				0.030446752905845642,
				-0.009744511917233467
			],
			"min":[
				-0.12068600207567215,
				-0.22068601846694946,
				-0.05428570136427879
			],
			"type":"VEC3"
		},
		{
			"bufferView":1,
			"componentType":5126,
			"count":52,
			"type":"VEC3"
		},
		{
			"bufferView":2,
			"componentType":5126,
			"count":52,
			"type":"VEC2"
		},
		{
			"bufferView":3,
			"componentType":5123,
			"count":96,
			"type":"SCALAR"
		},
		{
			"bufferView":4,
			"componentType":5126,
			"count":122,
			"max":[
				0.14482323825359344,
				0.24460555613040924,
				0.07908647507429123
			],
			"min":[
				-0.14482323825359344,
				-0.24873651564121246,
				-0.050000011920928955
			],
			"type":"VEC3"
		},
		{
			"bufferView":5,
			"componentType":5126,
			"count":122,
			"type":"VEC3"
		},
		{
			"bufferView":6,
			"componentType":5126,
			"count":122,
			"type":"VEC2"
		},
		{
			"bufferView":7,
			"componentType":5123,
			"count":258,
			"type":"SCALAR"
		},
		{
			"bufferView":8,
			"componentType":5126,
			"count":148,
			"max":[
				0.07717181742191315,
				-0.026056207716464996,
				-0.009744511917233467
			],
			"min":[
				-0.07717181742191315,
				-0.1803998053073883,
				-0.05428570136427879
			],
			"type":"VEC3"
		},
		{
			"bufferView":9,
			"componentType":5126,
			"count":148,
			"type":"VEC3"
		},
		{
			"bufferView":10,
			"componentType":5126,
			"count":148,
			"type":"VEC2"
		},
		{
			"bufferView":11,
			"componentType":5123,
			"count":246,
			"type":"SCALAR"
		}
	],
	"bufferViews":[
		{
			"buffer":0,
			"byteLength":624,
			"byteOffset":0,
			"target":34962
		},
		{
			"buffer":0,
			"byteLength":624,
			"byteOffset":624,
			"target":34962
		},
		{
			"buffer":0,
			"byteLength":416,
			"byteOffset":1248,
			"target":34962
		},
		{
			"buffer":0,
			"byteLength":192,
			"byteOffset":1664,
			"target":34963
		},
		{
			"buffer":0,
			"byteLength":1464,
			"byteOffset":1856,
			"target":34962
		},
		{
			"buffer":0,
			"byteLength":1464,
			"byteOffset":3320,
			"target":34962
		},
		{
			"buffer":0,
			"byteLength":976,
			"byteOffset":4784,
			"target":34962
		},
		{
			"buffer":0,
			"byteLength":516,
			"byteOffset":5760,
			"target":34963
		},
		{
			"buffer":0,
			"byteLength":1776,
			"byteOffset":6276,
			"target":34962
		},
		{
			"buffer":0,
			"byteLength":1776,
			"byteOffset":8052,
			"target":34962
		},
		{
			"buffer":0,
			"byteLength":1184,
			"byteOffset":9828,
			"target":34962
		},
		{
			"buffer":0,
			"byteLength":492,
			"byteOffset":11012,
			"target":34963
		}
	],
	"samplers":[
		{
			"magFilter":9729,
			"minFilter":9987
		}
	],
	"buffers":[
		{
			"byteLength":11504,
			"uri":"button-af2d2d638d6ec7b5a5916b304c12506a.bin"
		}
	]
}
