{
	"asset":{
		"generator":"Khronos glTF Blender I/O v4.4.56",
		"version":"2.0"
	},
	"scene":0,
	"scenes":[
		{
			"name":"Scene",
			"nodes":[
				0
			]
		}
	],
	"nodes":[
		{
			"mesh":0,
			"name":"plane-col",
			"rotation":[
				0,
				0,
				0.7071068286895752,
				0.7071068286895752
			]
		}
	],
	"meshes":[
		{
			"name":"Plane",
			"primitives":[
				{
					"attributes":{
						"POSITION":0,
						"NORMAL":1,
						"TEXCOORD_0":2,
						"TANGENT":3
					},
					"indices":4
				}
			]
		}
	],
	"accessors":[
		{
			"bufferView":0,
			"componentType":5126,
			"count":680,
			"max":[
				1.5000001192092896,
				34.20000076293945,
				3.7056758403778076
			],
			"min":[
				-1.5000026226043701,
				-0.20000000298023224,
				-3.690208673477173
			],
			"type":"VEC3"
		},
		{
			"bufferView":1,
			"componentType":5126,
			"count":680,
			"type":"VEC3"
		},
		{
			"bufferView":2,
			"componentType":5126,
			"count":680,
			"type":"VEC2"
		},
		{
			"bufferView":3,
			"componentType":5126,
			"count":680,
			"type":"VEC4"
		},
		{
			"bufferView":4,
			"componentType":5123,
			"count":1284,
			"type":"SCALAR"
		}
	],
	"bufferViews":[
		{
			"buffer":0,
			"byteLength":8160,
			"byteOffset":0,
			"target":34962
		},
		{
			"buffer":0,
			"byteLength":8160,
			"byteOffset":8160,
			"target":34962
		},
		{
			"buffer":0,
			"byteLength":5440,
			"byteOffset":16320,
			"target":34962
		},
		{
			"buffer":0,
			"byteLength":10880,
			"byteOffset":21760,
			"target":34962
		},
		{
			"buffer":0,
			"byteLength":2568,
			"byteOffset":32640,
			"target":34963
		}
	],
	"buffers":[
		{
			"byteLength":35208,
			"uri":"cells-7a17559ccc845a24198d619e78e992fe.bin"
		}
	]
}
