{
	"asset":{
		"generator":"Khronos glTF Blender I/O v4.4.56",
		"version":"2.0"
	},
	"scene":0,
	"scenes":[
		{
			"name":"Scene",
			"nodes":[
				0,
				1,
				2,
				3
			]
		}
	],
	"nodes":[
		{
			"mesh":0,
			"name":"Concrete floor-col"
		},
		{
			"mesh":1,
			"name":"914",
			"scale":[
				0.9875856637954712,
				1,
				1
			],
			"translation":[
				3.7346103191375732,
				-0.32425040006637573,
				6.171441078186035
			]
		},
		{
			"mesh":2,
			"name":"Cube",
			"translation":[
				0.2482767552137375,
				-1.3122669458389282,
				5.995774745941162
			]
		},
		{
			"mesh":3,
			"name":"Fence",
			"translation":[
				7.206581115722656,
				-1.292745590209961,
				1.1714410781860352
			]
		}
	],
	"materials":[
		{
			"name":"Concrete Floor",
			"normalTexture":{
				"index":0
			},
			"pbrMetallicRoughness":{
				"baseColorTexture":{
					"index":1
				},
				"metallicFactor":0,
				"roughnessFactor":0.5
			}
		},
		{
			"name":"Material.001",
			"normalTexture":{
				"index":2
			},
			"pbrMetallicRoughness":{
				"baseColorTexture":{
					"index":3
				},
				"metallicFactor":0,
				"roughnessFactor":0.5
			}
		},
		{
			"name":"Material.007",
			"pbrMetallicRoughness":{
				"baseColorTexture":{
					"index":4
				},
				"metallicFactor":0,
				"roughnessFactor":0.5
			}
		},
		{
			"name":"Material.008",
			"pbrMetallicRoughness":{
				"baseColorTexture":{
					"index":5
				},
				"metallicFactor":0,
				"roughnessFactor":0.5
			}
		},
		{
			"alphaMode":"BLEND",
			"name":"Material.009",
			"pbrMetallicRoughness":{
				"baseColorFactor":[
					1,
					1,
					1,
					0.75
				],
				"baseColorTexture":{
					"index":6
				},
				"metallicFactor":0,
				"roughnessFactor":0.5
			}
		},
		{
			"doubleSided":true,
			"name":"Material.010",
			"pbrMetallicRoughness":{
				"metallicFactor":0,
				"roughnessFactor":0.5
			}
		},
		{
			"alphaMode":"BLEND",
			"doubleSided":true,
			"name":"Material.011",
			"pbrMetallicRoughness":{
				"baseColorTexture":{
					"index":7
				},
				"roughnessFactor":0.5
			}
		},
		{
			"doubleSided":true,
			"name":"Material.012",
			"pbrMetallicRoughness":{
				"baseColorTexture":{
					"index":8
				},
				"metallicFactor":0,
				"roughnessFactor":0.5
			}
		}
	],
	"meshes":[
		{
			"name":"Cube.002",
			"primitives":[
				{
					"attributes":{
						"POSITION":0,
						"NORMAL":1,
						"TEXCOORD_0":2,
						"TANGENT":3
					},
					"indices":4,
					"material":0
				},
				{
					"attributes":{
						"POSITION":5,
						"NORMAL":6,
						"TEXCOORD_0":7,
						"TANGENT":8
					},
					"indices":9,
					"material":1
				},
				{
					"attributes":{
						"POSITION":10,
						"NORMAL":11,
						"TEXCOORD_0":12,
						"TANGENT":13
					},
					"indices":14,
					"material":2
				},
				{
					"attributes":{
						"POSITION":15,
						"NORMAL":16,
						"TEXCOORD_0":17,
						"TANGENT":18
					},
					"indices":19,
					"material":3
				},
				{
					"attributes":{
						"POSITION":20,
						"NORMAL":21,
						"TEXCOORD_0":22,
						"TANGENT":23
					},
					"indices":24,
					"material":4
				}
			]
		},
		{
			"name":"Cube.007",
			"primitives":[
				{
					"attributes":{
						"POSITION":25,
						"NORMAL":26,
						"TEXCOORD_0":27,
						"TANGENT":28
					},
					"indices":29
				}
			]
		},
		{
			"name":"Cube.008",
			"primitives":[
				{
					"attributes":{
						"POSITION":30,
						"NORMAL":31,
						"TEXCOORD_0":32,
						"TANGENT":33
					},
					"indices":34,
					"material":5
				}
			]
		},
		{
			"name":"Cube.009",
			"primitives":[
				{
					"attributes":{
						"POSITION":35,
						"NORMAL":36,
						"TEXCOORD_0":37,
						"TANGENT":38
					},
					"indices":39,
					"material":6
				},
				{
					"attributes":{
						"POSITION":40,
						"NORMAL":41,
						"TEXCOORD_0":42,
						"TANGENT":43
					},
					"indices":44,
					"material":7
				}
			]
		}
	],
	"textures":[
		{
			"sampler":0,
			"source":0
		},
		{
			"sampler":0,
			"source":1
		},
		{
			"sampler":0,
			"source":2
		},
		{
			"sampler":0,
			"source":3
		},
		{
			"sampler":0,
			"source":4
		},
		{
			"sampler":0,
			"source":5
		},
		{
			"sampler":0,
			"source":6
		},
		{
			"sampler":0,
			"source":7
		},
		{
			"sampler":0,
			"source":8
		}
	],
	"images":[
		{
			"mimeType":"image/png",
			"name":"concrete_floor.png",
			"uri":"../../rooms/Textures/normals/concrete_floor.png"
		},
		{
			"mimeType":"image/jpeg",
			"name":"concretefloor.jpg",
			"uri":"../../rooms/Textures/concretefloor.jpg"
		},
		{
			"mimeType":"image/png",
			"name":"whitewall_specular.png",
			"uri":"../../rooms/Textures/normals/whitewall_specular.png"
		},
		{
			"mimeType":"image/jpeg",
			"name":"whitewall.jpg",
			"uri":"../../rooms/Textures/whitewall.jpg"
		},
		{
			"mimeType":"image/png",
			"name":"whitewall1.png",
			"uri":"../../rooms/Textures/whitewall1.png"
		},
		{
			"mimeType":"image/jpeg",
			"name":"ceiling.jpg",
			"uri":"../../rooms/Textures/ceiling.jpg"
		},
		{
			"mimeType":"image/png",
			"name":"glass.png",
			"uri":"../../rooms/Textures/glass.png"
		},
		{
			"mimeType":"image/png",
			"name":"fence.png",
			"uri":"../../rooms/Textures/fence.png"
		},
		{
			"mimeType":"image/jpeg",
			"name":"dirtymetal.jpg",
			"uri":"../../rooms/Textures/dirtymetal.jpg"
		}
	],
	"accessors":[
		{
			"bufferView":0,
			"componentType":5126,
			"count":61,
			"max":[
				10.899999618530273,
				3.709176540374756,
				8.597490310668945
			],
			"min":[
				-4.001103401184082,
				-1.2938364744186401,
				-7.5000319480896
			],
			"type":"VEC3"
		},
		{
			"bufferView":1,
			"componentType":5126,
			"count":61,
			"type":"VEC3"
		},
		{
			"bufferView":2,
			"componentType":5126,
			"count":61,
			"type":"VEC2"
		},
		{
			"bufferView":3,
			"componentType":5126,
			"count":61,
			"type":"VEC4"
		},
		{
			"bufferView":4,
			"componentType":5123,
			"count":132,
			"type":"SCALAR"
		},
		{
			"bufferView":5,
			"componentType":5126,
			"count":140,
			"max":[
				10.900765419006348,
				3.709176540374756,
				8.597490310668945
			],
			"min":[
				-4.001103401184082,
				-1.2938365936279297,
				-7.5000319480896
			],
			"type":"VEC3"
		},
		{
			"bufferView":6,
			"componentType":5126,
			"count":140,
			"type":"VEC3"
		},
		{
			"bufferView":7,
			"componentType":5126,
			"count":140,
			"type":"VEC2"
		},
		{
			"bufferView":8,
			"componentType":5126,
			"count":140,
			"type":"VEC4"
		},
		{
			"bufferView":9,
			"componentType":5123,
			"count":264,
			"type":"SCALAR"
		},
		{
			"bufferView":10,
			"componentType":5126,
			"count":38,
			"max":[
				10.899999618530273,
				2.209176540374756,
				8.597490310668945
			],
			"min":[
				-4.001103401184082,
				-1.2938364744186401,
				-2.790454387664795
			],
			"type":"VEC3"
		},
		{
			"bufferView":11,
			"componentType":5126,
			"count":38,
			"type":"VEC3"
		},
		{
			"bufferView":12,
			"componentType":5126,
			"count":38,
			"type":"VEC2"
		},
		{
			"bufferView":13,
			"componentType":5126,
			"count":38,
			"type":"VEC4"
		},
		{
			"bufferView":14,
			"componentType":5123,
			"count":84,
			"type":"SCALAR"
		},
		{
			"bufferView":15,
			"componentType":5126,
			"count":4,
			"max":[
				10.900765419006348,
				1.7083714008331299,
				-1.8025126457214355
			],
			"min":[
				3.900766134262085,
				1.7083712816238403,
				-7.3011250495910645
			],
			"type":"VEC3"
		},
		{
			"bufferView":16,
			"componentType":5126,
			"count":4,
			"type":"VEC3"
		},
		{
			"bufferView":17,
			"componentType":5126,
			"count":4,
			"type":"VEC2"
		},
		{
			"bufferView":18,
			"componentType":5126,
			"count":4,
			"type":"VEC4"
		},
		{
			"bufferView":19,
			"componentType":5123,
			"count":6,
			"type":"SCALAR"
		},
		{
			"bufferView":20,
			"componentType":5126,
			"count":16,
			"max":[
				10.399999618530273,
				1.2079689502716064,
				-1.5021100044250488
			],
			"min":[
				4.400765895843506,
				-0.3920310139656067,
				-1.69842529296875
			],
			"type":"VEC3"
		},
		{
			"bufferView":21,
			"componentType":5126,
			"count":16,
			"type":"VEC3"
		},
		{
			"bufferView":22,
			"componentType":5126,
			"count":16,
			"type":"VEC2"
		},
		{
			"bufferView":23,
			"componentType":5126,
			"count":16,
			"type":"VEC4"
		},
		{
			"bufferView":24,
			"componentType":5123,
			"count":24,
			"type":"SCALAR"
		},
		{
			"bufferView":25,
			"componentType":5126,
			"count":96,
			"max":[
				2.496518611907959,
				3,
				1.1659691333770752
			],
			"min":[
				-7.70530366897583,
				0,
				-0.9340315461158752
			],
			"type":"VEC3"
		},
		{
			"bufferView":26,
			"componentType":5126,
			"count":96,
			"type":"VEC3"
		},
		{
			"bufferView":27,
			"componentType":5126,
			"count":96,
			"type":"VEC2"
		},
		{
			"bufferView":28,
			"componentType":5126,
			"count":96,
			"type":"VEC4"
		},
		{
			"bufferView":29,
			"componentType":5123,
			"count":144,
			"type":"SCALAR"
		},
		{
			"bufferView":30,
			"componentType":5126,
			"count":107,
			"max":[
				6.243829727172852,
				1.0180680751800537,
				3.077742099761963
			],
			"min":[
				-4.413958549499512,
				-0.006472408771514893,
				-2.7365970611572266
			],
			"type":"VEC3"
		},
		{
			"bufferView":31,
			"componentType":5126,
			"count":107,
			"type":"VEC3"
		},
		{
			"bufferView":32,
			"componentType":5126,
			"count":107,
			"type":"VEC2"
		},
		{
			"bufferView":33,
			"componentType":5126,
			"count":107,
			"type":"VEC4"
		},
		{
			"bufferView":34,
			"componentType":5123,
			"count":162,
			"type":"SCALAR"
		},
		{
			"bufferView":35,
			"componentType":5126,
			"count":8450,
			"max":[
				-0.09179741144180298,
				2.671332836151123,
				7.300630569458008
			],
			"min":[
				-0.09179770946502686,
				0.07974780350923538,
				-2.469428777694702
			],
			"type":"VEC3"
		},
		{
			"bufferView":36,
			"componentType":5126,
			"count":8450,
			"type":"VEC3"
		},
		{
			"bufferView":37,
			"componentType":5126,
			"count":8450,
			"type":"VEC2"
		},
		{
			"bufferView":38,
			"componentType":5126,
			"count":8450,
			"type":"VEC4"
		},
		{
			"bufferView":39,
			"componentType":5123,
			"count":49152,
			"type":"SCALAR"
		},
		{
			"bufferView":40,
			"componentType":5126,
			"count":610962,
			"max":[
				-0.04994944483041763,
				2.9823474884033203,
				7.3690185546875
			],
			"min":[
				-0.15004950761795044,
				-0.014367187395691872,
				-2.550736904144287
			],
			"type":"VEC3"
		},
		{
			"bufferView":41,
			"componentType":5126,
			"count":610962,
			"type":"VEC3"
		},
		{
			"bufferView":42,
			"componentType":5126,
			"count":610962,
			"type":"VEC2"
		},
		{
			"bufferView":43,
			"componentType":5126,
			"count":610962,
			"type":"VEC4"
		},
		{
			"bufferView":44,
			"componentType":5125,
			"count":2654208,
			"type":"SCALAR"
		}
	],
	"bufferViews":[
		{
			"buffer":0,
			"byteLength":732,
			"byteOffset":0,
			"target":34962
		},
		{
			"buffer":0,
			"byteLength":732,
			"byteOffset":732,
			"target":34962
		},
		{
			"buffer":0,
			"byteLength":488,
			"byteOffset":1464,
			"target":34962
		},
		{
			"buffer":0,
			"byteLength":976,
			"byteOffset":1952,
			"target":34962
		},
		{
			"buffer":0,
			"byteLength":264,
			"byteOffset":2928,
			"target":34963
		},
		{
			"buffer":0,
			"byteLength":1680,
			"byteOffset":3192,
			"target":34962
		},
		{
			"buffer":0,
			"byteLength":1680,
			"byteOffset":4872,
			"target":34962
		},
		{
			"buffer":0,
			"byteLength":1120,
			"byteOffset":6552,
			"target":34962
		},
		{
			"buffer":0,
			"byteLength":2240,
			"byteOffset":7672,
			"target":34962
		},
		{
			"buffer":0,
			"byteLength":528,
			"byteOffset":9912,
			"target":34963
		},
		{
			"buffer":0,
			"byteLength":456,
			"byteOffset":10440,
			"target":34962
		},
		{
			"buffer":0,
			"byteLength":456,
			"byteOffset":10896,
			"target":34962
		},
		{
			"buffer":0,
			"byteLength":304,
			"byteOffset":11352,
			"target":34962
		},
		{
			"buffer":0,
			"byteLength":608,
			"byteOffset":11656,
			"target":34962
		},
		{
			"buffer":0,
			"byteLength":168,
			"byteOffset":12264,
			"target":34963
		},
		{
			"buffer":0,
			"byteLength":48,
			"byteOffset":12432,
			"target":34962
		},
		{
			"buffer":0,
			"byteLength":48,
			"byteOffset":12480,
			"target":34962
		},
		{
			"buffer":0,
			"byteLength":32,
			"byteOffset":12528,
			"target":34962
		},
		{
			"buffer":0,
			"byteLength":64,
			"byteOffset":12560,
			"target":34962
		},
		{
			"buffer":0,
			"byteLength":12,
			"byteOffset":12624,
			"target":34963
		},
		{
			"buffer":0,
			"byteLength":192,
			"byteOffset":12636,
			"target":34962
		},
		{
			"buffer":0,
			"byteLength":192,
			"byteOffset":12828,
			"target":34962
		},
		{
			"buffer":0,
			"byteLength":128,
			"byteOffset":13020,
			"target":34962
		},
		{
			"buffer":0,
			"byteLength":256,
			"byteOffset":13148,
			"target":34962
		},
		{
			"buffer":0,
			"byteLength":48,
			"byteOffset":13404,
			"target":34963
		},
		{
			"buffer":0,
			"byteLength":1152,
			"byteOffset":13452,
			"target":34962
		},
		{
			"buffer":0,
			"byteLength":1152,
			"byteOffset":14604,
			"target":34962
		},
		{
			"buffer":0,
			"byteLength":768,
			"byteOffset":15756,
			"target":34962
		},
		{
			"buffer":0,
			"byteLength":1536,
			"byteOffset":16524,
			"target":34962
		},
		{
			"buffer":0,
			"byteLength":288,
			"byteOffset":18060,
			"target":34963
		},
		{
			"buffer":0,
			"byteLength":1284,
			"byteOffset":18348,
			"target":34962
		},
		{
			"buffer":0,
			"byteLength":1284,
			"byteOffset":19632,
			"target":34962
		},
		{
			"buffer":0,
			"byteLength":856,
			"byteOffset":20916,
			"target":34962
		},
		{
			"buffer":0,
			"byteLength":1712,
			"byteOffset":21772,
			"target":34962
		},
		{
			"buffer":0,
			"byteLength":324,
			"byteOffset":23484,
			"target":34963
		},
		{
			"buffer":0,
			"byteLength":101400,
			"byteOffset":23808,
			"target":34962
		},
		{
			"buffer":0,
			"byteLength":101400,
			"byteOffset":125208,
			"target":34962
		},
		{
			"buffer":0,
			"byteLength":67600,
			"byteOffset":226608,
			"target":34962
		},
		{
			"buffer":0,
			"byteLength":135200,
			"byteOffset":294208,
			"target":34962
		},
		{
			"buffer":0,
			"byteLength":98304,
			"byteOffset":429408,
			"target":34963
		},
		{
			"buffer":0,
			"byteLength":7331544,
			"byteOffset":527712,
			"target":34962
		},
		{
			"buffer":0,
			"byteLength":7331544,
			"byteOffset":7859256,
			"target":34962
		},
		{
			"buffer":0,
			"byteLength":4887696,
			"byteOffset":15190800,
			"target":34962
		},
		{
			"buffer":0,
			"byteLength":9775392,
			"byteOffset":20078496,
			"target":34962
		},
		{
			"buffer":0,
			"byteLength":10616832,
			"byteOffset":29853888,
			"target":34963
		}
	],
	"samplers":[
		{
			"magFilter":9729,
			"minFilter":9987
		}
	],
	"buffers":[
		{
			"byteLength":40470720,
			"uri":"chamber914-5ec4e5e67ef2f35d7a730ce3970cbaa2.bin"
		}
	]
}
