{
	"asset":{
		"generator":"Khronos glTF Blender I/O v4.4.56",
		"version":"2.0"
	},
	"extensionsUsed":[
		"KHR_materials_transmission"
	],
	"scene":0,
	"scenes":[
		{
			"name":"Scene",
			"nodes":[
				0,
				1,
				2
			]
		}
	],
	"nodes":[
		{
			"mesh":0,
			"name":"room-col"
		},
		{
			"mesh":1,
			"name":"platform-col",
			"translation":[
				0.2482767552137375,
				-1.3122669458389282,
				5.995774745941162
			]
		},
		{
			"mesh":2,
			"name":"Fence-col",
			"translation":[
				7.206581115722656,
				-1.292745590209961,
				1.1714410781860352
			]
		}
	],
	"materials":[
		{
			"name":"Concrete Floor",
			"normalTexture":{
				"index":0
			},
			"pbrMetallicRoughness":{
				"baseColorTexture":{
					"index":1
				},
				"metallicFactor":0,
				"roughnessFactor":0.5
			}
		},
		{
			"name":"Material.001",
			"normalTexture":{
				"index":2
			},
			"pbrMetallicRoughness":{
				"baseColorTexture":{
					"index":3
				},
				"metallicFactor":0,
				"roughnessFactor":0.5
			}
		},
		{
			"name":"Material.007",
			"normalTexture":{
				"index":4
			},
			"pbrMetallicRoughness":{
				"baseColorTexture":{
					"index":5
				},
				"metallicFactor":0,
				"roughnessFactor":0.5
			}
		},
		{
			"name":"Material.008",
			"normalTexture":{
				"index":6
			},
			"pbrMetallicRoughness":{
				"baseColorTexture":{
					"index":7
				},
				"metallicFactor":0,
				"roughnessFactor":0.5
			}
		},
		{
			"alphaMode":"BLEND",
			"name":"Material.009",
			"pbrMetallicRoughness":{
				"baseColorFactor":[
					1,
					1,
					1,
					0.75
				],
				"baseColorTexture":{
					"index":8
				},
				"metallicFactor":0,
				"roughnessFactor":0.5
			}
		},
		{
			"doubleSided":true,
			"name":"Material.010",
			"pbrMetallicRoughness":{
				"metallicFactor":0,
				"roughnessFactor":0.5
			}
		},
		{
			"alphaMode":"BLEND",
			"doubleSided":true,
			"extensions":{
				"KHR_materials_transmission":{
					"transmissionFactor":1
				}
			},
			"name":"Material.011",
			"pbrMetallicRoughness":{
				"baseColorTexture":{
					"index":9
				},
				"roughnessFactor":0.5
			}
		},
		{
			"name":"Material.012",
			"pbrMetallicRoughness":{
				"baseColorTexture":{
					"index":10
				},
				"metallicFactor":0,
				"roughnessFactor":0.5
			}
		},
		{
			"alphaMode":"MASK",
			"doubleSided":true,
			"name":"Material",
			"pbrMetallicRoughness":{
				"baseColorFactor":[
					0.800000011920929,
					0.800000011920929,
					0.800000011920929,
					0
				],
				"metallicFactor":0,
				"roughnessFactor":0.5
			}
		}
	],
	"meshes":[
		{
			"name":"Cube.002",
			"primitives":[
				{
					"attributes":{
						"POSITION":0,
						"NORMAL":1,
						"TEXCOORD_0":2,
						"TANGENT":3
					},
					"indices":4,
					"material":0
				},
				{
					"attributes":{
						"POSITION":5,
						"NORMAL":6,
						"TEXCOORD_0":7,
						"TANGENT":8
					},
					"indices":9,
					"material":1
				},
				{
					"attributes":{
						"POSITION":10,
						"NORMAL":11,
						"TEXCOORD_0":12,
						"TANGENT":13
					},
					"indices":14,
					"material":2
				},
				{
					"attributes":{
						"POSITION":15,
						"NORMAL":16,
						"TEXCOORD_0":17,
						"TANGENT":18
					},
					"indices":19,
					"material":3
				},
				{
					"attributes":{
						"POSITION":20,
						"NORMAL":21,
						"TEXCOORD_0":22,
						"TANGENT":23
					},
					"indices":24,
					"material":4
				}
			]
		},
		{
			"name":"Cube.008",
			"primitives":[
				{
					"attributes":{
						"POSITION":25,
						"NORMAL":26,
						"TEXCOORD_0":27,
						"TANGENT":28
					},
					"indices":29,
					"material":5
				}
			]
		},
		{
			"name":"Cube.009",
			"primitives":[
				{
					"attributes":{
						"POSITION":30,
						"NORMAL":31,
						"TEXCOORD_0":32,
						"TANGENT":33
					},
					"indices":34,
					"material":6
				},
				{
					"attributes":{
						"POSITION":35,
						"NORMAL":36,
						"TEXCOORD_0":37,
						"TANGENT":38
					},
					"indices":39,
					"material":7
				},
				{
					"attributes":{
						"POSITION":40,
						"NORMAL":41,
						"TEXCOORD_0":42,
						"TANGENT":43
					},
					"indices":44,
					"material":8
				}
			]
		}
	],
	"textures":[
		{
			"sampler":0,
			"source":0
		},
		{
			"sampler":0,
			"source":1
		},
		{
			"sampler":0,
			"source":2
		},
		{
			"sampler":0,
			"source":3
		},
		{
			"sampler":0,
			"source":4
		},
		{
			"sampler":0,
			"source":5
		},
		{
			"sampler":0,
			"source":6
		},
		{
			"sampler":0,
			"source":7
		},
		{
			"sampler":0,
			"source":8
		},
		{
			"sampler":0,
			"source":9
		},
		{
			"sampler":0,
			"source":10
		}
	],
	"images":[
		{
			"mimeType":"image/png",
			"name":"concrete_floor.png",
			"uri":"../../rooms/Textures/normals/concrete_floor.png"
		},
		{
			"mimeType":"image/jpeg",
			"name":"concretefloor.jpg",
			"uri":"../../rooms/Textures/concretefloor.jpg"
		},
		{
			"mimeType":"image/png",
			"name":"whitewall_specular.png",
			"uri":"../../rooms/Textures/normals/whitewall_specular.png"
		},
		{
			"mimeType":"image/jpeg",
			"name":"whitewall.jpg",
			"uri":"../../rooms/Textures/whitewall.jpg"
		},
		{
			"mimeType":"image/png",
			"name":"whitewall1_specular.png",
			"uri":"../../rooms/textures/normals/whitewall1_specular.png"
		},
		{
			"mimeType":"image/png",
			"name":"whitewall1.png",
			"uri":"../../rooms/Textures/whitewall1.png"
		},
		{
			"mimeType":"image/png",
			"name":"tile_ceiling.png",
			"uri":"../../rooms/textures/normals/tile_ceiling.png"
		},
		{
			"mimeType":"image/jpeg",
			"name":"ceiling.jpg",
			"uri":"../../rooms/textures/ceiling.jpg"
		},
		{
			"mimeType":"image/png",
			"name":"glass.png",
			"uri":"../../rooms/Textures/glass.png"
		},
		{
			"mimeType":"image/png",
			"name":"fence.png",
			"uri":"../../rooms/textures/fence.png"
		},
		{
			"mimeType":"image/jpeg",
			"name":"dirtymetal.jpg",
			"uri":"../../rooms/Textures/dirtymetal.jpg"
		}
	],
	"accessors":[
		{
			"bufferView":0,
			"componentType":5126,
			"count":69,
			"max":[
				10.899999618530273,
				4.7089080810546875,
				8.597490310668945
			],
			"min":[
				-4.001103401184082,
				-1.2938364744186401,
				-7.5000319480896
			],
			"type":"VEC3"
		},
		{
			"bufferView":1,
			"componentType":5126,
			"count":69,
			"type":"VEC3"
		},
		{
			"bufferView":2,
			"componentType":5126,
			"count":69,
			"type":"VEC2"
		},
		{
			"bufferView":3,
			"componentType":5126,
			"count":69,
			"type":"VEC4"
		},
		{
			"bufferView":4,
			"componentType":5123,
			"count":156,
			"type":"SCALAR"
		},
		{
			"bufferView":5,
			"componentType":5126,
			"count":148,
			"max":[
				10.900765419006348,
				4.7089080810546875,
				8.597490310668945
			],
			"min":[
				-4.001103401184082,
				-1.2938365936279297,
				-7.5000319480896
			],
			"type":"VEC3"
		},
		{
			"bufferView":6,
			"componentType":5126,
			"count":148,
			"type":"VEC3"
		},
		{
			"bufferView":7,
			"componentType":5126,
			"count":148,
			"type":"VEC2"
		},
		{
			"bufferView":8,
			"componentType":5126,
			"count":148,
			"type":"VEC4"
		},
		{
			"bufferView":9,
			"componentType":5123,
			"count":276,
			"type":"SCALAR"
		},
		{
			"bufferView":10,
			"componentType":5126,
			"count":42,
			"max":[
				10.899999618530273,
				2.209176540374756,
				8.597490310668945
			],
			"min":[
				-4.001103401184082,
				-1.2938364744186401,
				-2.790454387664795
			],
			"type":"VEC3"
		},
		{
			"bufferView":11,
			"componentType":5126,
			"count":42,
			"type":"VEC3"
		},
		{
			"bufferView":12,
			"componentType":5126,
			"count":42,
			"type":"VEC2"
		},
		{
			"bufferView":13,
			"componentType":5126,
			"count":42,
			"type":"VEC4"
		},
		{
			"bufferView":14,
			"componentType":5123,
			"count":96,
			"type":"SCALAR"
		},
		{
			"bufferView":15,
			"componentType":5126,
			"count":4,
			"max":[
				10.900765419006348,
				1.7083714008331299,
				-1.8025126457214355
			],
			"min":[
				3.900766134262085,
				1.7083712816238403,
				-7.3011250495910645
			],
			"type":"VEC3"
		},
		{
			"bufferView":16,
			"componentType":5126,
			"count":4,
			"type":"VEC3"
		},
		{
			"bufferView":17,
			"componentType":5126,
			"count":4,
			"type":"VEC2"
		},
		{
			"bufferView":18,
			"componentType":5126,
			"count":4,
			"type":"VEC4"
		},
		{
			"bufferView":19,
			"componentType":5123,
			"count":6,
			"type":"SCALAR"
		},
		{
			"bufferView":20,
			"componentType":5126,
			"count":16,
			"max":[
				10.399999618530273,
				1.2079689502716064,
				-1.5021100044250488
			],
			"min":[
				4.400765895843506,
				-0.3920310139656067,
				-1.69842529296875
			],
			"type":"VEC3"
		},
		{
			"bufferView":21,
			"componentType":5126,
			"count":16,
			"type":"VEC3"
		},
		{
			"bufferView":22,
			"componentType":5126,
			"count":16,
			"type":"VEC2"
		},
		{
			"bufferView":23,
			"componentType":5126,
			"count":16,
			"type":"VEC4"
		},
		{
			"bufferView":24,
			"componentType":5123,
			"count":24,
			"type":"SCALAR"
		},
		{
			"bufferView":25,
			"componentType":5126,
			"count":105,
			"max":[
				7.224477291107178,
				1.0180680751800537,
				3.077742099761963
			],
			"min":[
				-4.413958549499512,
				-0.006472408771514893,
				-2.3976733684539795
			],
			"type":"VEC3"
		},
		{
			"bufferView":26,
			"componentType":5126,
			"count":105,
			"type":"VEC3"
		},
		{
			"bufferView":27,
			"componentType":5126,
			"count":105,
			"type":"VEC2"
		},
		{
			"bufferView":28,
			"componentType":5126,
			"count":105,
			"type":"VEC4"
		},
		{
			"bufferView":29,
			"componentType":5123,
			"count":162,
			"type":"SCALAR"
		},
		{
			"bufferView":30,
			"componentType":5126,
			"count":8,
			"max":[
				0.412720263004303,
				2.671332597732544,
				7.300629615783691
			],
			"min":[
				0.4070442020893097,
				0.07974779605865479,
				-2.469428539276123
			],
			"type":"VEC3"
		},
		{
			"bufferView":31,
			"componentType":5126,
			"count":8,
			"type":"VEC3"
		},
		{
			"bufferView":32,
			"componentType":5126,
			"count":8,
			"type":"VEC2"
		},
		{
			"bufferView":33,
			"componentType":5126,
			"count":8,
			"type":"VEC4"
		},
		{
			"bufferView":34,
			"componentType":5123,
			"count":12,
			"type":"SCALAR"
		},
		{
			"bufferView":35,
			"componentType":5126,
			"count":354,
			"max":[
				0.45456820726394653,
				2.982347011566162,
				7.369017124176025
			],
			"min":[
				0.3487924337387085,
				-0.014367185533046722,
				-2.550736427307129
			],
			"type":"VEC3"
		},
		{
			"bufferView":36,
			"componentType":5126,
			"count":354,
			"type":"VEC3"
		},
		{
			"bufferView":37,
			"componentType":5126,
			"count":354,
			"type":"VEC2"
		},
		{
			"bufferView":38,
			"componentType":5126,
			"count":354,
			"type":"VEC4"
		},
		{
			"bufferView":39,
			"componentType":5123,
			"count":648,
			"type":"SCALAR"
		},
		{
			"bufferView":40,
			"componentType":5126,
			"count":44,
			"max":[
				0.43184277415275574,
				2.660971164703369,
				7.484832763671875
			],
			"min":[
				0.37868931889533997,
				-0.013149738311767578,
				-2.4665796756744385
			],
			"type":"VEC3"
		},
		{
			"bufferView":41,
			"componentType":5126,
			"count":44,
			"type":"VEC3"
		},
		{
			"bufferView":42,
			"componentType":5126,
			"count":44,
			"type":"VEC2"
		},
		{
			"bufferView":43,
			"componentType":5126,
			"count":44,
			"type":"VEC4"
		},
		{
			"bufferView":44,
			"componentType":5123,
			"count":66,
			"type":"SCALAR"
		}
	],
	"bufferViews":[
		{
			"buffer":0,
			"byteLength":828,
			"byteOffset":0,
			"target":34962
		},
		{
			"buffer":0,
			"byteLength":828,
			"byteOffset":828,
			"target":34962
		},
		{
			"buffer":0,
			"byteLength":552,
			"byteOffset":1656,
			"target":34962
		},
		{
			"buffer":0,
			"byteLength":1104,
			"byteOffset":2208,
			"target":34962
		},
		{
			"buffer":0,
			"byteLength":312,
			"byteOffset":3312,
			"target":34963
		},
		{
			"buffer":0,
			"byteLength":1776,
			"byteOffset":3624,
			"target":34962
		},
		{
			"buffer":0,
			"byteLength":1776,
			"byteOffset":5400,
			"target":34962
		},
		{
			"buffer":0,
			"byteLength":1184,
			"byteOffset":7176,
			"target":34962
		},
		{
			"buffer":0,
			"byteLength":2368,
			"byteOffset":8360,
			"target":34962
		},
		{
			"buffer":0,
			"byteLength":552,
			"byteOffset":10728,
			"target":34963
		},
		{
			"buffer":0,
			"byteLength":504,
			"byteOffset":11280,
			"target":34962
		},
		{
			"buffer":0,
			"byteLength":504,
			"byteOffset":11784,
			"target":34962
		},
		{
			"buffer":0,
			"byteLength":336,
			"byteOffset":12288,
			"target":34962
		},
		{
			"buffer":0,
			"byteLength":672,
			"byteOffset":12624,
			"target":34962
		},
		{
			"buffer":0,
			"byteLength":192,
			"byteOffset":13296,
			"target":34963
		},
		{
			"buffer":0,
			"byteLength":48,
			"byteOffset":13488,
			"target":34962
		},
		{
			"buffer":0,
			"byteLength":48,
			"byteOffset":13536,
			"target":34962
		},
		{
			"buffer":0,
			"byteLength":32,
			"byteOffset":13584,
			"target":34962
		},
		{
			"buffer":0,
			"byteLength":64,
			"byteOffset":13616,
			"target":34962
		},
		{
			"buffer":0,
			"byteLength":12,
			"byteOffset":13680,
			"target":34963
		},
		{
			"buffer":0,
			"byteLength":192,
			"byteOffset":13692,
			"target":34962
		},
		{
			"buffer":0,
			"byteLength":192,
			"byteOffset":13884,
			"target":34962
		},
		{
			"buffer":0,
			"byteLength":128,
			"byteOffset":14076,
			"target":34962
		},
		{
			"buffer":0,
			"byteLength":256,
			"byteOffset":14204,
			"target":34962
		},
		{
			"buffer":0,
			"byteLength":48,
			"byteOffset":14460,
			"target":34963
		},
		{
			"buffer":0,
			"byteLength":1260,
			"byteOffset":14508,
			"target":34962
		},
		{
			"buffer":0,
			"byteLength":1260,
			"byteOffset":15768,
			"target":34962
		},
		{
			"buffer":0,
			"byteLength":840,
			"byteOffset":17028,
			"target":34962
		},
		{
			"buffer":0,
			"byteLength":1680,
			"byteOffset":17868,
			"target":34962
		},
		{
			"buffer":0,
			"byteLength":324,
			"byteOffset":19548,
			"target":34963
		},
		{
			"buffer":0,
			"byteLength":96,
			"byteOffset":19872,
			"target":34962
		},
		{
			"buffer":0,
			"byteLength":96,
			"byteOffset":19968,
			"target":34962
		},
		{
			"buffer":0,
			"byteLength":64,
			"byteOffset":20064,
			"target":34962
		},
		{
			"buffer":0,
			"byteLength":128,
			"byteOffset":20128,
			"target":34962
		},
		{
			"buffer":0,
			"byteLength":24,
			"byteOffset":20256,
			"target":34963
		},
		{
			"buffer":0,
			"byteLength":4248,
			"byteOffset":20280,
			"target":34962
		},
		{
			"buffer":0,
			"byteLength":4248,
			"byteOffset":24528,
			"target":34962
		},
		{
			"buffer":0,
			"byteLength":2832,
			"byteOffset":28776,
			"target":34962
		},
		{
			"buffer":0,
			"byteLength":5664,
			"byteOffset":31608,
			"target":34962
		},
		{
			"buffer":0,
			"byteLength":1296,
			"byteOffset":37272,
			"target":34963
		},
		{
			"buffer":0,
			"byteLength":528,
			"byteOffset":38568,
			"target":34962
		},
		{
			"buffer":0,
			"byteLength":528,
			"byteOffset":39096,
			"target":34962
		},
		{
			"buffer":0,
			"byteLength":352,
			"byteOffset":39624,
			"target":34962
		},
		{
			"buffer":0,
			"byteLength":704,
			"byteOffset":39976,
			"target":34962
		},
		{
			"buffer":0,
			"byteLength":132,
			"byteOffset":40680,
			"target":34963
		}
	],
	"samplers":[
		{
			"magFilter":9729,
			"minFilter":9987
		}
	],
	"buffers":[
		{
			"byteLength":40812,
			"uri":"chamber914-c7945f081fa993134d81ef2bc5d96d79.bin"
		}
	]
}
