{
	"asset":{
		"generator":"Khronos glTF Blender I/O v4.4.56",
		"version":"2.0"
	},
	"scene":0,
	"scenes":[
		{
			"name":"Scene",
			"nodes":[
				0
			]
		}
	],
	"nodes":[
		{
			"mesh":0,
			"name":"Cube-col.001",
			"translation":[
				0,
				0.3199999928474426,
				0
			]
		}
	],
	"materials":[
		{
			"name":"Material.006",
			"pbrMetallicRoughness":{
				"baseColorTexture":{
					"index":0
				},
				"metallicFactor":0,
				"roughnessFactor":0.5
			}
		}
	],
	"meshes":[
		{
			"name":"Cube",
			"primitives":[
				{
					"attributes":{
						"POSITION":0,
						"NORMAL":1,
						"TEXCOORD_0":2,
						"TANGENT":3
					},
					"indices":4,
					"material":0
				}
			]
		}
	],
	"textures":[
		{
			"sampler":0,
			"source":0
		}
	],
	"images":[
		{
			"mimeType":"image/png",
			"name":"concrete_wall_006_diff_2k.png",
			"uri":"../../rooms/Textures/concrete_wall_006_diff_2k.png"
		}
	],
	"accessors":[
		{
			"bufferView":0,
			"componentType":5126,
			"count":193,
			"max":[
				19.27544593811035,
				4.503671169281006,
				7.275445938110352
			],
			"min":[
				-7.475445747375488,
				-1.5200130939483643,
				-7.475445747375488
			],
			"type":"VEC3"
		},
		{
			"bufferView":1,
			"componentType":5126,
			"count":193,
			"type":"VEC3"
		},
		{
			"bufferView":2,
			"componentType":5126,
			"count":193,
			"type":"VEC2"
		},
		{
			"bufferView":3,
			"componentType":5126,
			"count":193,
			"type":"VEC4"
		},
		{
			"bufferView":4,
			"componentType":5123,
			"count":444,
			"type":"SCALAR"
		}
	],
	"bufferViews":[
		{
			"buffer":0,
			"byteLength":2316,
			"byteOffset":0,
			"target":34962
		},
		{
			"buffer":0,
			"byteLength":2316,
			"byteOffset":2316,
			"target":34962
		},
		{
			"buffer":0,
			"byteLength":1544,
			"byteOffset":4632,
			"target":34962
		},
		{
			"buffer":0,
			"byteLength":3088,
			"byteOffset":6176,
			"target":34962
		},
		{
			"buffer":0,
			"byteLength":888,
			"byteOffset":9264,
			"target":34963
		}
	],
	"samplers":[
		{
			"magFilter":9729,
			"minFilter":9987
		}
	],
	"buffers":[
		{
			"byteLength":10152,
			"uri":"chamber173-5130cb4fd1bac35379c4aa8850677ffd.bin"
		}
	]
}
