{
	"asset":{
		"generator":"Khronos glTF Blender I/O v4.4.56",
		"version":"2.0"
	},
	"scene":0,
	"scenes":[
		{
			"name":"Scene",
			"nodes":[
				0,
				1
			]
		}
	],
	"nodes":[
		{
			"mesh":0,
			"name":"Cube"
		},
		{
			"name":"Empty",
			"rotation":[
				0.7071068286895752,
				0,
				0,
				0.7071068286895752
			],
			"scale":[
				0.4312000870704651,
				0.440000057220459,
				0.4312000870704651
			],
			"translation":[
				-0.5095693469047546,
				0,
				0
			]
		}
	],
	"materials":[
		{
			"doubleSided":true,
			"name":"Material",
			"pbrMetallicRoughness":{
				"baseColorTexture":{
					"index":0
				},
				"metallicFactor":0,
				"roughnessFactor":0.5
			}
		},
		{
			"doubleSided":true,
			"name":"Material.001",
			"pbrMetallicRoughness":{
				"baseColorTexture":{
					"index":1
				},
				"metallicFactor":0,
				"roughnessFactor":0.5
			}
		},
		{
			"doubleSided":true,
			"name":"Material.002",
			"pbrMetallicRoughness":{
				"baseColorTexture":{
					"index":2
				},
				"metallicFactor":0,
				"roughnessFactor":0.5
			}
		}
	],
	"meshes":[
		{
			"name":"Cube",
			"primitives":[
				{
					"attributes":{
						"POSITION":0,
						"NORMAL":1,
						"TEXCOORD_0":2,
						"TANGENT":3
					},
					"indices":4,
					"material":0
				},
				{
					"attributes":{
						"POSITION":5,
						"NORMAL":6,
						"TEXCOORD_0":7,
						"TANGENT":8
					},
					"indices":9,
					"material":1
				},
				{
					"attributes":{
						"POSITION":10,
						"NORMAL":11,
						"TEXCOORD_0":12,
						"TANGENT":13
					},
					"indices":14,
					"material":2
				}
			]
		}
	],
	"textures":[
		{
			"sampler":0,
			"source":0
		},
		{
			"sampler":0,
			"source":1
		},
		{
			"sampler":0,
			"source":1
		}
	],
	"images":[
		{
			"mimeType":"image/png",
			"name":"clothes.png",
			"uri":"../../entities/player/models/textures/clothes.png"
		},
		{
			"mimeType":"image/png",
			"name":"face001.png",
			"uri":"../../entities/player/models/textures/face001.png"
		}
	],
	"accessors":[
		{
			"bufferView":0,
			"componentType":5126,
			"count":512,
			"max":[
				0.4165986478328705,
				0.6829807162284851,
				0.21616971492767334
			],
			"min":[
				-0.39867547154426575,
				-0.7872155904769897,
				-0.10342773050069809
			],
			"type":"VEC3"
		},
		{
			"bufferView":1,
			"componentType":5126,
			"count":512,
			"type":"VEC3"
		},
		{
			"bufferView":2,
			"componentType":5126,
			"count":512,
			"type":"VEC2"
		},
		{
			"bufferView":3,
			"componentType":5126,
			"count":512,
			"type":"VEC4"
		},
		{
			"bufferView":4,
			"componentType":5123,
			"count":1806,
			"type":"SCALAR"
		},
		{
			"bufferView":5,
			"componentType":5126,
			"count":363,
			"max":[
				0.10084880888462067,
				0.974192202091217,
				0.23886758089065552
			],
			"min":[
				-0.08068446069955826,
				0.6521603465080261,
				-0.03492695838212967
			],
			"type":"VEC3"
		},
		{
			"bufferView":6,
			"componentType":5126,
			"count":363,
			"type":"VEC3"
		},
		{
			"bufferView":7,
			"componentType":5126,
			"count":363,
			"type":"VEC2"
		},
		{
			"bufferView":8,
			"componentType":5126,
			"count":363,
			"type":"VEC4"
		},
		{
			"bufferView":9,
			"componentType":5123,
			"count":1464,
			"type":"SCALAR"
		},
		{
			"bufferView":10,
			"componentType":5126,
			"count":249,
			"max":[
				0.39936739206314087,
				0.21439941227436066,
				0.17344385385513306
			],
			"min":[
				-0.38109487295150757,
				-0.254190593957901,
				-0.07090403139591217
			],
			"type":"VEC3"
		},
		{
			"bufferView":11,
			"componentType":5126,
			"count":249,
			"type":"VEC3"
		},
		{
			"bufferView":12,
			"componentType":5126,
			"count":249,
			"type":"VEC2"
		},
		{
			"bufferView":13,
			"componentType":5126,
			"count":249,
			"type":"VEC4"
		},
		{
			"bufferView":14,
			"componentType":5123,
			"count":1008,
			"type":"SCALAR"
		}
	],
	"bufferViews":[
		{
			"buffer":0,
			"byteLength":6144,
			"byteOffset":0,
			"target":34962
		},
		{
			"buffer":0,
			"byteLength":6144,
			"byteOffset":6144,
			"target":34962
		},
		{
			"buffer":0,
			"byteLength":4096,
			"byteOffset":12288,
			"target":34962
		},
		{
			"buffer":0,
			"byteLength":8192,
			"byteOffset":16384,
			"target":34962
		},
		{
			"buffer":0,
			"byteLength":3612,
			"byteOffset":24576,
			"target":34963
		},
		{
			"buffer":0,
			"byteLength":4356,
			"byteOffset":28188,
			"target":34962
		},
		{
			"buffer":0,
			"byteLength":4356,
			"byteOffset":32544,
			"target":34962
		},
		{
			"buffer":0,
			"byteLength":2904,
			"byteOffset":36900,
			"target":34962
		},
		{
			"buffer":0,
			"byteLength":5808,
			"byteOffset":39804,
			"target":34962
		},
		{
			"buffer":0,
			"byteLength":2928,
			"byteOffset":45612,
			"target":34963
		},
		{
			"buffer":0,
			"byteLength":2988,
			"byteOffset":48540,
			"target":34962
		},
		{
			"buffer":0,
			"byteLength":2988,
			"byteOffset":51528,
			"target":34962
		},
		{
			"buffer":0,
			"byteLength":1992,
			"byteOffset":54516,
			"target":34962
		},
		{
			"buffer":0,
			"byteLength":3984,
			"byteOffset":56508,
			"target":34962
		},
		{
			"buffer":0,
			"byteLength":2016,
			"byteOffset":60492,
			"target":34963
		}
	],
	"samplers":[
		{
			"magFilter":9729,
			"minFilter":9987
		}
	],
	"buffers":[
		{
			"byteLength":62508,
			"uri":"class_d001-37691817ccb9de260a03293d80131253.bin"
		}
	]
}
