{
	"asset":{
		"generator":"Khronos glTF Blender I/O v4.4.56",
		"version":"2.0"
	},
	"scene":0,
	"scenes":[
		{
			"name":"Scene",
			"nodes":[
				0,
				1
			]
		}
	],
	"nodes":[
		{
			"mesh":0,
			"name":"Cube"
		},
		{
			"name":"Empty",
			"rotation":[
				0.7071068286895752,
				0,
				0,
				0.7071068286895752
			],
			"scale":[
				0.4312000870704651,
				0.440000057220459,
				0.4312000870704651
			],
			"translation":[
				-0.5095693469047546,
				0,
				0
			]
		}
	],
	"materials":[
		{
			"doubleSided":true,
			"name":"Material",
			"pbrMetallicRoughness":{
				"baseColorTexture":{
					"index":0
				},
				"metallicFactor":0,
				"roughnessFactor":0.5
			}
		},
		{
			"doubleSided":true,
			"name":"Material.001",
			"pbrMetallicRoughness":{
				"baseColorTexture":{
					"index":1
				},
				"metallicFactor":0,
				"roughnessFactor":0.5
			}
		}
	],
	"meshes":[
		{
			"name":"Cube",
			"primitives":[
				{
					"attributes":{
						"POSITION":0,
						"NORMAL":1,
						"TEXCOORD_0":2,
						"TANGENT":3
					},
					"indices":4,
					"material":0
				},
				{
					"attributes":{
						"POSITION":5,
						"NORMAL":6,
						"TEXCOORD_0":7,
						"TANGENT":8
					},
					"indices":9,
					"material":1
				}
			]
		}
	],
	"textures":[
		{
			"sampler":0,
			"source":0
		},
		{
			"sampler":0,
			"source":1
		}
	],
	"images":[
		{
			"mimeType":"image/png",
			"name":"clothes.png",
			"uri":"../../entities/player/models/textures/clothes.png"
		},
		{
			"mimeType":"image/png",
			"name":"face001.png",
			"uri":"../../entities/player/models/textures/face001.png"
		}
	],
	"accessors":[
		{
			"bufferView":0,
			"componentType":5126,
			"count":807,
			"max":[
				0.4165986478328705,
				0.6717683672904968,
				0.21616971492767334
			],
			"min":[
				-0.39867547154426575,
				-0.7872155904769897,
				-0.10342773050069809
			],
			"type":"VEC3"
		},
		{
			"bufferView":1,
			"componentType":5126,
			"count":807,
			"type":"VEC3"
		},
		{
			"bufferView":2,
			"componentType":5126,
			"count":807,
			"type":"VEC2"
		},
		{
			"bufferView":3,
			"componentType":5126,
			"count":807,
			"type":"VEC4"
		},
		{
			"bufferView":4,
			"componentType":5123,
			"count":2784,
			"type":"SCALAR"
		},
		{
			"bufferView":5,
			"componentType":5126,
			"count":185,
			"max":[
				0.1138000637292862,
				0.9799518585205078,
				0.23388661444187164
			],
			"min":[
				-0.09637463092803955,
				0.6547279357910156,
				-0.03559654951095581
			],
			"type":"VEC3"
		},
		{
			"bufferView":6,
			"componentType":5126,
			"count":185,
			"type":"VEC3"
		},
		{
			"bufferView":7,
			"componentType":5126,
			"count":185,
			"type":"VEC2"
		},
		{
			"bufferView":8,
			"componentType":5126,
			"count":185,
			"type":"VEC4"
		},
		{
			"bufferView":9,
			"componentType":5123,
			"count":720,
			"type":"SCALAR"
		}
	],
	"bufferViews":[
		{
			"buffer":0,
			"byteLength":9684,
			"byteOffset":0,
			"target":34962
		},
		{
			"buffer":0,
			"byteLength":9684,
			"byteOffset":9684,
			"target":34962
		},
		{
			"buffer":0,
			"byteLength":6456,
			"byteOffset":19368,
			"target":34962
		},
		{
			"buffer":0,
			"byteLength":12912,
			"byteOffset":25824,
			"target":34962
		},
		{
			"buffer":0,
			"byteLength":5568,
			"byteOffset":38736,
			"target":34963
		},
		{
			"buffer":0,
			"byteLength":2220,
			"byteOffset":44304,
			"target":34962
		},
		{
			"buffer":0,
			"byteLength":2220,
			"byteOffset":46524,
			"target":34962
		},
		{
			"buffer":0,
			"byteLength":1480,
			"byteOffset":48744,
			"target":34962
		},
		{
			"buffer":0,
			"byteLength":2960,
			"byteOffset":50224,
			"target":34962
		},
		{
			"buffer":0,
			"byteLength":1440,
			"byteOffset":53184,
			"target":34963
		}
	],
	"samplers":[
		{
			"magFilter":9729,
			"minFilter":9987
		}
	],
	"buffers":[
		{
			"byteLength":54624,
			"uri":"class_d001-37691817ccb9de260a03293d80131253.bin"
		}
	]
}
