{
	"asset":{
		"generator":"Khronos glTF Blender I/O v4.3.47",
		"version":"2.0"
	},
	"scene":0,
	"scenes":[
		{
			"name":"Scene",
			"nodes":[
				0
			]
		}
	],
	"nodes":[
		{
			"mesh":0,
			"name":"tower"
		}
	],
	"materials":[
		{
			"doubleSided":true,
			"name":"Material.002",
			"pbrMetallicRoughness":{
				"baseColorTexture":{
					"index":0
				},
				"metallicFactor":0,
				"roughnessFactor":0.5
			}
		},
		{
			"doubleSided":true,
			"name":"Material.003",
			"pbrMetallicRoughness":{
				"baseColorTexture":{
					"index":1
				},
				"metallicFactor":0,
				"roughnessFactor":0.5
			}
		},
		{
			"doubleSided":true,
			"name":"Material.006",
			"pbrMetallicRoughness":{
				"baseColorTexture":{
					"index":2
				},
				"metallicFactor":0,
				"roughnessFactor":0.5
			}
		},
		{
			"doubleSided":true,
			"name":"Material.007",
			"pbrMetallicRoughness":{
				"baseColorTexture":{
					"index":3
				},
				"metallicFactor":0,
				"roughnessFactor":0.5
			}
		}
	],
	"meshes":[
		{
			"name":"Cube.001",
			"primitives":[
				{
					"attributes":{
						"POSITION":0,
						"NORMAL":1,
						"TEXCOORD_0":2,
						"TANGENT":3
					},
					"indices":4,
					"material":0
				},
				{
					"attributes":{
						"POSITION":5,
						"NORMAL":6,
						"TEXCOORD_0":7,
						"TANGENT":8
					},
					"indices":9,
					"material":1
				},
				{
					"attributes":{
						"POSITION":10,
						"NORMAL":11,
						"TEXCOORD_0":12,
						"TANGENT":13
					},
					"indices":14,
					"material":2
				},
				{
					"attributes":{
						"POSITION":15,
						"NORMAL":16,
						"TEXCOORD_0":17,
						"TANGENT":18
					},
					"indices":19,
					"material":3
				}
			]
		}
	],
	"textures":[
		{
			"sampler":0,
			"source":0
		},
		{
			"sampler":0,
			"source":1
		},
		{
			"sampler":0,
			"source":2
		},
		{
			"sampler":0,
			"source":1
		}
	],
	"images":[
		{
			"mimeType":"image/jpeg",
			"name":"ElecBox.jpg",
			"uri":"../../rooms/Textures/ElecBox.jpg"
		},
		{
			"mimeType":"image/jpeg",
			"name":"controlpanel.jpg",
			"uri":"../../rooms/Textures/controlpanel.jpg"
		},
		{
			"mimeType":"image/png",
			"name":"computer back.png",
			"uri":"../../rooms/Textures/computer%20back.png"
		}
	],
	"accessors":[
		{
			"bufferView":0,
			"componentType":5126,
			"count":12,
			"max":[
				0.12445938587188721,
				0.43667900562286377,
				0.19145295023918152
			],
			"min":[
				-0.12531650066375732,
				-0.12332093715667725,
				-0.3514257073402405
			],
			"type":"VEC3"
		},
		{
			"bufferView":1,
			"componentType":5126,
			"count":12,
			"type":"VEC3"
		},
		{
			"bufferView":2,
			"componentType":5126,
			"count":12,
			"type":"VEC2"
		},
		{
			"bufferView":3,
			"componentType":5126,
			"count":12,
			"type":"VEC4"
		},
		{
			"bufferView":4,
			"componentType":5123,
			"count":18,
			"type":"SCALAR"
		},
		{
			"bufferView":5,
			"componentType":5126,
			"count":48,
			"max":[
				0.12445938587188721,
				0.43667900562286377,
				0.20432543754577637
			],
			"min":[
				-0.12531650066375732,
				-0.12332093715667725,
				-0.3514257073402405
			],
			"type":"VEC3"
		},
		{
			"bufferView":6,
			"componentType":5126,
			"count":48,
			"type":"VEC3"
		},
		{
			"bufferView":7,
			"componentType":5126,
			"count":48,
			"type":"VEC2"
		},
		{
			"bufferView":8,
			"componentType":5126,
			"count":48,
			"type":"VEC4"
		},
		{
			"bufferView":9,
			"componentType":5123,
			"count":72,
			"type":"SCALAR"
		},
		{
			"bufferView":10,
			"componentType":5126,
			"count":4,
			"max":[
				0.12445938587188721,
				0.43667900562286377,
				-0.3514257073402405
			],
			"min":[
				-0.12531650066375732,
				-0.12332093715667725,
				-0.3514257073402405
			],
			"type":"VEC3"
		},
		{
			"bufferView":11,
			"componentType":5126,
			"count":4,
			"type":"VEC3"
		},
		{
			"bufferView":12,
			"componentType":5126,
			"count":4,
			"type":"VEC2"
		},
		{
			"bufferView":13,
			"componentType":5126,
			"count":4,
			"type":"VEC4"
		},
		{
			"bufferView":14,
			"componentType":5123,
			"count":6,
			"type":"SCALAR"
		},
		{
			"bufferView":15,
			"componentType":5126,
			"count":80,
			"max":[
				0.10672634840011597,
				-0.12227466702461243,
				0.1751215159893036
			],
			"min":[
				-0.10608357191085815,
				-0.14845910668373108,
				-0.33244457840919495
			],
			"type":"VEC3"
		},
		{
			"bufferView":16,
			"componentType":5126,
			"count":80,
			"type":"VEC3"
		},
		{
			"bufferView":17,
			"componentType":5126,
			"count":80,
			"type":"VEC2"
		},
		{
			"bufferView":18,
			"componentType":5126,
			"count":80,
			"type":"VEC4"
		},
		{
			"bufferView":19,
			"componentType":5123,
			"count":120,
			"type":"SCALAR"
		}
	],
	"bufferViews":[
		{
			"buffer":0,
			"byteLength":144,
			"byteOffset":0,
			"target":34962
		},
		{
			"buffer":0,
			"byteLength":144,
			"byteOffset":144,
			"target":34962
		},
		{
			"buffer":0,
			"byteLength":96,
			"byteOffset":288,
			"target":34962
		},
		{
			"buffer":0,
			"byteLength":192,
			"byteOffset":384,
			"target":34962
		},
		{
			"buffer":0,
			"byteLength":36,
			"byteOffset":576,
			"target":34963
		},
		{
			"buffer":0,
			"byteLength":576,
			"byteOffset":612,
			"target":34962
		},
		{
			"buffer":0,
			"byteLength":576,
			"byteOffset":1188,
			"target":34962
		},
		{
			"buffer":0,
			"byteLength":384,
			"byteOffset":1764,
			"target":34962
		},
		{
			"buffer":0,
			"byteLength":768,
			"byteOffset":2148,
			"target":34962
		},
		{
			"buffer":0,
			"byteLength":144,
			"byteOffset":2916,
			"target":34963
		},
		{
			"buffer":0,
			"byteLength":48,
			"byteOffset":3060,
			"target":34962
		},
		{
			"buffer":0,
			"byteLength":48,
			"byteOffset":3108,
			"target":34962
		},
		{
			"buffer":0,
			"byteLength":32,
			"byteOffset":3156,
			"target":34962
		},
		{
			"buffer":0,
			"byteLength":64,
			"byteOffset":3188,
			"target":34962
		},
		{
			"buffer":0,
			"byteLength":12,
			"byteOffset":3252,
			"target":34963
		},
		{
			"buffer":0,
			"byteLength":960,
			"byteOffset":3264,
			"target":34962
		},
		{
			"buffer":0,
			"byteLength":960,
			"byteOffset":4224,
			"target":34962
		},
		{
			"buffer":0,
			"byteLength":640,
			"byteOffset":5184,
			"target":34962
		},
		{
			"buffer":0,
			"byteLength":1280,
			"byteOffset":5824,
			"target":34962
		},
		{
			"buffer":0,
			"byteLength":240,
			"byteOffset":7104,
			"target":34963
		}
	],
	"samplers":[
		{
			"magFilter":9729,
			"minFilter":9987
		}
	],
	"buffers":[
		{
			"byteLength":7344,
			"uri":"computer_tower-439be2ecb1b1acdef3cc085b40be02c0.bin"
		}
	]
}
