{
	"asset":{
		"generator":"Khronos glTF Blender I/O v4.3.47",
		"version":"2.0"
	},
	"scene":0,
	"scenes":[
		{
			"name":"Scene",
			"nodes":[
				0
			]
		}
	],
	"nodes":[
		{
			"mesh":0,
			"name":"monitor"
		}
	],
	"materials":[
		{
			"doubleSided":true,
			"name":"Material",
			"pbrMetallicRoughness":{
				"baseColorTexture":{
					"index":0
				},
				"metallicFactor":0,
				"roughnessFactor":0.5
			}
		},
		{
			"doubleSided":true,
			"name":"Material.001",
			"pbrMetallicRoughness":{
				"baseColorTexture":{
					"index":1
				},
				"metallicFactor":0,
				"roughnessFactor":0.5
			}
		}
	],
	"meshes":[
		{
			"name":"Cube",
			"primitives":[
				{
					"attributes":{
						"POSITION":0,
						"NORMAL":1,
						"TEXCOORD_0":2
					},
					"indices":3,
					"material":0
				},
				{
					"attributes":{
						"POSITION":4,
						"NORMAL":5,
						"TEXCOORD_0":6
					},
					"indices":7,
					"material":1
				}
			]
		}
	],
	"textures":[
		{
			"sampler":0,
			"source":0
		},
		{
			"sampler":0,
			"source":1
		}
	],
	"images":[
		{
			"mimeType":"image/jpeg",
			"name":"flat_monitor.jpg",
			"uri":"../../rooms/Textures/flat_monitor.jpg"
		},
		{
			"mimeType":"image/jpeg",
			"name":"controlpanel.jpg",
			"uri":"../../rooms/Textures/controlpanel.jpg"
		}
	],
	"accessors":[
		{
			"bufferView":0,
			"componentType":5126,
			"count":56,
			"max":[
				0.36000001430511475,
				0.2160000205039978,
				0.07939525693655014
			],
			"min":[
				-0.36000001430511475,
				-0.34541410207748413,
				-0.15117211639881134
			],
			"type":"VEC3"
		},
		{
			"bufferView":1,
			"componentType":5126,
			"count":56,
			"type":"VEC3"
		},
		{
			"bufferView":2,
			"componentType":5126,
			"count":56,
			"type":"VEC2"
		},
		{
			"bufferView":3,
			"componentType":5123,
			"count":108,
			"type":"SCALAR"
		},
		{
			"bufferView":4,
			"componentType":5126,
			"count":56,
			"max":[
				0.36000001430511475,
				0.2160000205039978,
				0.07939525693655014
			],
			"min":[
				-0.36000001430511475,
				-0.34541410207748413,
				-0.15117211639881134
			],
			"type":"VEC3"
		},
		{
			"bufferView":5,
			"componentType":5126,
			"count":56,
			"type":"VEC3"
		},
		{
			"bufferView":6,
			"componentType":5126,
			"count":56,
			"type":"VEC2"
		},
		{
			"bufferView":7,
			"componentType":5123,
			"count":138,
			"type":"SCALAR"
		}
	],
	"bufferViews":[
		{
			"buffer":0,
			"byteLength":672,
			"byteOffset":0,
			"target":34962
		},
		{
			"buffer":0,
			"byteLength":672,
			"byteOffset":672,
			"target":34962
		},
		{
			"buffer":0,
			"byteLength":448,
			"byteOffset":1344,
			"target":34962
		},
		{
			"buffer":0,
			"byteLength":216,
			"byteOffset":1792,
			"target":34963
		},
		{
			"buffer":0,
			"byteLength":672,
			"byteOffset":2008,
			"target":34962
		},
		{
			"buffer":0,
			"byteLength":672,
			"byteOffset":2680,
			"target":34962
		},
		{
			"buffer":0,
			"byteLength":448,
			"byteOffset":3352,
			"target":34962
		},
		{
			"buffer":0,
			"byteLength":276,
			"byteOffset":3800,
			"target":34963
		}
	],
	"samplers":[
		{
			"magFilter":9729,
			"minFilter":9987
		}
	],
	"buffers":[
		{
			"byteLength":4076,
			"uri":"computer_monitor-91be11d4c7013656a6bba9dfd62cbfe4.bin"
		}
	]
}
