{
	"asset":{
		"generator":"Khronos glTF Blender I/O v4.3.47",
		"version":"2.0"
	},
	"scene":0,
	"scenes":[
		{
			"name":"Scene",
			"nodes":[
				0,
				5
			]
		}
	],
	"nodes":[
		{
			"mesh":0,
			"name":"doorframe"
		},
		{
			"mesh":1,
			"name":"doorside2.col",
			"rotation":[
				0,
				0,
				0.7071067690849304,
				0.7071067690849304
			],
			"translation":[
				1.5000001192092896,
				-2.384185791015625e-07,
				0
			]
		},
		{
			"children":[
				1
			],
			"name":"Bone"
		},
		{
			"mesh":2,
			"name":"doorside1.col",
			"rotation":[
				0.7071067690849304,
				-0.7071067690849304,
				-2.6692537957728746e-08,
				2.6692536181371906e-08
			],
			"translation":[
				1.5,
				-1.1920928955078125e-07,
				-1.1324685544877866e-07
			]
		},
		{
			"children":[
				3
			],
			"name":"Bone.001",
			"rotation":[
				1,
				-3.774895063202166e-08,
				-3.774895063202166e-08,
				0
			]
		},
		{
			"children":[
				2,
				4
			],
			"name":"Armature",
			"rotation":[
				0,
				0,
				-0.7071068286895752,
				0.7071068286895752
			],
			"translation":[
				0,
				1.5,
				0
			]
		}
	],
	"animations":[
		{
			"channels":[
				{
					"sampler":0,
					"target":{
						"node":2,
						"path":"translation"
					}
				},
				{
					"sampler":1,
					"target":{
						"node":2,
						"path":"rotation"
					}
				},
				{
					"sampler":2,
					"target":{
						"node":2,
						"path":"scale"
					}
				},
				{
					"sampler":3,
					"target":{
						"node":4,
						"path":"translation"
					}
				},
				{
					"sampler":4,
					"target":{
						"node":4,
						"path":"rotation"
					}
				},
				{
					"sampler":5,
					"target":{
						"node":4,
						"path":"scale"
					}
				}
			],
			"name":"close",
			"samplers":[
				{
					"input":20,
					"interpolation":"LINEAR",
					"output":21
				},
				{
					"input":22,
					"interpolation":"STEP",
					"output":23
				},
				{
					"input":22,
					"interpolation":"STEP",
					"output":24
				},
				{
					"input":20,
					"interpolation":"LINEAR",
					"output":25
				},
				{
					"input":22,
					"interpolation":"STEP",
					"output":26
				},
				{
					"input":22,
					"interpolation":"STEP",
					"output":27
				}
			]
		},
		{
			"channels":[
				{
					"sampler":0,
					"target":{
						"node":2,
						"path":"translation"
					}
				},
				{
					"sampler":1,
					"target":{
						"node":2,
						"path":"rotation"
					}
				},
				{
					"sampler":2,
					"target":{
						"node":2,
						"path":"scale"
					}
				},
				{
					"sampler":3,
					"target":{
						"node":4,
						"path":"translation"
					}
				},
				{
					"sampler":4,
					"target":{
						"node":4,
						"path":"rotation"
					}
				},
				{
					"sampler":5,
					"target":{
						"node":4,
						"path":"scale"
					}
				}
			],
			"name":"open",
			"samplers":[
				{
					"input":20,
					"interpolation":"LINEAR",
					"output":28
				},
				{
					"input":22,
					"interpolation":"STEP",
					"output":29
				},
				{
					"input":22,
					"interpolation":"STEP",
					"output":30
				},
				{
					"input":20,
					"interpolation":"LINEAR",
					"output":31
				},
				{
					"input":22,
					"interpolation":"STEP",
					"output":32
				},
				{
					"input":22,
					"interpolation":"STEP",
					"output":33
				}
			]
		}
	],
	"materials":[
		{
			"name":"door.001",
			"normalTexture":{
				"index":0
			},
			"pbrMetallicRoughness":{
				"baseColorTexture":{
					"index":1
				},
				"metallicFactor":0,
				"roughnessFactor":0.5
			}
		},
		{
			"name":"door.002",
			"normalTexture":{
				"index":2
			},
			"pbrMetallicRoughness":{
				"baseColorTexture":{
					"index":3
				},
				"metallicFactor":0,
				"roughnessFactor":0.5
			}
		}
	],
	"meshes":[
		{
			"name":"Plane.001",
			"primitives":[
				{
					"attributes":{
						"POSITION":0,
						"NORMAL":1,
						"TEXCOORD_0":2,
						"TANGENT":3
					},
					"indices":4,
					"material":0
				}
			]
		},
		{
			"name":"Plane.003",
			"primitives":[
				{
					"attributes":{
						"POSITION":5,
						"NORMAL":6,
						"TEXCOORD_0":7,
						"TANGENT":8
					},
					"indices":9,
					"material":1
				}
			]
		},
		{
			"name":"Plane.004",
			"primitives":[
				{
					"attributes":{
						"POSITION":10,
						"NORMAL":11,
						"TEXCOORD_0":12,
						"TANGENT":13
					},
					"indices":14,
					"material":1
				},
				{
					"attributes":{
						"POSITION":15,
						"NORMAL":16,
						"TEXCOORD_0":17,
						"TANGENT":18
					},
					"indices":19,
					"material":0
				}
			]
		}
	],
	"textures":[
		{
			"sampler":0,
			"source":0
		},
		{
			"sampler":0,
			"source":1
		},
		{
			"sampler":0,
			"source":0
		},
		{
			"sampler":0,
			"source":2
		}
	],
	"images":[
		{
			"mimeType":"image/png",
			"name":"Door01_normal.png",
			"uri":"../../rooms/Textures/normals/Door01_normal.png"
		},
		{
			"mimeType":"image/jpeg",
			"name":"Door01.jpg.001",
			"uri":"../../rooms/Textures/Door01.jpg"
		},
		{
			"mimeType":"image/jpeg",
			"name":"Door01.jpg.002",
			"uri":"../../rooms/Textures/Door01.jpg"
		}
	],
	"skins":[
		{
			"inverseBindMatrices":34,
			"joints":[
				2,
				4
			],
			"name":"Armature"
		}
	],
	"accessors":[
		{
			"bufferView":0,
			"componentType":5126,
			"count":48,
			"max":[
				0.75,
				1.25,
				0.15000012516975403
			],
			"min":[
				-0.75,
				-1.2000000476837158,
				-0.15000003576278687
			],
			"type":"VEC3"
		},
		{
			"bufferView":1,
			"componentType":5126,
			"count":48,
			"type":"VEC3"
		},
		{
			"bufferView":2,
			"componentType":5126,
			"count":48,
			"type":"VEC2"
		},
		{
			"bufferView":3,
			"componentType":5126,
			"count":48,
			"type":"VEC4"
		},
		{
			"bufferView":4,
			"componentType":5123,
			"count":72,
			"type":"SCALAR"
		},
		{
			"bufferView":5,
			"componentType":5126,
			"count":325,
			"max":[
				0.6510000228881836,
				1.1548409461975098,
				0.013142742216587067
			],
			"min":[
				-0.7359277606010437,
				-1.1865272521972656,
				-0.07325015962123871
			],
			"type":"VEC3"
		},
		{
			"bufferView":6,
			"componentType":5126,
			"count":325,
			"type":"VEC3"
		},
		{
			"bufferView":7,
			"componentType":5126,
			"count":325,
			"type":"VEC2"
		},
		{
			"bufferView":8,
			"componentType":5126,
			"count":325,
			"type":"VEC4"
		},
		{
			"bufferView":9,
			"componentType":5123,
			"count":558,
			"type":"SCALAR"
		},
		{
			"bufferView":10,
			"componentType":5126,
			"count":72,
			"max":[
				0.7344629168510437,
				0.7441620826721191,
				0.026750028133392334
			],
			"min":[
				-0.5785984396934509,
				-1.1865272521972656,
				-0.013235263526439667
			],
			"type":"VEC3"
		},
		{
			"bufferView":11,
			"componentType":5126,
			"count":72,
			"type":"VEC3"
		},
		{
			"bufferView":12,
			"componentType":5126,
			"count":72,
			"type":"VEC2"
		},
		{
			"bufferView":13,
			"componentType":5126,
			"count":72,
			"type":"VEC4"
		},
		{
			"bufferView":14,
			"componentType":5123,
			"count":114,
			"type":"SCALAR"
		},
		{
			"bufferView":15,
			"componentType":5126,
			"count":262,
			"max":[
				0.6510000228881836,
				1.1548410654067993,
				0.07325005531311035
			],
			"min":[
				-0.6510000228881836,
				-1.1865272521972656,
				-0.013235263526439667
			],
			"type":"VEC3"
		},
		{
			"bufferView":16,
			"componentType":5126,
			"count":262,
			"type":"VEC3"
		},
		{
			"bufferView":17,
			"componentType":5126,
			"count":262,
			"type":"VEC2"
		},
		{
			"bufferView":18,
			"componentType":5126,
			"count":262,
			"type":"VEC4"
		},
		{
			"bufferView":19,
			"componentType":5123,
			"count":642,
			"type":"SCALAR"
		},
		{
			"bufferView":20,
			"componentType":5126,
			"count":31,
			"max":[
				1.25
			],
			"min":[
				0
			],
			"type":"SCALAR"
		},
		{
			"bufferView":21,
			"componentType":5126,
			"count":31,
			"type":"VEC3"
		},
		{
			"bufferView":22,
			"componentType":5126,
			"count":2,
			"max":[
				1.25
			],
			"min":[
				0
			],
			"type":"SCALAR"
		},
		{
			"bufferView":23,
			"componentType":5126,
			"count":2,
			"type":"VEC4"
		},
		{
			"bufferView":24,
			"componentType":5126,
			"count":2,
			"type":"VEC3"
		},
		{
			"bufferView":25,
			"componentType":5126,
			"count":31,
			"type":"VEC3"
		},
		{
			"bufferView":26,
			"componentType":5126,
			"count":2,
			"type":"VEC4"
		},
		{
			"bufferView":27,
			"componentType":5126,
			"count":2,
			"type":"VEC3"
		},
		{
			"bufferView":28,
			"componentType":5126,
			"count":31,
			"type":"VEC3"
		},
		{
			"bufferView":29,
			"componentType":5126,
			"count":2,
			"type":"VEC4"
		},
		{
			"bufferView":30,
			"componentType":5126,
			"count":2,
			"type":"VEC3"
		},
		{
			"bufferView":31,
			"componentType":5126,
			"count":31,
			"type":"VEC3"
		},
		{
			"bufferView":32,
			"componentType":5126,
			"count":2,
			"type":"VEC4"
		},
		{
			"bufferView":33,
			"componentType":5126,
			"count":2,
			"type":"VEC3"
		},
		{
			"bufferView":34,
			"componentType":5126,
			"count":2,
			"type":"MAT4"
		}
	],
	"bufferViews":[
		{
			"buffer":0,
			"byteLength":576,
			"byteOffset":0,
			"target":34962
		},
		{
			"buffer":0,
			"byteLength":576,
			"byteOffset":576,
			"target":34962
		},
		{
			"buffer":0,
			"byteLength":384,
			"byteOffset":1152,
			"target":34962
		},
		{
			"buffer":0,
			"byteLength":768,
			"byteOffset":1536,
			"target":34962
		},
		{
			"buffer":0,
			"byteLength":144,
			"byteOffset":2304,
			"target":34963
		},
		{
			"buffer":0,
			"byteLength":3900,
			"byteOffset":2448,
			"target":34962
		},
		{
			"buffer":0,
			"byteLength":3900,
			"byteOffset":6348,
			"target":34962
		},
		{
			"buffer":0,
			"byteLength":2600,
			"byteOffset":10248,
			"target":34962
		},
		{
			"buffer":0,
			"byteLength":5200,
			"byteOffset":12848,
			"target":34962
		},
		{
			"buffer":0,
			"byteLength":1116,
			"byteOffset":18048,
			"target":34963
		},
		{
			"buffer":0,
			"byteLength":864,
			"byteOffset":19164,
			"target":34962
		},
		{
			"buffer":0,
			"byteLength":864,
			"byteOffset":20028,
			"target":34962
		},
		{
			"buffer":0,
			"byteLength":576,
			"byteOffset":20892,
			"target":34962
		},
		{
			"buffer":0,
			"byteLength":1152,
			"byteOffset":21468,
			"target":34962
		},
		{
			"buffer":0,
			"byteLength":228,
			"byteOffset":22620,
			"target":34963
		},
		{
			"buffer":0,
			"byteLength":3144,
			"byteOffset":22848,
			"target":34962
		},
		{
			"buffer":0,
			"byteLength":3144,
			"byteOffset":25992,
			"target":34962
		},
		{
			"buffer":0,
			"byteLength":2096,
			"byteOffset":29136,
			"target":34962
		},
		{
			"buffer":0,
			"byteLength":4192,
			"byteOffset":31232,
			"target":34962
		},
		{
			"buffer":0,
			"byteLength":1284,
			"byteOffset":35424,
			"target":34963
		},
		{
			"buffer":0,
			"byteLength":124,
			"byteOffset":36708
		},
		{
			"buffer":0,
			"byteLength":372,
			"byteOffset":36832
		},
		{
			"buffer":0,
			"byteLength":8,
			"byteOffset":37204
		},
		{
			"buffer":0,
			"byteLength":32,
			"byteOffset":37212
		},
		{
			"buffer":0,
			"byteLength":24,
			"byteOffset":37244
		},
		{
			"buffer":0,
			"byteLength":372,
			"byteOffset":37268
		},
		{
			"buffer":0,
			"byteLength":32,
			"byteOffset":37640
		},
		{
			"buffer":0,
			"byteLength":24,
			"byteOffset":37672
		},
		{
			"buffer":0,
			"byteLength":372,
			"byteOffset":37696
		},
		{
			"buffer":0,
			"byteLength":32,
			"byteOffset":38068
		},
		{
			"buffer":0,
			"byteLength":24,
			"byteOffset":38100
		},
		{
			"buffer":0,
			"byteLength":372,
			"byteOffset":38124
		},
		{
			"buffer":0,
			"byteLength":32,
			"byteOffset":38496
		},
		{
			"buffer":0,
			"byteLength":24,
			"byteOffset":38528
		},
		{
			"buffer":0,
			"byteLength":128,
			"byteOffset":38552
		}
	],
	"samplers":[
		{
			"magFilter":9729,
			"minFilter":9987
		}
	],
	"buffers":[
		{
			"byteLength":38680,
			"uri":"door-8e7962c4ffc507756338dc4c7f998de2.bin"
		}
	]
}
