{
	"asset":{
		"generator":"Khronos glTF Blender I/O v4.3.47",
		"version":"2.0"
	},
	"scene":0,
	"scenes":[
		{
			"name":"Scene",
			"nodes":[
				0,
				1
			]
		}
	],
	"nodes":[
		{
			"mesh":0,
			"name":"elevator-col"
		},
		{
			"mesh":1,
			"name":"rails"
		}
	],
	"materials":[
		{
			"name":"Material.003",
			"pbrMetallicRoughness":{
				"baseColorTexture":{
					"index":0
				},
				"metallicFactor":0,
				"roughnessFactor":0.5
			}
		},
		{
			"name":"Material.004",
			"pbrMetallicRoughness":{
				"baseColorTexture":{
					"index":1
				},
				"metallicFactor":0,
				"roughnessFactor":0.5
			}
		},
		{
			"name":"Material.005",
			"pbrMetallicRoughness":{
				"baseColorTexture":{
					"index":2
				},
				"metallicFactor":0,
				"roughnessFactor":0.5
			}
		},
		{
			"doubleSided":true,
			"name":"Material.006",
			"pbrMetallicRoughness":{
				"baseColorTexture":{
					"index":3
				},
				"metallicFactor":0,
				"roughnessFactor":0.5
			}
		}
	],
	"meshes":[
		{
			"name":"Cube.002",
			"primitives":[
				{
					"attributes":{
						"POSITION":0,
						"NORMAL":1,
						"TEXCOORD_0":2,
						"TANGENT":3
					},
					"indices":4,
					"material":0
				},
				{
					"attributes":{
						"POSITION":5,
						"NORMAL":6,
						"TEXCOORD_0":7,
						"TANGENT":8
					},
					"indices":9,
					"material":1
				},
				{
					"attributes":{
						"POSITION":10,
						"NORMAL":11,
						"TEXCOORD_0":12,
						"TANGENT":13
					},
					"indices":14,
					"material":2
				}
			]
		},
		{
			"name":"Cylinder",
			"primitives":[
				{
					"attributes":{
						"POSITION":15,
						"NORMAL":16,
						"TEXCOORD_0":17,
						"TANGENT":18
					},
					"indices":19,
					"material":3
				}
			]
		}
	],
	"textures":[
		{
			"sampler":0,
			"source":0
		},
		{
			"sampler":0,
			"source":1
		},
		{
			"sampler":0,
			"source":2
		},
		{
			"sampler":0,
			"source":3
		}
	],
	"images":[
		{
			"mimeType":"image/jpeg",
			"name":"metal3.jpg",
			"uri":"../../rooms/Textures/metal3.jpg"
		},
		{
			"mimeType":"image/jpeg",
			"name":"metal_darker.jpg",
			"uri":"../../rooms/Textures/metal_darker.jpg"
		},
		{
			"mimeType":"image/jpeg",
			"name":"crtbev.jpg",
			"uri":"../../rooms/Textures/crtbev.jpg"
		},
		{
			"mimeType":"image/jpeg",
			"name":"dirtymetal.jpg",
			"uri":"../../rooms/Textures/dirtymetal.jpg"
		}
	],
	"accessors":[
		{
			"bufferView":0,
			"componentType":5126,
			"count":12,
			"max":[
				1.7517058849334717,
				-1.2161180973052979,
				1.07692289352417
			],
			"min":[
				-1.7517058849334717,
				-1.2161182165145874,
				-2.623076915740967
			],
			"type":"VEC3"
		},
		{
			"bufferView":1,
			"componentType":5126,
			"count":12,
			"type":"VEC3"
		},
		{
			"bufferView":2,
			"componentType":5126,
			"count":12,
			"type":"VEC2"
		},
		{
			"bufferView":3,
			"componentType":5126,
			"count":12,
			"type":"VEC4"
		},
		{
			"bufferView":4,
			"componentType":5123,
			"count":30,
			"type":"SCALAR"
		},
		{
			"bufferView":5,
			"componentType":5126,
			"count":36,
			"max":[
				1.7517058849334717,
				2.283881902694702,
				1.07692289352417
			],
			"min":[
				-1.7517058849334717,
				-0.2144530862569809,
				-2.623076915740967
			],
			"type":"VEC3"
		},
		{
			"bufferView":6,
			"componentType":5126,
			"count":36,
			"type":"VEC3"
		},
		{
			"bufferView":7,
			"componentType":5126,
			"count":36,
			"type":"VEC2"
		},
		{
			"bufferView":8,
			"componentType":5126,
			"count":36,
			"type":"VEC4"
		},
		{
			"bufferView":9,
			"componentType":5123,
			"count":60,
			"type":"SCALAR"
		},
		{
			"bufferView":10,
			"componentType":5126,
			"count":28,
			"max":[
				1.7517058849334717,
				-0.2130153775215149,
				1.07692289352417
			],
			"min":[
				-1.7517058849334717,
				-1.2161182165145874,
				-2.623076915740967
			],
			"type":"VEC3"
		},
		{
			"bufferView":11,
			"componentType":5126,
			"count":28,
			"type":"VEC3"
		},
		{
			"bufferView":12,
			"componentType":5126,
			"count":28,
			"type":"VEC2"
		},
		{
			"bufferView":13,
			"componentType":5126,
			"count":28,
			"type":"VEC4"
		},
		{
			"bufferView":14,
			"componentType":5123,
			"count":42,
			"type":"SCALAR"
		},
		{
			"bufferView":15,
			"componentType":5126,
			"count":160,
			"max":[
				1.80837082862854,
				-0.1644522249698639,
				0.9036813974380493
			],
			"min":[
				-1.80837082862854,
				-0.42083030939102173,
				-2.6419239044189453
			],
			"type":"VEC3"
		},
		{
			"bufferView":16,
			"componentType":5126,
			"count":160,
			"type":"VEC3"
		},
		{
			"bufferView":17,
			"componentType":5126,
			"count":160,
			"type":"VEC2"
		},
		{
			"bufferView":18,
			"componentType":5126,
			"count":160,
			"type":"VEC4"
		},
		{
			"bufferView":19,
			"componentType":5123,
			"count":240,
			"type":"SCALAR"
		}
	],
	"bufferViews":[
		{
			"buffer":0,
			"byteLength":144,
			"byteOffset":0,
			"target":34962
		},
		{
			"buffer":0,
			"byteLength":144,
			"byteOffset":144,
			"target":34962
		},
		{
			"buffer":0,
			"byteLength":96,
			"byteOffset":288,
			"target":34962
		},
		{
			"buffer":0,
			"byteLength":192,
			"byteOffset":384,
			"target":34962
		},
		{
			"buffer":0,
			"byteLength":60,
			"byteOffset":576,
			"target":34963
		},
		{
			"buffer":0,
			"byteLength":432,
			"byteOffset":636,
			"target":34962
		},
		{
			"buffer":0,
			"byteLength":432,
			"byteOffset":1068,
			"target":34962
		},
		{
			"buffer":0,
			"byteLength":288,
			"byteOffset":1500,
			"target":34962
		},
		{
			"buffer":0,
			"byteLength":576,
			"byteOffset":1788,
			"target":34962
		},
		{
			"buffer":0,
			"byteLength":120,
			"byteOffset":2364,
			"target":34963
		},
		{
			"buffer":0,
			"byteLength":336,
			"byteOffset":2484,
			"target":34962
		},
		{
			"buffer":0,
			"byteLength":336,
			"byteOffset":2820,
			"target":34962
		},
		{
			"buffer":0,
			"byteLength":224,
			"byteOffset":3156,
			"target":34962
		},
		{
			"buffer":0,
			"byteLength":448,
			"byteOffset":3380,
			"target":34962
		},
		{
			"buffer":0,
			"byteLength":84,
			"byteOffset":3828,
			"target":34963
		},
		{
			"buffer":0,
			"byteLength":1920,
			"byteOffset":3912,
			"target":34962
		},
		{
			"buffer":0,
			"byteLength":1920,
			"byteOffset":5832,
			"target":34962
		},
		{
			"buffer":0,
			"byteLength":1280,
			"byteOffset":7752,
			"target":34962
		},
		{
			"buffer":0,
			"byteLength":2560,
			"byteOffset":9032,
			"target":34962
		},
		{
			"buffer":0,
			"byteLength":480,
			"byteOffset":11592,
			"target":34963
		}
	],
	"samplers":[
		{
			"magFilter":9729,
			"minFilter":9987
		}
	],
	"buffers":[
		{
			"byteLength":12072,
			"uri":"elevator-9f5f11ddcf47a60fa8ab1247d424719d.bin"
		}
	]
}
