{
	"asset":{
		"generator":"Khronos glTF Blender I/O v4.3.47",
		"version":"2.0"
	},
	"scene":0,
	"scenes":[
		{
			"name":"Scene",
			"nodes":[
				0,
				5
			]
		}
	],
	"nodes":[
		{
			"mesh":0,
			"name":"doorframe"
		},
		{
			"mesh":1,
			"name":"doorside2-col",
			"rotation":[
				0,
				0,
				0.7071067690849304,
				0.7071067690849304
			],
			"translation":[
				1.5,
				-1.1920928955078125e-07,
				0
			]
		},
		{
			"children":[
				1
			],
			"name":"Bone"
		},
		{
			"mesh":2,
			"name":"doorside1-col",
			"rotation":[
				-2.6692537957728746e-08,
				8.007761920225676e-08,
				0.7071067690849304,
				0.7071067690849304
			],
			"translation":[
				1.5,
				-0.010599911212921143,
				-1.1324685544877866e-07
			]
		},
		{
			"children":[
				3
			],
			"name":"Bone.001",
			"rotation":[
				1,
				-3.774895063202166e-08,
				-3.774895063202166e-08,
				0
			]
		},
		{
			"children":[
				2,
				4
			],
			"name":"Armature",
			"rotation":[
				0,
				0,
				-0.7071068286895752,
				0.7071068286895752
			],
			"translation":[
				0,
				1.5,
				0
			]
		}
	],
	"animations":[
		{
			"channels":[
				{
					"sampler":0,
					"target":{
						"node":2,
						"path":"translation"
					}
				},
				{
					"sampler":1,
					"target":{
						"node":2,
						"path":"rotation"
					}
				},
				{
					"sampler":2,
					"target":{
						"node":2,
						"path":"scale"
					}
				},
				{
					"sampler":3,
					"target":{
						"node":4,
						"path":"translation"
					}
				},
				{
					"sampler":4,
					"target":{
						"node":4,
						"path":"rotation"
					}
				},
				{
					"sampler":5,
					"target":{
						"node":4,
						"path":"scale"
					}
				}
			],
			"name":"close",
			"samplers":[
				{
					"input":20,
					"interpolation":"LINEAR",
					"output":21
				},
				{
					"input":22,
					"interpolation":"STEP",
					"output":23
				},
				{
					"input":22,
					"interpolation":"STEP",
					"output":24
				},
				{
					"input":20,
					"interpolation":"LINEAR",
					"output":25
				},
				{
					"input":22,
					"interpolation":"STEP",
					"output":26
				},
				{
					"input":22,
					"interpolation":"STEP",
					"output":27
				}
			]
		},
		{
			"channels":[
				{
					"sampler":0,
					"target":{
						"node":2,
						"path":"translation"
					}
				},
				{
					"sampler":1,
					"target":{
						"node":2,
						"path":"rotation"
					}
				},
				{
					"sampler":2,
					"target":{
						"node":2,
						"path":"scale"
					}
				},
				{
					"sampler":3,
					"target":{
						"node":4,
						"path":"translation"
					}
				},
				{
					"sampler":4,
					"target":{
						"node":4,
						"path":"rotation"
					}
				},
				{
					"sampler":5,
					"target":{
						"node":4,
						"path":"scale"
					}
				}
			],
			"name":"open",
			"samplers":[
				{
					"input":20,
					"interpolation":"LINEAR",
					"output":28
				},
				{
					"input":22,
					"interpolation":"STEP",
					"output":29
				},
				{
					"input":22,
					"interpolation":"STEP",
					"output":30
				},
				{
					"input":20,
					"interpolation":"LINEAR",
					"output":31
				},
				{
					"input":22,
					"interpolation":"STEP",
					"output":32
				},
				{
					"input":22,
					"interpolation":"STEP",
					"output":33
				}
			]
		}
	],
	"materials":[
		{
			"name":"door.001",
			"normalTexture":{
				"index":0
			},
			"pbrMetallicRoughness":{
				"baseColorTexture":{
					"index":1
				},
				"metallicFactor":0,
				"roughnessFactor":0.5
			}
		},
		{
			"doubleSided":true,
			"name":"Material.004",
			"pbrMetallicRoughness":{
				"baseColorTexture":{
					"index":2
				},
				"metallicFactor":0,
				"roughnessFactor":0.5
			}
		},
		{
			"doubleSided":true,
			"name":"Material.005",
			"pbrMetallicRoughness":{
				"baseColorTexture":{
					"index":3
				},
				"metallicFactor":0,
				"roughnessFactor":0.5
			}
		}
	],
	"meshes":[
		{
			"name":"Plane.001",
			"primitives":[
				{
					"attributes":{
						"POSITION":0,
						"NORMAL":1,
						"TEXCOORD_0":2,
						"TANGENT":3
					},
					"indices":4,
					"material":0
				}
			]
		},
		{
			"name":"Plane.003",
			"primitives":[
				{
					"attributes":{
						"POSITION":5,
						"NORMAL":6,
						"TEXCOORD_0":7
					},
					"indices":8,
					"material":1
				},
				{
					"attributes":{
						"POSITION":9,
						"NORMAL":10,
						"TEXCOORD_0":11
					},
					"indices":12,
					"material":2
				}
			]
		},
		{
			"name":"Plane.002",
			"primitives":[
				{
					"attributes":{
						"POSITION":13,
						"NORMAL":14,
						"TEXCOORD_0":15
					},
					"indices":16,
					"material":1
				},
				{
					"attributes":{
						"POSITION":17,
						"NORMAL":18,
						"TEXCOORD_0":19
					},
					"indices":12,
					"material":2
				}
			]
		}
	],
	"textures":[
		{
			"sampler":0,
			"source":0
		},
		{
			"sampler":0,
			"source":1
		},
		{
			"sampler":0,
			"source":2
		},
		{
			"sampler":0,
			"source":3
		}
	],
	"images":[
		{
			"mimeType":"image/png",
			"name":"Door01_normal.png",
			"uri":"../../rooms/Textures/normals/Door01_normal.png"
		},
		{
			"mimeType":"image/jpeg",
			"name":"Door01.jpg.001",
			"uri":"../../rooms/Textures/Door01.jpg"
		},
		{
			"mimeType":"image/png",
			"name":"door03.png",
			"uri":"../../rooms/Textures/door03.png"
		},
		{
			"mimeType":"image/jpeg",
			"name":"dirtymetal.jpg",
			"uri":"../../rooms/Textures/dirtymetal.jpg"
		}
	],
	"skins":[
		{
			"inverseBindMatrices":34,
			"joints":[
				2,
				4
			],
			"name":"Armature"
		}
	],
	"accessors":[
		{
			"bufferView":0,
			"componentType":5126,
			"count":48,
			"max":[
				0.75,
				1.25,
				0.13650013506412506
			],
			"min":[
				-0.75,
				-1.2000000476837158,
				-0.1365000456571579
			],
			"type":"VEC3"
		},
		{
			"bufferView":1,
			"componentType":5126,
			"count":48,
			"type":"VEC3"
		},
		{
			"bufferView":2,
			"componentType":5126,
			"count":48,
			"type":"VEC2"
		},
		{
			"bufferView":3,
			"componentType":5126,
			"count":48,
			"type":"VEC4"
		},
		{
			"bufferView":4,
			"componentType":5123,
			"count":72,
			"type":"SCALAR"
		},
		{
			"bufferView":5,
			"componentType":5126,
			"count":96,
			"max":[
				0.6978660821914673,
				1.2000000476837158,
				0.08460906893014908
			],
			"min":[
				-0.0016482770442962646,
				-1.2000000476837158,
				-0.08460906893014908
			],
			"type":"VEC3"
		},
		{
			"bufferView":6,
			"componentType":5126,
			"count":96,
			"type":"VEC3"
		},
		{
			"bufferView":7,
			"componentType":5126,
			"count":96,
			"type":"VEC2"
		},
		{
			"bufferView":8,
			"componentType":5123,
			"count":216,
			"type":"SCALAR"
		},
		{
			"bufferView":9,
			"componentType":5126,
			"count":68,
			"max":[
				0.6978660821914673,
				1.2000000476837158,
				0.08460906893014908
			],
			"min":[
				0.023338451981544495,
				-1.2000000476837158,
				-0.08460906893014908
			],
			"type":"VEC3"
		},
		{
			"bufferView":10,
			"componentType":5126,
			"count":68,
			"type":"VEC3"
		},
		{
			"bufferView":11,
			"componentType":5126,
			"count":68,
			"type":"VEC2"
		},
		{
			"bufferView":12,
			"componentType":5123,
			"count":132,
			"type":"SCALAR"
		},
		{
			"bufferView":13,
			"componentType":5126,
			"count":98,
			"max":[
				0.6978660821914673,
				1.2000000476837158,
				0.08460906893014908
			],
			"min":[
				-0.0016482770442962646,
				-1.2000000476837158,
				-0.08460906893014908
			],
			"type":"VEC3"
		},
		{
			"bufferView":14,
			"componentType":5126,
			"count":98,
			"type":"VEC3"
		},
		{
			"bufferView":15,
			"componentType":5126,
			"count":98,
			"type":"VEC2"
		},
		{
			"bufferView":16,
			"componentType":5123,
			"count":216,
			"type":"SCALAR"
		},
		{
			"bufferView":17,
			"componentType":5126,
			"count":68,
			"max":[
				0.6978660821914673,
				1.2000000476837158,
				0.08460906893014908
			],
			"min":[
				0.023338451981544495,
				-1.2000000476837158,
				-0.08460906893014908
			],
			"type":"VEC3"
		},
		{
			"bufferView":18,
			"componentType":5126,
			"count":68,
			"type":"VEC3"
		},
		{
			"bufferView":19,
			"componentType":5126,
			"count":68,
			"type":"VEC2"
		},
		{
			"bufferView":20,
			"componentType":5126,
			"count":31,
			"max":[
				1.25
			],
			"min":[
				0
			],
			"type":"SCALAR"
		},
		{
			"bufferView":21,
			"componentType":5126,
			"count":31,
			"type":"VEC3"
		},
		{
			"bufferView":22,
			"componentType":5126,
			"count":2,
			"max":[
				1.25
			],
			"min":[
				0
			],
			"type":"SCALAR"
		},
		{
			"bufferView":23,
			"componentType":5126,
			"count":2,
			"type":"VEC4"
		},
		{
			"bufferView":24,
			"componentType":5126,
			"count":2,
			"type":"VEC3"
		},
		{
			"bufferView":25,
			"componentType":5126,
			"count":31,
			"type":"VEC3"
		},
		{
			"bufferView":26,
			"componentType":5126,
			"count":2,
			"type":"VEC4"
		},
		{
			"bufferView":27,
			"componentType":5126,
			"count":2,
			"type":"VEC3"
		},
		{
			"bufferView":28,
			"componentType":5126,
			"count":31,
			"type":"VEC3"
		},
		{
			"bufferView":29,
			"componentType":5126,
			"count":2,
			"type":"VEC4"
		},
		{
			"bufferView":30,
			"componentType":5126,
			"count":2,
			"type":"VEC3"
		},
		{
			"bufferView":31,
			"componentType":5126,
			"count":31,
			"type":"VEC3"
		},
		{
			"bufferView":32,
			"componentType":5126,
			"count":2,
			"type":"VEC4"
		},
		{
			"bufferView":33,
			"componentType":5126,
			"count":2,
			"type":"VEC3"
		},
		{
			"bufferView":34,
			"componentType":5126,
			"count":2,
			"type":"MAT4"
		}
	],
	"bufferViews":[
		{
			"buffer":0,
			"byteLength":576,
			"byteOffset":0,
			"target":34962
		},
		{
			"buffer":0,
			"byteLength":576,
			"byteOffset":576,
			"target":34962
		},
		{
			"buffer":0,
			"byteLength":384,
			"byteOffset":1152,
			"target":34962
		},
		{
			"buffer":0,
			"byteLength":768,
			"byteOffset":1536,
			"target":34962
		},
		{
			"buffer":0,
			"byteLength":144,
			"byteOffset":2304,
			"target":34963
		},
		{
			"buffer":0,
			"byteLength":1152,
			"byteOffset":2448,
			"target":34962
		},
		{
			"buffer":0,
			"byteLength":1152,
			"byteOffset":3600,
			"target":34962
		},
		{
			"buffer":0,
			"byteLength":768,
			"byteOffset":4752,
			"target":34962
		},
		{
			"buffer":0,
			"byteLength":432,
			"byteOffset":5520,
			"target":34963
		},
		{
			"buffer":0,
			"byteLength":816,
			"byteOffset":5952,
			"target":34962
		},
		{
			"buffer":0,
			"byteLength":816,
			"byteOffset":6768,
			"target":34962
		},
		{
			"buffer":0,
			"byteLength":544,
			"byteOffset":7584,
			"target":34962
		},
		{
			"buffer":0,
			"byteLength":264,
			"byteOffset":8128,
			"target":34963
		},
		{
			"buffer":0,
			"byteLength":1176,
			"byteOffset":8392,
			"target":34962
		},
		{
			"buffer":0,
			"byteLength":1176,
			"byteOffset":9568,
			"target":34962
		},
		{
			"buffer":0,
			"byteLength":784,
			"byteOffset":10744,
			"target":34962
		},
		{
			"buffer":0,
			"byteLength":432,
			"byteOffset":11528,
			"target":34963
		},
		{
			"buffer":0,
			"byteLength":816,
			"byteOffset":11960,
			"target":34962
		},
		{
			"buffer":0,
			"byteLength":816,
			"byteOffset":12776,
			"target":34962
		},
		{
			"buffer":0,
			"byteLength":544,
			"byteOffset":13592,
			"target":34962
		},
		{
			"buffer":0,
			"byteLength":124,
			"byteOffset":14136
		},
		{
			"buffer":0,
			"byteLength":372,
			"byteOffset":14260
		},
		{
			"buffer":0,
			"byteLength":8,
			"byteOffset":14632
		},
		{
			"buffer":0,
			"byteLength":32,
			"byteOffset":14640
		},
		{
			"buffer":0,
			"byteLength":24,
			"byteOffset":14672
		},
		{
			"buffer":0,
			"byteLength":372,
			"byteOffset":14696
		},
		{
			"buffer":0,
			"byteLength":32,
			"byteOffset":15068
		},
		{
			"buffer":0,
			"byteLength":24,
			"byteOffset":15100
		},
		{
			"buffer":0,
			"byteLength":372,
			"byteOffset":15124
		},
		{
			"buffer":0,
			"byteLength":32,
			"byteOffset":15496
		},
		{
			"buffer":0,
			"byteLength":24,
			"byteOffset":15528
		},
		{
			"buffer":0,
			"byteLength":372,
			"byteOffset":15552
		},
		{
			"buffer":0,
			"byteLength":32,
			"byteOffset":15924
		},
		{
			"buffer":0,
			"byteLength":24,
			"byteOffset":15956
		},
		{
			"buffer":0,
			"byteLength":128,
			"byteOffset":15980
		}
	],
	"samplers":[
		{
			"magFilter":9729,
			"minFilter":9987
		}
	],
	"buffers":[
		{
			"byteLength":16108,
			"uri":"elevator_door-0f696ddd9b71898b9d58e8bf94f3ac15.bin"
		}
	]
}
