{
	"asset":{
		"generator":"Khronos glTF Blender I/O v4.4.56",
		"version":"2.0"
	},
	"scene":0,
	"scenes":[
		{
			"name":"Scene",
			"nodes":[
				0
			]
		}
	],
	"nodes":[
		{
			"mesh":0,
			"name":"Cube",
			"scale":[
				0.8500000238418579,
				0.8500000238418579,
				0.8500000238418579
			]
		}
	],
	"materials":[
		{
			"name":"Material.004",
			"pbrMetallicRoughness":{
				"baseColorTexture":{
					"index":0
				},
				"metallicFactor":0.14960630238056183,
				"roughnessFactor":0.6062992215156555
			}
		},
		{
			"name":"Material.006",
			"pbrMetallicRoughness":{
				"baseColorTexture":{
					"index":1
				},
				"metallicFactor":0,
				"roughnessFactor":0.5
			}
		},
		{
			"doubleSided":true,
			"name":"Material",
			"pbrMetallicRoughness":{
				"baseColorTexture":{
					"index":2
				},
				"metallicFactor":0,
				"roughnessFactor":0.5
			}
		}
	],
	"meshes":[
		{
			"name":"Cube",
			"primitives":[
				{
					"attributes":{
						"POSITION":0,
						"NORMAL":1,
						"TEXCOORD_0":2
					},
					"indices":3,
					"material":0
				},
				{
					"attributes":{
						"POSITION":4,
						"NORMAL":5,
						"TEXCOORD_0":6
					},
					"indices":7,
					"material":1
				},
				{
					"attributes":{
						"POSITION":8,
						"NORMAL":9,
						"TEXCOORD_0":10
					},
					"indices":11,
					"material":2
				}
			]
		}
	],
	"textures":[
		{
			"sampler":0,
			"source":0
		},
		{
			"sampler":0,
			"source":1
		},
		{
			"sampler":0,
			"source":2
		}
	],
	"images":[
		{
			"mimeType":"image/jpeg",
			"name":"keyboard.jpg",
			"uri":"../../rooms/Textures/keyboard.jpg"
		},
		{
			"mimeType":"image/jpeg",
			"name":"Keypad.jpg",
			"uri":"../../rooms/Textures/Keypad.jpg"
		},
		{
			"mimeType":"image/png",
			"name":"buttonelevator.png",
			"uri":"../../rooms/Textures/buttonelevator.png"
		}
	],
	"accessors":[
		{
			"bufferView":0,
			"componentType":5126,
			"count":24,
			"max":[
				0.12068600207567215,
				0.030446752905845642,
				-0.050000011920928955
			],
			"min":[
				-0.12068600207567215,
				-0.22068601846694946,
				-0.050000011920928955
			],
			"type":"VEC3"
		},
		{
			"bufferView":1,
			"componentType":5126,
			"count":24,
			"type":"VEC3"
		},
		{
			"bufferView":2,
			"componentType":5126,
			"count":24,
			"type":"VEC2"
		},
		{
			"bufferView":3,
			"componentType":5123,
			"count":48,
			"type":"SCALAR"
		},
		{
			"bufferView":4,
			"componentType":5126,
			"count":122,
			"max":[
				0.14482323825359344,
				0.24460555613040924,
				0.07908647507429123
			],
			"min":[
				-0.14482323825359344,
				-0.24873651564121246,
				-0.050000011920928955
			],
			"type":"VEC3"
		},
		{
			"bufferView":5,
			"componentType":5126,
			"count":122,
			"type":"VEC3"
		},
		{
			"bufferView":6,
			"componentType":5126,
			"count":122,
			"type":"VEC2"
		},
		{
			"bufferView":7,
			"componentType":5123,
			"count":258,
			"type":"SCALAR"
		},
		{
			"bufferView":8,
			"componentType":5126,
			"count":60,
			"max":[
				0.030938956886529922,
				-0.035886041820049286,
				-0.029236432164907455
			],
			"min":[
				-0.03064609132707119,
				-0.1722293496131897,
				-0.039485082030296326
			],
			"type":"VEC3"
		},
		{
			"bufferView":9,
			"componentType":5126,
			"count":60,
			"type":"VEC3"
		},
		{
			"bufferView":10,
			"componentType":5126,
			"count":60,
			"type":"VEC2"
		},
		{
			"bufferView":11,
			"componentType":5123,
			"count":96,
			"type":"SCALAR"
		}
	],
	"bufferViews":[
		{
			"buffer":0,
			"byteLength":288,
			"byteOffset":0,
			"target":34962
		},
		{
			"buffer":0,
			"byteLength":288,
			"byteOffset":288,
			"target":34962
		},
		{
			"buffer":0,
			"byteLength":192,
			"byteOffset":576,
			"target":34962
		},
		{
			"buffer":0,
			"byteLength":96,
			"byteOffset":768,
			"target":34963
		},
		{
			"buffer":0,
			"byteLength":1464,
			"byteOffset":864,
			"target":34962
		},
		{
			"buffer":0,
			"byteLength":1464,
			"byteOffset":2328,
			"target":34962
		},
		{
			"buffer":0,
			"byteLength":976,
			"byteOffset":3792,
			"target":34962
		},
		{
			"buffer":0,
			"byteLength":516,
			"byteOffset":4768,
			"target":34963
		},
		{
			"buffer":0,
			"byteLength":720,
			"byteOffset":5284,
			"target":34962
		},
		{
			"buffer":0,
			"byteLength":720,
			"byteOffset":6004,
			"target":34962
		},
		{
			"buffer":0,
			"byteLength":480,
			"byteOffset":6724,
			"target":34962
		},
		{
			"buffer":0,
			"byteLength":192,
			"byteOffset":7204,
			"target":34963
		}
	],
	"samplers":[
		{
			"magFilter":9729,
			"minFilter":9987
		}
	],
	"buffers":[
		{
			"byteLength":7396,
			"uri":"elevator_button-cbf042b99ded6f0b09c4718280ea1f84.bin"
		}
	]
}
