{
	"asset":{
		"generator":"Khronos glTF Blender I/O v4.4.56",
		"version":"2.0"
	},
	"scene":0,
	"scenes":[
		{
			"name":"Scene",
			"nodes":[
				0
			]
		}
	],
	"nodes":[
		{
			"mesh":0,
			"name":"Concrete floor-col"
		}
	],
	"materials":[
		{
			"name":"Concrete Floor",
			"pbrMetallicRoughness":{
				"metallicFactor":0,
				"roughnessFactor":0.5
			}
		},
		{
			"name":"Material.001",
			"pbrMetallicRoughness":{
				"metallicFactor":0,
				"roughnessFactor":0.5
			}
		},
		{
			"name":"Material.002",
			"pbrMetallicRoughness":{
				"metallicFactor":0,
				"roughnessFactor":0.5
			}
		}
	],
	"meshes":[
		{
			"name":"Cube.002",
			"primitives":[
				{
					"attributes":{
						"POSITION":0,
						"NORMAL":1,
						"TEXCOORD_0":2,
						"TANGENT":3
					},
					"indices":4,
					"material":0
				},
				{
					"attributes":{
						"POSITION":5,
						"NORMAL":6,
						"TEXCOORD_0":7,
						"TANGENT":8
					},
					"indices":9,
					"material":1
				},
				{
					"attributes":{
						"POSITION":10,
						"NORMAL":11,
						"TEXCOORD_0":12,
						"TANGENT":13
					},
					"indices":14,
					"material":2
				}
			]
		}
	],
	"accessors":[
		{
			"bufferView":0,
			"componentType":5126,
			"count":24,
			"max":[
				7.300032615661621,
				3.851933240890503,
				7.300033092498779
			],
			"min":[
				-7.300032615661621,
				1.851933240890503,
				-7.300032138824463
			],
			"type":"VEC3"
		},
		{
			"bufferView":1,
			"componentType":5126,
			"count":24,
			"type":"VEC3"
		},
		{
			"bufferView":2,
			"componentType":5126,
			"count":24,
			"type":"VEC2"
		},
		{
			"bufferView":3,
			"componentType":5126,
			"count":24,
			"type":"VEC4"
		},
		{
			"bufferView":4,
			"componentType":5123,
			"count":42,
			"type":"SCALAR"
		},
		{
			"bufferView":5,
			"componentType":5126,
			"count":80,
			"max":[
				7.5000319480896,
				-1.148066759109497,
				7.500031471252441
			],
			"min":[
				-7.5000319480896,
				-1.1502749919891357,
				-7.5000319480896
			],
			"type":"VEC3"
		},
		{
			"bufferView":6,
			"componentType":5126,
			"count":80,
			"type":"VEC3"
		},
		{
			"bufferView":7,
			"componentType":5126,
			"count":80,
			"type":"VEC2"
		},
		{
			"bufferView":8,
			"componentType":5126,
			"count":80,
			"type":"VEC4"
		},
		{
			"bufferView":9,
			"componentType":5123,
			"count":138,
			"type":"SCALAR"
		},
		{
			"bufferView":10,
			"componentType":5126,
			"count":160,
			"max":[
				7.5000319480896,
				3.851933240890503,
				7.500031471252441
			],
			"min":[
				-7.5000319480896,
				-1.1502749919891357,
				-7.5000319480896
			],
			"type":"VEC3"
		},
		{
			"bufferView":11,
			"componentType":5126,
			"count":160,
			"type":"VEC3"
		},
		{
			"bufferView":12,
			"componentType":5126,
			"count":160,
			"type":"VEC2"
		},
		{
			"bufferView":13,
			"componentType":5126,
			"count":160,
			"type":"VEC4"
		},
		{
			"bufferView":14,
			"componentType":5123,
			"count":264,
			"type":"SCALAR"
		}
	],
	"bufferViews":[
		{
			"buffer":0,
			"byteLength":288,
			"byteOffset":0,
			"target":34962
		},
		{
			"buffer":0,
			"byteLength":288,
			"byteOffset":288,
			"target":34962
		},
		{
			"buffer":0,
			"byteLength":192,
			"byteOffset":576,
			"target":34962
		},
		{
			"buffer":0,
			"byteLength":384,
			"byteOffset":768,
			"target":34962
		},
		{
			"buffer":0,
			"byteLength":84,
			"byteOffset":1152,
			"target":34963
		},
		{
			"buffer":0,
			"byteLength":960,
			"byteOffset":1236,
			"target":34962
		},
		{
			"buffer":0,
			"byteLength":960,
			"byteOffset":2196,
			"target":34962
		},
		{
			"buffer":0,
			"byteLength":640,
			"byteOffset":3156,
			"target":34962
		},
		{
			"buffer":0,
			"byteLength":1280,
			"byteOffset":3796,
			"target":34962
		},
		{
			"buffer":0,
			"byteLength":276,
			"byteOffset":5076,
			"target":34963
		},
		{
			"buffer":0,
			"byteLength":1920,
			"byteOffset":5352,
			"target":34962
		},
		{
			"buffer":0,
			"byteLength":1920,
			"byteOffset":7272,
			"target":34962
		},
		{
			"buffer":0,
			"byteLength":1280,
			"byteOffset":9192,
			"target":34962
		},
		{
			"buffer":0,
			"byteLength":2560,
			"byteOffset":10472,
			"target":34962
		},
		{
			"buffer":0,
			"byteLength":528,
			"byteOffset":13032,
			"target":34963
		}
	],
	"buffers":[
		{
			"byteLength":13560,
			"uri":"Ent4Way001-d1b1ead4d3e28e6b8f150eaefeb25d07.bin"
		}
	]
}
