{
	"asset":{
		"generator":"Khronos glTF Blender I/O v4.4.56",
		"version":"2.0"
	},
	"scene":0,
	"scenes":[
		{
			"name":"Scene",
			"nodes":[
				0
			]
		}
	],
	"nodes":[
		{
			"mesh":0,
			"name":"Concrete floor-col"
		}
	],
	"materials":[
		{
			"name":"Concrete Floor",
			"pbrMetallicRoughness":{
				"metallicFactor":0,
				"roughnessFactor":0.5
			}
		},
		{
			"name":"Material.001",
			"pbrMetallicRoughness":{
				"metallicFactor":0,
				"roughnessFactor":0.5
			}
		},
		{
			"name":"Material.002",
			"pbrMetallicRoughness":{
				"metallicFactor":0,
				"roughnessFactor":0.5
			}
		}
	],
	"meshes":[
		{
			"name":"Cube.002",
			"primitives":[
				{
					"attributes":{
						"POSITION":0,
						"NORMAL":1,
						"TEXCOORD_0":2,
						"TANGENT":3
					},
					"indices":4,
					"material":0
				},
				{
					"attributes":{
						"POSITION":5,
						"NORMAL":6,
						"TEXCOORD_0":7,
						"TANGENT":8
					},
					"indices":9,
					"material":1
				},
				{
					"attributes":{
						"POSITION":10,
						"NORMAL":11,
						"TEXCOORD_0":12,
						"TANGENT":13
					},
					"indices":14,
					"material":2
				}
			]
		}
	],
	"accessors":[
		{
			"bufferView":0,
			"componentType":5126,
			"count":16,
			"max":[
				3.30389404296875,
				3.851933240890503,
				7.300033092498779
			],
			"min":[
				-7.300032615661621,
				1.851933240890503,
				-3.30389404296875
			],
			"type":"VEC3"
		},
		{
			"bufferView":1,
			"componentType":5126,
			"count":16,
			"type":"VEC3"
		},
		{
			"bufferView":2,
			"componentType":5126,
			"count":16,
			"type":"VEC2"
		},
		{
			"bufferView":3,
			"componentType":5126,
			"count":16,
			"type":"VEC4"
		},
		{
			"bufferView":4,
			"componentType":5123,
			"count":30,
			"type":"SCALAR"
		},
		{
			"bufferView":5,
			"componentType":5126,
			"count":44,
			"max":[
				3.300032615661621,
				-1.148066759109497,
				7.500031471252441
			],
			"min":[
				-7.5000319480896,
				-1.1502749919891357,
				-3.300032615661621
			],
			"type":"VEC3"
		},
		{
			"bufferView":6,
			"componentType":5126,
			"count":44,
			"type":"VEC3"
		},
		{
			"bufferView":7,
			"componentType":5126,
			"count":44,
			"type":"VEC2"
		},
		{
			"bufferView":8,
			"componentType":5126,
			"count":44,
			"type":"VEC4"
		},
		{
			"bufferView":9,
			"componentType":5123,
			"count":78,
			"type":"SCALAR"
		},
		{
			"bufferView":10,
			"componentType":5126,
			"count":112,
			"max":[
				3.30389404296875,
				3.851933240890503,
				7.500031471252441
			],
			"min":[
				-7.5000319480896,
				-1.1502749919891357,
				-3.30389404296875
			],
			"type":"VEC3"
		},
		{
			"bufferView":11,
			"componentType":5126,
			"count":112,
			"type":"VEC3"
		},
		{
			"bufferView":12,
			"componentType":5126,
			"count":112,
			"type":"VEC2"
		},
		{
			"bufferView":13,
			"componentType":5126,
			"count":112,
			"type":"VEC4"
		},
		{
			"bufferView":14,
			"componentType":5123,
			"count":180,
			"type":"SCALAR"
		}
	],
	"bufferViews":[
		{
			"buffer":0,
			"byteLength":192,
			"byteOffset":0,
			"target":34962
		},
		{
			"buffer":0,
			"byteLength":192,
			"byteOffset":192,
			"target":34962
		},
		{
			"buffer":0,
			"byteLength":128,
			"byteOffset":384,
			"target":34962
		},
		{
			"buffer":0,
			"byteLength":256,
			"byteOffset":512,
			"target":34962
		},
		{
			"buffer":0,
			"byteLength":60,
			"byteOffset":768,
			"target":34963
		},
		{
			"buffer":0,
			"byteLength":528,
			"byteOffset":828,
			"target":34962
		},
		{
			"buffer":0,
			"byteLength":528,
			"byteOffset":1356,
			"target":34962
		},
		{
			"buffer":0,
			"byteLength":352,
			"byteOffset":1884,
			"target":34962
		},
		{
			"buffer":0,
			"byteLength":704,
			"byteOffset":2236,
			"target":34962
		},
		{
			"buffer":0,
			"byteLength":156,
			"byteOffset":2940,
			"target":34963
		},
		{
			"buffer":0,
			"byteLength":1344,
			"byteOffset":3096,
			"target":34962
		},
		{
			"buffer":0,
			"byteLength":1344,
			"byteOffset":4440,
			"target":34962
		},
		{
			"buffer":0,
			"byteLength":896,
			"byteOffset":5784,
			"target":34962
		},
		{
			"buffer":0,
			"byteLength":1792,
			"byteOffset":6680,
			"target":34962
		},
		{
			"buffer":0,
			"byteLength":360,
			"byteOffset":8472,
			"target":34963
		}
	],
	"buffers":[
		{
			"byteLength":8832,
			"uri":"EntBend001-d13ad9811efdd61cc074fc0be633c9ed.bin"
		}
	]
}
