{
	"asset":{
		"generator":"Khronos glTF Blender I/O v4.4.56",
		"version":"2.0"
	},
	"scene":0,
	"scenes":[
		{
			"name":"Scene",
			"nodes":[
				0
			]
		}
	],
	"nodes":[
		{
			"mesh":0,
			"name":"Concrete floor-col"
		}
	],
	"materials":[
		{
			"name":"Concrete Floor",
			"normalTexture":{
				"index":0
			},
			"pbrMetallicRoughness":{
				"baseColorTexture":{
					"index":1
				},
				"metallicFactor":0,
				"roughnessFactor":0.5
			}
		},
		{
			"name":"Material.001",
			"normalTexture":{
				"index":2
			},
			"pbrMetallicRoughness":{
				"baseColorTexture":{
					"index":3
				},
				"metallicFactor":0,
				"roughnessFactor":0.5
			}
		},
		{
			"name":"Material.002",
			"normalTexture":{
				"index":4
			},
			"pbrMetallicRoughness":{
				"baseColorTexture":{
					"index":5
				},
				"metallicFactor":0,
				"roughnessFactor":0.5
			}
		}
	],
	"meshes":[
		{
			"name":"Cube.002",
			"primitives":[
				{
					"attributes":{
						"POSITION":0,
						"NORMAL":1,
						"TEXCOORD_0":2,
						"TANGENT":3
					},
					"indices":4,
					"material":0
				},
				{
					"attributes":{
						"POSITION":5,
						"NORMAL":6,
						"TEXCOORD_0":7,
						"TANGENT":8
					},
					"indices":9,
					"material":1
				},
				{
					"attributes":{
						"POSITION":10,
						"NORMAL":11,
						"TEXCOORD_0":12,
						"TANGENT":13
					},
					"indices":14,
					"material":2
				}
			]
		}
	],
	"textures":[
		{
			"sampler":0,
			"source":0
		},
		{
			"sampler":0,
			"source":1
		},
		{
			"sampler":0,
			"source":2
		},
		{
			"sampler":0,
			"source":3
		},
		{
			"sampler":0,
			"source":4
		},
		{
			"sampler":0,
			"source":5
		}
	],
	"images":[
		{
			"mimeType":"image/png",
			"name":"tile_ceiling.png",
			"uri":"../../rooms/Textures/normals/tile_ceiling.png"
		},
		{
			"mimeType":"image/jpeg",
			"name":"ceiling.jpg",
			"uri":"../../rooms/Textures/ceiling.jpg"
		},
		{
			"mimeType":"image/png",
			"name":"tile_floor.png",
			"uri":"../../rooms/Textures/normals/tile_floor.png"
		},
		{
			"mimeType":"image/jpeg",
			"name":"tilefloor.jpg",
			"uri":"../../rooms/Textures/tilefloor.jpg"
		},
		{
			"mimeType":"image/png",
			"name":"officewall_specular(1).png",
			"uri":"../../rooms/Textures/normals/officewall_specular%281%29.png"
		},
		{
			"mimeType":"image/png",
			"name":"officewall.png",
			"uri":"../../rooms/Textures/officewall.png"
		}
	],
	"accessors":[
		{
			"bufferView":0,
			"componentType":5126,
			"count":12,
			"max":[
				3.30389404296875,
				3.851933240890503,
				7.300033092498779
			],
			"min":[
				-3.30389404296875,
				1.851933240890503,
				-3.30389404296875
			],
			"type":"VEC3"
		},
		{
			"bufferView":1,
			"componentType":5126,
			"count":12,
			"type":"VEC3"
		},
		{
			"bufferView":2,
			"componentType":5126,
			"count":12,
			"type":"VEC2"
		},
		{
			"bufferView":3,
			"componentType":5126,
			"count":12,
			"type":"VEC4"
		},
		{
			"bufferView":4,
			"componentType":5123,
			"count":24,
			"type":"SCALAR"
		},
		{
			"bufferView":5,
			"componentType":5126,
			"count":26,
			"max":[
				3.300032615661621,
				-1.148066759109497,
				7.500031471252441
			],
			"min":[
				-3.300032615661621,
				-1.1502749919891357,
				-3.300032615661621
			],
			"type":"VEC3"
		},
		{
			"bufferView":6,
			"componentType":5126,
			"count":26,
			"type":"VEC3"
		},
		{
			"bufferView":7,
			"componentType":5126,
			"count":26,
			"type":"VEC2"
		},
		{
			"bufferView":8,
			"componentType":5126,
			"count":26,
			"type":"VEC4"
		},
		{
			"bufferView":9,
			"componentType":5123,
			"count":48,
			"type":"SCALAR"
		},
		{
			"bufferView":10,
			"componentType":5126,
			"count":88,
			"max":[
				3.30389404296875,
				3.851933240890503,
				7.500031471252441
			],
			"min":[
				-3.30389404296875,
				-1.1502749919891357,
				-3.30389404296875
			],
			"type":"VEC3"
		},
		{
			"bufferView":11,
			"componentType":5126,
			"count":88,
			"type":"VEC3"
		},
		{
			"bufferView":12,
			"componentType":5126,
			"count":88,
			"type":"VEC2"
		},
		{
			"bufferView":13,
			"componentType":5126,
			"count":88,
			"type":"VEC4"
		},
		{
			"bufferView":14,
			"componentType":5123,
			"count":138,
			"type":"SCALAR"
		}
	],
	"bufferViews":[
		{
			"buffer":0,
			"byteLength":144,
			"byteOffset":0,
			"target":34962
		},
		{
			"buffer":0,
			"byteLength":144,
			"byteOffset":144,
			"target":34962
		},
		{
			"buffer":0,
			"byteLength":96,
			"byteOffset":288,
			"target":34962
		},
		{
			"buffer":0,
			"byteLength":192,
			"byteOffset":384,
			"target":34962
		},
		{
			"buffer":0,
			"byteLength":48,
			"byteOffset":576,
			"target":34963
		},
		{
			"buffer":0,
			"byteLength":312,
			"byteOffset":624,
			"target":34962
		},
		{
			"buffer":0,
			"byteLength":312,
			"byteOffset":936,
			"target":34962
		},
		{
			"buffer":0,
			"byteLength":208,
			"byteOffset":1248,
			"target":34962
		},
		{
			"buffer":0,
			"byteLength":416,
			"byteOffset":1456,
			"target":34962
		},
		{
			"buffer":0,
			"byteLength":96,
			"byteOffset":1872,
			"target":34963
		},
		{
			"buffer":0,
			"byteLength":1056,
			"byteOffset":1968,
			"target":34962
		},
		{
			"buffer":0,
			"byteLength":1056,
			"byteOffset":3024,
			"target":34962
		},
		{
			"buffer":0,
			"byteLength":704,
			"byteOffset":4080,
			"target":34962
		},
		{
			"buffer":0,
			"byteLength":1408,
			"byteOffset":4784,
			"target":34962
		},
		{
			"buffer":0,
			"byteLength":276,
			"byteOffset":6192,
			"target":34963
		}
	],
	"samplers":[
		{
			"magFilter":9729,
			"minFilter":9987
		}
	],
	"buffers":[
		{
			"byteLength":6468,
			"uri":"EntEnd001-9fd55e383dc4953bd0205a7b388a9bc6.bin"
		}
	]
}
