{
	"asset":{
		"generator":"Khronos glTF Blender I/O v4.3.47",
		"version":"2.0"
	},
	"scene":0,
	"scenes":[
		{
			"name":"Scene",
			"nodes":[
				0,
				1,
				2
			]
		}
	],
	"nodes":[
		{
			"mesh":0,
			"name":"gatea-col"
		},
		{
			"mesh":1,
			"name":"gateasign"
		},
		{
			"mesh":2,
			"name":"gateasign.001",
			"rotation":[
				0,
				-0.7071067094802856,
				0,
				0.7071068286895752
			],
			"scale":[
				0.19999998807907104,
				0.19999998807907104,
				0.19999998807907104
			],
			"translation":[
				4.997328758239746,
				1.623885154724121,
				-3.883007287979126
			]
		}
	],
	"materials":[
		{
			"name":"Concrete Floor",
			"normalTexture":{
				"index":0
			},
			"pbrMetallicRoughness":{
				"baseColorTexture":{
					"index":1
				},
				"metallicFactor":0,
				"roughnessFactor":0.5
			}
		},
		{
			"name":"Material.001",
			"normalTexture":{
				"index":2
			},
			"pbrMetallicRoughness":{
				"baseColorTexture":{
					"index":3
				},
				"metallicFactor":0,
				"roughnessFactor":0.5
			}
		},
		{
			"name":"Material.002",
			"normalTexture":{
				"index":4
			},
			"pbrMetallicRoughness":{
				"baseColorTexture":{
					"index":5
				},
				"metallicFactor":0,
				"roughnessFactor":0.5
			}
		},
		{
			"name":"Material",
			"pbrMetallicRoughness":{
				"baseColorTexture":{
					"index":6
				},
				"metallicFactor":0,
				"roughnessFactor":0.5
			}
		},
		{
			"doubleSided":true,
			"name":"Material.003",
			"pbrMetallicRoughness":{
				"baseColorTexture":{
					"index":7
				},
				"metallicFactor":0,
				"roughnessFactor":0.5
			}
		}
	],
	"meshes":[
		{
			"name":"Cube.002",
			"primitives":[
				{
					"attributes":{
						"POSITION":0,
						"NORMAL":1,
						"TEXCOORD_0":2,
						"TANGENT":3
					},
					"indices":4,
					"material":0
				},
				{
					"attributes":{
						"POSITION":5,
						"NORMAL":6,
						"TEXCOORD_0":7,
						"TANGENT":8
					},
					"indices":9,
					"material":1
				},
				{
					"attributes":{
						"POSITION":10,
						"NORMAL":11,
						"TEXCOORD_0":12,
						"TANGENT":13
					},
					"indices":14,
					"material":2
				},
				{
					"attributes":{
						"POSITION":15,
						"NORMAL":16,
						"TEXCOORD_0":17,
						"TANGENT":18
					},
					"indices":19,
					"material":3
				}
			]
		},
		{
			"name":"Cube.001",
			"primitives":[
				{
					"attributes":{
						"POSITION":20,
						"NORMAL":21,
						"TEXCOORD_0":22,
						"TANGENT":23
					},
					"indices":24,
					"material":3
				}
			]
		},
		{
			"name":"Cube.003",
			"primitives":[
				{
					"attributes":{
						"POSITION":25,
						"NORMAL":26,
						"TEXCOORD_0":27,
						"TANGENT":28
					},
					"indices":24,
					"material":4
				}
			]
		}
	],
	"textures":[
		{
			"sampler":0,
			"source":0
		},
		{
			"sampler":0,
			"source":1
		},
		{
			"sampler":0,
			"source":2
		},
		{
			"sampler":0,
			"source":3
		},
		{
			"sampler":0,
			"source":4
		},
		{
			"sampler":0,
			"source":5
		},
		{
			"sampler":0,
			"source":6
		},
		{
			"sampler":0,
			"source":7
		}
	],
	"images":[
		{
			"mimeType":"image/png",
			"name":"tile_ceiling.png",
			"uri":"../../rooms/Textures/normals/tile_ceiling.png"
		},
		{
			"mimeType":"image/jpeg",
			"name":"ceiling.jpg",
			"uri":"../../rooms/Textures/ceiling.jpg"
		},
		{
			"mimeType":"image/png",
			"name":"tile_floor.png",
			"uri":"../../rooms/Textures/normals/tile_floor.png"
		},
		{
			"mimeType":"image/jpeg",
			"name":"tilefloor.jpg",
			"uri":"../../rooms/Textures/tilefloor.jpg"
		},
		{
			"mimeType":"image/png",
			"name":"officewall_specular(1).png",
			"uri":"../../rooms/Textures/normals/officewall_specular%281%29.png"
		},
		{
			"mimeType":"image/png",
			"name":"officewall.png",
			"uri":"../../rooms/Textures/officewall.png"
		},
		{
			"mimeType":"image/png",
			"name":"misc_signs(2).png",
			"uri":"../../rooms/Textures/misc_signs%282%29.png"
		},
		{
			"mimeType":"image/png",
			"name":"signs1.png",
			"uri":"../../rooms/Textures/signs1.png"
		}
	],
	"accessors":[
		{
			"bufferView":0,
			"componentType":5126,
			"count":12,
			"max":[
				5.003855228424072,
				4.851933479309082,
				7.300033092498779
			],
			"min":[
				-5.003849506378174,
				4.849724769592285,
				-7.899967670440674
			],
			"type":"VEC3"
		},
		{
			"bufferView":1,
			"componentType":5126,
			"count":12,
			"type":"VEC3"
		},
		{
			"bufferView":2,
			"componentType":5126,
			"count":12,
			"type":"VEC2"
		},
		{
			"bufferView":3,
			"componentType":5126,
			"count":12,
			"type":"VEC4"
		},
		{
			"bufferView":4,
			"componentType":5123,
			"count":18,
			"type":"SCALAR"
		},
		{
			"bufferView":5,
			"componentType":5126,
			"count":40,
			"max":[
				5.203855037689209,
				-1.148066759109497,
				7.500031471252441
			],
			"min":[
				-5.003849506378174,
				-1.1502749919891357,
				-9.399967193603516
			],
			"type":"VEC3"
		},
		{
			"bufferView":6,
			"componentType":5126,
			"count":40,
			"type":"VEC3"
		},
		{
			"bufferView":7,
			"componentType":5126,
			"count":40,
			"type":"VEC2"
		},
		{
			"bufferView":8,
			"componentType":5126,
			"count":40,
			"type":"VEC4"
		},
		{
			"bufferView":9,
			"componentType":5123,
			"count":102,
			"type":"SCALAR"
		},
		{
			"bufferView":10,
			"componentType":5126,
			"count":156,
			"max":[
				5.203855037689209,
				4.851933479309082,
				7.500031471252441
			],
			"min":[
				-5.003849506378174,
				-1.1502749919891357,
				-9.399967193603516
			],
			"type":"VEC3"
		},
		{
			"bufferView":11,
			"componentType":5126,
			"count":156,
			"type":"VEC3"
		},
		{
			"bufferView":12,
			"componentType":5126,
			"count":156,
			"type":"VEC2"
		},
		{
			"bufferView":13,
			"componentType":5126,
			"count":156,
			"type":"VEC4"
		},
		{
			"bufferView":14,
			"componentType":5123,
			"count":276,
			"type":"SCALAR"
		},
		{
			"bufferView":15,
			"componentType":5126,
			"count":16,
			"max":[
				1.5399999618530273,
				4.0842156410217285,
				3.3025031089782715
			],
			"min":[
				-1.5399999618530273,
				2.884215831756592,
				3.3025026321411133
			],
			"type":"VEC3"
		},
		{
			"bufferView":16,
			"componentType":5126,
			"count":16,
			"type":"VEC3"
		},
		{
			"bufferView":17,
			"componentType":5126,
			"count":16,
			"type":"VEC2"
		},
		{
			"bufferView":18,
			"componentType":5126,
			"count":16,
			"type":"VEC4"
		},
		{
			"bufferView":19,
			"componentType":5123,
			"count":24,
			"type":"SCALAR"
		},
		{
			"bufferView":20,
			"componentType":5126,
			"count":20,
			"max":[
				1.5399999618530273,
				4.0842156410217285,
				3.3274664878845215
			],
			"min":[
				-1.5399999618530273,
				2.884215831756592,
				3.3025031089782715
			],
			"type":"VEC3"
		},
		{
			"bufferView":21,
			"componentType":5126,
			"count":20,
			"type":"VEC3"
		},
		{
			"bufferView":22,
			"componentType":5126,
			"count":20,
			"type":"VEC2"
		},
		{
			"bufferView":23,
			"componentType":5126,
			"count":20,
			"type":"VEC4"
		},
		{
			"bufferView":24,
			"componentType":5123,
			"count":30,
			"type":"SCALAR"
		},
		{
			"bufferView":25,
			"componentType":5126,
			"count":20,
			"max":[
				1.8480008840560913,
				0.47999995946884155,
				0.05685030296444893
			],
			"min":[
				-1.8479993343353271,
				-0.47999995946884155,
				-0.00998539850115776
			],
			"type":"VEC3"
		},
		{
			"bufferView":26,
			"componentType":5126,
			"count":20,
			"type":"VEC3"
		},
		{
			"bufferView":27,
			"componentType":5126,
			"count":20,
			"type":"VEC2"
		},
		{
			"bufferView":28,
			"componentType":5126,
			"count":20,
			"type":"VEC4"
		}
	],
	"bufferViews":[
		{
			"buffer":0,
			"byteLength":144,
			"byteOffset":0,
			"target":34962
		},
		{
			"buffer":0,
			"byteLength":144,
			"byteOffset":144,
			"target":34962
		},
		{
			"buffer":0,
			"byteLength":96,
			"byteOffset":288,
			"target":34962
		},
		{
			"buffer":0,
			"byteLength":192,
			"byteOffset":384,
			"target":34962
		},
		{
			"buffer":0,
			"byteLength":36,
			"byteOffset":576,
			"target":34963
		},
		{
			"buffer":0,
			"byteLength":480,
			"byteOffset":612,
			"target":34962
		},
		{
			"buffer":0,
			"byteLength":480,
			"byteOffset":1092,
			"target":34962
		},
		{
			"buffer":0,
			"byteLength":320,
			"byteOffset":1572,
			"target":34962
		},
		{
			"buffer":0,
			"byteLength":640,
			"byteOffset":1892,
			"target":34962
		},
		{
			"buffer":0,
			"byteLength":204,
			"byteOffset":2532,
			"target":34963
		},
		{
			"buffer":0,
			"byteLength":1872,
			"byteOffset":2736,
			"target":34962
		},
		{
			"buffer":0,
			"byteLength":1872,
			"byteOffset":4608,
			"target":34962
		},
		{
			"buffer":0,
			"byteLength":1248,
			"byteOffset":6480,
			"target":34962
		},
		{
			"buffer":0,
			"byteLength":2496,
			"byteOffset":7728,
			"target":34962
		},
		{
			"buffer":0,
			"byteLength":552,
			"byteOffset":10224,
			"target":34963
		},
		{
			"buffer":0,
			"byteLength":192,
			"byteOffset":10776,
			"target":34962
		},
		{
			"buffer":0,
			"byteLength":192,
			"byteOffset":10968,
			"target":34962
		},
		{
			"buffer":0,
			"byteLength":128,
			"byteOffset":11160,
			"target":34962
		},
		{
			"buffer":0,
			"byteLength":256,
			"byteOffset":11288,
			"target":34962
		},
		{
			"buffer":0,
			"byteLength":48,
			"byteOffset":11544,
			"target":34963
		},
		{
			"buffer":0,
			"byteLength":240,
			"byteOffset":11592,
			"target":34962
		},
		{
			"buffer":0,
			"byteLength":240,
			"byteOffset":11832,
			"target":34962
		},
		{
			"buffer":0,
			"byteLength":160,
			"byteOffset":12072,
			"target":34962
		},
		{
			"buffer":0,
			"byteLength":320,
			"byteOffset":12232,
			"target":34962
		},
		{
			"buffer":0,
			"byteLength":60,
			"byteOffset":12552,
			"target":34963
		},
		{
			"buffer":0,
			"byteLength":240,
			"byteOffset":12612,
			"target":34962
		},
		{
			"buffer":0,
			"byteLength":240,
			"byteOffset":12852,
			"target":34962
		},
		{
			"buffer":0,
			"byteLength":160,
			"byteOffset":13092,
			"target":34962
		},
		{
			"buffer":0,
			"byteLength":320,
			"byteOffset":13252,
			"target":34962
		}
	],
	"samplers":[
		{
			"magFilter":9729,
			"minFilter":9987
		}
	],
	"buffers":[
		{
			"byteLength":13572,
			"uri":"EntGateA-52212a8700c0a39195e4f9d9b15cc921.bin"
		}
	]
}
