{
	"asset":{
		"generator":"Khronos glTF Blender I/O v4.3.47",
		"version":"2.0"
	},
	"scene":0,
	"scenes":[
		{
			"name":"Scene",
			"nodes":[
				0,
				1,
				2
			]
		}
	],
	"nodes":[
		{
			"mesh":0,
			"name":"gatea-col"
		},
		{
			"mesh":1,
			"name":"gateasign"
		},
		{
			"mesh":2,
			"name":"gateasign.001",
			"rotation":[
				0,
				-0.7071067094802856,
				0,
				0.7071068286895752
			],
			"scale":[
				0.19999998807907104,
				0.19999998807907104,
				0.19999998807907104
			],
			"translation":[
				3.5144410133361816,
				1.623885154724121,
				-5.895021915435791
			]
		}
	],
	"materials":[
		{
			"name":"Concrete Floor",
			"normalTexture":{
				"index":0
			},
			"pbrMetallicRoughness":{
				"baseColorTexture":{
					"index":1
				},
				"metallicFactor":0,
				"roughnessFactor":0.5
			}
		},
		{
			"name":"Material.001",
			"normalTexture":{
				"index":2
			},
			"pbrMetallicRoughness":{
				"baseColorTexture":{
					"index":3
				},
				"metallicFactor":0,
				"roughnessFactor":0.5
			}
		},
		{
			"name":"Material.002",
			"normalTexture":{
				"index":4
			},
			"pbrMetallicRoughness":{
				"baseColorTexture":{
					"index":5
				},
				"metallicFactor":0,
				"roughnessFactor":0.5
			}
		},
		{
			"name":"Material",
			"pbrMetallicRoughness":{
				"baseColorTexture":{
					"index":6
				},
				"metallicFactor":0,
				"roughnessFactor":0.5
			}
		},
		{
			"doubleSided":true,
			"name":"Material.003",
			"pbrMetallicRoughness":{
				"baseColorTexture":{
					"index":7
				},
				"metallicFactor":0,
				"roughnessFactor":0.5
			}
		}
	],
	"meshes":[
		{
			"name":"Cube.002",
			"primitives":[
				{
					"attributes":{
						"POSITION":0,
						"NORMAL":1,
						"TEXCOORD_0":2,
						"TANGENT":3
					},
					"indices":4,
					"material":0
				},
				{
					"attributes":{
						"POSITION":5,
						"NORMAL":6,
						"TEXCOORD_0":7,
						"TANGENT":8
					},
					"indices":9,
					"material":1
				},
				{
					"attributes":{
						"POSITION":10,
						"NORMAL":11,
						"TEXCOORD_0":12,
						"TANGENT":13
					},
					"indices":14,
					"material":2
				},
				{
					"attributes":{
						"POSITION":15,
						"NORMAL":16,
						"TEXCOORD_0":17,
						"TANGENT":18
					},
					"indices":19,
					"material":3
				}
			]
		},
		{
			"name":"Cube.001",
			"primitives":[
				{
					"attributes":{
						"POSITION":20,
						"NORMAL":21,
						"TEXCOORD_0":22,
						"TANGENT":23
					},
					"indices":24,
					"material":3
				}
			]
		},
		{
			"name":"Cube.003",
			"primitives":[
				{
					"attributes":{
						"POSITION":25,
						"NORMAL":26,
						"TEXCOORD_0":27,
						"TANGENT":28
					},
					"indices":29,
					"material":4
				}
			]
		}
	],
	"textures":[
		{
			"sampler":0,
			"source":0
		},
		{
			"sampler":0,
			"source":1
		},
		{
			"sampler":0,
			"source":2
		},
		{
			"sampler":0,
			"source":3
		},
		{
			"sampler":0,
			"source":4
		},
		{
			"sampler":0,
			"source":5
		},
		{
			"sampler":0,
			"source":6
		},
		{
			"sampler":0,
			"source":7
		}
	],
	"images":[
		{
			"mimeType":"image/png",
			"name":"tile_ceiling.png",
			"uri":"../../rooms/Textures/normals/tile_ceiling.png"
		},
		{
			"mimeType":"image/jpeg",
			"name":"ceiling.jpg",
			"uri":"../../rooms/Textures/ceiling.jpg"
		},
		{
			"mimeType":"image/png",
			"name":"tile_floor.png",
			"uri":"../../rooms/Textures/normals/tile_floor.png"
		},
		{
			"mimeType":"image/jpeg",
			"name":"tilefloor.jpg",
			"uri":"../../rooms/Textures/tilefloor.jpg"
		},
		{
			"mimeType":"image/png",
			"name":"officewall_specular(1).png",
			"uri":"../../rooms/Textures/normals/officewall_specular%281%29.png"
		},
		{
			"mimeType":"image/png",
			"name":"officewall.png",
			"uri":"../../rooms/Textures/officewall.png"
		},
		{
			"mimeType":"image/png",
			"name":"misc_signs(2).png",
			"uri":"../../rooms/Textures/misc_signs%282%29.png"
		},
		{
			"mimeType":"image/png",
			"name":"signs1.png",
			"uri":"../../rooms/Textures/signs1.png"
		}
	],
	"accessors":[
		{
			"bufferView":0,
			"componentType":5126,
			"count":11,
			"max":[
				5.247315883636475,
				4.851933479309082,
				7.300033092498779
			],
			"min":[
				-6.001051902770996,
				4.849724769592285,
				-5.899968147277832
			],
			"type":"VEC3"
		},
		{
			"bufferView":1,
			"componentType":5126,
			"count":11,
			"type":"VEC3"
		},
		{
			"bufferView":2,
			"componentType":5126,
			"count":11,
			"type":"VEC2"
		},
		{
			"bufferView":3,
			"componentType":5126,
			"count":11,
			"type":"VEC4"
		},
		{
			"bufferView":4,
			"componentType":5123,
			"count":18,
			"type":"SCALAR"
		},
		{
			"bufferView":5,
			"componentType":5126,
			"count":57,
			"max":[
				5.247315883636475,
				-1.148066759109497,
				7.500031471252441
			],
			"min":[
				-6.001051902770996,
				-1.1523675918579102,
				-6.099967956542969
			],
			"type":"VEC3"
		},
		{
			"bufferView":6,
			"componentType":5126,
			"count":57,
			"type":"VEC3"
		},
		{
			"bufferView":7,
			"componentType":5126,
			"count":57,
			"type":"VEC2"
		},
		{
			"bufferView":8,
			"componentType":5126,
			"count":57,
			"type":"VEC4"
		},
		{
			"bufferView":9,
			"componentType":5123,
			"count":120,
			"type":"SCALAR"
		},
		{
			"bufferView":10,
			"componentType":5126,
			"count":184,
			"max":[
				5.247315883636475,
				4.851933479309082,
				7.500031471252441
			],
			"min":[
				-6.001051902770996,
				-1.1502752304077148,
				-6.099967956542969
			],
			"type":"VEC3"
		},
		{
			"bufferView":11,
			"componentType":5126,
			"count":184,
			"type":"VEC3"
		},
		{
			"bufferView":12,
			"componentType":5126,
			"count":184,
			"type":"VEC2"
		},
		{
			"bufferView":13,
			"componentType":5126,
			"count":184,
			"type":"VEC4"
		},
		{
			"bufferView":14,
			"componentType":5123,
			"count":324,
			"type":"SCALAR"
		},
		{
			"bufferView":15,
			"componentType":5126,
			"count":16,
			"max":[
				1.5399999618530273,
				4.0842156410217285,
				3.3025031089782715
			],
			"min":[
				-1.5399999618530273,
				2.884215831756592,
				3.3025026321411133
			],
			"type":"VEC3"
		},
		{
			"bufferView":16,
			"componentType":5126,
			"count":16,
			"type":"VEC3"
		},
		{
			"bufferView":17,
			"componentType":5126,
			"count":16,
			"type":"VEC2"
		},
		{
			"bufferView":18,
			"componentType":5126,
			"count":16,
			"type":"VEC4"
		},
		{
			"bufferView":19,
			"componentType":5123,
			"count":24,
			"type":"SCALAR"
		},
		{
			"bufferView":20,
			"componentType":5126,
			"count":20,
			"max":[
				1.5399999618530273,
				4.0842156410217285,
				3.3274664878845215
			],
			"min":[
				-1.5399999618530273,
				2.884215831756592,
				3.3025031089782715
			],
			"type":"VEC3"
		},
		{
			"bufferView":21,
			"componentType":5126,
			"count":20,
			"type":"VEC3"
		},
		{
			"bufferView":22,
			"componentType":5126,
			"count":20,
			"type":"VEC2"
		},
		{
			"bufferView":23,
			"componentType":5126,
			"count":20,
			"type":"VEC4"
		},
		{
			"bufferView":24,
			"componentType":5123,
			"count":30,
			"type":"SCALAR"
		},
		{
			"bufferView":25,
			"componentType":5126,
			"count":20,
			"max":[
				0.03341865539550781,
				0.47999995946884155,
				1.8480000495910645
			],
			"min":[
				-0.033417701721191406,
				-0.47999995946884155,
				-1.8480000495910645
			],
			"type":"VEC3"
		},
		{
			"bufferView":26,
			"componentType":5126,
			"count":20,
			"type":"VEC3"
		},
		{
			"bufferView":27,
			"componentType":5126,
			"count":20,
			"type":"VEC2"
		},
		{
			"bufferView":28,
			"componentType":5126,
			"count":20,
			"type":"VEC4"
		},
		{
			"bufferView":29,
			"componentType":5123,
			"count":30,
			"type":"SCALAR"
		}
	],
	"bufferViews":[
		{
			"buffer":0,
			"byteLength":132,
			"byteOffset":0,
			"target":34962
		},
		{
			"buffer":0,
			"byteLength":132,
			"byteOffset":132,
			"target":34962
		},
		{
			"buffer":0,
			"byteLength":88,
			"byteOffset":264,
			"target":34962
		},
		{
			"buffer":0,
			"byteLength":176,
			"byteOffset":352,
			"target":34962
		},
		{
			"buffer":0,
			"byteLength":36,
			"byteOffset":528,
			"target":34963
		},
		{
			"buffer":0,
			"byteLength":684,
			"byteOffset":564,
			"target":34962
		},
		{
			"buffer":0,
			"byteLength":684,
			"byteOffset":1248,
			"target":34962
		},
		{
			"buffer":0,
			"byteLength":456,
			"byteOffset":1932,
			"target":34962
		},
		{
			"buffer":0,
			"byteLength":912,
			"byteOffset":2388,
			"target":34962
		},
		{
			"buffer":0,
			"byteLength":240,
			"byteOffset":3300,
			"target":34963
		},
		{
			"buffer":0,
			"byteLength":2208,
			"byteOffset":3540,
			"target":34962
		},
		{
			"buffer":0,
			"byteLength":2208,
			"byteOffset":5748,
			"target":34962
		},
		{
			"buffer":0,
			"byteLength":1472,
			"byteOffset":7956,
			"target":34962
		},
		{
			"buffer":0,
			"byteLength":2944,
			"byteOffset":9428,
			"target":34962
		},
		{
			"buffer":0,
			"byteLength":648,
			"byteOffset":12372,
			"target":34963
		},
		{
			"buffer":0,
			"byteLength":192,
			"byteOffset":13020,
			"target":34962
		},
		{
			"buffer":0,
			"byteLength":192,
			"byteOffset":13212,
			"target":34962
		},
		{
			"buffer":0,
			"byteLength":128,
			"byteOffset":13404,
			"target":34962
		},
		{
			"buffer":0,
			"byteLength":256,
			"byteOffset":13532,
			"target":34962
		},
		{
			"buffer":0,
			"byteLength":48,
			"byteOffset":13788,
			"target":34963
		},
		{
			"buffer":0,
			"byteLength":240,
			"byteOffset":13836,
			"target":34962
		},
		{
			"buffer":0,
			"byteLength":240,
			"byteOffset":14076,
			"target":34962
		},
		{
			"buffer":0,
			"byteLength":160,
			"byteOffset":14316,
			"target":34962
		},
		{
			"buffer":0,
			"byteLength":320,
			"byteOffset":14476,
			"target":34962
		},
		{
			"buffer":0,
			"byteLength":60,
			"byteOffset":14796,
			"target":34963
		},
		{
			"buffer":0,
			"byteLength":240,
			"byteOffset":14856,
			"target":34962
		},
		{
			"buffer":0,
			"byteLength":240,
			"byteOffset":15096,
			"target":34962
		},
		{
			"buffer":0,
			"byteLength":160,
			"byteOffset":15336,
			"target":34962
		},
		{
			"buffer":0,
			"byteLength":320,
			"byteOffset":15496,
			"target":34962
		},
		{
			"buffer":0,
			"byteLength":60,
			"byteOffset":15816,
			"target":34963
		}
	],
	"samplers":[
		{
			"magFilter":9729,
			"minFilter":9987
		}
	],
	"buffers":[
		{
			"byteLength":15876,
			"uri":"EntGateB-9d10f4f09d0b4afcf79e12c8f700333c.bin"
		}
	]
}
