{
	"asset":{
		"generator":"Khronos glTF Blender I/O v4.4.56",
		"version":"2.0"
	},
	"scene":0,
	"scenes":[
		{
			"name":"Scene",
			"nodes":[
				0
			]
		}
	],
	"nodes":[
		{
			"mesh":0,
			"name":"Concrete floor-col"
		}
	],
	"materials":[
		{
			"name":"Concrete Floor",
			"pbrMetallicRoughness":{
				"metallicFactor":0,
				"roughnessFactor":0.5
			}
		},
		{
			"name":"Material.001",
			"pbrMetallicRoughness":{
				"metallicFactor":0,
				"roughnessFactor":0.5
			}
		},
		{
			"name":"Material.002",
			"pbrMetallicRoughness":{
				"metallicFactor":0,
				"roughnessFactor":0.5
			}
		}
	],
	"meshes":[
		{
			"name":"Cube.002",
			"primitives":[
				{
					"attributes":{
						"POSITION":0,
						"NORMAL":1,
						"TEXCOORD_0":2,
						"TANGENT":3
					},
					"indices":4,
					"material":0
				},
				{
					"attributes":{
						"POSITION":5,
						"NORMAL":6,
						"TEXCOORD_0":7,
						"TANGENT":8
					},
					"indices":9,
					"material":1
				},
				{
					"attributes":{
						"POSITION":10,
						"NORMAL":11,
						"TEXCOORD_0":12,
						"TANGENT":13
					},
					"indices":14,
					"material":2
				}
			]
		}
	],
	"accessors":[
		{
			"bufferView":0,
			"componentType":5126,
			"count":6,
			"max":[
				1.5011053085327148,
				1.8497250080108643,
				7.300033092498779
			],
			"min":[
				-1.5011043548583984,
				1.8497250080108643,
				-7.300032138824463
			],
			"type":"VEC3"
		},
		{
			"bufferView":1,
			"componentType":5126,
			"count":6,
			"type":"VEC3"
		},
		{
			"bufferView":2,
			"componentType":5126,
			"count":6,
			"type":"VEC2"
		},
		{
			"bufferView":3,
			"componentType":5126,
			"count":6,
			"type":"VEC4"
		},
		{
			"bufferView":4,
			"componentType":5123,
			"count":12,
			"type":"SCALAR"
		},
		{
			"bufferView":5,
			"componentType":5126,
			"count":34,
			"max":[
				1.5011053085327148,
				-1.148066759109497,
				7.500031471252441
			],
			"min":[
				-1.5011043548583984,
				-1.1502749919891357,
				-7.5000319480896
			],
			"type":"VEC3"
		},
		{
			"bufferView":6,
			"componentType":5126,
			"count":34,
			"type":"VEC3"
		},
		{
			"bufferView":7,
			"componentType":5126,
			"count":34,
			"type":"VEC2"
		},
		{
			"bufferView":8,
			"componentType":5126,
			"count":34,
			"type":"VEC4"
		},
		{
			"bufferView":9,
			"componentType":5123,
			"count":60,
			"type":"SCALAR"
		},
		{
			"bufferView":10,
			"componentType":5126,
			"count":52,
			"max":[
				1.5011053085327148,
				1.851933240890503,
				7.500031471252441
			],
			"min":[
				-1.5011043548583984,
				-1.1502749919891357,
				-7.5000319480896
			],
			"type":"VEC3"
		},
		{
			"bufferView":11,
			"componentType":5126,
			"count":52,
			"type":"VEC3"
		},
		{
			"bufferView":12,
			"componentType":5126,
			"count":52,
			"type":"VEC2"
		},
		{
			"bufferView":13,
			"componentType":5126,
			"count":52,
			"type":"VEC4"
		},
		{
			"bufferView":14,
			"componentType":5123,
			"count":96,
			"type":"SCALAR"
		}
	],
	"bufferViews":[
		{
			"buffer":0,
			"byteLength":72,
			"byteOffset":0,
			"target":34962
		},
		{
			"buffer":0,
			"byteLength":72,
			"byteOffset":72,
			"target":34962
		},
		{
			"buffer":0,
			"byteLength":48,
			"byteOffset":144,
			"target":34962
		},
		{
			"buffer":0,
			"byteLength":96,
			"byteOffset":192,
			"target":34962
		},
		{
			"buffer":0,
			"byteLength":24,
			"byteOffset":288,
			"target":34963
		},
		{
			"buffer":0,
			"byteLength":408,
			"byteOffset":312,
			"target":34962
		},
		{
			"buffer":0,
			"byteLength":408,
			"byteOffset":720,
			"target":34962
		},
		{
			"buffer":0,
			"byteLength":272,
			"byteOffset":1128,
			"target":34962
		},
		{
			"buffer":0,
			"byteLength":544,
			"byteOffset":1400,
			"target":34962
		},
		{
			"buffer":0,
			"byteLength":120,
			"byteOffset":1944,
			"target":34963
		},
		{
			"buffer":0,
			"byteLength":624,
			"byteOffset":2064,
			"target":34962
		},
		{
			"buffer":0,
			"byteLength":624,
			"byteOffset":2688,
			"target":34962
		},
		{
			"buffer":0,
			"byteLength":416,
			"byteOffset":3312,
			"target":34962
		},
		{
			"buffer":0,
			"byteLength":832,
			"byteOffset":3728,
			"target":34962
		},
		{
			"buffer":0,
			"byteLength":192,
			"byteOffset":4560,
			"target":34963
		}
	],
	"buffers":[
		{
			"byteLength":4752,
			"uri":"EntHall001-ec9290063f4c69cd5188cc3e7f9b37d1.bin"
		}
	]
}
