{
	"asset":{
		"generator":"Khronos glTF Blender I/O v4.4.56",
		"version":"2.0"
	},
	"scene":0,
	"scenes":[
		{
			"name":"Scene",
			"nodes":[
				0,
				1
			]
		}
	],
	"nodes":[
		{
			"mesh":0,
			"name":"Concrete floor-col"
		},
		{
			"mesh":1,
			"name":"stairclip-col",
			"translation":[
				-4.213603496551514,
				-0.025274991989135742,
				0
			]
		}
	],
	"materials":[
		{
			"name":"Concrete Floor",
			"normalTexture":{
				"index":0
			},
			"pbrMetallicRoughness":{
				"baseColorTexture":{
					"index":1
				},
				"metallicFactor":0,
				"roughnessFactor":0.5
			}
		},
		{
			"name":"Material.001",
			"normalTexture":{
				"index":2
			},
			"pbrMetallicRoughness":{
				"baseColorTexture":{
					"index":3
				},
				"metallicFactor":0,
				"roughnessFactor":0.5
			}
		},
		{
			"name":"Material.002",
			"normalTexture":{
				"index":4
			},
			"pbrMetallicRoughness":{
				"baseColorTexture":{
					"index":5
				},
				"metallicFactor":0,
				"roughnessFactor":0.5
			}
		},
		{
			"alphaMode":"MASK",
			"doubleSided":true,
			"name":"Material",
			"pbrMetallicRoughness":{
				"baseColorFactor":[
					0.800000011920929,
					0.800000011920929,
					0.800000011920929,
					0
				],
				"metallicFactor":0,
				"roughnessFactor":0.5
			}
		}
	],
	"meshes":[
		{
			"name":"Cube.002",
			"primitives":[
				{
					"attributes":{
						"POSITION":0,
						"NORMAL":1,
						"TEXCOORD_0":2,
						"TANGENT":3
					},
					"indices":4,
					"material":0
				},
				{
					"attributes":{
						"POSITION":5,
						"NORMAL":6,
						"TEXCOORD_0":7,
						"TANGENT":8
					},
					"indices":9,
					"material":1
				},
				{
					"attributes":{
						"POSITION":10,
						"NORMAL":11,
						"TEXCOORD_0":12,
						"TANGENT":13
					},
					"indices":14,
					"material":2
				}
			]
		},
		{
			"name":"Cube.001",
			"primitives":[
				{
					"attributes":{
						"POSITION":15,
						"NORMAL":16,
						"TEXCOORD_0":17,
						"TANGENT":18
					},
					"indices":19,
					"material":3
				}
			]
		}
	],
	"textures":[
		{
			"sampler":0,
			"source":0
		},
		{
			"sampler":0,
			"source":1
		},
		{
			"sampler":0,
			"source":2
		},
		{
			"sampler":0,
			"source":3
		},
		{
			"sampler":0,
			"source":4
		},
		{
			"sampler":0,
			"source":5
		}
	],
	"images":[
		{
			"mimeType":"image/png",
			"name":"tile_ceiling.png",
			"uri":"../../rooms/Textures/normals/tile_ceiling.png"
		},
		{
			"mimeType":"image/jpeg",
			"name":"ceiling.jpg",
			"uri":"../../rooms/Textures/ceiling.jpg"
		},
		{
			"mimeType":"image/png",
			"name":"tile_floor.png",
			"uri":"../../rooms/Textures/normals/tile_floor.png"
		},
		{
			"mimeType":"image/jpeg",
			"name":"tilefloor.jpg",
			"uri":"../../rooms/Textures/tilefloor.jpg"
		},
		{
			"mimeType":"image/png",
			"name":"officewall_specular(1).png",
			"uri":"../../rooms/Textures/normals/officewall_specular%281%29.png"
		},
		{
			"mimeType":"image/png",
			"name":"officewall.png",
			"uri":"../../rooms/Textures/officewall.png"
		}
	],
	"accessors":[
		{
			"bufferView":0,
			"componentType":5126,
			"count":24,
			"max":[
				1.5011053085327148,
				3.849724769592285,
				7.300033092498779
			],
			"min":[
				-12.301103591918945,
				1.8497248888015747,
				-7.300032138824463
			],
			"type":"VEC3"
		},
		{
			"bufferView":1,
			"componentType":5126,
			"count":24,
			"type":"VEC3"
		},
		{
			"bufferView":2,
			"componentType":5126,
			"count":24,
			"type":"VEC2"
		},
		{
			"bufferView":3,
			"componentType":5126,
			"count":24,
			"type":"VEC4"
		},
		{
			"bufferView":4,
			"componentType":5123,
			"count":42,
			"type":"SCALAR"
		},
		{
			"bufferView":5,
			"componentType":5126,
			"count":136,
			"max":[
				1.5011053085327148,
				0.8497250080108643,
				7.500031471252441
			],
			"min":[
				-12.301103591918945,
				-1.1502751111984253,
				-7.5000319480896
			],
			"type":"VEC3"
		},
		{
			"bufferView":6,
			"componentType":5126,
			"count":136,
			"type":"VEC3"
		},
		{
			"bufferView":7,
			"componentType":5126,
			"count":136,
			"type":"VEC2"
		},
		{
			"bufferView":8,
			"componentType":5126,
			"count":136,
			"type":"VEC4"
		},
		{
			"bufferView":9,
			"componentType":5123,
			"count":264,
			"type":"SCALAR"
		},
		{
			"bufferView":10,
			"componentType":5126,
			"count":156,
			"max":[
				1.5011053085327148,
				3.849724769592285,
				7.500031471252441
			],
			"min":[
				-12.301103591918945,
				-1.1502751111984253,
				-7.5000319480896
			],
			"type":"VEC3"
		},
		{
			"bufferView":11,
			"componentType":5126,
			"count":156,
			"type":"VEC3"
		},
		{
			"bufferView":12,
			"componentType":5126,
			"count":156,
			"type":"VEC2"
		},
		{
			"bufferView":13,
			"componentType":5126,
			"count":156,
			"type":"VEC4"
		},
		{
			"bufferView":14,
			"componentType":5123,
			"count":270,
			"type":"SCALAR"
		},
		{
			"bufferView":15,
			"componentType":5126,
			"count":4,
			"max":[
				1.728525161743164,
				0.875,
				1.5016124248504639
			],
			"min":[
				-1.3125,
				-1.1523500680923462,
				-1.5016124248504639
			],
			"type":"VEC3"
		},
		{
			"bufferView":16,
			"componentType":5126,
			"count":4,
			"type":"VEC3"
		},
		{
			"bufferView":17,
			"componentType":5126,
			"count":4,
			"type":"VEC2"
		},
		{
			"bufferView":18,
			"componentType":5126,
			"count":4,
			"type":"VEC4"
		},
		{
			"bufferView":19,
			"componentType":5123,
			"count":6,
			"type":"SCALAR"
		}
	],
	"bufferViews":[
		{
			"buffer":0,
			"byteLength":288,
			"byteOffset":0,
			"target":34962
		},
		{
			"buffer":0,
			"byteLength":288,
			"byteOffset":288,
			"target":34962
		},
		{
			"buffer":0,
			"byteLength":192,
			"byteOffset":576,
			"target":34962
		},
		{
			"buffer":0,
			"byteLength":384,
			"byteOffset":768,
			"target":34962
		},
		{
			"buffer":0,
			"byteLength":84,
			"byteOffset":1152,
			"target":34963
		},
		{
			"buffer":0,
			"byteLength":1632,
			"byteOffset":1236,
			"target":34962
		},
		{
			"buffer":0,
			"byteLength":1632,
			"byteOffset":2868,
			"target":34962
		},
		{
			"buffer":0,
			"byteLength":1088,
			"byteOffset":4500,
			"target":34962
		},
		{
			"buffer":0,
			"byteLength":2176,
			"byteOffset":5588,
			"target":34962
		},
		{
			"buffer":0,
			"byteLength":528,
			"byteOffset":7764,
			"target":34963
		},
		{
			"buffer":0,
			"byteLength":1872,
			"byteOffset":8292,
			"target":34962
		},
		{
			"buffer":0,
			"byteLength":1872,
			"byteOffset":10164,
			"target":34962
		},
		{
			"buffer":0,
			"byteLength":1248,
			"byteOffset":12036,
			"target":34962
		},
		{
			"buffer":0,
			"byteLength":2496,
			"byteOffset":13284,
			"target":34962
		},
		{
			"buffer":0,
			"byteLength":540,
			"byteOffset":15780,
			"target":34963
		},
		{
			"buffer":0,
			"byteLength":48,
			"byteOffset":16320,
			"target":34962
		},
		{
			"buffer":0,
			"byteLength":48,
			"byteOffset":16368,
			"target":34962
		},
		{
			"buffer":0,
			"byteLength":32,
			"byteOffset":16416,
			"target":34962
		},
		{
			"buffer":0,
			"byteLength":64,
			"byteOffset":16448,
			"target":34962
		},
		{
			"buffer":0,
			"byteLength":12,
			"byteOffset":16512,
			"target":34963
		}
	],
	"samplers":[
		{
			"magFilter":9729,
			"minFilter":9987
		}
	],
	"buffers":[
		{
			"byteLength":16524,
			"uri":"EntOffice001-a8c92ab73ad3812282180d54e0860324.bin"
		}
	]
}
