{
	"asset":{
		"generator":"Khronos glTF Blender I/O v4.3.47",
		"version":"2.0"
	},
	"scene":0,
	"scenes":[
		{
			"name":"Scene",
			"nodes":[
				0,
				1
			]
		}
	],
	"nodes":[
		{
			"mesh":0,
			"name":"cabinet"
		},
		{
			"mesh":1,
			"name":"drawer"
		}
	],
	"materials":[
		{
			"doubleSided":true,
			"name":"Material",
			"pbrMetallicRoughness":{
				"baseColorTexture":{
					"index":0
				},
				"metallicFactor":0,
				"roughnessFactor":0.5
			}
		}
	],
	"meshes":[
		{
			"name":"Cube",
			"primitives":[
				{
					"attributes":{
						"POSITION":0,
						"NORMAL":1,
						"TEXCOORD_0":2,
						"TANGENT":3
					},
					"indices":4,
					"material":0
				}
			]
		},
		{
			"name":"Cube.001",
			"primitives":[
				{
					"attributes":{
						"POSITION":5,
						"NORMAL":6,
						"TEXCOORD_0":7,
						"TANGENT":8
					},
					"indices":9,
					"material":0
				}
			]
		}
	],
	"textures":[
		{
			"sampler":0,
			"source":0
		}
	],
	"images":[
		{
			"mimeType":"image/png",
			"name":"cabinet_a.png",
			"uri":"../../rooms/Textures/cabinet_a.png"
		}
	],
	"accessors":[
		{
			"bufferView":0,
			"componentType":5126,
			"count":24,
			"max":[
				0.24993790686130524,
				0.8999999761581421,
				0.2820448875427246
			],
			"min":[
				-0.24993790686130524,
				-0.5,
				-0.2779551148414612
			],
			"type":"VEC3"
		},
		{
			"bufferView":1,
			"componentType":5126,
			"count":24,
			"type":"VEC3"
		},
		{
			"bufferView":2,
			"componentType":5126,
			"count":24,
			"type":"VEC2"
		},
		{
			"bufferView":3,
			"componentType":5126,
			"count":24,
			"type":"VEC4"
		},
		{
			"bufferView":4,
			"componentType":5123,
			"count":36,
			"type":"SCALAR"
		},
		{
			"bufferView":5,
			"componentType":5126,
			"count":320,
			"max":[
				0.22059600055217743,
				0.8677711486816406,
				0.33497539162635803
			],
			"min":[
				-0.22059600055217743,
				-0.46371620893478394,
				0.2752841114997864
			],
			"type":"VEC3"
		},
		{
			"bufferView":6,
			"componentType":5126,
			"count":320,
			"type":"VEC3"
		},
		{
			"bufferView":7,
			"componentType":5126,
			"count":320,
			"type":"VEC2"
		},
		{
			"bufferView":8,
			"componentType":5126,
			"count":320,
			"type":"VEC4"
		},
		{
			"bufferView":9,
			"componentType":5123,
			"count":528,
			"type":"SCALAR"
		}
	],
	"bufferViews":[
		{
			"buffer":0,
			"byteLength":288,
			"byteOffset":0,
			"target":34962
		},
		{
			"buffer":0,
			"byteLength":288,
			"byteOffset":288,
			"target":34962
		},
		{
			"buffer":0,
			"byteLength":192,
			"byteOffset":576,
			"target":34962
		},
		{
			"buffer":0,
			"byteLength":384,
			"byteOffset":768,
			"target":34962
		},
		{
			"buffer":0,
			"byteLength":72,
			"byteOffset":1152,
			"target":34963
		},
		{
			"buffer":0,
			"byteLength":3840,
			"byteOffset":1224,
			"target":34962
		},
		{
			"buffer":0,
			"byteLength":3840,
			"byteOffset":5064,
			"target":34962
		},
		{
			"buffer":0,
			"byteLength":2560,
			"byteOffset":8904,
			"target":34962
		},
		{
			"buffer":0,
			"byteLength":5120,
			"byteOffset":11464,
			"target":34962
		},
		{
			"buffer":0,
			"byteLength":1056,
			"byteOffset":16584,
			"target":34963
		}
	],
	"samplers":[
		{
			"magFilter":9729,
			"minFilter":9987
		}
	],
	"buffers":[
		{
			"byteLength":17640,
			"uri":"filecabinet-d851d3b629605efb3302b868e59fe4b5.bin"
		}
	]
}
