{
	"asset":{
		"generator":"Khronos glTF Blender I/O v4.3.47",
		"version":"2.0"
	},
	"scene":0,
	"scenes":[
		{
			"name":"Scene",
			"nodes":[
				0,
				1,
				2,
				3
			]
		}
	],
	"nodes":[
		{
			"mesh":0,
			"name":"gasmask",
			"translation":[
				-0.0002475222572684288,
				1.7233903408050537,
				-0.18469426035881042
			]
		},
		{
			"mesh":1,
			"name":"straps-ON",
			"translation":[
				0,
				-0.6284759640693665,
				0.15027518570423126
			]
		},
		{
			"mesh":2,
			"name":"filter",
			"translation":[
				-0.0002475222572684288,
				1.7233903408050537,
				-0.18469426035881042
			]
		},
		{
			"mesh":3,
			"name":"straps-OFF",
			"translation":[
				-0.0002475222572684288,
				1.7233903408050537,
				-0.18469426035881042
			]
		}
	],
	"materials":[
		{
			"doubleSided":true,
			"name":"Material",
			"pbrMetallicRoughness":{
				"baseColorTexture":{
					"index":0
				},
				"metallicFactor":0,
				"roughnessFactor":0.7603305578231812
			}
		},
		{
			"alphaMode":"BLEND",
			"doubleSided":true,
			"name":"Material.001",
			"pbrMetallicRoughness":{
				"baseColorFactor":[
					1,
					1,
					1,
					0.5123966932296753
				],
				"baseColorTexture":{
					"index":1
				},
				"metallicFactor":0,
				"roughnessFactor":0.5
			}
		}
	],
	"meshes":[
		{
			"name":"Cube",
			"primitives":[
				{
					"attributes":{
						"POSITION":0,
						"NORMAL":1,
						"TEXCOORD_0":2
					},
					"indices":3,
					"material":0
				},
				{
					"attributes":{
						"POSITION":4,
						"NORMAL":5,
						"TEXCOORD_0":6
					},
					"indices":7,
					"material":1
				}
			]
		},
		{
			"name":"Cube.001",
			"primitives":[
				{
					"attributes":{
						"POSITION":8,
						"NORMAL":9,
						"TEXCOORD_0":10,
						"TANGENT":11
					},
					"indices":12,
					"material":0
				}
			]
		},
		{
			"name":"Cube.002",
			"primitives":[
				{
					"attributes":{
						"POSITION":13,
						"NORMAL":14,
						"TEXCOORD_0":15
					},
					"indices":16,
					"material":0
				}
			]
		},
		{
			"name":"Cube.003",
			"primitives":[
				{
					"attributes":{
						"POSITION":17,
						"NORMAL":18,
						"TEXCOORD_0":19,
						"TANGENT":20
					},
					"indices":21,
					"material":0
				}
			]
		}
	],
	"textures":[
		{
			"sampler":0,
			"source":0
		},
		{
			"sampler":0,
			"source":1
		}
	],
	"images":[
		{
			"mimeType":"image/png",
			"name":"gasmask.png",
			"uri":"../../entities/items/tools/gasmask.png"
		},
		{
			"mimeType":"image/png",
			"name":"glass.png",
			"uri":"../../rooms/Textures/glass.png"
		}
	],
	"accessors":[
		{
			"bufferView":0,
			"componentType":5126,
			"count":536,
			"max":[
				0.08125040680170059,
				-1.6260898113250732,
				0.2240026742219925
			],
			"min":[
				-0.08125040680170059,
				-1.82151198387146,
				0.13934846222400665
			],
			"type":"VEC3"
		},
		{
			"bufferView":1,
			"componentType":5126,
			"count":536,
			"type":"VEC3"
		},
		{
			"bufferView":2,
			"componentType":5126,
			"count":536,
			"type":"VEC2"
		},
		{
			"bufferView":3,
			"componentType":5123,
			"count":1668,
			"type":"SCALAR"
		},
		{
			"bufferView":4,
			"componentType":5126,
			"count":20,
			"max":[
				0.06077480688691139,
				-1.6662129163742065,
				0.18022750318050385
			],
			"min":[
				-0.06077480688691139,
				-1.7144601345062256,
				0.15827792882919312
			],
			"type":"VEC3"
		},
		{
			"bufferView":5,
			"componentType":5126,
			"count":20,
			"type":"VEC3"
		},
		{
			"bufferView":6,
			"componentType":5126,
			"count":20,
			"type":"VEC2"
		},
		{
			"bufferView":7,
			"componentType":5123,
			"count":48,
			"type":"SCALAR"
		},
		{
			"bufferView":8,
			"componentType":5126,
			"count":1088,
			"max":[
				0.08694551140069962,
				0.7830933928489685,
				0.037648819386959076
			],
			"min":[
				-0.08694551140069962,
				0.5598905682563782,
				-0.16683270037174225
			],
			"type":"VEC3"
		},
		{
			"bufferView":9,
			"componentType":5126,
			"count":1088,
			"type":"VEC3"
		},
		{
			"bufferView":10,
			"componentType":5126,
			"count":1088,
			"type":"VEC2"
		},
		{
			"bufferView":11,
			"componentType":5126,
			"count":1088,
			"type":"VEC4"
		},
		{
			"bufferView":12,
			"componentType":5123,
			"count":1632,
			"type":"SCALAR"
		},
		{
			"bufferView":13,
			"componentType":5126,
			"count":144,
			"max":[
				-0.027108084410429,
				-1.741403579711914,
				0.18587975203990936
			],
			"min":[
				-0.08683034032583237,
				-1.8092797994613647,
				0.12359847128391266
			],
			"type":"VEC3"
		},
		{
			"bufferView":14,
			"componentType":5126,
			"count":144,
			"type":"VEC3"
		},
		{
			"bufferView":15,
			"componentType":5126,
			"count":144,
			"type":"VEC2"
		},
		{
			"bufferView":16,
			"componentType":5123,
			"count":324,
			"type":"SCALAR"
		},
		{
			"bufferView":17,
			"componentType":5126,
			"count":928,
			"max":[
				0.07935573160648346,
				-1.6038291454315186,
				0.24727404117584229
			],
			"min":[
				-0.07935573160648346,
				-1.7937004566192627,
				0.1699533313512802
			],
			"type":"VEC3"
		},
		{
			"bufferView":18,
			"componentType":5126,
			"count":928,
			"type":"VEC3"
		},
		{
			"bufferView":19,
			"componentType":5126,
			"count":928,
			"type":"VEC2"
		},
		{
			"bufferView":20,
			"componentType":5126,
			"count":928,
			"type":"VEC4"
		},
		{
			"bufferView":21,
			"componentType":5123,
			"count":1392,
			"type":"SCALAR"
		}
	],
	"bufferViews":[
		{
			"buffer":0,
			"byteLength":6432,
			"byteOffset":0,
			"target":34962
		},
		{
			"buffer":0,
			"byteLength":6432,
			"byteOffset":6432,
			"target":34962
		},
		{
			"buffer":0,
			"byteLength":4288,
			"byteOffset":12864,
			"target":34962
		},
		{
			"buffer":0,
			"byteLength":3336,
			"byteOffset":17152,
			"target":34963
		},
		{
			"buffer":0,
			"byteLength":240,
			"byteOffset":20488,
			"target":34962
		},
		{
			"buffer":0,
			"byteLength":240,
			"byteOffset":20728,
			"target":34962
		},
		{
			"buffer":0,
			"byteLength":160,
			"byteOffset":20968,
			"target":34962
		},
		{
			"buffer":0,
			"byteLength":96,
			"byteOffset":21128,
			"target":34963
		},
		{
			"buffer":0,
			"byteLength":13056,
			"byteOffset":21224,
			"target":34962
		},
		{
			"buffer":0,
			"byteLength":13056,
			"byteOffset":34280,
			"target":34962
		},
		{
			"buffer":0,
			"byteLength":8704,
			"byteOffset":47336,
			"target":34962
		},
		{
			"buffer":0,
			"byteLength":17408,
			"byteOffset":56040,
			"target":34962
		},
		{
			"buffer":0,
			"byteLength":3264,
			"byteOffset":73448,
			"target":34963
		},
		{
			"buffer":0,
			"byteLength":1728,
			"byteOffset":76712,
			"target":34962
		},
		{
			"buffer":0,
			"byteLength":1728,
			"byteOffset":78440,
			"target":34962
		},
		{
			"buffer":0,
			"byteLength":1152,
			"byteOffset":80168,
			"target":34962
		},
		{
			"buffer":0,
			"byteLength":648,
			"byteOffset":81320,
			"target":34963
		},
		{
			"buffer":0,
			"byteLength":11136,
			"byteOffset":81968,
			"target":34962
		},
		{
			"buffer":0,
			"byteLength":11136,
			"byteOffset":93104,
			"target":34962
		},
		{
			"buffer":0,
			"byteLength":7424,
			"byteOffset":104240,
			"target":34962
		},
		{
			"buffer":0,
			"byteLength":14848,
			"byteOffset":111664,
			"target":34962
		},
		{
			"buffer":0,
			"byteLength":2784,
			"byteOffset":126512,
			"target":34963
		}
	],
	"samplers":[
		{
			"magFilter":9729,
			"minFilter":9987
		}
	],
	"buffers":[
		{
			"byteLength":129296,
			"uri":"gasmask-d39abacbb3a41e70fe7f34823127ed90.bin"
		}
	]
}
