{
	"asset":{
		"generator":"Khronos glTF Blender I/O v4.3.47",
		"version":"2.0"
	},
	"scene":0,
	"scenes":[
		{
			"name":"Scene",
			"nodes":[
				0,
				1,
				2,
				3
			]
		}
	],
	"nodes":[
		{
			"mesh":0,
			"name":"gasmask",
			"translation":[
				-0.0002475222572684288,
				1.7233903408050537,
				-0.18469426035881042
			]
		},
		{
			"mesh":1,
			"name":"straps-ON",
			"translation":[
				0,
				-0.6284759640693665,
				0.15027518570423126
			]
		},
		{
			"mesh":2,
			"name":"filter",
			"translation":[
				-0.0002475222572684288,
				1.7233903408050537,
				-0.18469426035881042
			]
		},
		{
			"mesh":3,
			"name":"straps-OFF",
			"translation":[
				-0.0002475222572684288,
				1.7233903408050537,
				-0.18469426035881042
			]
		}
	],
	"materials":[
		{
			"doubleSided":true,
			"name":"Material",
			"pbrMetallicRoughness":{
				"baseColorTexture":{
					"index":0
				},
				"metallicFactor":0,
				"roughnessFactor":0.7603305578231812
			}
		}
	],
	"meshes":[
		{
			"name":"Cube",
			"primitives":[
				{
					"attributes":{
						"POSITION":0,
						"NORMAL":1,
						"TEXCOORD_0":2
					},
					"indices":3,
					"material":0
				}
			]
		},
		{
			"name":"Cube.001",
			"primitives":[
				{
					"attributes":{
						"POSITION":4,
						"NORMAL":5,
						"TEXCOORD_0":6,
						"TANGENT":7
					},
					"indices":8
				}
			]
		},
		{
			"name":"Cube.002",
			"primitives":[
				{
					"attributes":{
						"POSITION":9,
						"NORMAL":10,
						"TEXCOORD_0":11
					},
					"indices":12
				}
			]
		},
		{
			"name":"Cube.003",
			"primitives":[
				{
					"attributes":{
						"POSITION":13,
						"NORMAL":14,
						"TEXCOORD_0":15,
						"TANGENT":16
					},
					"indices":17
				}
			]
		}
	],
	"textures":[
		{
			"sampler":0,
			"source":0
		}
	],
	"images":[
		{
			"mimeType":"image/png",
			"name":"gasmask.png",
			"uri":"../../entities/items/tools/gasmask.png"
		}
	],
	"accessors":[
		{
			"bufferView":0,
			"componentType":5126,
			"count":516,
			"max":[
				0.08125040680170059,
				-1.6260898113250732,
				0.2240026742219925
			],
			"min":[
				-0.08125040680170059,
				-1.82151198387146,
				0.13934846222400665
			],
			"type":"VEC3"
		},
		{
			"bufferView":1,
			"componentType":5126,
			"count":516,
			"type":"VEC3"
		},
		{
			"bufferView":2,
			"componentType":5126,
			"count":516,
			"type":"VEC2"
		},
		{
			"bufferView":3,
			"componentType":5123,
			"count":1668,
			"type":"SCALAR"
		},
		{
			"bufferView":4,
			"componentType":5126,
			"count":1024,
			"max":[
				0.08694551140069962,
				0.7830933928489685,
				0.037648819386959076
			],
			"min":[
				-0.08694551140069962,
				0.5598905682563782,
				-0.16683270037174225
			],
			"type":"VEC3"
		},
		{
			"bufferView":5,
			"componentType":5126,
			"count":1024,
			"type":"VEC3"
		},
		{
			"bufferView":6,
			"componentType":5126,
			"count":1024,
			"type":"VEC2"
		},
		{
			"bufferView":7,
			"componentType":5126,
			"count":1024,
			"type":"VEC4"
		},
		{
			"bufferView":8,
			"componentType":5123,
			"count":1536,
			"type":"SCALAR"
		},
		{
			"bufferView":9,
			"componentType":5126,
			"count":144,
			"max":[
				-0.027108084410429,
				-1.741403579711914,
				0.18587975203990936
			],
			"min":[
				-0.08683034032583237,
				-1.8092797994613647,
				0.12359847128391266
			],
			"type":"VEC3"
		},
		{
			"bufferView":10,
			"componentType":5126,
			"count":144,
			"type":"VEC3"
		},
		{
			"bufferView":11,
			"componentType":5126,
			"count":144,
			"type":"VEC2"
		},
		{
			"bufferView":12,
			"componentType":5123,
			"count":324,
			"type":"SCALAR"
		},
		{
			"bufferView":13,
			"componentType":5126,
			"count":896,
			"max":[
				0.07935573160648346,
				-1.6038291454315186,
				0.24727404117584229
			],
			"min":[
				-0.07935573160648346,
				-1.7937004566192627,
				0.1699533313512802
			],
			"type":"VEC3"
		},
		{
			"bufferView":14,
			"componentType":5126,
			"count":896,
			"type":"VEC3"
		},
		{
			"bufferView":15,
			"componentType":5126,
			"count":896,
			"type":"VEC2"
		},
		{
			"bufferView":16,
			"componentType":5126,
			"count":896,
			"type":"VEC4"
		},
		{
			"bufferView":17,
			"componentType":5123,
			"count":1344,
			"type":"SCALAR"
		}
	],
	"bufferViews":[
		{
			"buffer":0,
			"byteLength":6192,
			"byteOffset":0,
			"target":34962
		},
		{
			"buffer":0,
			"byteLength":6192,
			"byteOffset":6192,
			"target":34962
		},
		{
			"buffer":0,
			"byteLength":4128,
			"byteOffset":12384,
			"target":34962
		},
		{
			"buffer":0,
			"byteLength":3336,
			"byteOffset":16512,
			"target":34963
		},
		{
			"buffer":0,
			"byteLength":12288,
			"byteOffset":19848,
			"target":34962
		},
		{
			"buffer":0,
			"byteLength":12288,
			"byteOffset":32136,
			"target":34962
		},
		{
			"buffer":0,
			"byteLength":8192,
			"byteOffset":44424,
			"target":34962
		},
		{
			"buffer":0,
			"byteLength":16384,
			"byteOffset":52616,
			"target":34962
		},
		{
			"buffer":0,
			"byteLength":3072,
			"byteOffset":69000,
			"target":34963
		},
		{
			"buffer":0,
			"byteLength":1728,
			"byteOffset":72072,
			"target":34962
		},
		{
			"buffer":0,
			"byteLength":1728,
			"byteOffset":73800,
			"target":34962
		},
		{
			"buffer":0,
			"byteLength":1152,
			"byteOffset":75528,
			"target":34962
		},
		{
			"buffer":0,
			"byteLength":648,
			"byteOffset":76680,
			"target":34963
		},
		{
			"buffer":0,
			"byteLength":10752,
			"byteOffset":77328,
			"target":34962
		},
		{
			"buffer":0,
			"byteLength":10752,
			"byteOffset":88080,
			"target":34962
		},
		{
			"buffer":0,
			"byteLength":7168,
			"byteOffset":98832,
			"target":34962
		},
		{
			"buffer":0,
			"byteLength":14336,
			"byteOffset":106000,
			"target":34962
		},
		{
			"buffer":0,
			"byteLength":2688,
			"byteOffset":120336,
			"target":34963
		}
	],
	"samplers":[
		{
			"magFilter":9729,
			"minFilter":9987
		}
	],
	"buffers":[
		{
			"byteLength":123024,
			"uri":"gasmask-d39abacbb3a41e70fe7f34823127ed90.bin"
		}
	]
}
