{
	"asset":{
		"generator":"Khronos glTF Blender I/O v4.4.56",
		"version":"2.0"
	},
	"scene":0,
	"scenes":[
		{
			"name":"Scene",
			"nodes":[
				0
			]
		}
	],
	"nodes":[
		{
			"mesh":0,
			"name":"Concrete floor-col"
		}
	],
	"materials":[
		{
			"name":"Material",
			"pbrMetallicRoughness":{
				"metallicFactor":0,
				"roughnessFactor":0.5
			}
		},
		{
			"name":"Material.001",
			"pbrMetallicRoughness":{
				"metallicFactor":0,
				"roughnessFactor":0.5
			}
		},
		{
			"name":"Material.002",
			"pbrMetallicRoughness":{
				"metallicFactor":0,
				"roughnessFactor":0.5
			}
		}
	],
	"meshes":[
		{
			"name":"Cube.002",
			"primitives":[
				{
					"attributes":{
						"POSITION":0,
						"NORMAL":1,
						"TEXCOORD_0":2,
						"TANGENT":3
					},
					"indices":4,
					"material":0
				},
				{
					"attributes":{
						"POSITION":5,
						"NORMAL":6,
						"TEXCOORD_0":7,
						"TANGENT":8
					},
					"indices":9,
					"material":1
				},
				{
					"attributes":{
						"POSITION":10,
						"NORMAL":11,
						"TEXCOORD_0":12,
						"TANGENT":13
					},
					"indices":14,
					"material":2
				}
			]
		}
	],
	"accessors":[
		{
			"bufferView":0,
			"componentType":5126,
			"count":68,
			"max":[
				1.7483524084091187,
				1.9519332647323608,
				7.5000319480896
			],
			"min":[
				-1.7483530044555664,
				-1.1502749919891357,
				-7.5000319480896
			],
			"type":"VEC3"
		},
		{
			"bufferView":1,
			"componentType":5126,
			"count":68,
			"type":"VEC3"
		},
		{
			"bufferView":2,
			"componentType":5126,
			"count":68,
			"type":"VEC2"
		},
		{
			"bufferView":3,
			"componentType":5126,
			"count":68,
			"type":"VEC4"
		},
		{
			"bufferView":4,
			"componentType":5123,
			"count":126,
			"type":"SCALAR"
		},
		{
			"bufferView":5,
			"componentType":5126,
			"count":24,
			"max":[
				1.7287360429763794,
				1.8480675220489502,
				7.479994297027588
			],
			"min":[
				-1.7287348508834839,
				-1.148066759109497,
				-7.4799933433532715
			],
			"type":"VEC3"
		},
		{
			"bufferView":6,
			"componentType":5126,
			"count":24,
			"type":"VEC3"
		},
		{
			"bufferView":7,
			"componentType":5126,
			"count":24,
			"type":"VEC2"
		},
		{
			"bufferView":8,
			"componentType":5126,
			"count":24,
			"type":"VEC4"
		},
		{
			"bufferView":9,
			"componentType":5123,
			"count":60,
			"type":"SCALAR"
		},
		{
			"bufferView":10,
			"componentType":5126,
			"count":8,
			"max":[
				0.9004570841789246,
				1.8480675220489502,
				7.4799933433532715
			],
			"min":[
				-0.9004570841789246,
				-1.148066759109497,
				-7.4799933433532715
			],
			"type":"VEC3"
		},
		{
			"bufferView":11,
			"componentType":5126,
			"count":8,
			"type":"VEC3"
		},
		{
			"bufferView":12,
			"componentType":5126,
			"count":8,
			"type":"VEC2"
		},
		{
			"bufferView":13,
			"componentType":5126,
			"count":8,
			"type":"VEC4"
		},
		{
			"bufferView":14,
			"componentType":5123,
			"count":12,
			"type":"SCALAR"
		}
	],
	"bufferViews":[
		{
			"buffer":0,
			"byteLength":816,
			"byteOffset":0,
			"target":34962
		},
		{
			"buffer":0,
			"byteLength":816,
			"byteOffset":816,
			"target":34962
		},
		{
			"buffer":0,
			"byteLength":544,
			"byteOffset":1632,
			"target":34962
		},
		{
			"buffer":0,
			"byteLength":1088,
			"byteOffset":2176,
			"target":34962
		},
		{
			"buffer":0,
			"byteLength":252,
			"byteOffset":3264,
			"target":34963
		},
		{
			"buffer":0,
			"byteLength":288,
			"byteOffset":3516,
			"target":34962
		},
		{
			"buffer":0,
			"byteLength":288,
			"byteOffset":3804,
			"target":34962
		},
		{
			"buffer":0,
			"byteLength":192,
			"byteOffset":4092,
			"target":34962
		},
		{
			"buffer":0,
			"byteLength":384,
			"byteOffset":4284,
			"target":34962
		},
		{
			"buffer":0,
			"byteLength":120,
			"byteOffset":4668,
			"target":34963
		},
		{
			"buffer":0,
			"byteLength":96,
			"byteOffset":4788,
			"target":34962
		},
		{
			"buffer":0,
			"byteLength":96,
			"byteOffset":4884,
			"target":34962
		},
		{
			"buffer":0,
			"byteLength":64,
			"byteOffset":4980,
			"target":34962
		},
		{
			"buffer":0,
			"byteLength":128,
			"byteOffset":5044,
			"target":34962
		},
		{
			"buffer":0,
			"byteLength":24,
			"byteOffset":5172,
			"target":34963
		}
	],
	"buffers":[
		{
			"byteLength":5196,
			"uri":"HCon049Elevators-cdbabf193f6854ae67dd9283d7c92cb2.bin"
		}
	]
}
