{
	"asset":{
		"generator":"Khronos glTF Blender I/O v4.4.56",
		"version":"2.0"
	},
	"scene":0,
	"scenes":[
		{
			"name":"Scene",
			"nodes":[
				0,
				1
			]
		}
	],
	"nodes":[
		{
			"mesh":0,
			"name":"Elev1-col"
		},
		{
			"mesh":1,
			"name":"middle-col"
		}
	],
	"materials":[
		{
			"name":"Material",
			"pbrMetallicRoughness":{
				"baseColorTexture":{
					"index":0
				},
				"metallicFactor":0,
				"roughnessFactor":0.5
			}
		},
		{
			"name":"Material.001",
			"pbrMetallicRoughness":{
				"baseColorTexture":{
					"index":1
				},
				"metallicFactor":0,
				"roughnessFactor":0.5
			}
		},
		{
			"name":"Material.002",
			"pbrMetallicRoughness":{
				"baseColorTexture":{
					"index":2
				},
				"metallicFactor":0,
				"roughnessFactor":0.5
			}
		},
		{
			"name":"Material.004",
			"pbrMetallicRoughness":{
				"baseColorTexture":{
					"index":3
				},
				"metallicFactor":0,
				"roughnessFactor":0.5
			}
		}
	],
	"meshes":[
		{
			"name":"Cube.002",
			"primitives":[
				{
					"attributes":{
						"POSITION":0,
						"NORMAL":1,
						"TEXCOORD_0":2,
						"TANGENT":3
					},
					"indices":4,
					"material":0
				},
				{
					"attributes":{
						"POSITION":5,
						"NORMAL":6,
						"TEXCOORD_0":7,
						"TANGENT":8
					},
					"indices":9,
					"material":1
				},
				{
					"attributes":{
						"POSITION":10,
						"NORMAL":11,
						"TEXCOORD_0":12,
						"TANGENT":13
					},
					"indices":14,
					"material":2
				},
				{
					"attributes":{
						"POSITION":15,
						"NORMAL":16,
						"TEXCOORD_0":17,
						"TANGENT":18
					},
					"indices":19,
					"material":3
				}
			]
		},
		{
			"name":"Cube.003",
			"primitives":[
				{
					"attributes":{
						"POSITION":20,
						"NORMAL":21,
						"TEXCOORD_0":22,
						"TANGENT":23
					},
					"indices":24,
					"material":0
				},
				{
					"attributes":{
						"POSITION":25,
						"NORMAL":26,
						"TEXCOORD_0":27,
						"TANGENT":28
					},
					"indices":29,
					"material":3
				}
			]
		}
	],
	"textures":[
		{
			"sampler":0,
			"source":0
		},
		{
			"sampler":0,
			"source":1
		},
		{
			"sampler":0,
			"source":2
		},
		{
			"sampler":0,
			"source":3
		}
	],
	"images":[
		{
			"mimeType":"image/jpeg",
			"name":"concretewall.jpg",
			"uri":"../../rooms/Textures/concretewall.jpg"
		},
		{
			"mimeType":"image/jpeg",
			"name":"dirtymetal.jpg",
			"uri":"../../rooms/Textures/dirtymetal.jpg"
		},
		{
			"mimeType":"image/jpeg",
			"name":"metal3.jpg",
			"uri":"../../rooms/Textures/metal3.jpg"
		},
		{
			"mimeType":"image/jpeg",
			"name":"concretefloor.jpg",
			"uri":"../../rooms/Textures/concretefloor.jpg"
		}
	],
	"accessors":[
		{
			"bufferView":0,
			"componentType":5126,
			"count":132,
			"max":[
				-8.070757865905762,
				2.354055404663086,
				2
			],
			"min":[
				-16.91067886352539,
				-1.1536262035369873,
				-22.500032424926758
			],
			"type":"VEC3"
		},
		{
			"bufferView":1,
			"componentType":5126,
			"count":132,
			"type":"VEC3"
		},
		{
			"bufferView":2,
			"componentType":5126,
			"count":132,
			"type":"VEC2"
		},
		{
			"bufferView":3,
			"componentType":5126,
			"count":132,
			"type":"VEC4"
		},
		{
			"bufferView":4,
			"componentType":5123,
			"count":246,
			"type":"SCALAR"
		},
		{
			"bufferView":5,
			"componentType":5126,
			"count":78,
			"max":[
				-12.771472930908203,
				1.8480675220489502,
				-1.9999990463256836
			],
			"min":[
				-16.728734970092773,
				-1.148066759109497,
				-22.47999382019043
			],
			"type":"VEC3"
		},
		{
			"bufferView":6,
			"componentType":5126,
			"count":78,
			"type":"VEC3"
		},
		{
			"bufferView":7,
			"componentType":5126,
			"count":78,
			"type":"VEC2"
		},
		{
			"bufferView":8,
			"componentType":5126,
			"count":78,
			"type":"VEC4"
		},
		{
			"bufferView":9,
			"componentType":5123,
			"count":186,
			"type":"SCALAR"
		},
		{
			"bufferView":10,
			"componentType":5126,
			"count":58,
			"max":[
				-8.070757865905762,
				1.8480675220489502,
				-2
			],
			"min":[
				-15.900457382202148,
				-1.1536262035369873,
				-22.47999382019043
			],
			"type":"VEC3"
		},
		{
			"bufferView":11,
			"componentType":5126,
			"count":58,
			"type":"VEC3"
		},
		{
			"bufferView":12,
			"componentType":5126,
			"count":58,
			"type":"VEC2"
		},
		{
			"bufferView":13,
			"componentType":5126,
			"count":58,
			"type":"VEC4"
		},
		{
			"bufferView":14,
			"componentType":5123,
			"count":132,
			"type":"SCALAR"
		},
		{
			"bufferView":15,
			"componentType":5126,
			"count":14,
			"max":[
				-13.097417831420898,
				2.348066568374634,
				2
			],
			"min":[
				-16.90193748474121,
				-1.148066759109497,
				-2
			],
			"type":"VEC3"
		},
		{
			"bufferView":16,
			"componentType":5126,
			"count":14,
			"type":"VEC3"
		},
		{
			"bufferView":17,
			"componentType":5126,
			"count":14,
			"type":"VEC2"
		},
		{
			"bufferView":18,
			"componentType":5126,
			"count":14,
			"type":"VEC4"
		},
		{
			"bufferView":19,
			"componentType":5123,
			"count":36,
			"type":"SCALAR"
		},
		{
			"bufferView":20,
			"componentType":5126,
			"count":74,
			"max":[
				13.099678039550781,
				1.851933240890503,
				1.506371259689331
			],
			"min":[
				-13.099678039550781,
				-1.148066759109497,
				-14.996049880981445
			],
			"type":"VEC3"
		},
		{
			"bufferView":21,
			"componentType":5126,
			"count":74,
			"type":"VEC3"
		},
		{
			"bufferView":22,
			"componentType":5126,
			"count":74,
			"type":"VEC2"
		},
		{
			"bufferView":23,
			"componentType":5126,
			"count":74,
			"type":"VEC4"
		},
		{
			"bufferView":24,
			"componentType":5123,
			"count":126,
			"type":"SCALAR"
		},
		{
			"bufferView":25,
			"componentType":5126,
			"count":60,
			"max":[
				13.099678039550781,
				1.851933240890503,
				1.506371259689331
			],
			"min":[
				-13.099678039550781,
				-1.148066759109497,
				-14.998228073120117
			],
			"type":"VEC3"
		},
		{
			"bufferView":26,
			"componentType":5126,
			"count":60,
			"type":"VEC3"
		},
		{
			"bufferView":27,
			"componentType":5126,
			"count":60,
			"type":"VEC2"
		},
		{
			"bufferView":28,
			"componentType":5126,
			"count":60,
			"type":"VEC4"
		},
		{
			"bufferView":29,
			"componentType":5123,
			"count":126,
			"type":"SCALAR"
		}
	],
	"bufferViews":[
		{
			"buffer":0,
			"byteLength":1584,
			"byteOffset":0,
			"target":34962
		},
		{
			"buffer":0,
			"byteLength":1584,
			"byteOffset":1584,
			"target":34962
		},
		{
			"buffer":0,
			"byteLength":1056,
			"byteOffset":3168,
			"target":34962
		},
		{
			"buffer":0,
			"byteLength":2112,
			"byteOffset":4224,
			"target":34962
		},
		{
			"buffer":0,
			"byteLength":492,
			"byteOffset":6336,
			"target":34963
		},
		{
			"buffer":0,
			"byteLength":936,
			"byteOffset":6828,
			"target":34962
		},
		{
			"buffer":0,
			"byteLength":936,
			"byteOffset":7764,
			"target":34962
		},
		{
			"buffer":0,
			"byteLength":624,
			"byteOffset":8700,
			"target":34962
		},
		{
			"buffer":0,
			"byteLength":1248,
			"byteOffset":9324,
			"target":34962
		},
		{
			"buffer":0,
			"byteLength":372,
			"byteOffset":10572,
			"target":34963
		},
		{
			"buffer":0,
			"byteLength":696,
			"byteOffset":10944,
			"target":34962
		},
		{
			"buffer":0,
			"byteLength":696,
			"byteOffset":11640,
			"target":34962
		},
		{
			"buffer":0,
			"byteLength":464,
			"byteOffset":12336,
			"target":34962
		},
		{
			"buffer":0,
			"byteLength":928,
			"byteOffset":12800,
			"target":34962
		},
		{
			"buffer":0,
			"byteLength":264,
			"byteOffset":13728,
			"target":34963
		},
		{
			"buffer":0,
			"byteLength":168,
			"byteOffset":13992,
			"target":34962
		},
		{
			"buffer":0,
			"byteLength":168,
			"byteOffset":14160,
			"target":34962
		},
		{
			"buffer":0,
			"byteLength":112,
			"byteOffset":14328,
			"target":34962
		},
		{
			"buffer":0,
			"byteLength":224,
			"byteOffset":14440,
			"target":34962
		},
		{
			"buffer":0,
			"byteLength":72,
			"byteOffset":14664,
			"target":34963
		},
		{
			"buffer":0,
			"byteLength":888,
			"byteOffset":14736,
			"target":34962
		},
		{
			"buffer":0,
			"byteLength":888,
			"byteOffset":15624,
			"target":34962
		},
		{
			"buffer":0,
			"byteLength":592,
			"byteOffset":16512,
			"target":34962
		},
		{
			"buffer":0,
			"byteLength":1184,
			"byteOffset":17104,
			"target":34962
		},
		{
			"buffer":0,
			"byteLength":252,
			"byteOffset":18288,
			"target":34963
		},
		{
			"buffer":0,
			"byteLength":720,
			"byteOffset":18540,
			"target":34962
		},
		{
			"buffer":0,
			"byteLength":720,
			"byteOffset":19260,
			"target":34962
		},
		{
			"buffer":0,
			"byteLength":480,
			"byteOffset":19980,
			"target":34962
		},
		{
			"buffer":0,
			"byteLength":960,
			"byteOffset":20460,
			"target":34962
		},
		{
			"buffer":0,
			"byteLength":252,
			"byteOffset":21420,
			"target":34963
		}
	],
	"samplers":[
		{
			"magFilter":9729,
			"minFilter":9987
		}
	],
	"buffers":[
		{
			"byteLength":21672,
			"uri":"HCon049Chamber-31bfc31297a26bda3d02bf1cd0848c91.bin"
		}
	]
}
