{
	"asset":{
		"generator":"Khronos glTF Blender I/O v4.3.47",
		"version":"2.0"
	},
	"scene":0,
	"scenes":[
		{
			"name":"Scene",
			"nodes":[
				0,
				1,
				2,
				3,
				4
			]
		}
	],
	"nodes":[
		{
			"mesh":0,
			"name":"plate-col",
			"rotation":[
				0,
				-0.7071067094802856,
				0,
				0.7071068286895752
			],
			"translation":[
				0,
				-0.06912572681903839,
				0
			]
		},
		{
			"mesh":1,
			"name":"tesla gate-col",
			"translation":[
				0,
				-0.06912572681903839,
				0
			]
		},
		{
			"mesh":2,
			"name":"PowerLines",
			"translation":[
				1.5924094915390015,
				0,
				0
			]
		},
		{
			"mesh":3,
			"name":"Panel",
			"scale":[
				0.19999998807907104,
				1,
				1
			],
			"translation":[
				2.0115838050842285,
				0.4687928557395935,
				3.674976348876953
			]
		},
		{
			"mesh":4,
			"name":"Concrete floor-col"
		}
	],
	"materials":[
		{
			"name":"Material.001",
			"pbrMetallicRoughness":{
				"baseColorTexture":{
					"index":0
				},
				"metallicFactor":0,
				"roughnessFactor":0.5
			}
		},
		{
			"name":"Material.004",
			"pbrMetallicRoughness":{
				"baseColorTexture":{
					"index":1
				},
				"metallicFactor":0,
				"roughnessFactor":0.5
			}
		},
		{
			"doubleSided":true,
			"name":"Material.006",
			"pbrMetallicRoughness":{
				"baseColorTexture":{
					"index":2
				},
				"metallicFactor":0,
				"roughnessFactor":0.5
			}
		},
		{
			"name":"Material",
			"pbrMetallicRoughness":{
				"baseColorTexture":{
					"index":3
				},
				"metallicFactor":0,
				"roughnessFactor":0.5
			}
		},
		{
			"doubleSided":true,
			"name":"Material.005",
			"pbrMetallicRoughness":{
				"baseColorTexture":{
					"index":4
				},
				"metallicFactor":0,
				"roughnessFactor":0.5
			}
		},
		{
			"name":"Concrete Floor.001",
			"normalTexture":{
				"index":5
			},
			"pbrMetallicRoughness":{
				"baseColorTexture":{
					"index":6
				},
				"metallicFactor":0,
				"roughnessFactor":0.5
			}
		},
		{
			"name":"Material.007",
			"normalTexture":{
				"index":7
			},
			"pbrMetallicRoughness":{
				"baseColorTexture":{
					"index":8
				},
				"metallicFactor":0,
				"roughnessFactor":0.5
			}
		}
	],
	"meshes":[
		{
			"name":"Cube.001",
			"primitives":[
				{
					"attributes":{
						"POSITION":0,
						"NORMAL":1,
						"TEXCOORD_0":2,
						"TANGENT":3
					},
					"indices":4,
					"material":0
				},
				{
					"attributes":{
						"POSITION":5,
						"NORMAL":6,
						"TEXCOORD_0":7,
						"TANGENT":8
					},
					"indices":9,
					"material":1
				},
				{
					"attributes":{
						"POSITION":10,
						"NORMAL":11,
						"TEXCOORD_0":12,
						"TANGENT":13
					},
					"indices":14,
					"material":2
				}
			]
		},
		{
			"name":"Cube.003",
			"primitives":[
				{
					"attributes":{
						"POSITION":15,
						"NORMAL":16,
						"TEXCOORD_0":17,
						"TANGENT":18
					},
					"indices":19,
					"material":0
				}
			]
		},
		{
			"name":"Cube",
			"primitives":[
				{
					"attributes":{
						"POSITION":20,
						"NORMAL":21,
						"TEXCOORD_0":22,
						"TANGENT":23
					},
					"indices":24,
					"material":3
				}
			]
		},
		{
			"name":"Cube.004",
			"primitives":[
				{
					"attributes":{
						"POSITION":25,
						"NORMAL":26,
						"TEXCOORD_0":27,
						"TANGENT":28
					},
					"indices":29,
					"material":4
				}
			]
		},
		{
			"name":"Cube.005",
			"primitives":[
				{
					"attributes":{
						"POSITION":30,
						"NORMAL":31,
						"TEXCOORD_0":32,
						"TANGENT":33
					},
					"indices":34,
					"material":5
				},
				{
					"attributes":{
						"POSITION":35,
						"NORMAL":36,
						"TEXCOORD_0":37,
						"TANGENT":38
					},
					"indices":39,
					"material":6
				}
			]
		}
	],
	"textures":[
		{
			"sampler":0,
			"source":0
		},
		{
			"sampler":0,
			"source":1
		},
		{
			"sampler":0,
			"source":2
		},
		{
			"sampler":0,
			"source":3
		},
		{
			"sampler":0,
			"source":4
		},
		{
			"sampler":0,
			"source":5
		},
		{
			"sampler":0,
			"source":6
		},
		{
			"sampler":0,
			"source":7
		},
		{
			"sampler":0,
			"source":8
		}
	],
	"images":[
		{
			"mimeType":"image/jpeg",
			"name":"metalpanels2.jpg",
			"uri":"../../rooms/Textures/metalpanels2.jpg"
		},
		{
			"mimeType":"image/jpeg",
			"name":"metal3.jpg",
			"uri":"../../rooms/Textures/metal3.jpg"
		},
		{
			"mimeType":"image/png",
			"name":"misc_signs(0).png",
			"uri":"../../rooms/Textures/misc_signs%280%29.png"
		},
		{
			"mimeType":"image/png",
			"name":"Pipes_NoRust.png",
			"uri":"../../rooms/Textures/Pipes_NoRust.png"
		},
		{
			"mimeType":"image/jpeg",
			"name":"ElecBox.jpg",
			"uri":"../../rooms/Textures/ElecBox.jpg"
		},
		{
			"mimeType":"image/png",
			"name":"concrete_floor.png.001",
			"uri":"../../rooms/Textures/normals/concrete_floor.png"
		},
		{
			"mimeType":"image/jpeg",
			"name":"concretefloor.jpg.001",
			"uri":"../../rooms/Textures/concretefloor.jpg"
		},
		{
			"mimeType":"image/png",
			"name":"concrete_wall.png",
			"uri":"../../rooms/Textures/normals/concrete_wall.png"
		},
		{
			"mimeType":"image/jpeg",
			"name":"concretewall.jpg",
			"uri":"../../rooms/Textures/concretewall.jpg"
		}
	],
	"accessors":[
		{
			"bufferView":0,
			"componentType":5126,
			"count":8,
			"max":[
				1.013953685760498,
				-1.0281327962875366,
				1.749000072479248
			],
			"min":[
				-1.0349197387695312,
				-1.0855751037597656,
				-1.748999834060669
			],
			"type":"VEC3"
		},
		{
			"bufferView":1,
			"componentType":5126,
			"count":8,
			"type":"VEC3"
		},
		{
			"bufferView":2,
			"componentType":5126,
			"count":8,
			"type":"VEC2"
		},
		{
			"bufferView":3,
			"componentType":5126,
			"count":8,
			"type":"VEC4"
		},
		{
			"bufferView":4,
			"componentType":5123,
			"count":12,
			"type":"SCALAR"
		},
		{
			"bufferView":5,
			"componentType":5126,
			"count":8,
			"max":[
				0.30000001192092896,
				-1.0281327962875366,
				1.749000072479248
			],
			"min":[
				-0.30000001192092896,
				-1.0281329154968262,
				-1.748999834060669
			],
			"type":"VEC3"
		},
		{
			"bufferView":6,
			"componentType":5126,
			"count":8,
			"type":"VEC3"
		},
		{
			"bufferView":7,
			"componentType":5126,
			"count":8,
			"type":"VEC2"
		},
		{
			"bufferView":8,
			"componentType":5126,
			"count":8,
			"type":"VEC4"
		},
		{
			"bufferView":9,
			"componentType":5123,
			"count":12,
			"type":"SCALAR"
		},
		{
			"bufferView":10,
			"componentType":5126,
			"count":8,
			"max":[
				0.9000000357627869,
				-1.0281327962875366,
				1.749000072479248
			],
			"min":[
				-0.9000000357627869,
				-1.0281329154968262,
				-1.748999834060669
			],
			"type":"VEC3"
		},
		{
			"bufferView":11,
			"componentType":5126,
			"count":8,
			"type":"VEC3"
		},
		{
			"bufferView":12,
			"componentType":5126,
			"count":8,
			"type":"VEC2"
		},
		{
			"bufferView":13,
			"componentType":5126,
			"count":8,
			"type":"VEC4"
		},
		{
			"bufferView":14,
			"componentType":5123,
			"count":12,
			"type":"SCALAR"
		},
		{
			"bufferView":15,
			"componentType":5126,
			"count":36,
			"max":[
				1.75,
				4.924999713897705,
				0.30000030994415283
			],
			"min":[
				-1.75,
				-1.0749999284744263,
				-0.30000007152557373
			],
			"type":"VEC3"
		},
		{
			"bufferView":16,
			"componentType":5126,
			"count":36,
			"type":"VEC3"
		},
		{
			"bufferView":17,
			"componentType":5126,
			"count":36,
			"type":"VEC2"
		},
		{
			"bufferView":18,
			"componentType":5126,
			"count":36,
			"type":"VEC4"
		},
		{
			"bufferView":19,
			"componentType":5123,
			"count":54,
			"type":"SCALAR"
		},
		{
			"bufferView":20,
			"componentType":5126,
			"count":144,
			"max":[
				0.7069776058197021,
				1.1611301898956299,
				3.1435184478759766
			],
			"min":[
				0.09069495648145676,
				0.4842093288898468,
				0.25532418489456177
			],
			"type":"VEC3"
		},
		{
			"bufferView":21,
			"componentType":5126,
			"count":144,
			"type":"VEC3"
		},
		{
			"bufferView":22,
			"componentType":5126,
			"count":144,
			"type":"VEC2"
		},
		{
			"bufferView":23,
			"componentType":5126,
			"count":144,
			"type":"VEC4"
		},
		{
			"bufferView":24,
			"componentType":5123,
			"count":252,
			"type":"SCALAR"
		},
		{
			"bufferView":25,
			"componentType":5126,
			"count":146,
			"max":[
				1.79994535446167,
				1.1462593078613281,
				1.029148817062378
			],
			"min":[
				-1.8169832229614258,
				-1,
				-1.0028915405273438
			],
			"type":"VEC3"
		},
		{
			"bufferView":26,
			"componentType":5126,
			"count":146,
			"type":"VEC3"
		},
		{
			"bufferView":27,
			"componentType":5126,
			"count":146,
			"type":"VEC2"
		},
		{
			"bufferView":28,
			"componentType":5126,
			"count":146,
			"type":"VEC4"
		},
		{
			"bufferView":29,
			"componentType":5123,
			"count":360,
			"type":"SCALAR"
		},
		{
			"bufferView":30,
			"componentType":5126,
			"count":80,
			"max":[
				2.2070765495300293,
				4.851933479309082,
				7.5000319480896
			],
			"min":[
				-2.207090377807617,
				-1.1502748727798462,
				-7.5000319480896
			],
			"type":"VEC3"
		},
		{
			"bufferView":31,
			"componentType":5126,
			"count":80,
			"type":"VEC3"
		},
		{
			"bufferView":32,
			"componentType":5126,
			"count":80,
			"type":"VEC2"
		},
		{
			"bufferView":33,
			"componentType":5126,
			"count":80,
			"type":"VEC4"
		},
		{
			"bufferView":34,
			"componentType":5123,
			"count":168,
			"type":"SCALAR"
		},
		{
			"bufferView":35,
			"componentType":5126,
			"count":172,
			"max":[
				2.2070765495300293,
				4.864598751068115,
				7.5000319480896
			],
			"min":[
				-2.207090377807617,
				-1.1502748727798462,
				-7.5000319480896
			],
			"type":"VEC3"
		},
		{
			"bufferView":36,
			"componentType":5126,
			"count":172,
			"type":"VEC3"
		},
		{
			"bufferView":37,
			"componentType":5126,
			"count":172,
			"type":"VEC2"
		},
		{
			"bufferView":38,
			"componentType":5126,
			"count":172,
			"type":"VEC4"
		},
		{
			"bufferView":39,
			"componentType":5123,
			"count":336,
			"type":"SCALAR"
		}
	],
	"bufferViews":[
		{
			"buffer":0,
			"byteLength":96,
			"byteOffset":0,
			"target":34962
		},
		{
			"buffer":0,
			"byteLength":96,
			"byteOffset":96,
			"target":34962
		},
		{
			"buffer":0,
			"byteLength":64,
			"byteOffset":192,
			"target":34962
		},
		{
			"buffer":0,
			"byteLength":128,
			"byteOffset":256,
			"target":34962
		},
		{
			"buffer":0,
			"byteLength":24,
			"byteOffset":384,
			"target":34963
		},
		{
			"buffer":0,
			"byteLength":96,
			"byteOffset":408,
			"target":34962
		},
		{
			"buffer":0,
			"byteLength":96,
			"byteOffset":504,
			"target":34962
		},
		{
			"buffer":0,
			"byteLength":64,
			"byteOffset":600,
			"target":34962
		},
		{
			"buffer":0,
			"byteLength":128,
			"byteOffset":664,
			"target":34962
		},
		{
			"buffer":0,
			"byteLength":24,
			"byteOffset":792,
			"target":34963
		},
		{
			"buffer":0,
			"byteLength":96,
			"byteOffset":816,
			"target":34962
		},
		{
			"buffer":0,
			"byteLength":96,
			"byteOffset":912,
			"target":34962
		},
		{
			"buffer":0,
			"byteLength":64,
			"byteOffset":1008,
			"target":34962
		},
		{
			"buffer":0,
			"byteLength":128,
			"byteOffset":1072,
			"target":34962
		},
		{
			"buffer":0,
			"byteLength":24,
			"byteOffset":1200,
			"target":34963
		},
		{
			"buffer":0,
			"byteLength":432,
			"byteOffset":1224,
			"target":34962
		},
		{
			"buffer":0,
			"byteLength":432,
			"byteOffset":1656,
			"target":34962
		},
		{
			"buffer":0,
			"byteLength":288,
			"byteOffset":2088,
			"target":34962
		},
		{
			"buffer":0,
			"byteLength":576,
			"byteOffset":2376,
			"target":34962
		},
		{
			"buffer":0,
			"byteLength":108,
			"byteOffset":2952,
			"target":34963
		},
		{
			"buffer":0,
			"byteLength":1728,
			"byteOffset":3060,
			"target":34962
		},
		{
			"buffer":0,
			"byteLength":1728,
			"byteOffset":4788,
			"target":34962
		},
		{
			"buffer":0,
			"byteLength":1152,
			"byteOffset":6516,
			"target":34962
		},
		{
			"buffer":0,
			"byteLength":2304,
			"byteOffset":7668,
			"target":34962
		},
		{
			"buffer":0,
			"byteLength":504,
			"byteOffset":9972,
			"target":34963
		},
		{
			"buffer":0,
			"byteLength":1752,
			"byteOffset":10476,
			"target":34962
		},
		{
			"buffer":0,
			"byteLength":1752,
			"byteOffset":12228,
			"target":34962
		},
		{
			"buffer":0,
			"byteLength":1168,
			"byteOffset":13980,
			"target":34962
		},
		{
			"buffer":0,
			"byteLength":2336,
			"byteOffset":15148,
			"target":34962
		},
		{
			"buffer":0,
			"byteLength":720,
			"byteOffset":17484,
			"target":34963
		},
		{
			"buffer":0,
			"byteLength":960,
			"byteOffset":18204,
			"target":34962
		},
		{
			"buffer":0,
			"byteLength":960,
			"byteOffset":19164,
			"target":34962
		},
		{
			"buffer":0,
			"byteLength":640,
			"byteOffset":20124,
			"target":34962
		},
		{
			"buffer":0,
			"byteLength":1280,
			"byteOffset":20764,
			"target":34962
		},
		{
			"buffer":0,
			"byteLength":336,
			"byteOffset":22044,
			"target":34963
		},
		{
			"buffer":0,
			"byteLength":2064,
			"byteOffset":22380,
			"target":34962
		},
		{
			"buffer":0,
			"byteLength":2064,
			"byteOffset":24444,
			"target":34962
		},
		{
			"buffer":0,
			"byteLength":1376,
			"byteOffset":26508,
			"target":34962
		},
		{
			"buffer":0,
			"byteLength":2752,
			"byteOffset":27884,
			"target":34962
		},
		{
			"buffer":0,
			"byteLength":672,
			"byteOffset":30636,
			"target":34963
		}
	],
	"samplers":[
		{
			"magFilter":9729,
			"minFilter":9987
		}
	],
	"buffers":[
		{
			"byteLength":31308,
			"uri":"HConTesla001-89dd43317289f16ae0a3bc95e09db239.bin"
		}
	]
}
