{
	"asset":{
		"generator":"Khronos glTF Blender I/O v4.4.56",
		"version":"2.0"
	},
	"scene":0,
	"scenes":[
		{
			"name":"Scene",
			"nodes":[
				0,
				1
			]
		}
	],
	"nodes":[
		{
			"mesh":0,
			"name":"Cube-col",
			"rotation":[
				0,
				-1,
				0,
				7.549790126404332e-08
			]
		},
		{
			"mesh":1,
			"name":"checkpoint-col"
		}
	],
	"materials":[
		{
			"name":"Material",
			"pbrMetallicRoughness":{
				"metallicFactor":0,
				"roughnessFactor":0.5
			}
		},
		{
			"name":"Material.001",
			"pbrMetallicRoughness":{
				"metallicFactor":0,
				"roughnessFactor":0.5
			}
		},
		{
			"name":"Material.002",
			"pbrMetallicRoughness":{
				"metallicFactor":0,
				"roughnessFactor":0.5
			}
		},
		{
			"name":"Material.006",
			"pbrMetallicRoughness":{
				"metallicFactor":0,
				"roughnessFactor":0.5
			}
		},
		{
			"name":"Material.007",
			"pbrMetallicRoughness":{
				"metallicFactor":0,
				"roughnessFactor":0.5
			}
		},
		{
			"name":"Material.004",
			"pbrMetallicRoughness":{
				"metallicFactor":0,
				"roughnessFactor":0.5
			}
		},
		{
			"doubleSided":true,
			"name":"Material.003",
			"pbrMetallicRoughness":{
				"metallicFactor":0,
				"roughnessFactor":0.5
			}
		}
	],
	"meshes":[
		{
			"name":"Cube.001",
			"primitives":[
				{
					"attributes":{
						"POSITION":0,
						"NORMAL":1,
						"TEXCOORD_0":2,
						"TANGENT":3
					},
					"indices":4,
					"material":0
				},
				{
					"attributes":{
						"POSITION":5,
						"NORMAL":6,
						"TEXCOORD_0":7,
						"TANGENT":8
					},
					"indices":9,
					"material":1
				},
				{
					"attributes":{
						"POSITION":10,
						"NORMAL":11,
						"TEXCOORD_0":12,
						"TANGENT":13
					},
					"indices":14,
					"material":2
				},
				{
					"attributes":{
						"POSITION":15,
						"NORMAL":16,
						"TEXCOORD_0":17,
						"TANGENT":18
					},
					"indices":19,
					"material":3
				},
				{
					"attributes":{
						"POSITION":20,
						"NORMAL":21,
						"TEXCOORD_0":22,
						"TANGENT":23
					},
					"indices":24,
					"material":4
				},
				{
					"attributes":{
						"POSITION":25,
						"NORMAL":26,
						"TEXCOORD_0":27,
						"TANGENT":28
					},
					"indices":29,
					"material":5
				}
			]
		},
		{
			"name":"Cube",
			"primitives":[
				{
					"attributes":{
						"POSITION":30,
						"NORMAL":31,
						"TEXCOORD_0":32,
						"TANGENT":33
					},
					"indices":34,
					"material":6
				}
			]
		}
	],
	"accessors":[
		{
			"bufferView":0,
			"componentType":5126,
			"count":26,
			"max":[
				7.5,
				4.827272891998291,
				6.295454502105713
			],
			"min":[
				0,
				-1.1727274656295776,
				-6.304545879364014
			],
			"type":"VEC3"
		},
		{
			"bufferView":1,
			"componentType":5126,
			"count":26,
			"type":"VEC3"
		},
		{
			"bufferView":2,
			"componentType":5126,
			"count":26,
			"type":"VEC2"
		},
		{
			"bufferView":3,
			"componentType":5126,
			"count":26,
			"type":"VEC4"
		},
		{
			"bufferView":4,
			"componentType":5123,
			"count":72,
			"type":"SCALAR"
		},
		{
			"bufferView":5,
			"componentType":5126,
			"count":44,
			"max":[
				0,
				1.8272725343704224,
				6.295454502105713
			],
			"min":[
				-7.5,
				-1.1727274656295776,
				-6.304545879364014
			],
			"type":"VEC3"
		},
		{
			"bufferView":6,
			"componentType":5126,
			"count":44,
			"type":"VEC3"
		},
		{
			"bufferView":7,
			"componentType":5126,
			"count":44,
			"type":"VEC2"
		},
		{
			"bufferView":8,
			"componentType":5126,
			"count":44,
			"type":"VEC4"
		},
		{
			"bufferView":9,
			"componentType":5123,
			"count":72,
			"type":"SCALAR"
		},
		{
			"bufferView":10,
			"componentType":5126,
			"count":28,
			"max":[
				0,
				4.827272891998291,
				6.295454502105713
			],
			"min":[
				-7.300000190734863,
				1.8272725343704224,
				-6.304545879364014
			],
			"type":"VEC3"
		},
		{
			"bufferView":11,
			"componentType":5126,
			"count":28,
			"type":"VEC3"
		},
		{
			"bufferView":12,
			"componentType":5126,
			"count":28,
			"type":"VEC2"
		},
		{
			"bufferView":13,
			"componentType":5126,
			"count":28,
			"type":"VEC4"
		},
		{
			"bufferView":14,
			"componentType":5123,
			"count":42,
			"type":"SCALAR"
		},
		{
			"bufferView":15,
			"componentType":5126,
			"count":16,
			"max":[
				0,
				-1.1727272272109985,
				6.295454502105713
			],
			"min":[
				-7.5,
				-1.1727274656295776,
				-6.304545879364014
			],
			"type":"VEC3"
		},
		{
			"bufferView":16,
			"componentType":5126,
			"count":16,
			"type":"VEC3"
		},
		{
			"bufferView":17,
			"componentType":5126,
			"count":16,
			"type":"VEC2"
		},
		{
			"bufferView":18,
			"componentType":5126,
			"count":16,
			"type":"VEC4"
		},
		{
			"bufferView":19,
			"componentType":5123,
			"count":48,
			"type":"SCALAR"
		},
		{
			"bufferView":20,
			"componentType":5126,
			"count":58,
			"max":[
				7.5,
				4.827272891998291,
				6.295454502105713
			],
			"min":[
				0,
				-1.1727274656295776,
				-6.304545879364014
			],
			"type":"VEC3"
		},
		{
			"bufferView":21,
			"componentType":5126,
			"count":58,
			"type":"VEC3"
		},
		{
			"bufferView":22,
			"componentType":5126,
			"count":58,
			"type":"VEC2"
		},
		{
			"bufferView":23,
			"componentType":5126,
			"count":58,
			"type":"VEC4"
		},
		{
			"bufferView":24,
			"componentType":5123,
			"count":114,
			"type":"SCALAR"
		},
		{
			"bufferView":25,
			"componentType":5126,
			"count":10,
			"max":[
				0,
				4.827272891998291,
				6.295454502105713
			],
			"min":[
				-7.300000190734863,
				4.827272891998291,
				-6.304545879364014
			],
			"type":"VEC3"
		},
		{
			"bufferView":26,
			"componentType":5126,
			"count":10,
			"type":"VEC3"
		},
		{
			"bufferView":27,
			"componentType":5126,
			"count":10,
			"type":"VEC2"
		},
		{
			"bufferView":28,
			"componentType":5126,
			"count":10,
			"type":"VEC4"
		},
		{
			"bufferView":29,
			"componentType":5123,
			"count":24,
			"type":"SCALAR"
		},
		{
			"bufferView":30,
			"componentType":5126,
			"count":328,
			"max":[
				1.5000004768371582,
				4.878671646118164,
				6.296891212463379
			],
			"min":[
				-1.5,
				-1.310621738433838,
				-6.300000190734863
			],
			"type":"VEC3"
		},
		{
			"bufferView":31,
			"componentType":5126,
			"count":328,
			"type":"VEC3"
		},
		{
			"bufferView":32,
			"componentType":5126,
			"count":328,
			"type":"VEC2"
		},
		{
			"bufferView":33,
			"componentType":5126,
			"count":328,
			"type":"VEC4"
		},
		{
			"bufferView":34,
			"componentType":5123,
			"count":816,
			"type":"SCALAR"
		}
	],
	"bufferViews":[
		{
			"buffer":0,
			"byteLength":312,
			"byteOffset":0,
			"target":34962
		},
		{
			"buffer":0,
			"byteLength":312,
			"byteOffset":312,
			"target":34962
		},
		{
			"buffer":0,
			"byteLength":208,
			"byteOffset":624,
			"target":34962
		},
		{
			"buffer":0,
			"byteLength":416,
			"byteOffset":832,
			"target":34962
		},
		{
			"buffer":0,
			"byteLength":144,
			"byteOffset":1248,
			"target":34963
		},
		{
			"buffer":0,
			"byteLength":528,
			"byteOffset":1392,
			"target":34962
		},
		{
			"buffer":0,
			"byteLength":528,
			"byteOffset":1920,
			"target":34962
		},
		{
			"buffer":0,
			"byteLength":352,
			"byteOffset":2448,
			"target":34962
		},
		{
			"buffer":0,
			"byteLength":704,
			"byteOffset":2800,
			"target":34962
		},
		{
			"buffer":0,
			"byteLength":144,
			"byteOffset":3504,
			"target":34963
		},
		{
			"buffer":0,
			"byteLength":336,
			"byteOffset":3648,
			"target":34962
		},
		{
			"buffer":0,
			"byteLength":336,
			"byteOffset":3984,
			"target":34962
		},
		{
			"buffer":0,
			"byteLength":224,
			"byteOffset":4320,
			"target":34962
		},
		{
			"buffer":0,
			"byteLength":448,
			"byteOffset":4544,
			"target":34962
		},
		{
			"buffer":0,
			"byteLength":84,
			"byteOffset":4992,
			"target":34963
		},
		{
			"buffer":0,
			"byteLength":192,
			"byteOffset":5076,
			"target":34962
		},
		{
			"buffer":0,
			"byteLength":192,
			"byteOffset":5268,
			"target":34962
		},
		{
			"buffer":0,
			"byteLength":128,
			"byteOffset":5460,
			"target":34962
		},
		{
			"buffer":0,
			"byteLength":256,
			"byteOffset":5588,
			"target":34962
		},
		{
			"buffer":0,
			"byteLength":96,
			"byteOffset":5844,
			"target":34963
		},
		{
			"buffer":0,
			"byteLength":696,
			"byteOffset":5940,
			"target":34962
		},
		{
			"buffer":0,
			"byteLength":696,
			"byteOffset":6636,
			"target":34962
		},
		{
			"buffer":0,
			"byteLength":464,
			"byteOffset":7332,
			"target":34962
		},
		{
			"buffer":0,
			"byteLength":928,
			"byteOffset":7796,
			"target":34962
		},
		{
			"buffer":0,
			"byteLength":228,
			"byteOffset":8724,
			"target":34963
		},
		{
			"buffer":0,
			"byteLength":120,
			"byteOffset":8952,
			"target":34962
		},
		{
			"buffer":0,
			"byteLength":120,
			"byteOffset":9072,
			"target":34962
		},
		{
			"buffer":0,
			"byteLength":80,
			"byteOffset":9192,
			"target":34962
		},
		{
			"buffer":0,
			"byteLength":160,
			"byteOffset":9272,
			"target":34962
		},
		{
			"buffer":0,
			"byteLength":48,
			"byteOffset":9432,
			"target":34963
		},
		{
			"buffer":0,
			"byteLength":3936,
			"byteOffset":9480,
			"target":34962
		},
		{
			"buffer":0,
			"byteLength":3936,
			"byteOffset":13416,
			"target":34962
		},
		{
			"buffer":0,
			"byteLength":2624,
			"byteOffset":17352,
			"target":34962
		},
		{
			"buffer":0,
			"byteLength":5248,
			"byteOffset":19976,
			"target":34962
		},
		{
			"buffer":0,
			"byteLength":1632,
			"byteOffset":25224,
			"target":34963
		}
	],
	"buffers":[
		{
			"byteLength":26856,
			"uri":"HConToEntCheckpoint-08957e1588918c56ee7e38336fae59c1.bin"
		}
	]
}
