{
	"asset":{
		"generator":"Khronos glTF Blender I/O v4.3.47",
		"version":"2.0"
	},
	"scene":0,
	"scenes":[
		{
			"name":"Scene",
			"nodes":[
				0,
				1,
				2,
				3
			]
		}
	],
	"nodes":[
		{
			"mesh":0,
			"name":"room"
		},
		{
			"mesh":1,
			"name":"pipes",
			"translation":[
				3.5001001358032227,
				0.6872682571411133,
				-8.513909339904785
			]
		},
		{
			"mesh":2,
			"name":"elevator",
			"translation":[
				3.5001001358032227,
				0.6872682571411133,
				-8.513909339904785
			]
		},
		{
			"mesh":3,
			"name":"rail",
			"translation":[
				3.5001001358032227,
				0.6872682571411133,
				-8.513909339904785
			]
		}
	],
	"materials":[
		{
			"name":"Material",
			"pbrMetallicRoughness":{
				"baseColorTexture":{
					"index":0
				},
				"metallicFactor":0,
				"roughnessFactor":0.5
			}
		},
		{
			"name":"Material.001",
			"pbrMetallicRoughness":{
				"baseColorTexture":{
					"index":1
				},
				"metallicFactor":0,
				"roughnessFactor":0.5
			}
		},
		{
			"name":"Material.003",
			"normalTexture":{
				"index":2
			},
			"pbrMetallicRoughness":{
				"baseColorTexture":{
					"index":3
				},
				"metallicFactor":0,
				"roughnessFactor":0.5
			}
		},
		{
			"name":"Material.004",
			"pbrMetallicRoughness":{
				"baseColorTexture":{
					"index":4
				},
				"metallicFactor":0,
				"roughnessFactor":0.5
			}
		},
		{
			"doubleSided":true,
			"name":"Material.009",
			"pbrMetallicRoughness":{
				"baseColorTexture":{
					"index":5
				},
				"metallicFactor":0,
				"roughnessFactor":0.5
			}
		},
		{
			"doubleSided":true,
			"name":"Material.006",
			"pbrMetallicRoughness":{
				"baseColorTexture":{
					"index":6
				},
				"metallicFactor":0,
				"roughnessFactor":0.5
			}
		},
		{
			"name":"Material.007",
			"pbrMetallicRoughness":{
				"baseColorTexture":{
					"index":7
				},
				"metallicFactor":0,
				"roughnessFactor":0.5
			}
		},
		{
			"doubleSided":true,
			"name":"Material.008",
			"pbrMetallicRoughness":{
				"baseColorTexture":{
					"index":8
				},
				"metallicFactor":0,
				"roughnessFactor":0.5
			}
		},
		{
			"name":"Material.010",
			"pbrMetallicRoughness":{
				"baseColorTexture":{
					"index":9
				},
				"metallicFactor":0,
				"roughnessFactor":0.5
			}
		}
	],
	"meshes":[
		{
			"name":"Cube.001",
			"primitives":[
				{
					"attributes":{
						"POSITION":0,
						"NORMAL":1,
						"TEXCOORD_0":2
					},
					"indices":3,
					"material":0
				},
				{
					"attributes":{
						"POSITION":4,
						"NORMAL":5,
						"TEXCOORD_0":6
					},
					"indices":7,
					"material":1
				},
				{
					"attributes":{
						"POSITION":8,
						"NORMAL":9,
						"TEXCOORD_0":10
					},
					"indices":11,
					"material":2
				},
				{
					"attributes":{
						"POSITION":12,
						"NORMAL":13,
						"TEXCOORD_0":14
					},
					"indices":15,
					"material":3
				},
				{
					"attributes":{
						"POSITION":16,
						"NORMAL":17,
						"TEXCOORD_0":18
					},
					"indices":19,
					"material":4
				}
			]
		},
		{
			"name":"Cylinder",
			"primitives":[
				{
					"attributes":{
						"POSITION":20,
						"NORMAL":21,
						"TEXCOORD_0":22,
						"TANGENT":23
					},
					"indices":24,
					"material":5
				}
			]
		},
		{
			"name":"Cube.002",
			"primitives":[
				{
					"attributes":{
						"POSITION":25,
						"NORMAL":26,
						"TEXCOORD_0":27
					},
					"indices":28,
					"material":6
				},
				{
					"attributes":{
						"POSITION":29,
						"NORMAL":30,
						"TEXCOORD_0":31
					},
					"indices":32,
					"material":7
				}
			]
		},
		{
			"name":"Cube.003",
			"primitives":[
				{
					"attributes":{
						"POSITION":33,
						"NORMAL":34,
						"TEXCOORD_0":35,
						"TANGENT":36
					},
					"indices":37,
					"material":8
				}
			]
		}
	],
	"textures":[
		{
			"sampler":0,
			"source":0
		},
		{
			"sampler":0,
			"source":1
		},
		{
			"sampler":0,
			"source":2
		},
		{
			"sampler":0,
			"source":3
		},
		{
			"sampler":0,
			"source":4
		},
		{
			"sampler":0,
			"source":5
		},
		{
			"sampler":0,
			"source":6
		},
		{
			"sampler":0,
			"source":6
		},
		{
			"sampler":0,
			"source":7
		},
		{
			"sampler":0,
			"source":6
		}
	],
	"images":[
		{
			"mimeType":"image/jpeg",
			"name":"metalpanels.jpg",
			"uri":"../../rooms/Textures/metalpanels.jpg"
		},
		{
			"mimeType":"image/jpeg",
			"name":"concretefloor.jpg",
			"uri":"../../rooms/Textures/concretefloor.jpg"
		},
		{
			"mimeType":"image/png",
			"name":"metal3_specular.png",
			"uri":"../../rooms/Textures/normals/metal3_specular.png"
		},
		{
			"mimeType":"image/jpeg",
			"name":"metal3.jpg",
			"uri":"../../rooms/Textures/metal3.jpg"
		},
		{
			"mimeType":"image/jpeg",
			"name":"concretewall.jpg",
			"uri":"../../rooms/Textures/concretewall.jpg"
		},
		{
			"mimeType":"image/png",
			"name":"misc_signs(2).png",
			"uri":"../../rooms/Textures/misc_signs%282%29.png"
		},
		{
			"mimeType":"image/jpeg",
			"name":"dirtymetal.jpg",
			"uri":"../../rooms/Textures/dirtymetal.jpg"
		},
		{
			"mimeType":"image/png",
			"name":"door03.png",
			"uri":"../../rooms/Textures/door03.png"
		}
	],
	"accessors":[
		{
			"bufferView":0,
			"componentType":5126,
			"count":33,
			"max":[
				7.5,
				1.2645163536071777,
				0.699999988079071
			],
			"min":[
				-7.5,
				-1.1354838609695435,
				-10.600000381469727
			],
			"type":"VEC3"
		},
		{
			"bufferView":1,
			"componentType":5126,
			"count":33,
			"type":"VEC3"
		},
		{
			"bufferView":2,
			"componentType":5126,
			"count":33,
			"type":"VEC2"
		},
		{
			"bufferView":3,
			"componentType":5123,
			"count":51,
			"type":"SCALAR"
		},
		{
			"bufferView":4,
			"componentType":5126,
			"count":61,
			"max":[
				7.300000190734863,
				2.863765239715576,
				1.5
			],
			"min":[
				-7.3012285232543945,
				-1.1354838609695435,
				-10.600000381469727
			],
			"type":"VEC3"
		},
		{
			"bufferView":5,
			"componentType":5126,
			"count":61,
			"type":"VEC3"
		},
		{
			"bufferView":6,
			"componentType":5126,
			"count":61,
			"type":"VEC2"
		},
		{
			"bufferView":7,
			"componentType":5123,
			"count":150,
			"type":"SCALAR"
		},
		{
			"bufferView":8,
			"componentType":5126,
			"count":44,
			"max":[
				7.5,
				-1.1354838609695435,
				1.5
			],
			"min":[
				-7.5,
				-1.1354838609695435,
				-6
			],
			"type":"VEC3"
		},
		{
			"bufferView":9,
			"componentType":5126,
			"count":44,
			"type":"VEC3"
		},
		{
			"bufferView":10,
			"componentType":5126,
			"count":44,
			"type":"VEC2"
		},
		{
			"bufferView":11,
			"componentType":5123,
			"count":114,
			"type":"SCALAR"
		},
		{
			"bufferView":12,
			"componentType":5126,
			"count":232,
			"max":[
				7.5,
				2.863765239715576,
				1.5
			],
			"min":[
				-7.5,
				-18.135482788085938,
				-10.59999942779541
			],
			"type":"VEC3"
		},
		{
			"bufferView":13,
			"componentType":5126,
			"count":232,
			"type":"VEC3"
		},
		{
			"bufferView":14,
			"componentType":5126,
			"count":232,
			"type":"VEC2"
		},
		{
			"bufferView":15,
			"componentType":5123,
			"count":438,
			"type":"SCALAR"
		},
		{
			"bufferView":16,
			"componentType":5126,
			"count":20,
			"max":[
				-3.489816188812256,
				1.0016770362854004,
				-1.4511418342590332
			],
			"min":[
				-4.476189136505127,
				0.42153120040893555,
				-1.5078626871109009
			],
			"type":"VEC3"
		},
		{
			"bufferView":17,
			"componentType":5126,
			"count":20,
			"type":"VEC3"
		},
		{
			"bufferView":18,
			"componentType":5126,
			"count":20,
			"type":"VEC2"
		},
		{
			"bufferView":19,
			"componentType":5123,
			"count":30,
			"type":"SCALAR"
		},
		{
			"bufferView":20,
			"componentType":5126,
			"count":144,
			"max":[
				-10.415810585021973,
				1.0717499256134033,
				6.461477756500244
			],
			"min":[
				-10.815812110900879,
				-2.0254054069519043,
				-1.8253819942474365
			],
			"type":"VEC3"
		},
		{
			"bufferView":21,
			"componentType":5126,
			"count":144,
			"type":"VEC3"
		},
		{
			"bufferView":22,
			"componentType":5126,
			"count":144,
			"type":"VEC2"
		},
		{
			"bufferView":23,
			"componentType":5126,
			"count":144,
			"type":"VEC4"
		},
		{
			"bufferView":24,
			"componentType":5123,
			"count":432,
			"type":"SCALAR"
		},
		{
			"bufferView":25,
			"componentType":5126,
			"count":24,
			"max":[
				-0.24258434772491455,
				-15.129999160766602,
				2.2287509441375732
			],
			"min":[
				-3.7825846672058105,
				-18.670000076293945,
				-1.3112491369247437
			],
			"type":"VEC3"
		},
		{
			"bufferView":26,
			"componentType":5126,
			"count":24,
			"type":"VEC3"
		},
		{
			"bufferView":27,
			"componentType":5126,
			"count":24,
			"type":"VEC2"
		},
		{
			"bufferView":28,
			"componentType":5123,
			"count":36,
			"type":"SCALAR"
		},
		{
			"bufferView":29,
			"componentType":5126,
			"count":112,
			"max":[
				-1.8528209924697876,
				2.7223358154296875,
				0.8852338194847107
			],
			"min":[
				-2.7891063690185547,
				-15.621337890625,
				-0.11476629972457886
			],
			"type":"VEC3"
		},
		{
			"bufferView":30,
			"componentType":5126,
			"count":112,
			"type":"VEC3"
		},
		{
			"bufferView":31,
			"componentType":5126,
			"count":112,
			"type":"VEC2"
		},
		{
			"bufferView":32,
			"componentType":5123,
			"count":180,
			"type":"SCALAR"
		},
		{
			"bufferView":33,
			"componentType":5126,
			"count":120,
			"max":[
				-3.9576408863067627,
				-0.7805989980697632,
				2.345858335494995
			],
			"min":[
				-4.112142086029053,
				-1.931281566619873,
				-1.695000410079956
			],
			"type":"VEC3"
		},
		{
			"bufferView":34,
			"componentType":5126,
			"count":120,
			"type":"VEC3"
		},
		{
			"bufferView":35,
			"componentType":5126,
			"count":120,
			"type":"VEC2"
		},
		{
			"bufferView":36,
			"componentType":5126,
			"count":120,
			"type":"VEC4"
		},
		{
			"bufferView":37,
			"componentType":5123,
			"count":180,
			"type":"SCALAR"
		}
	],
	"bufferViews":[
		{
			"buffer":0,
			"byteLength":396,
			"byteOffset":0,
			"target":34962
		},
		{
			"buffer":0,
			"byteLength":396,
			"byteOffset":396,
			"target":34962
		},
		{
			"buffer":0,
			"byteLength":264,
			"byteOffset":792,
			"target":34962
		},
		{
			"buffer":0,
			"byteLength":102,
			"byteOffset":1056,
			"target":34963
		},
		{
			"buffer":0,
			"byteLength":732,
			"byteOffset":1160,
			"target":34962
		},
		{
			"buffer":0,
			"byteLength":732,
			"byteOffset":1892,
			"target":34962
		},
		{
			"buffer":0,
			"byteLength":488,
			"byteOffset":2624,
			"target":34962
		},
		{
			"buffer":0,
			"byteLength":300,
			"byteOffset":3112,
			"target":34963
		},
		{
			"buffer":0,
			"byteLength":528,
			"byteOffset":3412,
			"target":34962
		},
		{
			"buffer":0,
			"byteLength":528,
			"byteOffset":3940,
			"target":34962
		},
		{
			"buffer":0,
			"byteLength":352,
			"byteOffset":4468,
			"target":34962
		},
		{
			"buffer":0,
			"byteLength":228,
			"byteOffset":4820,
			"target":34963
		},
		{
			"buffer":0,
			"byteLength":2784,
			"byteOffset":5048,
			"target":34962
		},
		{
			"buffer":0,
			"byteLength":2784,
			"byteOffset":7832,
			"target":34962
		},
		{
			"buffer":0,
			"byteLength":1856,
			"byteOffset":10616,
			"target":34962
		},
		{
			"buffer":0,
			"byteLength":876,
			"byteOffset":12472,
			"target":34963
		},
		{
			"buffer":0,
			"byteLength":240,
			"byteOffset":13348,
			"target":34962
		},
		{
			"buffer":0,
			"byteLength":240,
			"byteOffset":13588,
			"target":34962
		},
		{
			"buffer":0,
			"byteLength":160,
			"byteOffset":13828,
			"target":34962
		},
		{
			"buffer":0,
			"byteLength":60,
			"byteOffset":13988,
			"target":34963
		},
		{
			"buffer":0,
			"byteLength":1728,
			"byteOffset":14048,
			"target":34962
		},
		{
			"buffer":0,
			"byteLength":1728,
			"byteOffset":15776,
			"target":34962
		},
		{
			"buffer":0,
			"byteLength":1152,
			"byteOffset":17504,
			"target":34962
		},
		{
			"buffer":0,
			"byteLength":2304,
			"byteOffset":18656,
			"target":34962
		},
		{
			"buffer":0,
			"byteLength":864,
			"byteOffset":20960,
			"target":34963
		},
		{
			"buffer":0,
			"byteLength":288,
			"byteOffset":21824,
			"target":34962
		},
		{
			"buffer":0,
			"byteLength":288,
			"byteOffset":22112,
			"target":34962
		},
		{
			"buffer":0,
			"byteLength":192,
			"byteOffset":22400,
			"target":34962
		},
		{
			"buffer":0,
			"byteLength":72,
			"byteOffset":22592,
			"target":34963
		},
		{
			"buffer":0,
			"byteLength":1344,
			"byteOffset":22664,
			"target":34962
		},
		{
			"buffer":0,
			"byteLength":1344,
			"byteOffset":24008,
			"target":34962
		},
		{
			"buffer":0,
			"byteLength":896,
			"byteOffset":25352,
			"target":34962
		},
		{
			"buffer":0,
			"byteLength":360,
			"byteOffset":26248,
			"target":34963
		},
		{
			"buffer":0,
			"byteLength":1440,
			"byteOffset":26608,
			"target":34962
		},
		{
			"buffer":0,
			"byteLength":1440,
			"byteOffset":28048,
			"target":34962
		},
		{
			"buffer":0,
			"byteLength":960,
			"byteOffset":29488,
			"target":34962
		},
		{
			"buffer":0,
			"byteLength":1920,
			"byteOffset":30448,
			"target":34962
		},
		{
			"buffer":0,
			"byteLength":360,
			"byteOffset":32368,
			"target":34963
		}
	],
	"samplers":[
		{
			"magFilter":9729,
			"minFilter":9987
		}
	],
	"buffers":[
		{
			"byteLength":32728,
			"uri":"HCon2WayElevatorStorage-9e4dfa5b9ae9132a885417bdfaede4d7.bin"
		}
	]
}
