{
	"asset":{
		"generator":"Khronos glTF Blender I/O v4.3.47",
		"version":"2.0"
	},
	"scene":0,
	"scenes":[
		{
			"name":"Scene",
			"nodes":[
				0,
				1
			]
		}
	],
	"nodes":[
		{
			"mesh":0,
			"name":"Elev1-col",
			"translation":[
				0,
				0,
				0.001138493069447577
			]
		},
		{
			"mesh":1,
			"name":"middle-col"
		}
	],
	"materials":[
		{
			"name":"Material",
			"normalTexture":{
				"index":0
			},
			"pbrMetallicRoughness":{
				"baseColorTexture":{
					"index":1
				},
				"metallicFactor":0,
				"roughnessFactor":0.5
			}
		},
		{
			"name":"Material.001",
			"pbrMetallicRoughness":{
				"baseColorTexture":{
					"index":2
				},
				"metallicFactor":0,
				"roughnessFactor":0.5
			}
		},
		{
			"name":"Material.002",
			"normalTexture":{
				"index":3
			},
			"pbrMetallicRoughness":{
				"baseColorTexture":{
					"index":4
				},
				"metallicFactor":0,
				"roughnessFactor":0.5
			}
		},
		{
			"name":"Material.004",
			"normalTexture":{
				"index":5
			},
			"pbrMetallicRoughness":{
				"baseColorTexture":{
					"index":6
				},
				"metallicFactor":0,
				"roughnessFactor":0.5
			}
		},
		{
			"name":"Material.005",
			"pbrMetallicRoughness":{
				"baseColorTexture":{
					"index":7
				},
				"metallicFactor":0,
				"roughnessFactor":0.5
			}
		},
		{
			"name":"Material.006",
			"pbrMetallicRoughness":{
				"baseColorTexture":{
					"index":8
				},
				"metallicFactor":0,
				"roughnessFactor":0.5
			}
		},
		{
			"doubleSided":true,
			"name":"Material.007",
			"pbrMetallicRoughness":{
				"baseColorTexture":{
					"index":9
				},
				"metallicFactor":0,
				"roughnessFactor":0.5
			}
		},
		{
			"name":"Material.009",
			"pbrMetallicRoughness":{
				"baseColorTexture":{
					"index":10
				},
				"metallicFactor":0,
				"roughnessFactor":0.5
			}
		},
		{
			"name":"Material.010",
			"pbrMetallicRoughness":{
				"baseColorTexture":{
					"index":11
				},
				"metallicFactor":0,
				"roughnessFactor":0.5
			}
		},
		{
			"alphaMode":"BLEND",
			"name":"Material.013",
			"pbrMetallicRoughness":{
				"baseColorFactor":[
					1,
					1,
					1,
					0.8999999761581421
				],
				"baseColorTexture":{
					"index":12
				},
				"metallicFactor":0,
				"roughnessFactor":0.5
			}
		},
		{
			"name":"Material.014",
			"pbrMetallicRoughness":{
				"baseColorTexture":{
					"index":13
				},
				"metallicFactor":0,
				"roughnessFactor":0.5
			}
		}
	],
	"meshes":[
		{
			"name":"Cube.002",
			"primitives":[
				{
					"attributes":{
						"POSITION":0,
						"NORMAL":1,
						"TEXCOORD_0":2
					},
					"indices":3,
					"material":0
				},
				{
					"attributes":{
						"POSITION":4,
						"NORMAL":5,
						"TEXCOORD_0":6
					},
					"indices":7,
					"material":1
				},
				{
					"attributes":{
						"POSITION":8,
						"NORMAL":9,
						"TEXCOORD_0":10
					},
					"indices":11,
					"material":2
				},
				{
					"attributes":{
						"POSITION":12,
						"NORMAL":13,
						"TEXCOORD_0":14
					},
					"indices":15,
					"material":3
				}
			]
		},
		{
			"name":"Cube.003",
			"primitives":[
				{
					"attributes":{
						"POSITION":16,
						"NORMAL":17,
						"TEXCOORD_0":18
					},
					"indices":19,
					"material":0
				},
				{
					"attributes":{
						"POSITION":20,
						"NORMAL":21,
						"TEXCOORD_0":22
					},
					"indices":23,
					"material":3
				},
				{
					"attributes":{
						"POSITION":24,
						"NORMAL":25,
						"TEXCOORD_0":26
					},
					"indices":27,
					"material":4
				},
				{
					"attributes":{
						"POSITION":28,
						"NORMAL":29,
						"TEXCOORD_0":30
					},
					"indices":31,
					"material":5
				},
				{
					"attributes":{
						"POSITION":32,
						"NORMAL":33,
						"TEXCOORD_0":34
					},
					"indices":35,
					"material":6
				},
				{
					"attributes":{
						"POSITION":36,
						"NORMAL":37,
						"TEXCOORD_0":38
					},
					"indices":39,
					"material":7
				},
				{
					"attributes":{
						"POSITION":40,
						"NORMAL":41,
						"TEXCOORD_0":42
					},
					"indices":43,
					"material":8
				},
				{
					"attributes":{
						"POSITION":44,
						"NORMAL":45,
						"TEXCOORD_0":46
					},
					"indices":47,
					"material":9
				},
				{
					"attributes":{
						"POSITION":48,
						"NORMAL":49,
						"TEXCOORD_0":50
					},
					"indices":51,
					"material":10
				}
			]
		}
	],
	"textures":[
		{
			"sampler":0,
			"source":0
		},
		{
			"sampler":0,
			"source":1
		},
		{
			"sampler":0,
			"source":2
		},
		{
			"sampler":0,
			"source":3
		},
		{
			"sampler":0,
			"source":4
		},
		{
			"sampler":0,
			"source":5
		},
		{
			"sampler":0,
			"source":6
		},
		{
			"sampler":0,
			"source":7
		},
		{
			"sampler":0,
			"source":8
		},
		{
			"sampler":0,
			"source":9
		},
		{
			"sampler":0,
			"source":10
		},
		{
			"sampler":0,
			"source":11
		},
		{
			"sampler":0,
			"source":12
		},
		{
			"sampler":0,
			"source":12
		}
	],
	"images":[
		{
			"mimeType":"image/png",
			"name":"concrete_wall.png",
			"uri":"../../rooms/Textures/normals/concrete_wall.png"
		},
		{
			"mimeType":"image/jpeg",
			"name":"concretewall.jpg",
			"uri":"../../rooms/Textures/concretewall.jpg"
		},
		{
			"mimeType":"image/jpeg",
			"name":"dirtymetal.jpg",
			"uri":"../../rooms/Textures/dirtymetal.jpg"
		},
		{
			"mimeType":"image/png",
			"name":"metal3_specular.png",
			"uri":"../../rooms/Textures/normals/metal3_specular.png"
		},
		{
			"mimeType":"image/jpeg",
			"name":"metal3.jpg",
			"uri":"../../rooms/Textures/metal3.jpg"
		},
		{
			"mimeType":"image/png",
			"name":"concrete_floor.png",
			"uri":"../../rooms/Textures/normals/concrete_floor.png"
		},
		{
			"mimeType":"image/jpeg",
			"name":"concretefloor.jpg",
			"uri":"../../rooms/Textures/concretefloor.jpg"
		},
		{
			"mimeType":"image/jpeg",
			"name":"cloth.jpg",
			"uri":"../../rooms/Textures/cloth.jpg"
		},
		{
			"mimeType":"image/jpeg",
			"name":"soft grey.jpg",
			"uri":"../../rooms/Textures/soft%20grey.jpg"
		},
		{
			"mimeType":"image/jpeg",
			"name":"tilefloor.jpg",
			"uri":"../../rooms/Textures/tilefloor.jpg"
		},
		{
			"mimeType":"image/png",
			"name":"whitewall1.png",
			"uri":"../../rooms/Textures/whitewall1.png"
		},
		{
			"mimeType":"image/jpeg",
			"name":"ceiling.jpg",
			"uri":"../../rooms/Textures/ceiling.jpg"
		},
		{
			"mimeType":"image/png",
			"name":"glass.png",
			"uri":"../../rooms/Textures/glass.png"
		}
	],
	"accessors":[
		{
			"bufferView":0,
			"componentType":5126,
			"count":434,
			"max":[
				16.7447509765625,
				1.9519332647323608,
				19.52722930908203
			],
			"min":[
				-16.757535934448242,
				-1.1536264419555664,
				-20.485876083374023
			],
			"type":"VEC3"
		},
		{
			"bufferView":1,
			"componentType":5126,
			"count":434,
			"type":"VEC3"
		},
		{
			"bufferView":2,
			"componentType":5126,
			"count":434,
			"type":"VEC2"
		},
		{
			"bufferView":3,
			"componentType":5123,
			"count":810,
			"type":"SCALAR"
		},
		{
			"bufferView":4,
			"componentType":5126,
			"count":444,
			"max":[
				16.728736877441406,
				1.8480675220489502,
				19.507614135742188
			],
			"min":[
				-16.728734970092773,
				-1.1480674743652344,
				-20.465837478637695
			],
			"type":"VEC3"
		},
		{
			"bufferView":5,
			"componentType":5126,
			"count":444,
			"type":"VEC3"
		},
		{
			"bufferView":6,
			"componentType":5126,
			"count":444,
			"type":"VEC2"
		},
		{
			"bufferView":7,
			"componentType":5123,
			"count":1170,
			"type":"SCALAR"
		},
		{
			"bufferView":8,
			"componentType":5126,
			"count":264,
			"max":[
				15.900460243225098,
				1.8480675220489502,
				18.679336547851562
			],
			"min":[
				-15.900457382202148,
				-1.1536264419555664,
				-20.465837478637695
			],
			"type":"VEC3"
		},
		{
			"bufferView":9,
			"componentType":5126,
			"count":264,
			"type":"VEC3"
		},
		{
			"bufferView":10,
			"componentType":5126,
			"count":264,
			"type":"VEC2"
		},
		{
			"bufferView":11,
			"componentType":5123,
			"count":624,
			"type":"SCALAR"
		},
		{
			"bufferView":12,
			"componentType":5126,
			"count":82,
			"max":[
				16.69570541381836,
				1.8519333600997925,
				10.400330543518066
			],
			"min":[
				-12.300529479980469,
				-1.1536264419555664,
				-7.894660472869873
			],
			"type":"VEC3"
		},
		{
			"bufferView":13,
			"componentType":5126,
			"count":82,
			"type":"VEC3"
		},
		{
			"bufferView":14,
			"componentType":5126,
			"count":82,
			"type":"VEC2"
		},
		{
			"bufferView":15,
			"componentType":5123,
			"count":192,
			"type":"SCALAR"
		},
		{
			"bufferView":16,
			"componentType":5126,
			"count":94,
			"max":[
				6.489140033721924,
				1.851933240890503,
				-1.4960501194000244
			],
			"min":[
				-6.6566972732543945,
				-1.148066759109497,
				-11.000401496887207
			],
			"type":"VEC3"
		},
		{
			"bufferView":17,
			"componentType":5126,
			"count":94,
			"type":"VEC3"
		},
		{
			"bufferView":18,
			"componentType":5126,
			"count":94,
			"type":"VEC2"
		},
		{
			"bufferView":19,
			"componentType":5123,
			"count":174,
			"type":"SCALAR"
		},
		{
			"bufferView":20,
			"componentType":5126,
			"count":47,
			"max":[
				6.489140033721924,
				1.851933240890503,
				-1.4960501194000244
			],
			"min":[
				-6.5059895515441895,
				-1.148066759109497,
				-11.000401496887207
			],
			"type":"VEC3"
		},
		{
			"bufferView":21,
			"componentType":5126,
			"count":47,
			"type":"VEC3"
		},
		{
			"bufferView":22,
			"componentType":5126,
			"count":47,
			"type":"VEC2"
		},
		{
			"bufferView":23,
			"componentType":5123,
			"count":144,
			"type":"SCALAR"
		},
		{
			"bufferView":24,
			"componentType":5126,
			"count":74,
			"max":[
				-0.35304003953933716,
				1.851933240890503,
				-2.196049451828003
			],
			"min":[
				-12.550971984863281,
				-1.1624934673309326,
				-14.401668548583984
			],
			"type":"VEC3"
		},
		{
			"bufferView":25,
			"componentType":5126,
			"count":74,
			"type":"VEC3"
		},
		{
			"bufferView":26,
			"componentType":5126,
			"count":74,
			"type":"VEC2"
		},
		{
			"bufferView":27,
			"componentType":5123,
			"count":144,
			"type":"SCALAR"
		},
		{
			"bufferView":28,
			"componentType":5126,
			"count":12,
			"max":[
				-6.448998928070068,
				1.464754343032837,
				-11.246292114257812
			],
			"min":[
				-6.6014885902404785,
				-0.3468180298805237,
				-11.545806884765625
			],
			"type":"VEC3"
		},
		{
			"bufferView":29,
			"componentType":5126,
			"count":12,
			"type":"VEC3"
		},
		{
			"bufferView":30,
			"componentType":5126,
			"count":12,
			"type":"VEC2"
		},
		{
			"bufferView":31,
			"componentType":5123,
			"count":18,
			"type":"SCALAR"
		},
		{
			"bufferView":32,
			"componentType":5126,
			"count":19,
			"max":[
				-6.751252174377441,
				-1.148066759109497,
				-2.196049451828003
			],
			"min":[
				-12.550971984863281,
				-1.148066759109497,
				-14.396049499511719
			],
			"type":"VEC3"
		},
		{
			"bufferView":33,
			"componentType":5126,
			"count":19,
			"type":"VEC3"
		},
		{
			"bufferView":34,
			"componentType":5126,
			"count":19,
			"type":"VEC2"
		},
		{
			"bufferView":35,
			"componentType":5123,
			"count":69,
			"type":"SCALAR"
		},
		{
			"bufferView":36,
			"componentType":5126,
			"count":112,
			"max":[
				-6.451409816741943,
				1.851933240890503,
				-2.196049451828003
			],
			"min":[
				-12.550971984863281,
				-1.148066759109497,
				-14.396049499511719
			],
			"type":"VEC3"
		},
		{
			"bufferView":37,
			"componentType":5126,
			"count":112,
			"type":"VEC3"
		},
		{
			"bufferView":38,
			"componentType":5126,
			"count":112,
			"type":"VEC2"
		},
		{
			"bufferView":39,
			"componentType":5123,
			"count":210,
			"type":"SCALAR"
		},
		{
			"bufferView":40,
			"componentType":5126,
			"count":4,
			"max":[
				-6.751252174377441,
				1.851933240890503,
				-2.3960494995117188
			],
			"min":[
				-12.351252555847168,
				1.851933240890503,
				-14.396049499511719
			],
			"type":"VEC3"
		},
		{
			"bufferView":41,
			"componentType":5126,
			"count":4,
			"type":"VEC3"
		},
		{
			"bufferView":42,
			"componentType":5126,
			"count":4,
			"type":"VEC2"
		},
		{
			"bufferView":43,
			"componentType":5123,
			"count":6,
			"type":"SCALAR"
		},
		{
			"bufferView":44,
			"componentType":5126,
			"count":12,
			"max":[
				-6.563332557678223,
				1.5611921548843384,
				-3.452198028564453
			],
			"min":[
				-6.726473331451416,
				-0.4431692361831665,
				-14.040140151977539
			],
			"type":"VEC3"
		},
		{
			"bufferView":45,
			"componentType":5126,
			"count":12,
			"type":"VEC3"
		},
		{
			"bufferView":46,
			"componentType":5126,
			"count":12,
			"type":"VEC2"
		},
		{
			"bufferView":47,
			"componentType":5123,
			"count":18,
			"type":"SCALAR"
		},
		{
			"bufferView":48,
			"componentType":5126,
			"count":4,
			"max":[
				-6.529317855834961,
				1.5611921548843384,
				-8.746169090270996
			],
			"min":[
				-6.532294750213623,
				-0.4431692361831665,
				-14.040140151977539
			],
			"type":"VEC3"
		},
		{
			"bufferView":49,
			"componentType":5126,
			"count":4,
			"type":"VEC3"
		},
		{
			"bufferView":50,
			"componentType":5126,
			"count":4,
			"type":"VEC2"
		},
		{
			"bufferView":51,
			"componentType":5123,
			"count":6,
			"type":"SCALAR"
		}
	],
	"bufferViews":[
		{
			"buffer":0,
			"byteLength":5208,
			"byteOffset":0,
			"target":34962
		},
		{
			"buffer":0,
			"byteLength":5208,
			"byteOffset":5208,
			"target":34962
		},
		{
			"buffer":0,
			"byteLength":3472,
			"byteOffset":10416,
			"target":34962
		},
		{
			"buffer":0,
			"byteLength":1620,
			"byteOffset":13888,
			"target":34963
		},
		{
			"buffer":0,
			"byteLength":5328,
			"byteOffset":15508,
			"target":34962
		},
		{
			"buffer":0,
			"byteLength":5328,
			"byteOffset":20836,
			"target":34962
		},
		{
			"buffer":0,
			"byteLength":3552,
			"byteOffset":26164,
			"target":34962
		},
		{
			"buffer":0,
			"byteLength":2340,
			"byteOffset":29716,
			"target":34963
		},
		{
			"buffer":0,
			"byteLength":3168,
			"byteOffset":32056,
			"target":34962
		},
		{
			"buffer":0,
			"byteLength":3168,
			"byteOffset":35224,
			"target":34962
		},
		{
			"buffer":0,
			"byteLength":2112,
			"byteOffset":38392,
			"target":34962
		},
		{
			"buffer":0,
			"byteLength":1248,
			"byteOffset":40504,
			"target":34963
		},
		{
			"buffer":0,
			"byteLength":984,
			"byteOffset":41752,
			"target":34962
		},
		{
			"buffer":0,
			"byteLength":984,
			"byteOffset":42736,
			"target":34962
		},
		{
			"buffer":0,
			"byteLength":656,
			"byteOffset":43720,
			"target":34962
		},
		{
			"buffer":0,
			"byteLength":384,
			"byteOffset":44376,
			"target":34963
		},
		{
			"buffer":0,
			"byteLength":1128,
			"byteOffset":44760,
			"target":34962
		},
		{
			"buffer":0,
			"byteLength":1128,
			"byteOffset":45888,
			"target":34962
		},
		{
			"buffer":0,
			"byteLength":752,
			"byteOffset":47016,
			"target":34962
		},
		{
			"buffer":0,
			"byteLength":348,
			"byteOffset":47768,
			"target":34963
		},
		{
			"buffer":0,
			"byteLength":564,
			"byteOffset":48116,
			"target":34962
		},
		{
			"buffer":0,
			"byteLength":564,
			"byteOffset":48680,
			"target":34962
		},
		{
			"buffer":0,
			"byteLength":376,
			"byteOffset":49244,
			"target":34962
		},
		{
			"buffer":0,
			"byteLength":288,
			"byteOffset":49620,
			"target":34963
		},
		{
			"buffer":0,
			"byteLength":888,
			"byteOffset":49908,
			"target":34962
		},
		{
			"buffer":0,
			"byteLength":888,
			"byteOffset":50796,
			"target":34962
		},
		{
			"buffer":0,
			"byteLength":592,
			"byteOffset":51684,
			"target":34962
		},
		{
			"buffer":0,
			"byteLength":288,
			"byteOffset":52276,
			"target":34963
		},
		{
			"buffer":0,
			"byteLength":144,
			"byteOffset":52564,
			"target":34962
		},
		{
			"buffer":0,
			"byteLength":144,
			"byteOffset":52708,
			"target":34962
		},
		{
			"buffer":0,
			"byteLength":96,
			"byteOffset":52852,
			"target":34962
		},
		{
			"buffer":0,
			"byteLength":36,
			"byteOffset":52948,
			"target":34963
		},
		{
			"buffer":0,
			"byteLength":228,
			"byteOffset":52984,
			"target":34962
		},
		{
			"buffer":0,
			"byteLength":228,
			"byteOffset":53212,
			"target":34962
		},
		{
			"buffer":0,
			"byteLength":152,
			"byteOffset":53440,
			"target":34962
		},
		{
			"buffer":0,
			"byteLength":138,
			"byteOffset":53592,
			"target":34963
		},
		{
			"buffer":0,
			"byteLength":1344,
			"byteOffset":53732,
			"target":34962
		},
		{
			"buffer":0,
			"byteLength":1344,
			"byteOffset":55076,
			"target":34962
		},
		{
			"buffer":0,
			"byteLength":896,
			"byteOffset":56420,
			"target":34962
		},
		{
			"buffer":0,
			"byteLength":420,
			"byteOffset":57316,
			"target":34963
		},
		{
			"buffer":0,
			"byteLength":48,
			"byteOffset":57736,
			"target":34962
		},
		{
			"buffer":0,
			"byteLength":48,
			"byteOffset":57784,
			"target":34962
		},
		{
			"buffer":0,
			"byteLength":32,
			"byteOffset":57832,
			"target":34962
		},
		{
			"buffer":0,
			"byteLength":12,
			"byteOffset":57864,
			"target":34963
		},
		{
			"buffer":0,
			"byteLength":144,
			"byteOffset":57876,
			"target":34962
		},
		{
			"buffer":0,
			"byteLength":144,
			"byteOffset":58020,
			"target":34962
		},
		{
			"buffer":0,
			"byteLength":96,
			"byteOffset":58164,
			"target":34962
		},
		{
			"buffer":0,
			"byteLength":36,
			"byteOffset":58260,
			"target":34963
		},
		{
			"buffer":0,
			"byteLength":48,
			"byteOffset":58296,
			"target":34962
		},
		{
			"buffer":0,
			"byteLength":48,
			"byteOffset":58344,
			"target":34962
		},
		{
			"buffer":0,
			"byteLength":32,
			"byteOffset":58392,
			"target":34962
		},
		{
			"buffer":0,
			"byteLength":12,
			"byteOffset":58424,
			"target":34963
		}
	],
	"samplers":[
		{
			"magFilter":9729,
			"minFilter":9987
		}
	],
	"buffers":[
		{
			"byteLength":58436,
			"uri":"HCon049Chamber-31bfc31297a26bda3d02bf1cd0848c91.bin"
		}
	]
}
