{
	"asset":{
		"generator":"Khronos glTF Blender I/O v4.3.47",
		"version":"2.0"
	},
	"scene":0,
	"scenes":[
		{
			"name":"Scene",
			"nodes":[
				0
			]
		}
	],
	"nodes":[
		{
			"mesh":0,
			"name":"Cube-col",
			"translation":[
				0,
				0.27662336826324463,
				0
			]
		}
	],
	"materials":[
		{
			"name":"Material",
			"pbrMetallicRoughness":{
				"baseColorTexture":{
					"index":0
				},
				"metallicFactor":0,
				"roughnessFactor":0.5
			}
		},
		{
			"name":"Material.001",
			"pbrMetallicRoughness":{
				"baseColorTexture":{
					"index":1
				},
				"metallicFactor":0,
				"roughnessFactor":0.5
			}
		},
		{
			"doubleSided":true,
			"name":"Material.002",
			"pbrMetallicRoughness":{
				"baseColorTexture":{
					"index":2
				},
				"metallicFactor":0,
				"roughnessFactor":0.5
			}
		}
	],
	"meshes":[
		{
			"name":"Cube.001",
			"primitives":[
				{
					"attributes":{
						"POSITION":0,
						"NORMAL":1,
						"TEXCOORD_0":2,
						"TANGENT":3
					},
					"indices":4,
					"material":0
				},
				{
					"attributes":{
						"POSITION":5,
						"NORMAL":6,
						"TEXCOORD_0":7,
						"TANGENT":8
					},
					"indices":9,
					"material":1
				},
				{
					"attributes":{
						"POSITION":10,
						"NORMAL":11,
						"TEXCOORD_0":12,
						"TANGENT":13
					},
					"indices":14,
					"material":2
				}
			]
		}
	],
	"textures":[
		{
			"sampler":0,
			"source":0
		},
		{
			"sampler":0,
			"source":1
		},
		{
			"sampler":0,
			"source":2
		}
	],
	"images":[
		{
			"mimeType":"image/png",
			"name":"ctwalls.png",
			"uri":"../../rooms/Textures/ctwalls.png"
		},
		{
			"mimeType":"image/jpeg",
			"name":"concretefloor.jpg",
			"uri":"../../rooms/Textures/concretefloor.jpg"
		},
		{
			"mimeType":"image/jpeg",
			"name":"metal3.jpg",
			"uri":"../../rooms/Textures/metal3.jpg"
		}
	],
	"accessors":[
		{
			"bufferView":0,
			"componentType":5126,
			"count":58,
			"max":[
				1.5,
				1.3499999046325684,
				1.5
			],
			"min":[
				-7.5,
				-1.6500000953674316,
				-7.5
			],
			"type":"VEC3"
		},
		{
			"bufferView":1,
			"componentType":5126,
			"count":58,
			"type":"VEC3"
		},
		{
			"bufferView":2,
			"componentType":5126,
			"count":58,
			"type":"VEC2"
		},
		{
			"bufferView":3,
			"componentType":5126,
			"count":58,
			"type":"VEC4"
		},
		{
			"bufferView":4,
			"componentType":5123,
			"count":108,
			"type":"SCALAR"
		},
		{
			"bufferView":5,
			"componentType":5126,
			"count":18,
			"max":[
				1.5,
				1.3499999046325684,
				1.5
			],
			"min":[
				-7.5,
				0.7499999403953552,
				-7.5
			],
			"type":"VEC3"
		},
		{
			"bufferView":6,
			"componentType":5126,
			"count":18,
			"type":"VEC3"
		},
		{
			"bufferView":7,
			"componentType":5126,
			"count":18,
			"type":"VEC2"
		},
		{
			"bufferView":8,
			"componentType":5126,
			"count":18,
			"type":"VEC4"
		},
		{
			"bufferView":9,
			"componentType":5123,
			"count":36,
			"type":"SCALAR"
		},
		{
			"bufferView":10,
			"componentType":5126,
			"count":22,
			"max":[
				1.5,
				-1.6500000953674316,
				1.5
			],
			"min":[
				-7.5,
				-1.6500000953674316,
				-7.5
			],
			"type":"VEC3"
		},
		{
			"bufferView":11,
			"componentType":5126,
			"count":22,
			"type":"VEC3"
		},
		{
			"bufferView":12,
			"componentType":5126,
			"count":22,
			"type":"VEC2"
		},
		{
			"bufferView":13,
			"componentType":5126,
			"count":22,
			"type":"VEC4"
		},
		{
			"bufferView":14,
			"componentType":5123,
			"count":72,
			"type":"SCALAR"
		}
	],
	"bufferViews":[
		{
			"buffer":0,
			"byteLength":696,
			"byteOffset":0,
			"target":34962
		},
		{
			"buffer":0,
			"byteLength":696,
			"byteOffset":696,
			"target":34962
		},
		{
			"buffer":0,
			"byteLength":464,
			"byteOffset":1392,
			"target":34962
		},
		{
			"buffer":0,
			"byteLength":928,
			"byteOffset":1856,
			"target":34962
		},
		{
			"buffer":0,
			"byteLength":216,
			"byteOffset":2784,
			"target":34963
		},
		{
			"buffer":0,
			"byteLength":216,
			"byteOffset":3000,
			"target":34962
		},
		{
			"buffer":0,
			"byteLength":216,
			"byteOffset":3216,
			"target":34962
		},
		{
			"buffer":0,
			"byteLength":144,
			"byteOffset":3432,
			"target":34962
		},
		{
			"buffer":0,
			"byteLength":288,
			"byteOffset":3576,
			"target":34962
		},
		{
			"buffer":0,
			"byteLength":72,
			"byteOffset":3864,
			"target":34963
		},
		{
			"buffer":0,
			"byteLength":264,
			"byteOffset":3936,
			"target":34962
		},
		{
			"buffer":0,
			"byteLength":264,
			"byteOffset":4200,
			"target":34962
		},
		{
			"buffer":0,
			"byteLength":176,
			"byteOffset":4464,
			"target":34962
		},
		{
			"buffer":0,
			"byteLength":352,
			"byteOffset":4640,
			"target":34962
		},
		{
			"buffer":0,
			"byteLength":144,
			"byteOffset":4992,
			"target":34963
		}
	],
	"samplers":[
		{
			"magFilter":9729,
			"minFilter":9987
		}
	],
	"buffers":[
		{
			"byteLength":5136,
			"uri":"HConBend001-aa22d322808b4ee00b391553bd9828fd.bin"
		}
	]
}
