{
	"asset":{
		"generator":"Khronos glTF Blender I/O v4.4.56",
		"version":"2.0"
	},
	"scene":0,
	"scenes":[
		{
			"name":"Scene",
			"nodes":[
				0
			]
		}
	],
	"nodes":[
		{
			"mesh":0,
			"name":"Concrete floor-col"
		}
	],
	"materials":[
		{
			"name":"Concrete Floor",
			"pbrMetallicRoughness":{
				"metallicFactor":0,
				"roughnessFactor":0.5
			}
		},
		{
			"name":"Material.003",
			"pbrMetallicRoughness":{
				"metallicFactor":0,
				"roughnessFactor":0.5
			}
		}
	],
	"meshes":[
		{
			"name":"Cube.002",
			"primitives":[
				{
					"attributes":{
						"POSITION":0,
						"NORMAL":1,
						"TEXCOORD_0":2,
						"TANGENT":3
					},
					"indices":4,
					"material":0
				},
				{
					"attributes":{
						"POSITION":5,
						"NORMAL":6,
						"TEXCOORD_0":7,
						"TANGENT":8
					},
					"indices":9,
					"material":1
				}
			]
		}
	],
	"accessors":[
		{
			"bufferView":0,
			"componentType":5126,
			"count":80,
			"max":[
				1.9012248516082764,
				4.851933479309082,
				7.5000319480896
			],
			"min":[
				-1.9012253284454346,
				-1.1502749919891357,
				-7.5000319480896
			],
			"type":"VEC3"
		},
		{
			"bufferView":1,
			"componentType":5126,
			"count":80,
			"type":"VEC3"
		},
		{
			"bufferView":2,
			"componentType":5126,
			"count":80,
			"type":"VEC2"
		},
		{
			"bufferView":3,
			"componentType":5126,
			"count":80,
			"type":"VEC4"
		},
		{
			"bufferView":4,
			"componentType":5123,
			"count":168,
			"type":"SCALAR"
		},
		{
			"bufferView":5,
			"componentType":5126,
			"count":172,
			"max":[
				1.9012248516082764,
				4.864598751068115,
				7.5000319480896
			],
			"min":[
				-1.9012253284454346,
				-1.1502749919891357,
				-7.5000319480896
			],
			"type":"VEC3"
		},
		{
			"bufferView":6,
			"componentType":5126,
			"count":172,
			"type":"VEC3"
		},
		{
			"bufferView":7,
			"componentType":5126,
			"count":172,
			"type":"VEC2"
		},
		{
			"bufferView":8,
			"componentType":5126,
			"count":172,
			"type":"VEC4"
		},
		{
			"bufferView":9,
			"componentType":5123,
			"count":336,
			"type":"SCALAR"
		}
	],
	"bufferViews":[
		{
			"buffer":0,
			"byteLength":960,
			"byteOffset":0,
			"target":34962
		},
		{
			"buffer":0,
			"byteLength":960,
			"byteOffset":960,
			"target":34962
		},
		{
			"buffer":0,
			"byteLength":640,
			"byteOffset":1920,
			"target":34962
		},
		{
			"buffer":0,
			"byteLength":1280,
			"byteOffset":2560,
			"target":34962
		},
		{
			"buffer":0,
			"byteLength":336,
			"byteOffset":3840,
			"target":34963
		},
		{
			"buffer":0,
			"byteLength":2064,
			"byteOffset":4176,
			"target":34962
		},
		{
			"buffer":0,
			"byteLength":2064,
			"byteOffset":6240,
			"target":34962
		},
		{
			"buffer":0,
			"byteLength":1376,
			"byteOffset":8304,
			"target":34962
		},
		{
			"buffer":0,
			"byteLength":2752,
			"byteOffset":9680,
			"target":34962
		},
		{
			"buffer":0,
			"byteLength":672,
			"byteOffset":12432,
			"target":34963
		}
	],
	"buffers":[
		{
			"byteLength":13104,
			"uri":"HConHall002-854b91828a3a94c61b029bbcda82e366.bin"
		}
	]
}
