{
	"asset":{
		"generator":"Khronos glTF Blender I/O v4.3.47",
		"version":"2.0"
	},
	"scene":0,
	"scenes":[
		{
			"name":"Scene",
			"nodes":[
				0,
				1,
				2
			]
		}
	],
	"nodes":[
		{
			"mesh":0,
			"name":"Elev1-col",
			"translation":[
				0,
				0,
				0.001138493069447577
			]
		},
		{
			"mesh":1,
			"name":"middle-col"
		},
		{
			"mesh":2,
			"name":"Elev1-col.001",
			"rotation":[
				0,
				-1,
				0,
				7.549790126404332e-08
			]
		}
	],
	"materials":[
		{
			"name":"Material",
			"normalTexture":{
				"index":0
			},
			"pbrMetallicRoughness":{
				"baseColorTexture":{
					"index":1
				},
				"metallicFactor":0,
				"roughnessFactor":0.5
			}
		},
		{
			"name":"Material.001",
			"pbrMetallicRoughness":{
				"baseColorTexture":{
					"index":2
				},
				"metallicFactor":0,
				"roughnessFactor":0.5
			}
		},
		{
			"name":"Material.002",
			"normalTexture":{
				"index":3
			},
			"pbrMetallicRoughness":{
				"baseColorTexture":{
					"index":4
				},
				"metallicFactor":0,
				"roughnessFactor":0.5
			}
		},
		{
			"name":"Material.004",
			"normalTexture":{
				"index":5
			},
			"pbrMetallicRoughness":{
				"baseColorTexture":{
					"index":6
				},
				"metallicFactor":0,
				"roughnessFactor":0.5
			}
		},
		{
			"name":"Material.005",
			"pbrMetallicRoughness":{
				"baseColorTexture":{
					"index":7
				},
				"metallicFactor":0,
				"roughnessFactor":0.5
			}
		}
	],
	"meshes":[
		{
			"name":"Cube.002",
			"primitives":[
				{
					"attributes":{
						"POSITION":0,
						"NORMAL":1,
						"TEXCOORD_0":2,
						"TANGENT":3
					},
					"indices":4,
					"material":0
				},
				{
					"attributes":{
						"POSITION":5,
						"NORMAL":6,
						"TEXCOORD_0":7,
						"TANGENT":8
					},
					"indices":9,
					"material":1
				},
				{
					"attributes":{
						"POSITION":10,
						"NORMAL":11,
						"TEXCOORD_0":12,
						"TANGENT":13
					},
					"indices":14,
					"material":2
				}
			]
		},
		{
			"name":"Cube.003",
			"primitives":[
				{
					"attributes":{
						"POSITION":15,
						"NORMAL":16,
						"TEXCOORD_0":17,
						"TANGENT":18
					},
					"indices":19,
					"material":0
				},
				{
					"attributes":{
						"POSITION":20,
						"NORMAL":21,
						"TEXCOORD_0":22,
						"TANGENT":23
					},
					"indices":24,
					"material":2
				},
				{
					"attributes":{
						"POSITION":25,
						"NORMAL":26,
						"TEXCOORD_0":27,
						"TANGENT":28
					},
					"indices":29,
					"material":3
				},
				{
					"attributes":{
						"POSITION":30,
						"NORMAL":31,
						"TEXCOORD_0":32,
						"TANGENT":33
					},
					"indices":34,
					"material":4
				}
			]
		},
		{
			"name":"Cube.001",
			"primitives":[
				{
					"attributes":{
						"POSITION":35,
						"NORMAL":36,
						"TEXCOORD_0":37,
						"TANGENT":38
					},
					"indices":4,
					"material":0
				},
				{
					"attributes":{
						"POSITION":39,
						"NORMAL":40,
						"TEXCOORD_0":41,
						"TANGENT":42
					},
					"indices":9,
					"material":1
				},
				{
					"attributes":{
						"POSITION":43,
						"NORMAL":44,
						"TEXCOORD_0":45,
						"TANGENT":46
					},
					"indices":14,
					"material":2
				}
			]
		}
	],
	"textures":[
		{
			"sampler":0,
			"source":0
		},
		{
			"sampler":0,
			"source":1
		},
		{
			"sampler":0,
			"source":2
		},
		{
			"sampler":0,
			"source":3
		},
		{
			"sampler":0,
			"source":4
		},
		{
			"sampler":0,
			"source":5
		},
		{
			"sampler":0,
			"source":6
		},
		{
			"sampler":0,
			"source":7
		}
	],
	"images":[
		{
			"mimeType":"image/png",
			"name":"concrete_wall.png",
			"uri":"../../rooms/Textures/normals/concrete_wall.png"
		},
		{
			"mimeType":"image/jpeg",
			"name":"concretewall.jpg",
			"uri":"../../rooms/Textures/concretewall.jpg"
		},
		{
			"mimeType":"image/jpeg",
			"name":"dirtymetal.jpg",
			"uri":"../../rooms/Textures/dirtymetal.jpg"
		},
		{
			"mimeType":"image/png",
			"name":"metal3_specular.png",
			"uri":"../../rooms/Textures/normals/metal3_specular.png"
		},
		{
			"mimeType":"image/jpeg",
			"name":"metal3.jpg",
			"uri":"../../rooms/Textures/metal3.jpg"
		},
		{
			"mimeType":"image/png",
			"name":"concrete_floor.png",
			"uri":"../../rooms/Textures/normals/concrete_floor.png"
		},
		{
			"mimeType":"image/jpeg",
			"name":"concretefloor.jpg",
			"uri":"../../rooms/Textures/concretefloor.jpg"
		},
		{
			"mimeType":"image/jpeg",
			"name":"cloth.jpg",
			"uri":"../../rooms/Textures/cloth.jpg"
		}
	],
	"accessors":[
		{
			"bufferView":0,
			"componentType":5126,
			"count":88,
			"max":[
				-8.070757865905762,
				1.9519332647323608,
				-17.0244197845459
			],
			"min":[
				-16.74835205078125,
				-1.1536262035369873,
				-22.485876083374023
			],
			"type":"VEC3"
		},
		{
			"bufferView":1,
			"componentType":5126,
			"count":88,
			"type":"VEC3"
		},
		{
			"bufferView":2,
			"componentType":5126,
			"count":88,
			"type":"VEC2"
		},
		{
			"bufferView":3,
			"componentType":5126,
			"count":88,
			"type":"VEC4"
		},
		{
			"bufferView":4,
			"componentType":5123,
			"count":162,
			"type":"SCALAR"
		},
		{
			"bufferView":5,
			"componentType":5126,
			"count":78,
			"max":[
				-12.771472930908203,
				1.8480675220489502,
				-1.9858436584472656
			],
			"min":[
				-16.728734970092773,
				-1.148066759109497,
				-22.465837478637695
			],
			"type":"VEC3"
		},
		{
			"bufferView":6,
			"componentType":5126,
			"count":78,
			"type":"VEC3"
		},
		{
			"bufferView":7,
			"componentType":5126,
			"count":78,
			"type":"VEC2"
		},
		{
			"bufferView":8,
			"componentType":5126,
			"count":78,
			"type":"VEC4"
		},
		{
			"bufferView":9,
			"componentType":5123,
			"count":186,
			"type":"SCALAR"
		},
		{
			"bufferView":10,
			"componentType":5126,
			"count":58,
			"max":[
				-8.070757865905762,
				1.8480675220489502,
				-1.985844612121582
			],
			"min":[
				-15.900457382202148,
				-1.1536262035369873,
				-22.465837478637695
			],
			"type":"VEC3"
		},
		{
			"bufferView":11,
			"componentType":5126,
			"count":58,
			"type":"VEC3"
		},
		{
			"bufferView":12,
			"componentType":5126,
			"count":58,
			"type":"VEC2"
		},
		{
			"bufferView":13,
			"componentType":5126,
			"count":58,
			"type":"VEC4"
		},
		{
			"bufferView":14,
			"componentType":5123,
			"count":132,
			"type":"SCALAR"
		},
		{
			"bufferView":15,
			"componentType":5126,
			"count":210,
			"max":[
				16.90371322631836,
				2.351933479309082,
				2.2014832496643066
			],
			"min":[
				-16.90371322631836,
				-1.148066759109497,
				-11.000401496887207
			],
			"type":"VEC3"
		},
		{
			"bufferView":16,
			"componentType":5126,
			"count":210,
			"type":"VEC3"
		},
		{
			"bufferView":17,
			"componentType":5126,
			"count":210,
			"type":"VEC2"
		},
		{
			"bufferView":18,
			"componentType":5126,
			"count":210,
			"type":"VEC4"
		},
		{
			"bufferView":19,
			"componentType":5123,
			"count":390,
			"type":"SCALAR"
		},
		{
			"bufferView":20,
			"componentType":5126,
			"count":29,
			"max":[
				15.899677276611328,
				-1.148066759109497,
				1.9864027500152588
			],
			"min":[
				-15.899677276611328,
				-1.148066759109497,
				-1.9864051342010498
			],
			"type":"VEC3"
		},
		{
			"bufferView":21,
			"componentType":5126,
			"count":29,
			"type":"VEC3"
		},
		{
			"bufferView":22,
			"componentType":5126,
			"count":29,
			"type":"VEC2"
		},
		{
			"bufferView":23,
			"componentType":5126,
			"count":29,
			"type":"VEC4"
		},
		{
			"bufferView":24,
			"componentType":5123,
			"count":60,
			"type":"SCALAR"
		},
		{
			"bufferView":25,
			"componentType":5126,
			"count":113,
			"max":[
				16.903305053710938,
				2.351933479309082,
				1.9864027500152588
			],
			"min":[
				-16.903305053710938,
				-1.148066759109497,
				-11.000401496887207
			],
			"type":"VEC3"
		},
		{
			"bufferView":26,
			"componentType":5126,
			"count":113,
			"type":"VEC3"
		},
		{
			"bufferView":27,
			"componentType":5126,
			"count":113,
			"type":"VEC2"
		},
		{
			"bufferView":28,
			"componentType":5126,
			"count":113,
			"type":"VEC4"
		},
		{
			"bufferView":29,
			"componentType":5123,
			"count":264,
			"type":"SCALAR"
		},
		{
			"bufferView":30,
			"componentType":5126,
			"count":46,
			"max":[
				-0.35304003953933716,
				1.851933240890503,
				-8.196049690246582
			],
			"min":[
				-6.451251983642578,
				-1.148066759109497,
				-14.39822769165039
			],
			"type":"VEC3"
		},
		{
			"bufferView":31,
			"componentType":5126,
			"count":46,
			"type":"VEC3"
		},
		{
			"bufferView":32,
			"componentType":5126,
			"count":46,
			"type":"VEC2"
		},
		{
			"bufferView":33,
			"componentType":5126,
			"count":46,
			"type":"VEC4"
		},
		{
			"bufferView":34,
			"componentType":5123,
			"count":90,
			"type":"SCALAR"
		},
		{
			"bufferView":35,
			"componentType":5126,
			"count":88,
			"max":[
				-8.070757865905762,
				1.9519332647323608,
				-17.02341651916504
			],
			"min":[
				-16.74835205078125,
				-1.1536262035369873,
				-22.484872817993164
			],
			"type":"VEC3"
		},
		{
			"bufferView":36,
			"componentType":5126,
			"count":88,
			"type":"VEC3"
		},
		{
			"bufferView":37,
			"componentType":5126,
			"count":88,
			"type":"VEC2"
		},
		{
			"bufferView":38,
			"componentType":5126,
			"count":88,
			"type":"VEC4"
		},
		{
			"bufferView":39,
			"componentType":5126,
			"count":78,
			"max":[
				-12.771472930908203,
				1.8480675220489502,
				-1.9848390817642212
			],
			"min":[
				-16.728734970092773,
				-1.148066759109497,
				-22.464834213256836
			],
			"type":"VEC3"
		},
		{
			"bufferView":40,
			"componentType":5126,
			"count":78,
			"type":"VEC3"
		},
		{
			"bufferView":41,
			"componentType":5126,
			"count":78,
			"type":"VEC2"
		},
		{
			"bufferView":42,
			"componentType":5126,
			"count":78,
			"type":"VEC4"
		},
		{
			"bufferView":43,
			"componentType":5126,
			"count":58,
			"max":[
				-8.070757865905762,
				1.8480675220489502,
				-1.9848400354385376
			],
			"min":[
				-15.900457382202148,
				-1.1536262035369873,
				-22.464834213256836
			],
			"type":"VEC3"
		},
		{
			"bufferView":44,
			"componentType":5126,
			"count":58,
			"type":"VEC3"
		},
		{
			"bufferView":45,
			"componentType":5126,
			"count":58,
			"type":"VEC2"
		},
		{
			"bufferView":46,
			"componentType":5126,
			"count":58,
			"type":"VEC4"
		}
	],
	"bufferViews":[
		{
			"buffer":0,
			"byteLength":1056,
			"byteOffset":0,
			"target":34962
		},
		{
			"buffer":0,
			"byteLength":1056,
			"byteOffset":1056,
			"target":34962
		},
		{
			"buffer":0,
			"byteLength":704,
			"byteOffset":2112,
			"target":34962
		},
		{
			"buffer":0,
			"byteLength":1408,
			"byteOffset":2816,
			"target":34962
		},
		{
			"buffer":0,
			"byteLength":324,
			"byteOffset":4224,
			"target":34963
		},
		{
			"buffer":0,
			"byteLength":936,
			"byteOffset":4548,
			"target":34962
		},
		{
			"buffer":0,
			"byteLength":936,
			"byteOffset":5484,
			"target":34962
		},
		{
			"buffer":0,
			"byteLength":624,
			"byteOffset":6420,
			"target":34962
		},
		{
			"buffer":0,
			"byteLength":1248,
			"byteOffset":7044,
			"target":34962
		},
		{
			"buffer":0,
			"byteLength":372,
			"byteOffset":8292,
			"target":34963
		},
		{
			"buffer":0,
			"byteLength":696,
			"byteOffset":8664,
			"target":34962
		},
		{
			"buffer":0,
			"byteLength":696,
			"byteOffset":9360,
			"target":34962
		},
		{
			"buffer":0,
			"byteLength":464,
			"byteOffset":10056,
			"target":34962
		},
		{
			"buffer":0,
			"byteLength":928,
			"byteOffset":10520,
			"target":34962
		},
		{
			"buffer":0,
			"byteLength":264,
			"byteOffset":11448,
			"target":34963
		},
		{
			"buffer":0,
			"byteLength":2520,
			"byteOffset":11712,
			"target":34962
		},
		{
			"buffer":0,
			"byteLength":2520,
			"byteOffset":14232,
			"target":34962
		},
		{
			"buffer":0,
			"byteLength":1680,
			"byteOffset":16752,
			"target":34962
		},
		{
			"buffer":0,
			"byteLength":3360,
			"byteOffset":18432,
			"target":34962
		},
		{
			"buffer":0,
			"byteLength":780,
			"byteOffset":21792,
			"target":34963
		},
		{
			"buffer":0,
			"byteLength":348,
			"byteOffset":22572,
			"target":34962
		},
		{
			"buffer":0,
			"byteLength":348,
			"byteOffset":22920,
			"target":34962
		},
		{
			"buffer":0,
			"byteLength":232,
			"byteOffset":23268,
			"target":34962
		},
		{
			"buffer":0,
			"byteLength":464,
			"byteOffset":23500,
			"target":34962
		},
		{
			"buffer":0,
			"byteLength":120,
			"byteOffset":23964,
			"target":34963
		},
		{
			"buffer":0,
			"byteLength":1356,
			"byteOffset":24084,
			"target":34962
		},
		{
			"buffer":0,
			"byteLength":1356,
			"byteOffset":25440,
			"target":34962
		},
		{
			"buffer":0,
			"byteLength":904,
			"byteOffset":26796,
			"target":34962
		},
		{
			"buffer":0,
			"byteLength":1808,
			"byteOffset":27700,
			"target":34962
		},
		{
			"buffer":0,
			"byteLength":528,
			"byteOffset":29508,
			"target":34963
		},
		{
			"buffer":0,
			"byteLength":552,
			"byteOffset":30036,
			"target":34962
		},
		{
			"buffer":0,
			"byteLength":552,
			"byteOffset":30588,
			"target":34962
		},
		{
			"buffer":0,
			"byteLength":368,
			"byteOffset":31140,
			"target":34962
		},
		{
			"buffer":0,
			"byteLength":736,
			"byteOffset":31508,
			"target":34962
		},
		{
			"buffer":0,
			"byteLength":180,
			"byteOffset":32244,
			"target":34963
		},
		{
			"buffer":0,
			"byteLength":1056,
			"byteOffset":32424,
			"target":34962
		},
		{
			"buffer":0,
			"byteLength":1056,
			"byteOffset":33480,
			"target":34962
		},
		{
			"buffer":0,
			"byteLength":704,
			"byteOffset":34536,
			"target":34962
		},
		{
			"buffer":0,
			"byteLength":1408,
			"byteOffset":35240,
			"target":34962
		},
		{
			"buffer":0,
			"byteLength":936,
			"byteOffset":36648,
			"target":34962
		},
		{
			"buffer":0,
			"byteLength":936,
			"byteOffset":37584,
			"target":34962
		},
		{
			"buffer":0,
			"byteLength":624,
			"byteOffset":38520,
			"target":34962
		},
		{
			"buffer":0,
			"byteLength":1248,
			"byteOffset":39144,
			"target":34962
		},
		{
			"buffer":0,
			"byteLength":696,
			"byteOffset":40392,
			"target":34962
		},
		{
			"buffer":0,
			"byteLength":696,
			"byteOffset":41088,
			"target":34962
		},
		{
			"buffer":0,
			"byteLength":464,
			"byteOffset":41784,
			"target":34962
		},
		{
			"buffer":0,
			"byteLength":928,
			"byteOffset":42248,
			"target":34962
		}
	],
	"samplers":[
		{
			"magFilter":9729,
			"minFilter":9987
		}
	],
	"buffers":[
		{
			"byteLength":43176,
			"uri":"HCon049Chamber-31bfc31297a26bda3d02bf1cd0848c91.bin"
		}
	]
}
