{
	"asset":{
		"generator":"Khronos glTF Blender I/O v4.4.56",
		"version":"2.0"
	},
	"scene":0,
	"scenes":[
		{
			"name":"Scene",
			"nodes":[
				0,
				1
			]
		}
	],
	"nodes":[
		{
			"mesh":0,
			"name":"Concrete floor-col"
		},
		{
			"mesh":1,
			"name":"Concrete floor-col.001",
			"rotation":[
				0,
				-1,
				0,
				7.549790126404332e-08
			]
		}
	],
	"materials":[
		{
			"name":"Material",
			"pbrMetallicRoughness":{
				"baseColorTexture":{
					"index":0
				},
				"metallicFactor":0,
				"roughnessFactor":0.5
			}
		},
		{
			"name":"Material.001",
			"pbrMetallicRoughness":{
				"baseColorTexture":{
					"index":1
				},
				"metallicFactor":0,
				"roughnessFactor":0.5
			}
		},
		{
			"name":"Material.002",
			"pbrMetallicRoughness":{
				"baseColorTexture":{
					"index":2
				},
				"metallicFactor":0,
				"roughnessFactor":0.5
			}
		},
		{
			"doubleSided":true,
			"name":"Material.003",
			"pbrMetallicRoughness":{
				"baseColorTexture":{
					"index":3
				},
				"metallicFactor":0,
				"roughnessFactor":0.5
			}
		}
	],
	"meshes":[
		{
			"name":"Cube.002",
			"primitives":[
				{
					"attributes":{
						"POSITION":0,
						"NORMAL":1,
						"TEXCOORD_0":2,
						"TANGENT":3
					},
					"indices":4,
					"material":0
				},
				{
					"attributes":{
						"POSITION":5,
						"NORMAL":6,
						"TEXCOORD_0":7,
						"TANGENT":8
					},
					"indices":9,
					"material":1
				},
				{
					"attributes":{
						"POSITION":10,
						"NORMAL":11,
						"TEXCOORD_0":12,
						"TANGENT":13
					},
					"indices":14,
					"material":2
				},
				{
					"attributes":{
						"POSITION":15,
						"NORMAL":16,
						"TEXCOORD_0":17,
						"TANGENT":18
					},
					"indices":19,
					"material":3
				}
			]
		},
		{
			"name":"Cube.001",
			"primitives":[
				{
					"attributes":{
						"POSITION":20,
						"NORMAL":21,
						"TEXCOORD_0":22,
						"TANGENT":23
					},
					"indices":4,
					"material":0
				},
				{
					"attributes":{
						"POSITION":24,
						"NORMAL":25,
						"TEXCOORD_0":26,
						"TANGENT":27
					},
					"indices":9,
					"material":1
				},
				{
					"attributes":{
						"POSITION":28,
						"NORMAL":29,
						"TEXCOORD_0":30,
						"TANGENT":31
					},
					"indices":14,
					"material":2
				},
				{
					"attributes":{
						"POSITION":32,
						"NORMAL":33,
						"TEXCOORD_0":34,
						"TANGENT":35
					},
					"indices":19,
					"material":3
				}
			]
		}
	],
	"textures":[
		{
			"sampler":0,
			"source":0
		},
		{
			"sampler":0,
			"source":1
		},
		{
			"sampler":0,
			"source":2
		},
		{
			"sampler":0,
			"source":3
		}
	],
	"images":[
		{
			"mimeType":"image/jpeg",
			"name":"concretewall.jpg",
			"uri":"../../rooms/Textures/concretewall.jpg"
		},
		{
			"mimeType":"image/jpeg",
			"name":"dirtymetal.jpg",
			"uri":"../../rooms/Textures/dirtymetal.jpg"
		},
		{
			"mimeType":"image/jpeg",
			"name":"metal3.jpg",
			"uri":"../../rooms/Textures/metal3.jpg"
		},
		{
			"mimeType":"image/png",
			"name":"signs1.png",
			"uri":"../../rooms/Textures/signs1.png"
		}
	],
	"accessors":[
		{
			"bufferView":0,
			"componentType":5126,
			"count":108,
			"max":[
				6.929242134094238,
				1.9519332647323608,
				5.960464477539063e-08
			],
			"min":[
				-1.7483524084091187,
				-1.1536262035369873,
				-7.5000319480896
			],
			"type":"VEC3"
		},
		{
			"bufferView":1,
			"componentType":5126,
			"count":108,
			"type":"VEC3"
		},
		{
			"bufferView":2,
			"componentType":5126,
			"count":108,
			"type":"VEC2"
		},
		{
			"bufferView":3,
			"componentType":5126,
			"count":108,
			"type":"VEC4"
		},
		{
			"bufferView":4,
			"componentType":5123,
			"count":198,
			"type":"SCALAR"
		},
		{
			"bufferView":5,
			"componentType":5126,
			"count":64,
			"max":[
				2.228527069091797,
				1.8480675220489502,
				9.5367431640625e-07
			],
			"min":[
				-1.7287348508834839,
				-1.148066759109497,
				-7.4799933433532715
			],
			"type":"VEC3"
		},
		{
			"bufferView":6,
			"componentType":5126,
			"count":64,
			"type":"VEC3"
		},
		{
			"bufferView":7,
			"componentType":5126,
			"count":64,
			"type":"VEC2"
		},
		{
			"bufferView":8,
			"componentType":5126,
			"count":64,
			"type":"VEC4"
		},
		{
			"bufferView":9,
			"componentType":5123,
			"count":186,
			"type":"SCALAR"
		},
		{
			"bufferView":10,
			"componentType":5126,
			"count":54,
			"max":[
				6.929242134094238,
				1.8480675220489502,
				0
			],
			"min":[
				-0.9004570841789246,
				-1.1536262035369873,
				-7.4799933433532715
			],
			"type":"VEC3"
		},
		{
			"bufferView":11,
			"componentType":5126,
			"count":54,
			"type":"VEC3"
		},
		{
			"bufferView":12,
			"componentType":5126,
			"count":54,
			"type":"VEC2"
		},
		{
			"bufferView":13,
			"componentType":5126,
			"count":54,
			"type":"VEC4"
		},
		{
			"bufferView":14,
			"componentType":5123,
			"count":132,
			"type":"SCALAR"
		},
		{
			"bufferView":15,
			"componentType":5126,
			"count":20,
			"max":[
				2.233995199203491,
				1.6223134994506836,
				-3.479452133178711
			],
			"min":[
				2.205857753753662,
				1.4543135166168213,
				-4.03945255279541
			],
			"type":"VEC3"
		},
		{
			"bufferView":16,
			"componentType":5126,
			"count":20,
			"type":"VEC3"
		},
		{
			"bufferView":17,
			"componentType":5126,
			"count":20,
			"type":"VEC2"
		},
		{
			"bufferView":18,
			"componentType":5126,
			"count":20,
			"type":"VEC4"
		},
		{
			"bufferView":19,
			"componentType":5123,
			"count":30,
			"type":"SCALAR"
		},
		{
			"bufferView":20,
			"componentType":5126,
			"count":108,
			"max":[
				6.929242134094238,
				1.9519332647323608,
				5.960464477539063e-08
			],
			"min":[
				-1.7483524084091187,
				-1.1536262035369873,
				-7.5000319480896
			],
			"type":"VEC3"
		},
		{
			"bufferView":21,
			"componentType":5126,
			"count":108,
			"type":"VEC3"
		},
		{
			"bufferView":22,
			"componentType":5126,
			"count":108,
			"type":"VEC2"
		},
		{
			"bufferView":23,
			"componentType":5126,
			"count":108,
			"type":"VEC4"
		},
		{
			"bufferView":24,
			"componentType":5126,
			"count":64,
			"max":[
				2.228527069091797,
				1.8480675220489502,
				9.5367431640625e-07
			],
			"min":[
				-1.7287348508834839,
				-1.148066759109497,
				-7.4799933433532715
			],
			"type":"VEC3"
		},
		{
			"bufferView":25,
			"componentType":5126,
			"count":64,
			"type":"VEC3"
		},
		{
			"bufferView":26,
			"componentType":5126,
			"count":64,
			"type":"VEC2"
		},
		{
			"bufferView":27,
			"componentType":5126,
			"count":64,
			"type":"VEC4"
		},
		{
			"bufferView":28,
			"componentType":5126,
			"count":54,
			"max":[
				6.929242134094238,
				1.8480675220489502,
				0
			],
			"min":[
				-0.9004570841789246,
				-1.1536262035369873,
				-7.4799933433532715
			],
			"type":"VEC3"
		},
		{
			"bufferView":29,
			"componentType":5126,
			"count":54,
			"type":"VEC3"
		},
		{
			"bufferView":30,
			"componentType":5126,
			"count":54,
			"type":"VEC2"
		},
		{
			"bufferView":31,
			"componentType":5126,
			"count":54,
			"type":"VEC4"
		},
		{
			"bufferView":32,
			"componentType":5126,
			"count":20,
			"max":[
				2.233995199203491,
				1.6223134994506836,
				-3.479452133178711
			],
			"min":[
				2.205857753753662,
				1.4543135166168213,
				-4.03945255279541
			],
			"type":"VEC3"
		},
		{
			"bufferView":33,
			"componentType":5126,
			"count":20,
			"type":"VEC3"
		},
		{
			"bufferView":34,
			"componentType":5126,
			"count":20,
			"type":"VEC2"
		},
		{
			"bufferView":35,
			"componentType":5126,
			"count":20,
			"type":"VEC4"
		}
	],
	"bufferViews":[
		{
			"buffer":0,
			"byteLength":1296,
			"byteOffset":0,
			"target":34962
		},
		{
			"buffer":0,
			"byteLength":1296,
			"byteOffset":1296,
			"target":34962
		},
		{
			"buffer":0,
			"byteLength":864,
			"byteOffset":2592,
			"target":34962
		},
		{
			"buffer":0,
			"byteLength":1728,
			"byteOffset":3456,
			"target":34962
		},
		{
			"buffer":0,
			"byteLength":396,
			"byteOffset":5184,
			"target":34963
		},
		{
			"buffer":0,
			"byteLength":768,
			"byteOffset":5580,
			"target":34962
		},
		{
			"buffer":0,
			"byteLength":768,
			"byteOffset":6348,
			"target":34962
		},
		{
			"buffer":0,
			"byteLength":512,
			"byteOffset":7116,
			"target":34962
		},
		{
			"buffer":0,
			"byteLength":1024,
			"byteOffset":7628,
			"target":34962
		},
		{
			"buffer":0,
			"byteLength":372,
			"byteOffset":8652,
			"target":34963
		},
		{
			"buffer":0,
			"byteLength":648,
			"byteOffset":9024,
			"target":34962
		},
		{
			"buffer":0,
			"byteLength":648,
			"byteOffset":9672,
			"target":34962
		},
		{
			"buffer":0,
			"byteLength":432,
			"byteOffset":10320,
			"target":34962
		},
		{
			"buffer":0,
			"byteLength":864,
			"byteOffset":10752,
			"target":34962
		},
		{
			"buffer":0,
			"byteLength":264,
			"byteOffset":11616,
			"target":34963
		},
		{
			"buffer":0,
			"byteLength":240,
			"byteOffset":11880,
			"target":34962
		},
		{
			"buffer":0,
			"byteLength":240,
			"byteOffset":12120,
			"target":34962
		},
		{
			"buffer":0,
			"byteLength":160,
			"byteOffset":12360,
			"target":34962
		},
		{
			"buffer":0,
			"byteLength":320,
			"byteOffset":12520,
			"target":34962
		},
		{
			"buffer":0,
			"byteLength":60,
			"byteOffset":12840,
			"target":34963
		},
		{
			"buffer":0,
			"byteLength":1296,
			"byteOffset":12900,
			"target":34962
		},
		{
			"buffer":0,
			"byteLength":1296,
			"byteOffset":14196,
			"target":34962
		},
		{
			"buffer":0,
			"byteLength":864,
			"byteOffset":15492,
			"target":34962
		},
		{
			"buffer":0,
			"byteLength":1728,
			"byteOffset":16356,
			"target":34962
		},
		{
			"buffer":0,
			"byteLength":768,
			"byteOffset":18084,
			"target":34962
		},
		{
			"buffer":0,
			"byteLength":768,
			"byteOffset":18852,
			"target":34962
		},
		{
			"buffer":0,
			"byteLength":512,
			"byteOffset":19620,
			"target":34962
		},
		{
			"buffer":0,
			"byteLength":1024,
			"byteOffset":20132,
			"target":34962
		},
		{
			"buffer":0,
			"byteLength":648,
			"byteOffset":21156,
			"target":34962
		},
		{
			"buffer":0,
			"byteLength":648,
			"byteOffset":21804,
			"target":34962
		},
		{
			"buffer":0,
			"byteLength":432,
			"byteOffset":22452,
			"target":34962
		},
		{
			"buffer":0,
			"byteLength":864,
			"byteOffset":22884,
			"target":34962
		},
		{
			"buffer":0,
			"byteLength":240,
			"byteOffset":23748,
			"target":34962
		},
		{
			"buffer":0,
			"byteLength":240,
			"byteOffset":23988,
			"target":34962
		},
		{
			"buffer":0,
			"byteLength":160,
			"byteOffset":24228,
			"target":34962
		},
		{
			"buffer":0,
			"byteLength":320,
			"byteOffset":24388,
			"target":34962
		}
	],
	"samplers":[
		{
			"magFilter":9729,
			"minFilter":9987
		}
	],
	"buffers":[
		{
			"byteLength":24708,
			"uri":"HCon049Elevators-32956c11b218481f2d663a9dc4c38b76.bin"
		}
	]
}
