{
	"asset":{
		"generator":"Khronos glTF Blender I/O v4.4.56",
		"version":"2.0"
	},
	"scene":0,
	"scenes":[
		{
			"name":"Scene",
			"nodes":[
				0
			]
		}
	],
	"nodes":[
		{
			"mesh":0,
			"name":"Cube-col"
		}
	],
	"materials":[
		{
			"name":"Material.003",
			"pbrMetallicRoughness":{
				"baseColorTexture":{
					"index":0
				},
				"metallicFactor":0,
				"roughnessFactor":0.5
			}
		},
		{
			"name":"Material.001",
			"pbrMetallicRoughness":{
				"baseColorTexture":{
					"index":1
				},
				"metallicFactor":0,
				"roughnessFactor":0.5
			}
		},
		{
			"name":"Material.002",
			"pbrMetallicRoughness":{
				"baseColorTexture":{
					"index":2
				},
				"metallicFactor":0,
				"roughnessFactor":0.5
			}
		},
		{
			"name":"Material.004",
			"pbrMetallicRoughness":{
				"baseColorTexture":{
					"index":3
				},
				"metallicFactor":0,
				"roughnessFactor":0.5
			}
		}
	],
	"meshes":[
		{
			"name":"Cube.001",
			"primitives":[
				{
					"attributes":{
						"POSITION":0,
						"NORMAL":1,
						"TEXCOORD_0":2,
						"TANGENT":3
					},
					"indices":4,
					"material":0
				},
				{
					"attributes":{
						"POSITION":5,
						"NORMAL":6,
						"TEXCOORD_0":7,
						"TANGENT":8
					},
					"indices":9,
					"material":1
				},
				{
					"attributes":{
						"POSITION":10,
						"NORMAL":11,
						"TEXCOORD_0":12,
						"TANGENT":13
					},
					"indices":14,
					"material":2
				},
				{
					"attributes":{
						"POSITION":15,
						"NORMAL":16,
						"TEXCOORD_0":17,
						"TANGENT":18
					},
					"indices":19,
					"material":3
				}
			]
		}
	],
	"textures":[
		{
			"sampler":0,
			"source":0
		},
		{
			"sampler":0,
			"source":1
		},
		{
			"sampler":0,
			"source":2
		},
		{
			"sampler":0,
			"source":3
		}
	],
	"images":[
		{
			"mimeType":"image/jpeg",
			"name":"concretefloor.jpg",
			"uri":"../../rooms/Textures/concretefloor.jpg"
		},
		{
			"mimeType":"image/jpeg",
			"name":"concretewall.jpg",
			"uri":"../../rooms/Textures/concretewall.jpg"
		},
		{
			"mimeType":"image/jpeg",
			"name":"metalpanels.jpg",
			"uri":"../../rooms/Textures/metalpanels.jpg"
		},
		{
			"mimeType":"image/jpeg",
			"name":"metal3.jpg",
			"uri":"../../rooms/Textures/metal3.jpg"
		}
	],
	"accessors":[
		{
			"bufferView":0,
			"componentType":5126,
			"count":32,
			"max":[
				7.300000190734863,
				1.500000238418579,
				7.295454502105713
			],
			"min":[
				-7.300000190734863,
				1.4999998807907104,
				-7.304545879364014
			],
			"type":"VEC3"
		},
		{
			"bufferView":1,
			"componentType":5126,
			"count":32,
			"type":"VEC3"
		},
		{
			"bufferView":2,
			"componentType":5126,
			"count":32,
			"type":"VEC2"
		},
		{
			"bufferView":3,
			"componentType":5126,
			"count":32,
			"type":"VEC4"
		},
		{
			"bufferView":4,
			"componentType":5123,
			"count":54,
			"type":"SCALAR"
		},
		{
			"bufferView":5,
			"componentType":5126,
			"count":148,
			"max":[
				7.5,
				1.5,
				7.49545431137085
			],
			"min":[
				-7.5,
				-1.5000001192092896,
				-7.50454568862915
			],
			"type":"VEC3"
		},
		{
			"bufferView":6,
			"componentType":5126,
			"count":148,
			"type":"VEC3"
		},
		{
			"bufferView":7,
			"componentType":5126,
			"count":148,
			"type":"VEC2"
		},
		{
			"bufferView":8,
			"componentType":5126,
			"count":148,
			"type":"VEC4"
		},
		{
			"bufferView":9,
			"componentType":5123,
			"count":240,
			"type":"SCALAR"
		},
		{
			"bufferView":10,
			"componentType":5126,
			"count":16,
			"max":[
				1.7481598854064941,
				1.5,
				1.7481597661972046
			],
			"min":[
				-1.7481603622436523,
				-1.5,
				-1.7481597661972046
			],
			"type":"VEC3"
		},
		{
			"bufferView":11,
			"componentType":5126,
			"count":16,
			"type":"VEC3"
		},
		{
			"bufferView":12,
			"componentType":5126,
			"count":16,
			"type":"VEC2"
		},
		{
			"bufferView":13,
			"componentType":5126,
			"count":16,
			"type":"VEC4"
		},
		{
			"bufferView":14,
			"componentType":5123,
			"count":24,
			"type":"SCALAR"
		},
		{
			"bufferView":15,
			"componentType":5126,
			"count":50,
			"max":[
				7.5,
				-1.5,
				7.49545431137085
			],
			"min":[
				-7.5,
				-1.5000001192092896,
				-7.50454568862915
			],
			"type":"VEC3"
		},
		{
			"bufferView":16,
			"componentType":5126,
			"count":50,
			"type":"VEC3"
		},
		{
			"bufferView":17,
			"componentType":5126,
			"count":50,
			"type":"VEC2"
		},
		{
			"bufferView":18,
			"componentType":5126,
			"count":50,
			"type":"VEC4"
		},
		{
			"bufferView":19,
			"componentType":5123,
			"count":168,
			"type":"SCALAR"
		}
	],
	"bufferViews":[
		{
			"buffer":0,
			"byteLength":384,
			"byteOffset":0,
			"target":34962
		},
		{
			"buffer":0,
			"byteLength":384,
			"byteOffset":384,
			"target":34962
		},
		{
			"buffer":0,
			"byteLength":256,
			"byteOffset":768,
			"target":34962
		},
		{
			"buffer":0,
			"byteLength":512,
			"byteOffset":1024,
			"target":34962
		},
		{
			"buffer":0,
			"byteLength":108,
			"byteOffset":1536,
			"target":34963
		},
		{
			"buffer":0,
			"byteLength":1776,
			"byteOffset":1644,
			"target":34962
		},
		{
			"buffer":0,
			"byteLength":1776,
			"byteOffset":3420,
			"target":34962
		},
		{
			"buffer":0,
			"byteLength":1184,
			"byteOffset":5196,
			"target":34962
		},
		{
			"buffer":0,
			"byteLength":2368,
			"byteOffset":6380,
			"target":34962
		},
		{
			"buffer":0,
			"byteLength":480,
			"byteOffset":8748,
			"target":34963
		},
		{
			"buffer":0,
			"byteLength":192,
			"byteOffset":9228,
			"target":34962
		},
		{
			"buffer":0,
			"byteLength":192,
			"byteOffset":9420,
			"target":34962
		},
		{
			"buffer":0,
			"byteLength":128,
			"byteOffset":9612,
			"target":34962
		},
		{
			"buffer":0,
			"byteLength":256,
			"byteOffset":9740,
			"target":34962
		},
		{
			"buffer":0,
			"byteLength":48,
			"byteOffset":9996,
			"target":34963
		},
		{
			"buffer":0,
			"byteLength":600,
			"byteOffset":10044,
			"target":34962
		},
		{
			"buffer":0,
			"byteLength":600,
			"byteOffset":10644,
			"target":34962
		},
		{
			"buffer":0,
			"byteLength":400,
			"byteOffset":11244,
			"target":34962
		},
		{
			"buffer":0,
			"byteLength":800,
			"byteOffset":11644,
			"target":34962
		},
		{
			"buffer":0,
			"byteLength":336,
			"byteOffset":12444,
			"target":34963
		}
	],
	"samplers":[
		{
			"magFilter":9729,
			"minFilter":9987
		}
	],
	"buffers":[
		{
			"byteLength":12780,
			"uri":"HCon4Way001-95a16e6b92a1b97ce6ca234db3fb33a3.bin"
		}
	]
}
