{
	"asset":{
		"generator":"Khronos glTF Blender I/O v4.3.47",
		"version":"2.0"
	},
	"scene":0,
	"scenes":[
		{
			"name":"Scene",
			"nodes":[
				0,
				1
			]
		}
	],
	"nodes":[
		{
			"mesh":0,
			"name":"Cube-col"
		},
		{
			"mesh":1,
			"name":"Cube",
			"translation":[
				-1.7784442901611328,
				0.694178581237793,
				-2.000032901763916
			]
		}
	],
	"materials":[
		{
			"name":"Material",
			"pbrMetallicRoughness":{
				"baseColorTexture":{
					"index":0
				},
				"metallicFactor":0,
				"roughnessFactor":0.5
			}
		},
		{
			"name":"Material.001",
			"pbrMetallicRoughness":{
				"baseColorTexture":{
					"index":1
				},
				"metallicFactor":0,
				"roughnessFactor":0.5
			}
		},
		{
			"name":"Material.003",
			"normalTexture":{
				"index":2
			},
			"pbrMetallicRoughness":{
				"baseColorTexture":{
					"index":3
				},
				"metallicFactor":0,
				"roughnessFactor":0.5
			}
		},
		{
			"name":"Material.004",
			"pbrMetallicRoughness":{
				"baseColorTexture":{
					"index":4
				},
				"metallicFactor":0,
				"roughnessFactor":0.5
			}
		},
		{
			"doubleSided":true,
			"name":"Material.005",
			"pbrMetallicRoughness":{
				"baseColorTexture":{
					"index":5
				},
				"metallicFactor":0,
				"roughnessFactor":0.5
			}
		}
	],
	"meshes":[
		{
			"name":"Cube.001",
			"primitives":[
				{
					"attributes":{
						"POSITION":0,
						"NORMAL":1,
						"TEXCOORD_0":2
					},
					"indices":3,
					"material":0
				},
				{
					"attributes":{
						"POSITION":4,
						"NORMAL":5,
						"TEXCOORD_0":6
					},
					"indices":7,
					"material":1
				},
				{
					"attributes":{
						"POSITION":8,
						"NORMAL":9,
						"TEXCOORD_0":10
					},
					"indices":11,
					"material":2
				},
				{
					"attributes":{
						"POSITION":12,
						"NORMAL":13,
						"TEXCOORD_0":14
					},
					"indices":15,
					"material":3
				}
			]
		},
		{
			"name":"Cube",
			"primitives":[
				{
					"attributes":{
						"POSITION":16,
						"NORMAL":17,
						"TEXCOORD_0":18,
						"TANGENT":19
					},
					"indices":20,
					"material":4
				}
			]
		}
	],
	"textures":[
		{
			"sampler":0,
			"source":0
		},
		{
			"sampler":0,
			"source":1
		},
		{
			"sampler":0,
			"source":2
		},
		{
			"sampler":0,
			"source":3
		},
		{
			"sampler":0,
			"source":4
		},
		{
			"sampler":0,
			"source":5
		}
	],
	"images":[
		{
			"mimeType":"image/jpeg",
			"name":"metalpanels.jpg",
			"uri":"../../rooms/Textures/metalpanels.jpg"
		},
		{
			"mimeType":"image/jpeg",
			"name":"concretefloor.jpg",
			"uri":"../../rooms/Textures/concretefloor.jpg"
		},
		{
			"mimeType":"image/png",
			"name":"metal3_specular.png",
			"uri":"../../rooms/Textures/normals/metal3_specular.png"
		},
		{
			"mimeType":"image/jpeg",
			"name":"metal3.jpg",
			"uri":"../../rooms/Textures/metal3.jpg"
		},
		{
			"mimeType":"image/jpeg",
			"name":"concretewall.jpg",
			"uri":"../../rooms/Textures/concretewall.jpg"
		},
		{
			"mimeType":"image/jpeg",
			"name":"dirtymetal.jpg",
			"uri":"../../rooms/Textures/dirtymetal.jpg"
		}
	],
	"accessors":[
		{
			"bufferView":0,
			"componentType":5126,
			"count":96,
			"max":[
				7.5,
				4.864516258239746,
				1.5000001192092896
			],
			"min":[
				-7.5,
				-4.135483741760254,
				-7.5
			],
			"type":"VEC3"
		},
		{
			"bufferView":1,
			"componentType":5126,
			"count":96,
			"type":"VEC3"
		},
		{
			"bufferView":2,
			"componentType":5126,
			"count":96,
			"type":"VEC2"
		},
		{
			"bufferView":3,
			"componentType":5123,
			"count":144,
			"type":"SCALAR"
		},
		{
			"bufferView":4,
			"componentType":5126,
			"count":26,
			"max":[
				7.300000190734863,
				4.864516258239746,
				1.5000001192092896
			],
			"min":[
				-7.300000190734863,
				-4.135483741760254,
				-7.300000190734863
			],
			"type":"VEC3"
		},
		{
			"bufferView":5,
			"componentType":5126,
			"count":26,
			"type":"VEC3"
		},
		{
			"bufferView":6,
			"componentType":5126,
			"count":26,
			"type":"VEC2"
		},
		{
			"bufferView":7,
			"componentType":5123,
			"count":66,
			"type":"SCALAR"
		},
		{
			"bufferView":8,
			"componentType":5126,
			"count":54,
			"max":[
				7.5,
				-1.1354838609695435,
				1.5
			],
			"min":[
				-7.5,
				-1.3354839086532593,
				-7.5
			],
			"type":"VEC3"
		},
		{
			"bufferView":9,
			"componentType":5126,
			"count":54,
			"type":"VEC3"
		},
		{
			"bufferView":10,
			"componentType":5126,
			"count":54,
			"type":"VEC2"
		},
		{
			"bufferView":11,
			"componentType":5123,
			"count":186,
			"type":"SCALAR"
		},
		{
			"bufferView":12,
			"componentType":5126,
			"count":114,
			"max":[
				7.5,
				4.864516258239746,
				1.5000001192092896
			],
			"min":[
				-7.5,
				-4.135483741760254,
				-7.5
			],
			"type":"VEC3"
		},
		{
			"bufferView":13,
			"componentType":5126,
			"count":114,
			"type":"VEC3"
		},
		{
			"bufferView":14,
			"componentType":5126,
			"count":114,
			"type":"VEC2"
		},
		{
			"bufferView":15,
			"componentType":5123,
			"count":204,
			"type":"SCALAR"
		},
		{
			"bufferView":16,
			"componentType":5126,
			"count":584,
			"max":[
				9.120631217956543,
				-0.8834858536720276,
				0.537293553352356
			],
			"min":[
				-5.547194004058838,
				-2.025217294692993,
				-5.342154026031494
			],
			"type":"VEC3"
		},
		{
			"bufferView":17,
			"componentType":5126,
			"count":584,
			"type":"VEC3"
		},
		{
			"bufferView":18,
			"componentType":5126,
			"count":584,
			"type":"VEC2"
		},
		{
			"bufferView":19,
			"componentType":5126,
			"count":584,
			"type":"VEC4"
		},
		{
			"bufferView":20,
			"componentType":5123,
			"count":888,
			"type":"SCALAR"
		}
	],
	"bufferViews":[
		{
			"buffer":0,
			"byteLength":1152,
			"byteOffset":0,
			"target":34962
		},
		{
			"buffer":0,
			"byteLength":1152,
			"byteOffset":1152,
			"target":34962
		},
		{
			"buffer":0,
			"byteLength":768,
			"byteOffset":2304,
			"target":34962
		},
		{
			"buffer":0,
			"byteLength":288,
			"byteOffset":3072,
			"target":34963
		},
		{
			"buffer":0,
			"byteLength":312,
			"byteOffset":3360,
			"target":34962
		},
		{
			"buffer":0,
			"byteLength":312,
			"byteOffset":3672,
			"target":34962
		},
		{
			"buffer":0,
			"byteLength":208,
			"byteOffset":3984,
			"target":34962
		},
		{
			"buffer":0,
			"byteLength":132,
			"byteOffset":4192,
			"target":34963
		},
		{
			"buffer":0,
			"byteLength":648,
			"byteOffset":4324,
			"target":34962
		},
		{
			"buffer":0,
			"byteLength":648,
			"byteOffset":4972,
			"target":34962
		},
		{
			"buffer":0,
			"byteLength":432,
			"byteOffset":5620,
			"target":34962
		},
		{
			"buffer":0,
			"byteLength":372,
			"byteOffset":6052,
			"target":34963
		},
		{
			"buffer":0,
			"byteLength":1368,
			"byteOffset":6424,
			"target":34962
		},
		{
			"buffer":0,
			"byteLength":1368,
			"byteOffset":7792,
			"target":34962
		},
		{
			"buffer":0,
			"byteLength":912,
			"byteOffset":9160,
			"target":34962
		},
		{
			"buffer":0,
			"byteLength":408,
			"byteOffset":10072,
			"target":34963
		},
		{
			"buffer":0,
			"byteLength":7008,
			"byteOffset":10480,
			"target":34962
		},
		{
			"buffer":0,
			"byteLength":7008,
			"byteOffset":17488,
			"target":34962
		},
		{
			"buffer":0,
			"byteLength":4672,
			"byteOffset":24496,
			"target":34962
		},
		{
			"buffer":0,
			"byteLength":9344,
			"byteOffset":29168,
			"target":34962
		},
		{
			"buffer":0,
			"byteLength":1776,
			"byteOffset":38512,
			"target":34963
		}
	],
	"samplers":[
		{
			"magFilter":9729,
			"minFilter":9987
		}
	],
	"buffers":[
		{
			"byteLength":40288,
			"uri":"HCon3Way001-3e94ec74c59980ebcd3d72213f68e63e.bin"
		}
	]
}
