{
	"asset":{
		"generator":"Khronos glTF Blender I/O v4.3.47",
		"version":"2.0"
	},
	"scene":0,
	"scenes":[
		{
			"name":"Scene",
			"nodes":[
				0
			]
		}
	],
	"nodes":[
		{
			"mesh":0,
			"name":"Cube",
			"scale":[
				0.8500000238418579,
				0.8500000238418579,
				0.8500000238418579
			]
		}
	],
	"materials":[
		{
			"name":"Material.004",
			"pbrMetallicRoughness":{
				"baseColorTexture":{
					"index":0
				},
				"metallicFactor":0.14960630238056183,
				"roughnessFactor":0.6062992215156555
			}
		},
		{
			"name":"Material.006",
			"pbrMetallicRoughness":{
				"baseColorTexture":{
					"index":1
				},
				"metallicFactor":0,
				"roughnessFactor":0.5
			}
		}
	],
	"meshes":[
		{
			"name":"Cube",
			"primitives":[
				{
					"attributes":{
						"POSITION":0,
						"NORMAL":1,
						"TEXCOORD_0":2,
						"TANGENT":3
					},
					"indices":4,
					"material":0
				},
				{
					"attributes":{
						"POSITION":5,
						"NORMAL":6,
						"TEXCOORD_0":7,
						"TANGENT":8
					},
					"indices":9,
					"material":1
				}
			]
		}
	],
	"textures":[
		{
			"sampler":0,
			"source":0
		},
		{
			"sampler":0,
			"source":1
		}
	],
	"images":[
		{
			"mimeType":"image/jpeg",
			"name":"keyboard.jpg",
			"uri":"../../rooms/Textures/keyboard.jpg"
		},
		{
			"mimeType":"image/jpeg",
			"name":"Keypad.jpg",
			"uri":"../../rooms/Textures/Keypad.jpg"
		}
	],
	"accessors":[
		{
			"bufferView":0,
			"componentType":5126,
			"count":24,
			"max":[
				0.12068600207567215,
				0.030446752905845642,
				-0.050000011920928955
			],
			"min":[
				-0.12068600207567215,
				-0.22068601846694946,
				-0.050000011920928955
			],
			"type":"VEC3"
		},
		{
			"bufferView":1,
			"componentType":5126,
			"count":24,
			"type":"VEC3"
		},
		{
			"bufferView":2,
			"componentType":5126,
			"count":24,
			"type":"VEC2"
		},
		{
			"bufferView":3,
			"componentType":5126,
			"count":24,
			"type":"VEC4"
		},
		{
			"bufferView":4,
			"componentType":5123,
			"count":48,
			"type":"SCALAR"
		},
		{
			"bufferView":5,
			"componentType":5126,
			"count":154,
			"max":[
				0.14482323825359344,
				0.24460555613040924,
				0.07908647507429123
			],
			"min":[
				-0.14482323825359344,
				-0.24873651564121246,
				-0.050000011920928955
			],
			"type":"VEC3"
		},
		{
			"bufferView":6,
			"componentType":5126,
			"count":154,
			"type":"VEC3"
		},
		{
			"bufferView":7,
			"componentType":5126,
			"count":154,
			"type":"VEC2"
		},
		{
			"bufferView":8,
			"componentType":5126,
			"count":154,
			"type":"VEC4"
		},
		{
			"bufferView":9,
			"componentType":5123,
			"count":282,
			"type":"SCALAR"
		}
	],
	"bufferViews":[
		{
			"buffer":0,
			"byteLength":288,
			"byteOffset":0,
			"target":34962
		},
		{
			"buffer":0,
			"byteLength":288,
			"byteOffset":288,
			"target":34962
		},
		{
			"buffer":0,
			"byteLength":192,
			"byteOffset":576,
			"target":34962
		},
		{
			"buffer":0,
			"byteLength":384,
			"byteOffset":768,
			"target":34962
		},
		{
			"buffer":0,
			"byteLength":96,
			"byteOffset":1152,
			"target":34963
		},
		{
			"buffer":0,
			"byteLength":1848,
			"byteOffset":1248,
			"target":34962
		},
		{
			"buffer":0,
			"byteLength":1848,
			"byteOffset":3096,
			"target":34962
		},
		{
			"buffer":0,
			"byteLength":1232,
			"byteOffset":4944,
			"target":34962
		},
		{
			"buffer":0,
			"byteLength":2464,
			"byteOffset":6176,
			"target":34962
		},
		{
			"buffer":0,
			"byteLength":564,
			"byteOffset":8640,
			"target":34963
		}
	],
	"samplers":[
		{
			"magFilter":9729,
			"minFilter":9987
		}
	],
	"buffers":[
		{
			"byteLength":9204,
			"uri":"keycardbutton-2be41fa961e724eb0f091f708c609515.bin"
		}
	]
}
