{
	"asset":{
		"generator":"Khronos glTF Blender I/O v4.3.47",
		"version":"2.0"
	},
	"scene":0,
	"scenes":[
		{
			"name":"Scene",
			"nodes":[
				0
			]
		}
	],
	"nodes":[
		{
			"mesh":0,
			"name":"Concrete floor-col"
		}
	],
	"materials":[
		{
			"name":"Concrete Floor",
			"normalTexture":{
				"index":0
			},
			"pbrMetallicRoughness":{
				"baseColorTexture":{
					"index":1
				},
				"metallicFactor":0,
				"roughnessFactor":0.5
			}
		},
		{
			"name":"Material.001",
			"normalTexture":{
				"index":2
			},
			"pbrMetallicRoughness":{
				"baseColorTexture":{
					"index":3
				},
				"metallicFactor":0,
				"roughnessFactor":0.5
			}
		}
	],
	"meshes":[
		{
			"name":"Cube.002",
			"primitives":[
				{
					"attributes":{
						"POSITION":0,
						"NORMAL":1,
						"TEXCOORD_0":2,
						"TANGENT":3
					},
					"indices":4,
					"material":0
				},
				{
					"attributes":{
						"POSITION":5,
						"NORMAL":6,
						"TEXCOORD_0":7,
						"TANGENT":8
					},
					"indices":9,
					"material":1
				}
			]
		}
	],
	"textures":[
		{
			"sampler":0,
			"source":0
		},
		{
			"sampler":0,
			"source":1
		},
		{
			"sampler":0,
			"source":2
		},
		{
			"sampler":0,
			"source":3
		}
	],
	"images":[
		{
			"mimeType":"image/png",
			"name":"concrete_floor.png",
			"uri":"../../rooms/Textures/normals/concrete_floor.png"
		},
		{
			"mimeType":"image/jpeg",
			"name":"concretefloor.jpg",
			"uri":"../../rooms/Textures/concretefloor.jpg"
		},
		{
			"mimeType":"image/png",
			"name":"whitewall_specular.png",
			"uri":"../../rooms/Textures/normals/whitewall_specular.png"
		},
		{
			"mimeType":"image/jpeg",
			"name":"whitewall.jpg",
			"uri":"../../rooms/Textures/whitewall.jpg"
		}
	],
	"accessors":[
		{
			"bufferView":0,
			"componentType":5126,
			"count":36,
			"max":[
				5.013688564300537,
				1.7083717584609985,
				3.199967861175537
			],
			"min":[
				-5.013686656951904,
				-1.2938364744186401,
				-7.5000319480896
			],
			"type":"VEC3"
		},
		{
			"bufferView":1,
			"componentType":5126,
			"count":36,
			"type":"VEC3"
		},
		{
			"bufferView":2,
			"componentType":5126,
			"count":36,
			"type":"VEC2"
		},
		{
			"bufferView":3,
			"componentType":5126,
			"count":36,
			"type":"VEC4"
		},
		{
			"bufferView":4,
			"componentType":5123,
			"count":66,
			"type":"SCALAR"
		},
		{
			"bufferView":5,
			"componentType":5126,
			"count":44,
			"max":[
				5.013688564300537,
				1.7083717584609985,
				3.199967861175537
			],
			"min":[
				-5.013686656951904,
				-1.2938364744186401,
				-7.5000319480896
			],
			"type":"VEC3"
		},
		{
			"bufferView":6,
			"componentType":5126,
			"count":44,
			"type":"VEC3"
		},
		{
			"bufferView":7,
			"componentType":5126,
			"count":44,
			"type":"VEC2"
		},
		{
			"bufferView":8,
			"componentType":5126,
			"count":44,
			"type":"VEC4"
		},
		{
			"bufferView":9,
			"componentType":5123,
			"count":72,
			"type":"SCALAR"
		}
	],
	"bufferViews":[
		{
			"buffer":0,
			"byteLength":432,
			"byteOffset":0,
			"target":34962
		},
		{
			"buffer":0,
			"byteLength":432,
			"byteOffset":432,
			"target":34962
		},
		{
			"buffer":0,
			"byteLength":288,
			"byteOffset":864,
			"target":34962
		},
		{
			"buffer":0,
			"byteLength":576,
			"byteOffset":1152,
			"target":34962
		},
		{
			"buffer":0,
			"byteLength":132,
			"byteOffset":1728,
			"target":34963
		},
		{
			"buffer":0,
			"byteLength":528,
			"byteOffset":1860,
			"target":34962
		},
		{
			"buffer":0,
			"byteLength":528,
			"byteOffset":2388,
			"target":34962
		},
		{
			"buffer":0,
			"byteLength":352,
			"byteOffset":2916,
			"target":34962
		},
		{
			"buffer":0,
			"byteLength":704,
			"byteOffset":3268,
			"target":34962
		},
		{
			"buffer":0,
			"byteLength":144,
			"byteOffset":3972,
			"target":34963
		}
	],
	"samplers":[
		{
			"magFilter":9729,
			"minFilter":9987
		}
	],
	"buffers":[
		{
			"byteLength":4116,
			"uri":"LConEnd001-370ebf649043912ea1b068305ae7906e.bin"
		}
	]
}
