{
	"asset":{
		"generator":"Khronos glTF Blender I/O v4.4.56",
		"version":"2.0"
	},
	"scene":0,
	"scenes":[
		{
			"name":"Scene",
			"nodes":[
				0,
				1
			]
		}
	],
	"nodes":[
		{
			"mesh":0,
			"name":"Cube-col"
		},
		{
			"mesh":1,
			"name":"checkpoint-col"
		}
	],
	"materials":[
		{
			"name":"Material",
			"normalTexture":{
				"index":0
			},
			"pbrMetallicRoughness":{
				"baseColorTexture":{
					"index":1
				},
				"metallicFactor":0,
				"roughnessFactor":0.5
			}
		},
		{
			"name":"Material.001",
			"normalTexture":{
				"index":2
			},
			"pbrMetallicRoughness":{
				"baseColorTexture":{
					"index":3
				},
				"metallicFactor":0,
				"roughnessFactor":0.5
			}
		},
		{
			"name":"Material.002",
			"normalTexture":{
				"index":4
			},
			"pbrMetallicRoughness":{
				"baseColorTexture":{
					"index":5
				},
				"metallicFactor":0,
				"roughnessFactor":0.5
			}
		}
	],
	"meshes":[
		{
			"name":"Cube.001",
			"primitives":[
				{
					"attributes":{
						"POSITION":0,
						"NORMAL":1,
						"TEXCOORD_0":2,
						"TANGENT":3
					},
					"indices":4,
					"material":0
				},
				{
					"attributes":{
						"POSITION":5,
						"NORMAL":6,
						"TEXCOORD_0":7,
						"TANGENT":8
					},
					"indices":9,
					"material":1
				},
				{
					"attributes":{
						"POSITION":10,
						"NORMAL":11,
						"TEXCOORD_0":12,
						"TANGENT":13
					},
					"indices":14,
					"material":2
				}
			]
		},
		{
			"name":"Cube",
			"primitives":[
				{
					"attributes":{
						"POSITION":15,
						"NORMAL":16,
						"TEXCOORD_0":17,
						"TANGENT":18
					},
					"indices":19
				}
			]
		}
	],
	"textures":[
		{
			"sampler":0,
			"source":0
		},
		{
			"sampler":0,
			"source":1
		},
		{
			"sampler":0,
			"source":2
		},
		{
			"sampler":0,
			"source":3
		},
		{
			"sampler":0,
			"source":4
		},
		{
			"sampler":0,
			"source":5
		}
	],
	"images":[
		{
			"mimeType":"image/png",
			"name":"concrete_floor.png",
			"uri":"../../rooms/Textures/normals/concrete_floor.png"
		},
		{
			"mimeType":"image/jpeg",
			"name":"concretefloor.jpg",
			"uri":"../../rooms/Textures/concretefloor.jpg"
		},
		{
			"mimeType":"image/png",
			"name":"whitewall1_specular.png",
			"uri":"../../rooms/Textures/normals/whitewall1_specular.png"
		},
		{
			"mimeType":"image/png",
			"name":"whitewall1.png",
			"uri":"../../rooms/Textures/whitewall1.png"
		},
		{
			"mimeType":"image/png",
			"name":"whitewall_specular.png",
			"uri":"../../rooms/Textures/normals/whitewall_specular.png"
		},
		{
			"mimeType":"image/jpeg",
			"name":"whitewall.jpg",
			"uri":"../../rooms/Textures/whitewall.jpg"
		}
	],
	"accessors":[
		{
			"bufferView":0,
			"componentType":5126,
			"count":40,
			"max":[
				7.5,
				4.827272891998291,
				6.295454502105713
			],
			"min":[
				-7.5,
				-1.1727274656295776,
				-6.304545879364014
			],
			"type":"VEC3"
		},
		{
			"bufferView":1,
			"componentType":5126,
			"count":40,
			"type":"VEC3"
		},
		{
			"bufferView":2,
			"componentType":5126,
			"count":40,
			"type":"VEC2"
		},
		{
			"bufferView":3,
			"componentType":5126,
			"count":40,
			"type":"VEC4"
		},
		{
			"bufferView":4,
			"componentType":5123,
			"count":114,
			"type":"SCALAR"
		},
		{
			"bufferView":5,
			"componentType":5126,
			"count":84,
			"max":[
				7.5,
				4.827272891998291,
				6.295454502105713
			],
			"min":[
				-7.5,
				-1.1727274656295776,
				-6.304545879364014
			],
			"type":"VEC3"
		},
		{
			"bufferView":6,
			"componentType":5126,
			"count":84,
			"type":"VEC3"
		},
		{
			"bufferView":7,
			"componentType":5126,
			"count":84,
			"type":"VEC2"
		},
		{
			"bufferView":8,
			"componentType":5126,
			"count":84,
			"type":"VEC4"
		},
		{
			"bufferView":9,
			"componentType":5123,
			"count":132,
			"type":"SCALAR"
		},
		{
			"bufferView":10,
			"componentType":5126,
			"count":44,
			"max":[
				7.300000190734863,
				4.827272891998291,
				6.295454502105713
			],
			"min":[
				-7.300000190734863,
				1.8272725343704224,
				-6.304545879364014
			],
			"type":"VEC3"
		},
		{
			"bufferView":11,
			"componentType":5126,
			"count":44,
			"type":"VEC3"
		},
		{
			"bufferView":12,
			"componentType":5126,
			"count":44,
			"type":"VEC2"
		},
		{
			"bufferView":13,
			"componentType":5126,
			"count":44,
			"type":"VEC4"
		},
		{
			"bufferView":14,
			"componentType":5123,
			"count":66,
			"type":"SCALAR"
		},
		{
			"bufferView":15,
			"componentType":5126,
			"count":380,
			"max":[
				1.5000004768371582,
				4.878671646118164,
				6.300000190734863
			],
			"min":[
				-1.5,
				-1.2231979370117188,
				-6.300000190734863
			],
			"type":"VEC3"
		},
		{
			"bufferView":16,
			"componentType":5126,
			"count":380,
			"type":"VEC3"
		},
		{
			"bufferView":17,
			"componentType":5126,
			"count":380,
			"type":"VEC2"
		},
		{
			"bufferView":18,
			"componentType":5126,
			"count":380,
			"type":"VEC4"
		},
		{
			"bufferView":19,
			"componentType":5123,
			"count":732,
			"type":"SCALAR"
		}
	],
	"bufferViews":[
		{
			"buffer":0,
			"byteLength":480,
			"byteOffset":0,
			"target":34962
		},
		{
			"buffer":0,
			"byteLength":480,
			"byteOffset":480,
			"target":34962
		},
		{
			"buffer":0,
			"byteLength":320,
			"byteOffset":960,
			"target":34962
		},
		{
			"buffer":0,
			"byteLength":640,
			"byteOffset":1280,
			"target":34962
		},
		{
			"buffer":0,
			"byteLength":228,
			"byteOffset":1920,
			"target":34963
		},
		{
			"buffer":0,
			"byteLength":1008,
			"byteOffset":2148,
			"target":34962
		},
		{
			"buffer":0,
			"byteLength":1008,
			"byteOffset":3156,
			"target":34962
		},
		{
			"buffer":0,
			"byteLength":672,
			"byteOffset":4164,
			"target":34962
		},
		{
			"buffer":0,
			"byteLength":1344,
			"byteOffset":4836,
			"target":34962
		},
		{
			"buffer":0,
			"byteLength":264,
			"byteOffset":6180,
			"target":34963
		},
		{
			"buffer":0,
			"byteLength":528,
			"byteOffset":6444,
			"target":34962
		},
		{
			"buffer":0,
			"byteLength":528,
			"byteOffset":6972,
			"target":34962
		},
		{
			"buffer":0,
			"byteLength":352,
			"byteOffset":7500,
			"target":34962
		},
		{
			"buffer":0,
			"byteLength":704,
			"byteOffset":7852,
			"target":34962
		},
		{
			"buffer":0,
			"byteLength":132,
			"byteOffset":8556,
			"target":34963
		},
		{
			"buffer":0,
			"byteLength":4560,
			"byteOffset":8688,
			"target":34962
		},
		{
			"buffer":0,
			"byteLength":4560,
			"byteOffset":13248,
			"target":34962
		},
		{
			"buffer":0,
			"byteLength":3040,
			"byteOffset":17808,
			"target":34962
		},
		{
			"buffer":0,
			"byteLength":6080,
			"byteOffset":20848,
			"target":34962
		},
		{
			"buffer":0,
			"byteLength":1464,
			"byteOffset":26928,
			"target":34963
		}
	],
	"samplers":[
		{
			"magFilter":9729,
			"minFilter":9987
		}
	],
	"buffers":[
		{
			"byteLength":28392,
			"uri":"LCon4Way001-6ce3fe46d0f2f7bc020592b1b61a403b.bin"
		}
	]
}
