{
	"asset":{
		"generator":"Khronos glTF Blender I/O v4.4.56",
		"version":"2.0"
	},
	"scene":0,
	"scenes":[
		{
			"name":"Scene",
			"nodes":[
				0,
				1
			]
		}
	],
	"nodes":[
		{
			"mesh":0,
			"name":"Cube-col",
			"translation":[
				0,
				0.27662336826324463,
				0
			]
		},
		{
			"mesh":1,
			"name":"vents",
			"translation":[
				1,
				0,
				1
			]
		}
	],
	"materials":[
		{
			"name":"Material",
			"normalTexture":{
				"index":0
			},
			"pbrMetallicRoughness":{
				"baseColorTexture":{
					"index":1
				},
				"metallicFactor":0,
				"roughnessFactor":0.5
			}
		},
		{
			"name":"Material.001",
			"normalTexture":{
				"index":2
			},
			"pbrMetallicRoughness":{
				"baseColorTexture":{
					"index":3
				},
				"metallicFactor":0,
				"roughnessFactor":0.5
			}
		},
		{
			"name":"Material.002",
			"pbrMetallicRoughness":{
				"baseColorTexture":{
					"index":4
				},
				"metallicFactor":0,
				"roughnessFactor":0.5
			}
		},
		{
			"doubleSided":true,
			"name":"Material.003",
			"pbrMetallicRoughness":{
				"baseColorTexture":{
					"index":5
				},
				"metallicFactor":0,
				"roughnessFactor":0.5
			}
		},
		{
			"doubleSided":true,
			"name":"Material.004",
			"pbrMetallicRoughness":{
				"baseColorTexture":{
					"index":6
				},
				"metallicFactor":0,
				"roughnessFactor":0.5
			}
		}
	],
	"meshes":[
		{
			"name":"Cube.001",
			"primitives":[
				{
					"attributes":{
						"POSITION":0,
						"NORMAL":1,
						"TEXCOORD_0":2,
						"TANGENT":3
					},
					"indices":4,
					"material":0
				},
				{
					"attributes":{
						"POSITION":5,
						"NORMAL":6,
						"TEXCOORD_0":7,
						"TANGENT":8
					},
					"indices":9,
					"material":1
				},
				{
					"attributes":{
						"POSITION":10,
						"NORMAL":11,
						"TEXCOORD_0":12,
						"TANGENT":13
					},
					"indices":14,
					"material":2
				}
			]
		},
		{
			"name":"Cube",
			"primitives":[
				{
					"attributes":{
						"POSITION":15,
						"NORMAL":16,
						"TEXCOORD_0":17,
						"TANGENT":18
					},
					"indices":19,
					"material":3
				},
				{
					"attributes":{
						"POSITION":20,
						"NORMAL":21,
						"TEXCOORD_0":22,
						"TANGENT":23
					},
					"indices":24,
					"material":4
				}
			]
		}
	],
	"textures":[
		{
			"sampler":0,
			"source":0
		},
		{
			"sampler":0,
			"source":1
		},
		{
			"sampler":0,
			"source":2
		},
		{
			"sampler":0,
			"source":3
		},
		{
			"sampler":0,
			"source":4
		},
		{
			"sampler":0,
			"source":5
		},
		{
			"sampler":0,
			"source":4
		}
	],
	"images":[
		{
			"mimeType":"image/png",
			"name":"whitewall_specular.png",
			"uri":"../../rooms/Textures/normals/whitewall_specular.png"
		},
		{
			"mimeType":"image/jpeg",
			"name":"whitewall.jpg",
			"uri":"../../rooms/Textures/whitewall.jpg"
		},
		{
			"mimeType":"image/png",
			"name":"concrete_floor.png",
			"uri":"../../rooms/Textures/normals/concrete_floor.png"
		},
		{
			"mimeType":"image/jpeg",
			"name":"concretefloor.jpg",
			"uri":"../../rooms/Textures/concretefloor.jpg"
		},
		{
			"mimeType":"image/jpeg",
			"name":"dirtymetal.jpg",
			"uri":"../../rooms/Textures/dirtymetal.jpg"
		},
		{
			"mimeType":"image/jpeg",
			"name":"vent.jpg",
			"uri":"../../rooms/Textures/vent.jpg"
		}
	],
	"accessors":[
		{
			"bufferView":0,
			"componentType":5126,
			"count":188,
			"max":[
				7.58886194229126,
				1.350002646446228,
				7.531670093536377
			],
			"min":[
				-7.5,
				-1.6500000953674316,
				-7.5
			],
			"type":"VEC3"
		},
		{
			"bufferView":1,
			"componentType":5126,
			"count":188,
			"type":"VEC3"
		},
		{
			"bufferView":2,
			"componentType":5126,
			"count":188,
			"type":"VEC2"
		},
		{
			"bufferView":3,
			"componentType":5126,
			"count":188,
			"type":"VEC4"
		},
		{
			"bufferView":4,
			"componentType":5123,
			"count":288,
			"type":"SCALAR"
		},
		{
			"bufferView":5,
			"componentType":5126,
			"count":71,
			"max":[
				7.500865936279297,
				1.350002646446228,
				7.5
			],
			"min":[
				-7.5,
				-1.6500000953674316,
				-7.5
			],
			"type":"VEC3"
		},
		{
			"bufferView":6,
			"componentType":5126,
			"count":71,
			"type":"VEC3"
		},
		{
			"bufferView":7,
			"componentType":5126,
			"count":71,
			"type":"VEC2"
		},
		{
			"bufferView":8,
			"componentType":5126,
			"count":71,
			"type":"VEC4"
		},
		{
			"bufferView":9,
			"componentType":5123,
			"count":168,
			"type":"SCALAR"
		},
		{
			"bufferView":10,
			"componentType":5126,
			"count":105,
			"max":[
				7.58886194229126,
				1.3500044345855713,
				7.530919075012207
			],
			"min":[
				-2.2015128135681152,
				-1.6500000953674316,
				-2.1097676753997803
			],
			"type":"VEC3"
		},
		{
			"bufferView":11,
			"componentType":5126,
			"count":105,
			"type":"VEC3"
		},
		{
			"bufferView":12,
			"componentType":5126,
			"count":105,
			"type":"VEC2"
		},
		{
			"bufferView":13,
			"componentType":5126,
			"count":105,
			"type":"VEC4"
		},
		{
			"bufferView":14,
			"componentType":5123,
			"count":204,
			"type":"SCALAR"
		},
		{
			"bufferView":15,
			"componentType":5126,
			"count":16,
			"max":[
				5,
				1.4634360074996948,
				5.099999904632568
			],
			"min":[
				-1,
				1.4634360074996948,
				-1
			],
			"type":"VEC3"
		},
		{
			"bufferView":16,
			"componentType":5126,
			"count":16,
			"type":"VEC3"
		},
		{
			"bufferView":17,
			"componentType":5126,
			"count":16,
			"type":"VEC2"
		},
		{
			"bufferView":18,
			"componentType":5126,
			"count":16,
			"type":"VEC4"
		},
		{
			"bufferView":19,
			"componentType":5123,
			"count":24,
			"type":"SCALAR"
		},
		{
			"bufferView":20,
			"componentType":5126,
			"count":64,
			"max":[
				5,
				1.7634360790252686,
				5.099999904632568
			],
			"min":[
				-1,
				1.4634360074996948,
				-1
			],
			"type":"VEC3"
		},
		{
			"bufferView":21,
			"componentType":5126,
			"count":64,
			"type":"VEC3"
		},
		{
			"bufferView":22,
			"componentType":5126,
			"count":64,
			"type":"VEC2"
		},
		{
			"bufferView":23,
			"componentType":5126,
			"count":64,
			"type":"VEC4"
		},
		{
			"bufferView":24,
			"componentType":5123,
			"count":96,
			"type":"SCALAR"
		}
	],
	"bufferViews":[
		{
			"buffer":0,
			"byteLength":2256,
			"byteOffset":0,
			"target":34962
		},
		{
			"buffer":0,
			"byteLength":2256,
			"byteOffset":2256,
			"target":34962
		},
		{
			"buffer":0,
			"byteLength":1504,
			"byteOffset":4512,
			"target":34962
		},
		{
			"buffer":0,
			"byteLength":3008,
			"byteOffset":6016,
			"target":34962
		},
		{
			"buffer":0,
			"byteLength":576,
			"byteOffset":9024,
			"target":34963
		},
		{
			"buffer":0,
			"byteLength":852,
			"byteOffset":9600,
			"target":34962
		},
		{
			"buffer":0,
			"byteLength":852,
			"byteOffset":10452,
			"target":34962
		},
		{
			"buffer":0,
			"byteLength":568,
			"byteOffset":11304,
			"target":34962
		},
		{
			"buffer":0,
			"byteLength":1136,
			"byteOffset":11872,
			"target":34962
		},
		{
			"buffer":0,
			"byteLength":336,
			"byteOffset":13008,
			"target":34963
		},
		{
			"buffer":0,
			"byteLength":1260,
			"byteOffset":13344,
			"target":34962
		},
		{
			"buffer":0,
			"byteLength":1260,
			"byteOffset":14604,
			"target":34962
		},
		{
			"buffer":0,
			"byteLength":840,
			"byteOffset":15864,
			"target":34962
		},
		{
			"buffer":0,
			"byteLength":1680,
			"byteOffset":16704,
			"target":34962
		},
		{
			"buffer":0,
			"byteLength":408,
			"byteOffset":18384,
			"target":34963
		},
		{
			"buffer":0,
			"byteLength":192,
			"byteOffset":18792,
			"target":34962
		},
		{
			"buffer":0,
			"byteLength":192,
			"byteOffset":18984,
			"target":34962
		},
		{
			"buffer":0,
			"byteLength":128,
			"byteOffset":19176,
			"target":34962
		},
		{
			"buffer":0,
			"byteLength":256,
			"byteOffset":19304,
			"target":34962
		},
		{
			"buffer":0,
			"byteLength":48,
			"byteOffset":19560,
			"target":34963
		},
		{
			"buffer":0,
			"byteLength":768,
			"byteOffset":19608,
			"target":34962
		},
		{
			"buffer":0,
			"byteLength":768,
			"byteOffset":20376,
			"target":34962
		},
		{
			"buffer":0,
			"byteLength":512,
			"byteOffset":21144,
			"target":34962
		},
		{
			"buffer":0,
			"byteLength":1024,
			"byteOffset":21656,
			"target":34962
		},
		{
			"buffer":0,
			"byteLength":192,
			"byteOffset":22680,
			"target":34963
		}
	],
	"samplers":[
		{
			"magFilter":9729,
			"minFilter":9987
		}
	],
	"buffers":[
		{
			"byteLength":22872,
			"uri":"LConBendGas001-72f897c2cddf2a32df364e89dc905a6a.bin"
		}
	]
}
