{
	"asset":{
		"generator":"Khronos glTF Blender I/O v4.3.47",
		"version":"2.0"
	},
	"scene":0,
	"scenes":[
		{
			"name":"Scene",
			"nodes":[
				0
			]
		}
	],
	"nodes":[
		{
			"mesh":0,
			"name":"Cube-col"
		}
	],
	"materials":[
		{
			"name":"Material",
			"normalTexture":{
				"index":0
			},
			"pbrMetallicRoughness":{
				"baseColorTexture":{
					"index":1
				},
				"metallicFactor":0,
				"roughnessFactor":0.5
			}
		},
		{
			"name":"Material.001",
			"normalTexture":{
				"index":2
			},
			"pbrMetallicRoughness":{
				"baseColorTexture":{
					"index":3
				},
				"metallicFactor":0,
				"roughnessFactor":0.5
			}
		},
		{
			"doubleSided":true,
			"name":"Material.003",
			"pbrMetallicRoughness":{
				"baseColorTexture":{
					"index":4
				},
				"metallicFactor":0,
				"roughnessFactor":0.5
			}
		}
	],
	"meshes":[
		{
			"name":"Cube.001",
			"primitives":[
				{
					"attributes":{
						"POSITION":0,
						"NORMAL":1,
						"TEXCOORD_0":2,
						"TANGENT":3
					},
					"indices":4,
					"material":0
				},
				{
					"attributes":{
						"POSITION":5,
						"NORMAL":6,
						"TEXCOORD_0":7,
						"TANGENT":8
					},
					"indices":9,
					"material":1
				},
				{
					"attributes":{
						"POSITION":10,
						"NORMAL":11,
						"TEXCOORD_0":12,
						"TANGENT":13
					},
					"indices":14,
					"material":2
				}
			]
		}
	],
	"textures":[
		{
			"sampler":0,
			"source":0
		},
		{
			"sampler":0,
			"source":1
		},
		{
			"sampler":0,
			"source":2
		},
		{
			"sampler":0,
			"source":3
		},
		{
			"sampler":0,
			"source":4
		}
	],
	"images":[
		{
			"mimeType":"image/png",
			"name":"concrete_floor.png",
			"uri":"../../rooms/Textures/normals/concrete_floor.png"
		},
		{
			"mimeType":"image/jpeg",
			"name":"concretefloor.jpg",
			"uri":"../../rooms/Textures/concretefloor.jpg"
		},
		{
			"mimeType":"image/png",
			"name":"whitewall1_specular.png",
			"uri":"../../rooms/Textures/normals/whitewall1_specular.png"
		},
		{
			"mimeType":"image/png",
			"name":"whitewall1.png",
			"uri":"../../rooms/Textures/whitewall1.png"
		},
		{
			"mimeType":"image/jpeg",
			"name":"tilefloor.jpg",
			"uri":"../../rooms/Textures/tilefloor.jpg"
		}
	],
	"accessors":[
		{
			"bufferView":0,
			"componentType":5126,
			"count":12,
			"max":[
				7.300000190734863,
				1.8272725343704224,
				1.5045431852340698
			],
			"min":[
				-7.300000190734863,
				1.8272724151611328,
				-7.300000190734863
			],
			"type":"VEC3"
		},
		{
			"bufferView":1,
			"componentType":5126,
			"count":12,
			"type":"VEC3"
		},
		{
			"bufferView":2,
			"componentType":5126,
			"count":12,
			"type":"VEC2"
		},
		{
			"bufferView":3,
			"componentType":5126,
			"count":12,
			"type":"VEC4"
		},
		{
			"bufferView":4,
			"componentType":5123,
			"count":30,
			"type":"SCALAR"
		},
		{
			"bufferView":5,
			"componentType":5126,
			"count":168,
			"max":[
				7.5,
				1.8272725343704224,
				1.5045431852340698
			],
			"min":[
				-7.5,
				-1.1727275848388672,
				-7.500000476837158
			],
			"type":"VEC3"
		},
		{
			"bufferView":6,
			"componentType":5126,
			"count":168,
			"type":"VEC3"
		},
		{
			"bufferView":7,
			"componentType":5126,
			"count":168,
			"type":"VEC2"
		},
		{
			"bufferView":8,
			"componentType":5126,
			"count":168,
			"type":"VEC4"
		},
		{
			"bufferView":9,
			"componentType":5123,
			"count":270,
			"type":"SCALAR"
		},
		{
			"bufferView":10,
			"componentType":5126,
			"count":30,
			"max":[
				7.5,
				-1.1727274656295776,
				1.5045431852340698
			],
			"min":[
				-7.5,
				-1.1727275848388672,
				-7.500000476837158
			],
			"type":"VEC3"
		},
		{
			"bufferView":11,
			"componentType":5126,
			"count":30,
			"type":"VEC3"
		},
		{
			"bufferView":12,
			"componentType":5126,
			"count":30,
			"type":"VEC2"
		},
		{
			"bufferView":13,
			"componentType":5126,
			"count":30,
			"type":"VEC4"
		},
		{
			"bufferView":14,
			"componentType":5123,
			"count":102,
			"type":"SCALAR"
		}
	],
	"bufferViews":[
		{
			"buffer":0,
			"byteLength":144,
			"byteOffset":0,
			"target":34962
		},
		{
			"buffer":0,
			"byteLength":144,
			"byteOffset":144,
			"target":34962
		},
		{
			"buffer":0,
			"byteLength":96,
			"byteOffset":288,
			"target":34962
		},
		{
			"buffer":0,
			"byteLength":192,
			"byteOffset":384,
			"target":34962
		},
		{
			"buffer":0,
			"byteLength":60,
			"byteOffset":576,
			"target":34963
		},
		{
			"buffer":0,
			"byteLength":2016,
			"byteOffset":636,
			"target":34962
		},
		{
			"buffer":0,
			"byteLength":2016,
			"byteOffset":2652,
			"target":34962
		},
		{
			"buffer":0,
			"byteLength":1344,
			"byteOffset":4668,
			"target":34962
		},
		{
			"buffer":0,
			"byteLength":2688,
			"byteOffset":6012,
			"target":34962
		},
		{
			"buffer":0,
			"byteLength":540,
			"byteOffset":8700,
			"target":34963
		},
		{
			"buffer":0,
			"byteLength":360,
			"byteOffset":9240,
			"target":34962
		},
		{
			"buffer":0,
			"byteLength":360,
			"byteOffset":9600,
			"target":34962
		},
		{
			"buffer":0,
			"byteLength":240,
			"byteOffset":9960,
			"target":34962
		},
		{
			"buffer":0,
			"byteLength":480,
			"byteOffset":10200,
			"target":34962
		},
		{
			"buffer":0,
			"byteLength":204,
			"byteOffset":10680,
			"target":34963
		}
	],
	"samplers":[
		{
			"magFilter":9729,
			"minFilter":9987
		}
	],
	"buffers":[
		{
			"byteLength":10884,
			"uri":"LCon3Way002-a4e72cd5229591c68f986ec0792656e0.bin"
		}
	]
}
