{
	"asset":{
		"generator":"Khronos glTF Blender I/O v4.3.47",
		"version":"2.0"
	},
	"scene":0,
	"scenes":[
		{
			"name":"Scene",
			"nodes":[
				0,
				1
			]
		}
	],
	"nodes":[
		{
			"mesh":0,
			"name":"room-col"
		},
		{
			"mesh":1,
			"name":"pipes"
		}
	],
	"materials":[
		{
			"name":"Material",
			"normalTexture":{
				"index":0
			},
			"pbrMetallicRoughness":{
				"baseColorTexture":{
					"index":1
				},
				"metallicFactor":0,
				"roughnessFactor":0.5
			}
		},
		{
			"name":"Material.001",
			"normalTexture":{
				"index":2
			},
			"pbrMetallicRoughness":{
				"baseColorTexture":{
					"index":3
				},
				"metallicFactor":0,
				"roughnessFactor":0.5
			}
		},
		{
			"name":"Material.002",
			"normalTexture":{
				"index":4
			},
			"pbrMetallicRoughness":{
				"baseColorTexture":{
					"index":5
				},
				"metallicFactor":0,
				"roughnessFactor":0.5
			}
		},
		{
			"name":"Material.003",
			"pbrMetallicRoughness":{
				"baseColorTexture":{
					"index":6
				},
				"metallicFactor":0,
				"roughnessFactor":0.5
			}
		},
		{
			"name":"Material.004",
			"pbrMetallicRoughness":{
				"baseColorTexture":{
					"index":7
				},
				"metallicFactor":0,
				"roughnessFactor":0.5
			}
		}
	],
	"meshes":[
		{
			"name":"Cube.001",
			"primitives":[
				{
					"attributes":{
						"POSITION":0,
						"NORMAL":1,
						"TEXCOORD_0":2,
						"TANGENT":3
					},
					"indices":4,
					"material":0
				},
				{
					"attributes":{
						"POSITION":5,
						"NORMAL":6,
						"TEXCOORD_0":7,
						"TANGENT":8
					},
					"indices":9,
					"material":1
				},
				{
					"attributes":{
						"POSITION":10,
						"NORMAL":11,
						"TEXCOORD_0":12,
						"TANGENT":13
					},
					"indices":14,
					"material":2
				},
				{
					"attributes":{
						"POSITION":15,
						"NORMAL":16,
						"TEXCOORD_0":17,
						"TANGENT":18
					},
					"indices":19,
					"material":3
				}
			]
		},
		{
			"name":"Cube.002",
			"primitives":[
				{
					"attributes":{
						"POSITION":20,
						"NORMAL":21,
						"TEXCOORD_0":22,
						"TANGENT":23
					},
					"indices":24,
					"material":4
				}
			]
		}
	],
	"textures":[
		{
			"sampler":0,
			"source":0
		},
		{
			"sampler":0,
			"source":1
		},
		{
			"sampler":0,
			"source":2
		},
		{
			"sampler":0,
			"source":3
		},
		{
			"sampler":0,
			"source":4
		},
		{
			"sampler":0,
			"source":5
		},
		{
			"sampler":0,
			"source":6
		},
		{
			"sampler":0,
			"source":7
		}
	],
	"images":[
		{
			"mimeType":"image/png",
			"name":"concrete_floor.png",
			"uri":"../../rooms/Textures/normals/concrete_floor.png"
		},
		{
			"mimeType":"image/jpeg",
			"name":"concretefloor.jpg",
			"uri":"../../rooms/Textures/concretefloor.jpg"
		},
		{
			"mimeType":"image/png",
			"name":"whitewall1_specular.png",
			"uri":"../../rooms/Textures/normals/whitewall1_specular.png"
		},
		{
			"mimeType":"image/png",
			"name":"whitewall1.png",
			"uri":"../../rooms/Textures/whitewall1.png"
		},
		{
			"mimeType":"image/png",
			"name":"whitewall_specular.png",
			"uri":"../../rooms/Textures/normals/whitewall_specular.png"
		},
		{
			"mimeType":"image/jpeg",
			"name":"whitewall.jpg",
			"uri":"../../rooms/Textures/whitewall.jpg"
		},
		{
			"mimeType":"image/jpeg",
			"name":"metalpanels.jpg",
			"uri":"../../rooms/Textures/metalpanels.jpg"
		},
		{
			"mimeType":"image/png",
			"name":"Pipes_NoRust.png",
			"uri":"../../rooms/Textures/Pipes_NoRust.png"
		}
	],
	"accessors":[
		{
			"bufferView":0,
			"componentType":5126,
			"count":78,
			"max":[
				7.5,
				4.827272891998291,
				3.5045433044433594
			],
			"min":[
				-7.5,
				-1.1727275848388672,
				-7.500000476837158
			],
			"type":"VEC3"
		},
		{
			"bufferView":1,
			"componentType":5126,
			"count":78,
			"type":"VEC3"
		},
		{
			"bufferView":2,
			"componentType":5126,
			"count":78,
			"type":"VEC2"
		},
		{
			"bufferView":3,
			"componentType":5126,
			"count":78,
			"type":"VEC4"
		},
		{
			"bufferView":4,
			"componentType":5123,
			"count":180,
			"type":"SCALAR"
		},
		{
			"bufferView":5,
			"componentType":5126,
			"count":172,
			"max":[
				7.5,
				1.8272725343704224,
				3.5045433044433594
			],
			"min":[
				-7.5,
				-1.1727275848388672,
				-7.500000476837158
			],
			"type":"VEC3"
		},
		{
			"bufferView":6,
			"componentType":5126,
			"count":172,
			"type":"VEC3"
		},
		{
			"bufferView":7,
			"componentType":5126,
			"count":172,
			"type":"VEC2"
		},
		{
			"bufferView":8,
			"componentType":5126,
			"count":172,
			"type":"VEC4"
		},
		{
			"bufferView":9,
			"componentType":5123,
			"count":276,
			"type":"SCALAR"
		},
		{
			"bufferView":10,
			"componentType":5126,
			"count":68,
			"max":[
				7.300000190734863,
				4.827272891998291,
				3.5045433044433594
			],
			"min":[
				-7.300000190734863,
				1.8272724151611328,
				-7.300000190734863
			],
			"type":"VEC3"
		},
		{
			"bufferView":11,
			"componentType":5126,
			"count":68,
			"type":"VEC3"
		},
		{
			"bufferView":12,
			"componentType":5126,
			"count":68,
			"type":"VEC2"
		},
		{
			"bufferView":13,
			"componentType":5126,
			"count":68,
			"type":"VEC4"
		},
		{
			"bufferView":14,
			"componentType":5123,
			"count":102,
			"type":"SCALAR"
		},
		{
			"bufferView":15,
			"componentType":5126,
			"count":4,
			"max":[
				2.9982516765594482,
				1.8272724151611328,
				3.5045433044433594
			],
			"min":[
				-3.000845193862915,
				-1.1727275848388672,
				3.495455741882324
			],
			"type":"VEC3"
		},
		{
			"bufferView":16,
			"componentType":5126,
			"count":4,
			"type":"VEC3"
		},
		{
			"bufferView":17,
			"componentType":5126,
			"count":4,
			"type":"VEC2"
		},
		{
			"bufferView":18,
			"componentType":5126,
			"count":4,
			"type":"VEC4"
		},
		{
			"bufferView":19,
			"componentType":5123,
			"count":6,
			"type":"SCALAR"
		},
		{
			"bufferView":20,
			"componentType":5126,
			"count":14,
			"max":[
				3.486950159072876,
				2.0622920989990234,
				3.494607448577881
			],
			"min":[
				-3.513049602508545,
				1.66229248046875,
				3.294607400894165
			],
			"type":"VEC3"
		},
		{
			"bufferView":21,
			"componentType":5126,
			"count":14,
			"type":"VEC3"
		},
		{
			"bufferView":22,
			"componentType":5126,
			"count":14,
			"type":"VEC2"
		},
		{
			"bufferView":23,
			"componentType":5126,
			"count":14,
			"type":"VEC4"
		},
		{
			"bufferView":24,
			"componentType":5123,
			"count":24,
			"type":"SCALAR"
		}
	],
	"bufferViews":[
		{
			"buffer":0,
			"byteLength":936,
			"byteOffset":0,
			"target":34962
		},
		{
			"buffer":0,
			"byteLength":936,
			"byteOffset":936,
			"target":34962
		},
		{
			"buffer":0,
			"byteLength":624,
			"byteOffset":1872,
			"target":34962
		},
		{
			"buffer":0,
			"byteLength":1248,
			"byteOffset":2496,
			"target":34962
		},
		{
			"buffer":0,
			"byteLength":360,
			"byteOffset":3744,
			"target":34963
		},
		{
			"buffer":0,
			"byteLength":2064,
			"byteOffset":4104,
			"target":34962
		},
		{
			"buffer":0,
			"byteLength":2064,
			"byteOffset":6168,
			"target":34962
		},
		{
			"buffer":0,
			"byteLength":1376,
			"byteOffset":8232,
			"target":34962
		},
		{
			"buffer":0,
			"byteLength":2752,
			"byteOffset":9608,
			"target":34962
		},
		{
			"buffer":0,
			"byteLength":552,
			"byteOffset":12360,
			"target":34963
		},
		{
			"buffer":0,
			"byteLength":816,
			"byteOffset":12912,
			"target":34962
		},
		{
			"buffer":0,
			"byteLength":816,
			"byteOffset":13728,
			"target":34962
		},
		{
			"buffer":0,
			"byteLength":544,
			"byteOffset":14544,
			"target":34962
		},
		{
			"buffer":0,
			"byteLength":1088,
			"byteOffset":15088,
			"target":34962
		},
		{
			"buffer":0,
			"byteLength":204,
			"byteOffset":16176,
			"target":34963
		},
		{
			"buffer":0,
			"byteLength":48,
			"byteOffset":16380,
			"target":34962
		},
		{
			"buffer":0,
			"byteLength":48,
			"byteOffset":16428,
			"target":34962
		},
		{
			"buffer":0,
			"byteLength":32,
			"byteOffset":16476,
			"target":34962
		},
		{
			"buffer":0,
			"byteLength":64,
			"byteOffset":16508,
			"target":34962
		},
		{
			"buffer":0,
			"byteLength":12,
			"byteOffset":16572,
			"target":34963
		},
		{
			"buffer":0,
			"byteLength":168,
			"byteOffset":16584,
			"target":34962
		},
		{
			"buffer":0,
			"byteLength":168,
			"byteOffset":16752,
			"target":34962
		},
		{
			"buffer":0,
			"byteLength":112,
			"byteOffset":16920,
			"target":34962
		},
		{
			"buffer":0,
			"byteLength":224,
			"byteOffset":17032,
			"target":34962
		},
		{
			"buffer":0,
			"byteLength":48,
			"byteOffset":17256,
			"target":34963
		}
	],
	"samplers":[
		{
			"magFilter":9729,
			"minFilter":9987
		}
	],
	"buffers":[
		{
			"byteLength":17304,
			"uri":"LCon3Way001-64cd78599fd31d08253485ccfcae3475.bin"
		}
	]
}
