{
	"asset":{
		"generator":"Khronos glTF Blender I/O v4.4.56",
		"version":"2.0"
	},
	"scene":0,
	"scenes":[
		{
			"name":"Scene",
			"nodes":[
				0
			]
		}
	],
	"nodes":[
		{
			"mesh":0,
			"name":"Cube-col"
		}
	],
	"materials":[
		{
			"name":"Material",
			"normalTexture":{
				"index":0
			},
			"pbrMetallicRoughness":{
				"baseColorTexture":{
					"index":1
				},
				"metallicFactor":0,
				"roughnessFactor":0.5
			}
		},
		{
			"name":"Material.001",
			"normalTexture":{
				"index":2
			},
			"pbrMetallicRoughness":{
				"baseColorTexture":{
					"index":3
				},
				"metallicFactor":0,
				"roughnessFactor":0.5
			}
		},
		{
			"name":"Material.002",
			"normalTexture":{
				"index":4
			},
			"pbrMetallicRoughness":{
				"baseColorTexture":{
					"index":5
				},
				"metallicFactor":0,
				"roughnessFactor":0.5
			}
		}
	],
	"meshes":[
		{
			"name":"Cube.001",
			"primitives":[
				{
					"attributes":{
						"POSITION":0,
						"NORMAL":1,
						"TEXCOORD_0":2,
						"TANGENT":3
					},
					"indices":4,
					"material":0
				},
				{
					"attributes":{
						"POSITION":5,
						"NORMAL":6,
						"TEXCOORD_0":7,
						"TANGENT":8
					},
					"indices":9,
					"material":1
				},
				{
					"attributes":{
						"POSITION":10,
						"NORMAL":11,
						"TEXCOORD_0":12,
						"TANGENT":13
					},
					"indices":14,
					"material":2
				}
			]
		}
	],
	"textures":[
		{
			"sampler":0,
			"source":0
		},
		{
			"sampler":0,
			"source":1
		},
		{
			"sampler":0,
			"source":2
		},
		{
			"sampler":0,
			"source":3
		},
		{
			"sampler":0,
			"source":4
		},
		{
			"sampler":0,
			"source":5
		}
	],
	"images":[
		{
			"mimeType":"image/png",
			"name":"whitewall1_specular.png",
			"uri":"../../rooms/Textures/normals/whitewall1_specular.png"
		},
		{
			"mimeType":"image/png",
			"name":"whitewall1.png",
			"uri":"../../rooms/Textures/whitewall1.png"
		},
		{
			"mimeType":"image/png",
			"name":"concrete_floor.png",
			"uri":"../../rooms/Textures/normals/concrete_floor.png"
		},
		{
			"mimeType":"image/jpeg",
			"name":"concretefloor.jpg",
			"uri":"../../rooms/Textures/concretefloor.jpg"
		},
		{
			"mimeType":"image/png",
			"name":"whitewall_specular.png",
			"uri":"../../rooms/Textures/normals/whitewall_specular.png"
		},
		{
			"mimeType":"image/jpeg",
			"name":"whitewall.jpg",
			"uri":"../../rooms/Textures/whitewall.jpg"
		}
	],
	"accessors":[
		{
			"bufferView":0,
			"componentType":5126,
			"count":138,
			"max":[
				7.5,
				1.8645161390304565,
				2
			],
			"min":[
				-7.5,
				-1.1354871988296509,
				-7.5
			],
			"type":"VEC3"
		},
		{
			"bufferView":1,
			"componentType":5126,
			"count":138,
			"type":"VEC3"
		},
		{
			"bufferView":2,
			"componentType":5126,
			"count":138,
			"type":"VEC2"
		},
		{
			"bufferView":3,
			"componentType":5126,
			"count":138,
			"type":"VEC4"
		},
		{
			"bufferView":4,
			"componentType":5123,
			"count":228,
			"type":"SCALAR"
		},
		{
			"bufferView":5,
			"componentType":5126,
			"count":55,
			"max":[
				7.5,
				4.864516735076904,
				2
			],
			"min":[
				-7.5,
				-1.1354871988296509,
				-7.5
			],
			"type":"VEC3"
		},
		{
			"bufferView":6,
			"componentType":5126,
			"count":55,
			"type":"VEC3"
		},
		{
			"bufferView":7,
			"componentType":5126,
			"count":55,
			"type":"VEC2"
		},
		{
			"bufferView":8,
			"componentType":5126,
			"count":55,
			"type":"VEC4"
		},
		{
			"bufferView":9,
			"componentType":5123,
			"count":144,
			"type":"SCALAR"
		},
		{
			"bufferView":10,
			"componentType":5126,
			"count":68,
			"max":[
				7.300000190734863,
				4.864516735076904,
				2
			],
			"min":[
				-7.300000190734863,
				1.8645161390304565,
				-7.300000190734863
			],
			"type":"VEC3"
		},
		{
			"bufferView":11,
			"componentType":5126,
			"count":68,
			"type":"VEC3"
		},
		{
			"bufferView":12,
			"componentType":5126,
			"count":68,
			"type":"VEC2"
		},
		{
			"bufferView":13,
			"componentType":5126,
			"count":68,
			"type":"VEC4"
		},
		{
			"bufferView":14,
			"componentType":5123,
			"count":138,
			"type":"SCALAR"
		}
	],
	"bufferViews":[
		{
			"buffer":0,
			"byteLength":1656,
			"byteOffset":0,
			"target":34962
		},
		{
			"buffer":0,
			"byteLength":1656,
			"byteOffset":1656,
			"target":34962
		},
		{
			"buffer":0,
			"byteLength":1104,
			"byteOffset":3312,
			"target":34962
		},
		{
			"buffer":0,
			"byteLength":2208,
			"byteOffset":4416,
			"target":34962
		},
		{
			"buffer":0,
			"byteLength":456,
			"byteOffset":6624,
			"target":34963
		},
		{
			"buffer":0,
			"byteLength":660,
			"byteOffset":7080,
			"target":34962
		},
		{
			"buffer":0,
			"byteLength":660,
			"byteOffset":7740,
			"target":34962
		},
		{
			"buffer":0,
			"byteLength":440,
			"byteOffset":8400,
			"target":34962
		},
		{
			"buffer":0,
			"byteLength":880,
			"byteOffset":8840,
			"target":34962
		},
		{
			"buffer":0,
			"byteLength":288,
			"byteOffset":9720,
			"target":34963
		},
		{
			"buffer":0,
			"byteLength":816,
			"byteOffset":10008,
			"target":34962
		},
		{
			"buffer":0,
			"byteLength":816,
			"byteOffset":10824,
			"target":34962
		},
		{
			"buffer":0,
			"byteLength":544,
			"byteOffset":11640,
			"target":34962
		},
		{
			"buffer":0,
			"byteLength":1088,
			"byteOffset":12184,
			"target":34962
		},
		{
			"buffer":0,
			"byteLength":276,
			"byteOffset":13272,
			"target":34963
		}
	],
	"samplers":[
		{
			"magFilter":9729,
			"minFilter":9987
		}
	],
	"buffers":[
		{
			"byteLength":13548,
			"uri":"LCon3Way001-123b935766456c95f4753664ead79f78.bin"
		}
	]
}
