{
	"asset":{
		"generator":"Khronos glTF Blender I/O v4.3.47",
		"version":"2.0"
	},
	"scene":0,
	"scenes":[
		{
			"name":"Scene",
			"nodes":[
				0
			]
		}
	],
	"nodes":[
		{
			"mesh":0,
			"name":"Cube-col",
			"translation":[
				0,
				-3,
				0
			]
		}
	],
	"materials":[
		{
			"name":"Material",
			"normalTexture":{
				"index":0
			},
			"pbrMetallicRoughness":{
				"baseColorTexture":{
					"index":1
				},
				"metallicFactor":0,
				"roughnessFactor":0.5
			}
		},
		{
			"name":"Material.001",
			"normalTexture":{
				"index":2
			},
			"pbrMetallicRoughness":{
				"baseColorTexture":{
					"index":3
				},
				"metallicFactor":0,
				"roughnessFactor":0.5
			}
		},
		{
			"name":"Material.002",
			"normalTexture":{
				"index":4
			},
			"pbrMetallicRoughness":{
				"baseColorTexture":{
					"index":5
				},
				"metallicFactor":0,
				"roughnessFactor":0.5
			}
		},
		{
			"name":"Material.003",
			"pbrMetallicRoughness":{
				"baseColorTexture":{
					"index":6
				},
				"metallicFactor":0,
				"roughnessFactor":0.5
			}
		}
	],
	"meshes":[
		{
			"name":"Cube.001",
			"primitives":[
				{
					"attributes":{
						"POSITION":0,
						"NORMAL":1,
						"TEXCOORD_0":2,
						"TANGENT":3
					},
					"indices":4,
					"material":0
				},
				{
					"attributes":{
						"POSITION":5,
						"NORMAL":6,
						"TEXCOORD_0":7,
						"TANGENT":8
					},
					"indices":9,
					"material":1
				},
				{
					"attributes":{
						"POSITION":10,
						"NORMAL":11,
						"TEXCOORD_0":12,
						"TANGENT":13
					},
					"indices":14,
					"material":2
				},
				{
					"attributes":{
						"POSITION":15,
						"NORMAL":16,
						"TEXCOORD_0":17,
						"TANGENT":18
					},
					"indices":19,
					"material":3
				}
			]
		}
	],
	"textures":[
		{
			"sampler":0,
			"source":0
		},
		{
			"sampler":0,
			"source":1
		},
		{
			"sampler":0,
			"source":2
		},
		{
			"sampler":0,
			"source":3
		},
		{
			"sampler":0,
			"source":4
		},
		{
			"sampler":0,
			"source":5
		},
		{
			"sampler":0,
			"source":6
		}
	],
	"images":[
		{
			"mimeType":"image/png",
			"name":"concrete_floor.png",
			"uri":"../../rooms/Textures/normals/concrete_floor.png"
		},
		{
			"mimeType":"image/jpeg",
			"name":"concretefloor.jpg",
			"uri":"../../rooms/Textures/concretefloor.jpg"
		},
		{
			"mimeType":"image/png",
			"name":"whitewall1_specular.png",
			"uri":"../../rooms/Textures/normals/whitewall1_specular.png"
		},
		{
			"mimeType":"image/png",
			"name":"whitewall1.png",
			"uri":"../../rooms/Textures/whitewall1.png"
		},
		{
			"mimeType":"image/png",
			"name":"whitewall_specular.png",
			"uri":"../../rooms/Textures/normals/whitewall_specular.png"
		},
		{
			"mimeType":"image/jpeg",
			"name":"whitewall.jpg",
			"uri":"../../rooms/Textures/whitewall.jpg"
		},
		{
			"mimeType":"image/jpeg",
			"name":"tilefloor.jpg",
			"uri":"../../rooms/Textures/tilefloor.jpg"
		}
	],
	"accessors":[
		{
			"bufferView":0,
			"componentType":5126,
			"count":16,
			"max":[
				7.300000190734863,
				4.827272415161133,
				7.49708366394043
			],
			"min":[
				-7.300000190734863,
				4.827272415161133,
				-7.506173133850098
			],
			"type":"VEC3"
		},
		{
			"bufferView":1,
			"componentType":5126,
			"count":16,
			"type":"VEC3"
		},
		{
			"bufferView":2,
			"componentType":5126,
			"count":16,
			"type":"VEC2"
		},
		{
			"bufferView":3,
			"componentType":5126,
			"count":16,
			"type":"VEC4"
		},
		{
			"bufferView":4,
			"componentType":5123,
			"count":36,
			"type":"SCALAR"
		},
		{
			"bufferView":5,
			"componentType":5126,
			"count":120,
			"max":[
				7.5,
				4.827272415161133,
				7.49708366394043
			],
			"min":[
				-7.5,
				-1.1727275848388672,
				-7.506173133850098
			],
			"type":"VEC3"
		},
		{
			"bufferView":6,
			"componentType":5126,
			"count":120,
			"type":"VEC3"
		},
		{
			"bufferView":7,
			"componentType":5126,
			"count":120,
			"type":"VEC2"
		},
		{
			"bufferView":8,
			"componentType":5126,
			"count":120,
			"type":"VEC4"
		},
		{
			"bufferView":9,
			"componentType":5123,
			"count":204,
			"type":"SCALAR"
		},
		{
			"bufferView":10,
			"componentType":5126,
			"count":36,
			"max":[
				7.345792770385742,
				2.477630376815796,
				1.495558500289917
			],
			"min":[
				-7.300000190734863,
				1.627272605895996,
				-1.5046465396881104
			],
			"type":"VEC3"
		},
		{
			"bufferView":11,
			"componentType":5126,
			"count":36,
			"type":"VEC3"
		},
		{
			"bufferView":12,
			"componentType":5126,
			"count":36,
			"type":"VEC2"
		},
		{
			"bufferView":13,
			"componentType":5126,
			"count":36,
			"type":"VEC4"
		},
		{
			"bufferView":14,
			"componentType":5123,
			"count":72,
			"type":"SCALAR"
		},
		{
			"bufferView":15,
			"componentType":5126,
			"count":60,
			"max":[
				7.5,
				1.8272725343704224,
				7.49708366394043
			],
			"min":[
				-7.5,
				-1.1727275848388672,
				-7.506173133850098
			],
			"type":"VEC3"
		},
		{
			"bufferView":16,
			"componentType":5126,
			"count":60,
			"type":"VEC3"
		},
		{
			"bufferView":17,
			"componentType":5126,
			"count":60,
			"type":"VEC2"
		},
		{
			"bufferView":18,
			"componentType":5126,
			"count":60,
			"type":"VEC4"
		},
		{
			"bufferView":19,
			"componentType":5123,
			"count":156,
			"type":"SCALAR"
		}
	],
	"bufferViews":[
		{
			"buffer":0,
			"byteLength":192,
			"byteOffset":0,
			"target":34962
		},
		{
			"buffer":0,
			"byteLength":192,
			"byteOffset":192,
			"target":34962
		},
		{
			"buffer":0,
			"byteLength":128,
			"byteOffset":384,
			"target":34962
		},
		{
			"buffer":0,
			"byteLength":256,
			"byteOffset":512,
			"target":34962
		},
		{
			"buffer":0,
			"byteLength":72,
			"byteOffset":768,
			"target":34963
		},
		{
			"buffer":0,
			"byteLength":1440,
			"byteOffset":840,
			"target":34962
		},
		{
			"buffer":0,
			"byteLength":1440,
			"byteOffset":2280,
			"target":34962
		},
		{
			"buffer":0,
			"byteLength":960,
			"byteOffset":3720,
			"target":34962
		},
		{
			"buffer":0,
			"byteLength":1920,
			"byteOffset":4680,
			"target":34962
		},
		{
			"buffer":0,
			"byteLength":408,
			"byteOffset":6600,
			"target":34963
		},
		{
			"buffer":0,
			"byteLength":432,
			"byteOffset":7008,
			"target":34962
		},
		{
			"buffer":0,
			"byteLength":432,
			"byteOffset":7440,
			"target":34962
		},
		{
			"buffer":0,
			"byteLength":288,
			"byteOffset":7872,
			"target":34962
		},
		{
			"buffer":0,
			"byteLength":576,
			"byteOffset":8160,
			"target":34962
		},
		{
			"buffer":0,
			"byteLength":144,
			"byteOffset":8736,
			"target":34963
		},
		{
			"buffer":0,
			"byteLength":720,
			"byteOffset":8880,
			"target":34962
		},
		{
			"buffer":0,
			"byteLength":720,
			"byteOffset":9600,
			"target":34962
		},
		{
			"buffer":0,
			"byteLength":480,
			"byteOffset":10320,
			"target":34962
		},
		{
			"buffer":0,
			"byteLength":960,
			"byteOffset":10800,
			"target":34962
		},
		{
			"buffer":0,
			"byteLength":312,
			"byteOffset":11760,
			"target":34963
		}
	],
	"samplers":[
		{
			"magFilter":9729,
			"minFilter":9987
		}
	],
	"buffers":[
		{
			"byteLength":12072,
			"uri":"LCon2WayCafeteria-f1cc5aabff9f08cc3d4f2b17e71e39f7.bin"
		}
	]
}
