{
	"asset":{
		"generator":"Khronos glTF Blender I/O v4.4.56",
		"version":"2.0"
	},
	"scene":0,
	"scenes":[
		{
			"name":"Scene",
			"nodes":[
				0
			]
		}
	],
	"nodes":[
		{
			"mesh":0,
			"name":"Cube-col"
		}
	],
	"materials":[
		{
			"name":"Material",
			"normalTexture":{
				"index":0
			},
			"pbrMetallicRoughness":{
				"baseColorTexture":{
					"index":1
				},
				"metallicFactor":0,
				"roughnessFactor":0.5
			}
		},
		{
			"name":"Material.001",
			"normalTexture":{
				"index":2
			},
			"pbrMetallicRoughness":{
				"baseColorTexture":{
					"index":3
				},
				"metallicFactor":0,
				"roughnessFactor":0.5
			}
		},
		{
			"doubleSided":true,
			"name":"Material.003",
			"pbrMetallicRoughness":{
				"baseColorTexture":{
					"index":4
				},
				"metallicFactor":0,
				"roughnessFactor":0.5
			}
		}
	],
	"meshes":[
		{
			"name":"Cube.001",
			"primitives":[
				{
					"attributes":{
						"POSITION":0,
						"NORMAL":1,
						"TEXCOORD_0":2,
						"TANGENT":3
					},
					"indices":4,
					"material":0
				},
				{
					"attributes":{
						"POSITION":5,
						"NORMAL":6,
						"TEXCOORD_0":7,
						"TANGENT":8
					},
					"indices":9,
					"material":1
				},
				{
					"attributes":{
						"POSITION":10,
						"NORMAL":11,
						"TEXCOORD_0":12,
						"TANGENT":13
					},
					"indices":14,
					"material":2
				}
			]
		}
	],
	"textures":[
		{
			"sampler":0,
			"source":0
		},
		{
			"sampler":0,
			"source":1
		},
		{
			"sampler":0,
			"source":2
		},
		{
			"sampler":0,
			"source":3
		},
		{
			"sampler":0,
			"source":4
		}
	],
	"images":[
		{
			"mimeType":"image/png",
			"name":"concrete_floor.png",
			"uri":"../../rooms/Textures/normals/concrete_floor.png"
		},
		{
			"mimeType":"image/jpeg",
			"name":"concretefloor.jpg",
			"uri":"../../rooms/Textures/concretefloor.jpg"
		},
		{
			"mimeType":"image/png",
			"name":"whitewall1_specular.png",
			"uri":"../../rooms/Textures/normals/whitewall1_specular.png"
		},
		{
			"mimeType":"image/png",
			"name":"whitewall1.png",
			"uri":"../../rooms/Textures/whitewall1.png"
		},
		{
			"mimeType":"image/jpeg",
			"name":"tilefloor.jpg",
			"uri":"../../rooms/Textures/tilefloor.jpg"
		}
	],
	"accessors":[
		{
			"bufferView":0,
			"componentType":5126,
			"count":16,
			"max":[
				7.300000190734863,
				1.8272725343704224,
				7.300000190734863
			],
			"min":[
				-7.300000190734863,
				1.8272724151611328,
				-7.300000190734863
			],
			"type":"VEC3"
		},
		{
			"bufferView":1,
			"componentType":5126,
			"count":16,
			"type":"VEC3"
		},
		{
			"bufferView":2,
			"componentType":5126,
			"count":16,
			"type":"VEC2"
		},
		{
			"bufferView":3,
			"componentType":5126,
			"count":16,
			"type":"VEC4"
		},
		{
			"bufferView":4,
			"componentType":5123,
			"count":42,
			"type":"SCALAR"
		},
		{
			"bufferView":5,
			"componentType":5126,
			"count":224,
			"max":[
				7.5,
				1.8272725343704224,
				7.500000476837158
			],
			"min":[
				-7.5,
				-1.1727275848388672,
				-7.500000476837158
			],
			"type":"VEC3"
		},
		{
			"bufferView":6,
			"componentType":5126,
			"count":224,
			"type":"VEC3"
		},
		{
			"bufferView":7,
			"componentType":5126,
			"count":224,
			"type":"VEC2"
		},
		{
			"bufferView":8,
			"componentType":5126,
			"count":224,
			"type":"VEC4"
		},
		{
			"bufferView":9,
			"componentType":5123,
			"count":360,
			"type":"SCALAR"
		},
		{
			"bufferView":10,
			"componentType":5126,
			"count":40,
			"max":[
				7.5,
				-1.1727274656295776,
				7.500000476837158
			],
			"min":[
				-7.5,
				-1.1727275848388672,
				-7.500000476837158
			],
			"type":"VEC3"
		},
		{
			"bufferView":11,
			"componentType":5126,
			"count":40,
			"type":"VEC3"
		},
		{
			"bufferView":12,
			"componentType":5126,
			"count":40,
			"type":"VEC2"
		},
		{
			"bufferView":13,
			"componentType":5126,
			"count":40,
			"type":"VEC4"
		},
		{
			"bufferView":14,
			"componentType":5123,
			"count":138,
			"type":"SCALAR"
		}
	],
	"bufferViews":[
		{
			"buffer":0,
			"byteLength":192,
			"byteOffset":0,
			"target":34962
		},
		{
			"buffer":0,
			"byteLength":192,
			"byteOffset":192,
			"target":34962
		},
		{
			"buffer":0,
			"byteLength":128,
			"byteOffset":384,
			"target":34962
		},
		{
			"buffer":0,
			"byteLength":256,
			"byteOffset":512,
			"target":34962
		},
		{
			"buffer":0,
			"byteLength":84,
			"byteOffset":768,
			"target":34963
		},
		{
			"buffer":0,
			"byteLength":2688,
			"byteOffset":852,
			"target":34962
		},
		{
			"buffer":0,
			"byteLength":2688,
			"byteOffset":3540,
			"target":34962
		},
		{
			"buffer":0,
			"byteLength":1792,
			"byteOffset":6228,
			"target":34962
		},
		{
			"buffer":0,
			"byteLength":3584,
			"byteOffset":8020,
			"target":34962
		},
		{
			"buffer":0,
			"byteLength":720,
			"byteOffset":11604,
			"target":34963
		},
		{
			"buffer":0,
			"byteLength":480,
			"byteOffset":12324,
			"target":34962
		},
		{
			"buffer":0,
			"byteLength":480,
			"byteOffset":12804,
			"target":34962
		},
		{
			"buffer":0,
			"byteLength":320,
			"byteOffset":13284,
			"target":34962
		},
		{
			"buffer":0,
			"byteLength":640,
			"byteOffset":13604,
			"target":34962
		},
		{
			"buffer":0,
			"byteLength":276,
			"byteOffset":14244,
			"target":34963
		}
	],
	"samplers":[
		{
			"magFilter":9729,
			"minFilter":9987
		}
	],
	"buffers":[
		{
			"byteLength":14520,
			"uri":"LCon4Way002-9947d3ffb7b3dd91179202acab174e82.bin"
		}
	]
}
