{
	"asset":{
		"generator":"Khronos glTF Blender I/O v4.3.47",
		"version":"2.0"
	},
	"scene":0,
	"scenes":[
		{
			"name":"Scene",
			"nodes":[
				0
			]
		}
	],
	"nodes":[
		{
			"mesh":0,
			"name":"Concrete floor-col"
		}
	],
	"materials":[
		{
			"name":"Concrete Floor",
			"normalTexture":{
				"index":0
			},
			"pbrMetallicRoughness":{
				"baseColorTexture":{
					"index":1
				},
				"metallicFactor":0,
				"roughnessFactor":0.5
			}
		},
		{
			"name":"Material.002",
			"normalTexture":{
				"index":2
			},
			"pbrMetallicRoughness":{
				"baseColorTexture":{
					"index":3
				},
				"metallicFactor":0,
				"roughnessFactor":0.5
			}
		},
		{
			"name":"Material.003",
			"normalTexture":{
				"index":4
			},
			"pbrMetallicRoughness":{
				"baseColorTexture":{
					"index":5
				},
				"metallicFactor":0,
				"roughnessFactor":0.5
			}
		}
	],
	"meshes":[
		{
			"name":"Cube.002",
			"primitives":[
				{
					"attributes":{
						"POSITION":0,
						"NORMAL":1,
						"TEXCOORD_0":2,
						"TANGENT":3
					},
					"indices":4,
					"material":0
				},
				{
					"attributes":{
						"POSITION":5,
						"NORMAL":6,
						"TEXCOORD_0":7,
						"TANGENT":8
					},
					"indices":9,
					"material":1
				},
				{
					"attributes":{
						"POSITION":10,
						"NORMAL":11,
						"TEXCOORD_0":12,
						"TANGENT":13
					},
					"indices":14,
					"material":2
				}
			]
		}
	],
	"textures":[
		{
			"sampler":0,
			"source":0
		},
		{
			"sampler":0,
			"source":1
		},
		{
			"sampler":0,
			"source":2
		},
		{
			"sampler":0,
			"source":3
		},
		{
			"sampler":0,
			"source":4
		},
		{
			"sampler":0,
			"source":5
		}
	],
	"images":[
		{
			"mimeType":"image/png",
			"name":"concrete_floor.png",
			"uri":"../../rooms/Textures/normals/concrete_floor.png"
		},
		{
			"mimeType":"image/jpeg",
			"name":"concretefloor.jpg",
			"uri":"../../rooms/Textures/concretefloor.jpg"
		},
		{
			"mimeType":"image/png",
			"name":"whitewall_specular.png",
			"uri":"../../rooms/Textures/normals/whitewall_specular.png"
		},
		{
			"mimeType":"image/jpeg",
			"name":"whitewall.jpg",
			"uri":"../../rooms/Textures/whitewall.jpg"
		},
		{
			"mimeType":"image/png",
			"name":"whitewall1_specular.png",
			"uri":"../../rooms/Textures/normals/whitewall1_specular.png"
		},
		{
			"mimeType":"image/png",
			"name":"whitewall1.png",
			"uri":"../../rooms/Textures/whitewall1.png"
		}
	],
	"accessors":[
		{
			"bufferView":0,
			"componentType":5126,
			"count":120,
			"max":[
				4.900032043457031,
				4.851933479309082,
				7.5000319480896
			],
			"min":[
				-5.902141094207764,
				-1.1502749919891357,
				-7.5000319480896
			],
			"type":"VEC3"
		},
		{
			"bufferView":1,
			"componentType":5126,
			"count":120,
			"type":"VEC3"
		},
		{
			"bufferView":2,
			"componentType":5126,
			"count":120,
			"type":"VEC2"
		},
		{
			"bufferView":3,
			"componentType":5126,
			"count":120,
			"type":"VEC4"
		},
		{
			"bufferView":4,
			"componentType":5123,
			"count":234,
			"type":"SCALAR"
		},
		{
			"bufferView":5,
			"componentType":5126,
			"count":132,
			"max":[
				4.900032043457031,
				4.851933479309082,
				7.5000319480896
			],
			"min":[
				-5.902141094207764,
				1.2519333362579346,
				-7.5000319480896
			],
			"type":"VEC3"
		},
		{
			"bufferView":6,
			"componentType":5126,
			"count":132,
			"type":"VEC3"
		},
		{
			"bufferView":7,
			"componentType":5126,
			"count":132,
			"type":"VEC2"
		},
		{
			"bufferView":8,
			"componentType":5126,
			"count":132,
			"type":"VEC4"
		},
		{
			"bufferView":9,
			"componentType":5123,
			"count":210,
			"type":"SCALAR"
		},
		{
			"bufferView":10,
			"componentType":5126,
			"count":176,
			"max":[
				4.900032043457031,
				1.8519333600997925,
				7.5000319480896
			],
			"min":[
				-5.902141094207764,
				-1.1502749919891357,
				-7.5000319480896
			],
			"type":"VEC3"
		},
		{
			"bufferView":11,
			"componentType":5126,
			"count":176,
			"type":"VEC3"
		},
		{
			"bufferView":12,
			"componentType":5126,
			"count":176,
			"type":"VEC2"
		},
		{
			"bufferView":13,
			"componentType":5126,
			"count":176,
			"type":"VEC4"
		},
		{
			"bufferView":14,
			"componentType":5123,
			"count":276,
			"type":"SCALAR"
		}
	],
	"bufferViews":[
		{
			"buffer":0,
			"byteLength":1440,
			"byteOffset":0,
			"target":34962
		},
		{
			"buffer":0,
			"byteLength":1440,
			"byteOffset":1440,
			"target":34962
		},
		{
			"buffer":0,
			"byteLength":960,
			"byteOffset":2880,
			"target":34962
		},
		{
			"buffer":0,
			"byteLength":1920,
			"byteOffset":3840,
			"target":34962
		},
		{
			"buffer":0,
			"byteLength":468,
			"byteOffset":5760,
			"target":34963
		},
		{
			"buffer":0,
			"byteLength":1584,
			"byteOffset":6228,
			"target":34962
		},
		{
			"buffer":0,
			"byteLength":1584,
			"byteOffset":7812,
			"target":34962
		},
		{
			"buffer":0,
			"byteLength":1056,
			"byteOffset":9396,
			"target":34962
		},
		{
			"buffer":0,
			"byteLength":2112,
			"byteOffset":10452,
			"target":34962
		},
		{
			"buffer":0,
			"byteLength":420,
			"byteOffset":12564,
			"target":34963
		},
		{
			"buffer":0,
			"byteLength":2112,
			"byteOffset":12984,
			"target":34962
		},
		{
			"buffer":0,
			"byteLength":2112,
			"byteOffset":15096,
			"target":34962
		},
		{
			"buffer":0,
			"byteLength":1408,
			"byteOffset":17208,
			"target":34962
		},
		{
			"buffer":0,
			"byteLength":2816,
			"byteOffset":18616,
			"target":34962
		},
		{
			"buffer":0,
			"byteLength":552,
			"byteOffset":21432,
			"target":34963
		}
	],
	"samplers":[
		{
			"magFilter":9729,
			"minFilter":9987
		}
	],
	"buffers":[
		{
			"byteLength":21984,
			"uri":"LConStorage001-64a9199711a7a7df55ba59401f93f1ff.bin"
		}
	]
}
