{
	"asset":{
		"generator":"Khronos glTF Blender I/O v4.4.56",
		"version":"2.0"
	},
	"scene":0,
	"scenes":[
		{
			"name":"Scene",
			"nodes":[
				0
			]
		}
	],
	"nodes":[
		{
			"mesh":0,
			"name":"Cube-col"
		}
	],
	"materials":[
		{
			"name":"Material",
			"pbrMetallicRoughness":{
				"baseColorTexture":{
					"index":0
				},
				"metallicFactor":0,
				"roughnessFactor":0.5
			}
		},
		{
			"name":"Material.001",
			"pbrMetallicRoughness":{
				"baseColorTexture":{
					"index":1
				},
				"metallicFactor":0,
				"roughnessFactor":0.5
			}
		},
		{
			"name":"Material.002",
			"pbrMetallicRoughness":{
				"baseColorTexture":{
					"index":2
				},
				"metallicFactor":0,
				"roughnessFactor":0.5
			}
		}
	],
	"meshes":[
		{
			"name":"Cube.001",
			"primitives":[
				{
					"attributes":{
						"POSITION":0,
						"NORMAL":1,
						"TEXCOORD_0":2,
						"TANGENT":3
					},
					"indices":4,
					"material":0
				},
				{
					"attributes":{
						"POSITION":5,
						"NORMAL":6,
						"TEXCOORD_0":7,
						"TANGENT":8
					},
					"indices":9,
					"material":1
				},
				{
					"attributes":{
						"POSITION":10,
						"NORMAL":11,
						"TEXCOORD_0":12,
						"TANGENT":13
					},
					"indices":14,
					"material":2
				}
			]
		}
	],
	"textures":[
		{
			"sampler":0,
			"source":0
		},
		{
			"sampler":0,
			"source":1
		},
		{
			"sampler":0,
			"source":2
		}
	],
	"images":[
		{
			"mimeType":"image/png",
			"name":"whitewall1.png",
			"uri":"../../rooms/Textures/whitewall1.png"
		},
		{
			"mimeType":"image/jpeg",
			"name":"concretefloor.jpg",
			"uri":"../../rooms/Textures/concretefloor.jpg"
		},
		{
			"mimeType":"image/jpeg",
			"name":"whitewall.jpg",
			"uri":"../../rooms/Textures/whitewall.jpg"
		}
	],
	"accessors":[
		{
			"bufferView":0,
			"componentType":5126,
			"count":86,
			"max":[
				7.5,
				1.5268296003341675,
				2
			],
			"min":[
				-7.5,
				-1.47317373752594,
				-7.5
			],
			"type":"VEC3"
		},
		{
			"bufferView":1,
			"componentType":5126,
			"count":86,
			"type":"VEC3"
		},
		{
			"bufferView":2,
			"componentType":5126,
			"count":86,
			"type":"VEC2"
		},
		{
			"bufferView":3,
			"componentType":5126,
			"count":86,
			"type":"VEC4"
		},
		{
			"bufferView":4,
			"componentType":5123,
			"count":174,
			"type":"SCALAR"
		},
		{
			"bufferView":5,
			"componentType":5126,
			"count":43,
			"max":[
				7.5,
				4.526829719543457,
				2
			],
			"min":[
				-7.5,
				-1.47317373752594,
				-7.5
			],
			"type":"VEC3"
		},
		{
			"bufferView":6,
			"componentType":5126,
			"count":43,
			"type":"VEC3"
		},
		{
			"bufferView":7,
			"componentType":5126,
			"count":43,
			"type":"VEC2"
		},
		{
			"bufferView":8,
			"componentType":5126,
			"count":43,
			"type":"VEC4"
		},
		{
			"bufferView":9,
			"componentType":5123,
			"count":126,
			"type":"SCALAR"
		},
		{
			"bufferView":10,
			"componentType":5126,
			"count":68,
			"max":[
				7.5,
				4.526829719543457,
				2
			],
			"min":[
				-7.5,
				1.5268296003341675,
				-7.5
			],
			"type":"VEC3"
		},
		{
			"bufferView":11,
			"componentType":5126,
			"count":68,
			"type":"VEC3"
		},
		{
			"bufferView":12,
			"componentType":5126,
			"count":68,
			"type":"VEC2"
		},
		{
			"bufferView":13,
			"componentType":5126,
			"count":68,
			"type":"VEC4"
		},
		{
			"bufferView":14,
			"componentType":5123,
			"count":138,
			"type":"SCALAR"
		}
	],
	"bufferViews":[
		{
			"buffer":0,
			"byteLength":1032,
			"byteOffset":0,
			"target":34962
		},
		{
			"buffer":0,
			"byteLength":1032,
			"byteOffset":1032,
			"target":34962
		},
		{
			"buffer":0,
			"byteLength":688,
			"byteOffset":2064,
			"target":34962
		},
		{
			"buffer":0,
			"byteLength":1376,
			"byteOffset":2752,
			"target":34962
		},
		{
			"buffer":0,
			"byteLength":348,
			"byteOffset":4128,
			"target":34963
		},
		{
			"buffer":0,
			"byteLength":516,
			"byteOffset":4476,
			"target":34962
		},
		{
			"buffer":0,
			"byteLength":516,
			"byteOffset":4992,
			"target":34962
		},
		{
			"buffer":0,
			"byteLength":344,
			"byteOffset":5508,
			"target":34962
		},
		{
			"buffer":0,
			"byteLength":688,
			"byteOffset":5852,
			"target":34962
		},
		{
			"buffer":0,
			"byteLength":252,
			"byteOffset":6540,
			"target":34963
		},
		{
			"buffer":0,
			"byteLength":816,
			"byteOffset":6792,
			"target":34962
		},
		{
			"buffer":0,
			"byteLength":816,
			"byteOffset":7608,
			"target":34962
		},
		{
			"buffer":0,
			"byteLength":544,
			"byteOffset":8424,
			"target":34962
		},
		{
			"buffer":0,
			"byteLength":1088,
			"byteOffset":8968,
			"target":34962
		},
		{
			"buffer":0,
			"byteLength":276,
			"byteOffset":10056,
			"target":34963
		}
	],
	"samplers":[
		{
			"magFilter":9729,
			"minFilter":9987
		}
	],
	"buffers":[
		{
			"byteLength":10332,
			"uri":"LCon3Way001-64cd78599fd31d08253485ccfcae3475.bin"
		}
	]
}
