{
	"asset":{
		"generator":"Khronos glTF Blender I/O v4.3.47",
		"version":"2.0"
	},
	"scene":0,
	"scenes":[
		{
			"name":"Scene",
			"nodes":[
				0,
				1
			]
		}
	],
	"nodes":[
		{
			"mesh":0,
			"name":"room-col"
		},
		{
			"mesh":1,
			"name":"tesla gate-col"
		}
	],
	"meshes":[
		{
			"name":"Cube",
			"primitives":[
				{
					"attributes":{
						"POSITION":0,
						"NORMAL":1,
						"TEXCOORD_0":2,
						"TANGENT":3
					},
					"indices":4
				}
			]
		},
		{
			"name":"Cube.001",
			"primitives":[
				{
					"attributes":{
						"POSITION":5,
						"NORMAL":6,
						"TEXCOORD_0":7,
						"TANGENT":8
					},
					"indices":9
				}
			]
		}
	],
	"accessors":[
		{
			"bufferView":0,
			"componentType":5126,
			"count":198,
			"max":[
				7.5,
				3.25,
				5.650000095367432
			],
			"min":[
				-7.5,
				-1.75,
				-1.75
			],
			"type":"VEC3"
		},
		{
			"bufferView":1,
			"componentType":5126,
			"count":198,
			"type":"VEC3"
		},
		{
			"bufferView":2,
			"componentType":5126,
			"count":198,
			"type":"VEC2"
		},
		{
			"bufferView":3,
			"componentType":5126,
			"count":198,
			"type":"VEC4"
		},
		{
			"bufferView":4,
			"componentType":5123,
			"count":504,
			"type":"SCALAR"
		},
		{
			"bufferView":5,
			"componentType":5126,
			"count":28,
			"max":[
				0.30000001192092896,
				3.25,
				1.7500001192092896
			],
			"min":[
				-0.30000001192092896,
				-1.75,
				-1.7499998807907104
			],
			"type":"VEC3"
		},
		{
			"bufferView":6,
			"componentType":5126,
			"count":28,
			"type":"VEC3"
		},
		{
			"bufferView":7,
			"componentType":5126,
			"count":28,
			"type":"VEC2"
		},
		{
			"bufferView":8,
			"componentType":5126,
			"count":28,
			"type":"VEC4"
		},
		{
			"bufferView":9,
			"componentType":5123,
			"count":54,
			"type":"SCALAR"
		}
	],
	"bufferViews":[
		{
			"buffer":0,
			"byteLength":2376,
			"byteOffset":0,
			"target":34962
		},
		{
			"buffer":0,
			"byteLength":2376,
			"byteOffset":2376,
			"target":34962
		},
		{
			"buffer":0,
			"byteLength":1584,
			"byteOffset":4752,
			"target":34962
		},
		{
			"buffer":0,
			"byteLength":3168,
			"byteOffset":6336,
			"target":34962
		},
		{
			"buffer":0,
			"byteLength":1008,
			"byteOffset":9504,
			"target":34963
		},
		{
			"buffer":0,
			"byteLength":336,
			"byteOffset":10512,
			"target":34962
		},
		{
			"buffer":0,
			"byteLength":336,
			"byteOffset":10848,
			"target":34962
		},
		{
			"buffer":0,
			"byteLength":224,
			"byteOffset":11184,
			"target":34962
		},
		{
			"buffer":0,
			"byteLength":448,
			"byteOffset":11408,
			"target":34962
		},
		{
			"buffer":0,
			"byteLength":108,
			"byteOffset":11856,
			"target":34963
		}
	],
	"buffers":[
		{
			"byteLength":11964,
			"uri":"LConTeslaOffice-64f745de60295459556867ed8c50f0bb.bin"
		}
	]
}
