{
	"asset":{
		"generator":"Khronos glTF Blender I/O v4.3.47",
		"version":"2.0"
	},
	"scene":0,
	"scenes":[
		{
			"name":"Scene",
			"nodes":[
				0,
				1
			]
		}
	],
	"nodes":[
		{
			"mesh":0,
			"name":"Cube-col"
		},
		{
			"mesh":1,
			"name":"checkpoint-col"
		}
	],
	"materials":[
		{
			"name":"Material",
			"normalTexture":{
				"index":0
			},
			"pbrMetallicRoughness":{
				"baseColorTexture":{
					"index":1
				},
				"metallicFactor":0,
				"roughnessFactor":0.5
			}
		},
		{
			"name":"Material.001",
			"normalTexture":{
				"index":2
			},
			"pbrMetallicRoughness":{
				"baseColorTexture":{
					"index":3
				},
				"metallicFactor":0,
				"roughnessFactor":0.5
			}
		},
		{
			"name":"Material.002",
			"normalTexture":{
				"index":4
			},
			"pbrMetallicRoughness":{
				"baseColorTexture":{
					"index":5
				},
				"metallicFactor":0,
				"roughnessFactor":0.5
			}
		},
		{
			"name":"Material.007",
			"normalTexture":{
				"index":6
			},
			"pbrMetallicRoughness":{
				"baseColorTexture":{
					"index":7
				},
				"metallicFactor":0,
				"roughnessFactor":0.5
			}
		},
		{
			"doubleSided":true,
			"name":"Material.003",
			"pbrMetallicRoughness":{
				"baseColorTexture":{
					"index":8
				},
				"metallicFactor":0,
				"roughnessFactor":0.5
			}
		}
	],
	"meshes":[
		{
			"name":"Cube.001",
			"primitives":[
				{
					"attributes":{
						"POSITION":0,
						"NORMAL":1,
						"TEXCOORD_0":2,
						"TANGENT":3
					},
					"indices":4,
					"material":0
				},
				{
					"attributes":{
						"POSITION":5,
						"NORMAL":6,
						"TEXCOORD_0":7,
						"TANGENT":8
					},
					"indices":9,
					"material":1
				},
				{
					"attributes":{
						"POSITION":10,
						"NORMAL":11,
						"TEXCOORD_0":12,
						"TANGENT":13
					},
					"indices":14,
					"material":2
				},
				{
					"attributes":{
						"POSITION":15,
						"NORMAL":16,
						"TEXCOORD_0":17,
						"TANGENT":18
					},
					"indices":19,
					"material":3
				}
			]
		},
		{
			"name":"Cube",
			"primitives":[
				{
					"attributes":{
						"POSITION":20,
						"NORMAL":21,
						"TEXCOORD_0":22,
						"TANGENT":23
					},
					"indices":24,
					"material":4
				}
			]
		}
	],
	"textures":[
		{
			"sampler":0,
			"source":0
		},
		{
			"sampler":0,
			"source":1
		},
		{
			"sampler":0,
			"source":2
		},
		{
			"sampler":0,
			"source":3
		},
		{
			"sampler":0,
			"source":4
		},
		{
			"sampler":0,
			"source":5
		},
		{
			"sampler":0,
			"source":6
		},
		{
			"sampler":0,
			"source":7
		},
		{
			"sampler":0,
			"source":7
		}
	],
	"images":[
		{
			"mimeType":"image/png",
			"name":"concrete_floor.png",
			"uri":"../../rooms/Textures/normals/concrete_floor.png"
		},
		{
			"mimeType":"image/jpeg",
			"name":"concretefloor.jpg",
			"uri":"../../rooms/Textures/concretefloor.jpg"
		},
		{
			"mimeType":"image/png",
			"name":"whitewall1_specular.png",
			"uri":"../../rooms/Textures/normals/whitewall1_specular.png"
		},
		{
			"mimeType":"image/png",
			"name":"whitewall1.png",
			"uri":"../../rooms/Textures/whitewall1.png"
		},
		{
			"mimeType":"image/png",
			"name":"whitewall_specular.png",
			"uri":"../../rooms/Textures/normals/whitewall_specular.png"
		},
		{
			"mimeType":"image/jpeg",
			"name":"whitewall.jpg",
			"uri":"../../rooms/Textures/whitewall.jpg"
		},
		{
			"mimeType":"image/png",
			"name":"concrete_wall.png",
			"uri":"../../rooms/Textures/normals/concrete_wall.png"
		},
		{
			"mimeType":"image/jpeg",
			"name":"concretewall.jpg",
			"uri":"../../rooms/Textures/concretewall.jpg"
		}
	],
	"accessors":[
		{
			"bufferView":0,
			"componentType":5126,
			"count":52,
			"max":[
				7.5,
				4.827272891998291,
				6.295454502105713
			],
			"min":[
				-7.5,
				-1.1727274656295776,
				-6.304545879364014
			],
			"type":"VEC3"
		},
		{
			"bufferView":1,
			"componentType":5126,
			"count":52,
			"type":"VEC3"
		},
		{
			"bufferView":2,
			"componentType":5126,
			"count":52,
			"type":"VEC2"
		},
		{
			"bufferView":3,
			"componentType":5126,
			"count":52,
			"type":"VEC4"
		},
		{
			"bufferView":4,
			"componentType":5123,
			"count":144,
			"type":"SCALAR"
		},
		{
			"bufferView":5,
			"componentType":5126,
			"count":44,
			"max":[
				0,
				1.8272725343704224,
				6.295454502105713
			],
			"min":[
				-7.5,
				-1.1727274656295776,
				-6.304545879364014
			],
			"type":"VEC3"
		},
		{
			"bufferView":6,
			"componentType":5126,
			"count":44,
			"type":"VEC3"
		},
		{
			"bufferView":7,
			"componentType":5126,
			"count":44,
			"type":"VEC2"
		},
		{
			"bufferView":8,
			"componentType":5126,
			"count":44,
			"type":"VEC4"
		},
		{
			"bufferView":9,
			"componentType":5123,
			"count":72,
			"type":"SCALAR"
		},
		{
			"bufferView":10,
			"componentType":5126,
			"count":28,
			"max":[
				0,
				4.827272891998291,
				6.295454502105713
			],
			"min":[
				-7.300000190734863,
				1.8272725343704224,
				-6.304545879364014
			],
			"type":"VEC3"
		},
		{
			"bufferView":11,
			"componentType":5126,
			"count":28,
			"type":"VEC3"
		},
		{
			"bufferView":12,
			"componentType":5126,
			"count":28,
			"type":"VEC2"
		},
		{
			"bufferView":13,
			"componentType":5126,
			"count":28,
			"type":"VEC4"
		},
		{
			"bufferView":14,
			"componentType":5123,
			"count":42,
			"type":"SCALAR"
		},
		{
			"bufferView":15,
			"componentType":5126,
			"count":58,
			"max":[
				7.5,
				4.827272891998291,
				6.295454502105713
			],
			"min":[
				0,
				-1.1727274656295776,
				-6.304545879364014
			],
			"type":"VEC3"
		},
		{
			"bufferView":16,
			"componentType":5126,
			"count":58,
			"type":"VEC3"
		},
		{
			"bufferView":17,
			"componentType":5126,
			"count":58,
			"type":"VEC2"
		},
		{
			"bufferView":18,
			"componentType":5126,
			"count":58,
			"type":"VEC4"
		},
		{
			"bufferView":19,
			"componentType":5123,
			"count":114,
			"type":"SCALAR"
		},
		{
			"bufferView":20,
			"componentType":5126,
			"count":328,
			"max":[
				1.5000004768371582,
				4.878671646118164,
				6.296891212463379
			],
			"min":[
				-1.5,
				-1.310621738433838,
				-6.300000190734863
			],
			"type":"VEC3"
		},
		{
			"bufferView":21,
			"componentType":5126,
			"count":328,
			"type":"VEC3"
		},
		{
			"bufferView":22,
			"componentType":5126,
			"count":328,
			"type":"VEC2"
		},
		{
			"bufferView":23,
			"componentType":5126,
			"count":328,
			"type":"VEC4"
		},
		{
			"bufferView":24,
			"componentType":5123,
			"count":816,
			"type":"SCALAR"
		}
	],
	"bufferViews":[
		{
			"buffer":0,
			"byteLength":624,
			"byteOffset":0,
			"target":34962
		},
		{
			"buffer":0,
			"byteLength":624,
			"byteOffset":624,
			"target":34962
		},
		{
			"buffer":0,
			"byteLength":416,
			"byteOffset":1248,
			"target":34962
		},
		{
			"buffer":0,
			"byteLength":832,
			"byteOffset":1664,
			"target":34962
		},
		{
			"buffer":0,
			"byteLength":288,
			"byteOffset":2496,
			"target":34963
		},
		{
			"buffer":0,
			"byteLength":528,
			"byteOffset":2784,
			"target":34962
		},
		{
			"buffer":0,
			"byteLength":528,
			"byteOffset":3312,
			"target":34962
		},
		{
			"buffer":0,
			"byteLength":352,
			"byteOffset":3840,
			"target":34962
		},
		{
			"buffer":0,
			"byteLength":704,
			"byteOffset":4192,
			"target":34962
		},
		{
			"buffer":0,
			"byteLength":144,
			"byteOffset":4896,
			"target":34963
		},
		{
			"buffer":0,
			"byteLength":336,
			"byteOffset":5040,
			"target":34962
		},
		{
			"buffer":0,
			"byteLength":336,
			"byteOffset":5376,
			"target":34962
		},
		{
			"buffer":0,
			"byteLength":224,
			"byteOffset":5712,
			"target":34962
		},
		{
			"buffer":0,
			"byteLength":448,
			"byteOffset":5936,
			"target":34962
		},
		{
			"buffer":0,
			"byteLength":84,
			"byteOffset":6384,
			"target":34963
		},
		{
			"buffer":0,
			"byteLength":696,
			"byteOffset":6468,
			"target":34962
		},
		{
			"buffer":0,
			"byteLength":696,
			"byteOffset":7164,
			"target":34962
		},
		{
			"buffer":0,
			"byteLength":464,
			"byteOffset":7860,
			"target":34962
		},
		{
			"buffer":0,
			"byteLength":928,
			"byteOffset":8324,
			"target":34962
		},
		{
			"buffer":0,
			"byteLength":228,
			"byteOffset":9252,
			"target":34963
		},
		{
			"buffer":0,
			"byteLength":3936,
			"byteOffset":9480,
			"target":34962
		},
		{
			"buffer":0,
			"byteLength":3936,
			"byteOffset":13416,
			"target":34962
		},
		{
			"buffer":0,
			"byteLength":2624,
			"byteOffset":17352,
			"target":34962
		},
		{
			"buffer":0,
			"byteLength":5248,
			"byteOffset":19976,
			"target":34962
		},
		{
			"buffer":0,
			"byteLength":1632,
			"byteOffset":25224,
			"target":34963
		}
	],
	"samplers":[
		{
			"magFilter":9729,
			"minFilter":9987
		}
	],
	"buffers":[
		{
			"byteLength":26856,
			"uri":"LConToHconCheckpoint-6a9859e0e5d7477801ae8dc37ac81694.bin"
		}
	]
}
