{
	"asset":{
		"generator":"Khronos glTF Blender I/O v4.3.47",
		"version":"2.0"
	},
	"scene":0,
	"scenes":[
		{
			"name":"Scene",
			"nodes":[
				0,
				1,
				2,
				3,
				4
			]
		}
	],
	"nodes":[
		{
			"mesh":0,
			"name":"Concrete floor-col"
		},
		{
			"mesh":1,
			"name":"plate-col",
			"rotation":[
				0,
				-0.7071067094802856,
				0,
				0.7071068286895752
			],
			"translation":[
				0,
				-0.06912572681903839,
				0
			]
		},
		{
			"mesh":2,
			"name":"tesla gate-col",
			"translation":[
				0,
				-0.06912572681903839,
				0
			]
		},
		{
			"mesh":3,
			"name":"PowerLines",
			"translation":[
				1.5924094915390015,
				0,
				0
			]
		},
		{
			"mesh":4,
			"name":"Panel",
			"scale":[
				0.19999998807907104,
				1,
				1
			],
			"translation":[
				2.0115838050842285,
				0.4687928557395935,
				3.674976348876953
			]
		}
	],
	"materials":[
		{
			"name":"Concrete Floor",
			"normalTexture":{
				"index":0
			},
			"pbrMetallicRoughness":{
				"baseColorTexture":{
					"index":1
				},
				"metallicFactor":0,
				"roughnessFactor":0.5
			}
		},
		{
			"name":"Material.002",
			"normalTexture":{
				"index":2
			},
			"pbrMetallicRoughness":{
				"baseColorTexture":{
					"index":3
				},
				"metallicFactor":0,
				"roughnessFactor":0.5
			}
		},
		{
			"name":"Material.003",
			"normalTexture":{
				"index":4
			},
			"pbrMetallicRoughness":{
				"baseColorTexture":{
					"index":5
				},
				"metallicFactor":0,
				"roughnessFactor":0.5
			}
		},
		{
			"name":"Material.001",
			"pbrMetallicRoughness":{
				"baseColorTexture":{
					"index":6
				},
				"metallicFactor":0,
				"roughnessFactor":0.5
			}
		},
		{
			"name":"Material.004",
			"pbrMetallicRoughness":{
				"baseColorTexture":{
					"index":7
				},
				"metallicFactor":0,
				"roughnessFactor":0.5
			}
		},
		{
			"doubleSided":true,
			"name":"Material.006",
			"pbrMetallicRoughness":{
				"baseColorTexture":{
					"index":8
				},
				"metallicFactor":0,
				"roughnessFactor":0.5
			}
		},
		{
			"name":"Material",
			"pbrMetallicRoughness":{
				"baseColorTexture":{
					"index":9
				},
				"metallicFactor":0,
				"roughnessFactor":0.5
			}
		},
		{
			"doubleSided":true,
			"name":"Material.005",
			"pbrMetallicRoughness":{
				"baseColorTexture":{
					"index":10
				},
				"metallicFactor":0,
				"roughnessFactor":0.5
			}
		}
	],
	"meshes":[
		{
			"name":"Cube.002",
			"primitives":[
				{
					"attributes":{
						"POSITION":0,
						"NORMAL":1,
						"TEXCOORD_0":2,
						"TANGENT":3
					},
					"indices":4,
					"material":0
				},
				{
					"attributes":{
						"POSITION":5,
						"NORMAL":6,
						"TEXCOORD_0":7,
						"TANGENT":8
					},
					"indices":9,
					"material":1
				},
				{
					"attributes":{
						"POSITION":10,
						"NORMAL":11,
						"TEXCOORD_0":12,
						"TANGENT":13
					},
					"indices":14,
					"material":2
				}
			]
		},
		{
			"name":"Cube.001",
			"primitives":[
				{
					"attributes":{
						"POSITION":15,
						"NORMAL":16,
						"TEXCOORD_0":17,
						"TANGENT":18
					},
					"indices":19,
					"material":3
				},
				{
					"attributes":{
						"POSITION":20,
						"NORMAL":21,
						"TEXCOORD_0":22,
						"TANGENT":23
					},
					"indices":24,
					"material":4
				},
				{
					"attributes":{
						"POSITION":25,
						"NORMAL":26,
						"TEXCOORD_0":27,
						"TANGENT":28
					},
					"indices":29,
					"material":5
				}
			]
		},
		{
			"name":"Cube.003",
			"primitives":[
				{
					"attributes":{
						"POSITION":30,
						"NORMAL":31,
						"TEXCOORD_0":32,
						"TANGENT":33
					},
					"indices":34,
					"material":3
				}
			]
		},
		{
			"name":"Cube",
			"primitives":[
				{
					"attributes":{
						"POSITION":35,
						"NORMAL":36,
						"TEXCOORD_0":37,
						"TANGENT":38
					},
					"indices":39,
					"material":6
				}
			]
		},
		{
			"name":"Cube.004",
			"primitives":[
				{
					"attributes":{
						"POSITION":40,
						"NORMAL":41,
						"TEXCOORD_0":42,
						"TANGENT":43
					},
					"indices":44,
					"material":7
				}
			]
		}
	],
	"textures":[
		{
			"sampler":0,
			"source":0
		},
		{
			"sampler":0,
			"source":1
		},
		{
			"sampler":0,
			"source":2
		},
		{
			"sampler":0,
			"source":3
		},
		{
			"sampler":0,
			"source":4
		},
		{
			"sampler":0,
			"source":5
		},
		{
			"sampler":0,
			"source":6
		},
		{
			"sampler":0,
			"source":7
		},
		{
			"sampler":0,
			"source":8
		},
		{
			"sampler":0,
			"source":9
		},
		{
			"sampler":0,
			"source":10
		}
	],
	"images":[
		{
			"mimeType":"image/png",
			"name":"concrete_floor.png",
			"uri":"../../rooms/Textures/normals/concrete_floor.png"
		},
		{
			"mimeType":"image/jpeg",
			"name":"concretefloor.jpg",
			"uri":"../../rooms/Textures/concretefloor.jpg"
		},
		{
			"mimeType":"image/png",
			"name":"whitewall_specular.png",
			"uri":"../../rooms/Textures/normals/whitewall_specular.png"
		},
		{
			"mimeType":"image/jpeg",
			"name":"whitewall.jpg",
			"uri":"../../rooms/Textures/whitewall.jpg"
		},
		{
			"mimeType":"image/png",
			"name":"whitewall1_specular.png",
			"uri":"../../rooms/Textures/normals/whitewall1_specular.png"
		},
		{
			"mimeType":"image/png",
			"name":"whitewall1.png",
			"uri":"../../rooms/Textures/whitewall1.png"
		},
		{
			"mimeType":"image/jpeg",
			"name":"metalpanels2.jpg",
			"uri":"../../rooms/Textures/metalpanels2.jpg"
		},
		{
			"mimeType":"image/jpeg",
			"name":"metal3.jpg",
			"uri":"../../rooms/Textures/metal3.jpg"
		},
		{
			"mimeType":"image/png",
			"name":"misc_signs(0).png",
			"uri":"../../rooms/Textures/misc_signs%280%29.png"
		},
		{
			"mimeType":"image/png",
			"name":"Pipes_NoRust.png",
			"uri":"../../rooms/Textures/Pipes_NoRust.png"
		},
		{
			"mimeType":"image/jpeg",
			"name":"ElecBox.jpg",
			"uri":"../../rooms/Textures/ElecBox.jpg"
		}
	],
	"accessors":[
		{
			"bufferView":0,
			"componentType":5126,
			"count":88,
			"max":[
				2.214858293533325,
				4.864598751068115,
				7.5000319480896
			],
			"min":[
				-2.2148590087890625,
				-1.1502749919891357,
				-7.5000319480896
			],
			"type":"VEC3"
		},
		{
			"bufferView":1,
			"componentType":5126,
			"count":88,
			"type":"VEC3"
		},
		{
			"bufferView":2,
			"componentType":5126,
			"count":88,
			"type":"VEC2"
		},
		{
			"bufferView":3,
			"componentType":5126,
			"count":88,
			"type":"VEC4"
		},
		{
			"bufferView":4,
			"componentType":5123,
			"count":180,
			"type":"SCALAR"
		},
		{
			"bufferView":5,
			"componentType":5126,
			"count":96,
			"max":[
				2.214858293533325,
				4.851933479309082,
				7.5000319480896
			],
			"min":[
				-2.2148590087890625,
				1.2519333362579346,
				-7.5000319480896
			],
			"type":"VEC3"
		},
		{
			"bufferView":6,
			"componentType":5126,
			"count":96,
			"type":"VEC3"
		},
		{
			"bufferView":7,
			"componentType":5126,
			"count":96,
			"type":"VEC2"
		},
		{
			"bufferView":8,
			"componentType":5126,
			"count":96,
			"type":"VEC4"
		},
		{
			"bufferView":9,
			"componentType":5123,
			"count":144,
			"type":"SCALAR"
		},
		{
			"bufferView":10,
			"componentType":5126,
			"count":112,
			"max":[
				2.214858293533325,
				1.851933240890503,
				7.5000319480896
			],
			"min":[
				-2.2148590087890625,
				-1.1502749919891357,
				-7.5000319480896
			],
			"type":"VEC3"
		},
		{
			"bufferView":11,
			"componentType":5126,
			"count":112,
			"type":"VEC3"
		},
		{
			"bufferView":12,
			"componentType":5126,
			"count":112,
			"type":"VEC2"
		},
		{
			"bufferView":13,
			"componentType":5126,
			"count":112,
			"type":"VEC4"
		},
		{
			"bufferView":14,
			"componentType":5123,
			"count":180,
			"type":"SCALAR"
		},
		{
			"bufferView":15,
			"componentType":5126,
			"count":8,
			"max":[
				1.013953685760498,
				-1.0281327962875366,
				1.749000072479248
			],
			"min":[
				-1.0349197387695312,
				-1.0855751037597656,
				-1.748999834060669
			],
			"type":"VEC3"
		},
		{
			"bufferView":16,
			"componentType":5126,
			"count":8,
			"type":"VEC3"
		},
		{
			"bufferView":17,
			"componentType":5126,
			"count":8,
			"type":"VEC2"
		},
		{
			"bufferView":18,
			"componentType":5126,
			"count":8,
			"type":"VEC4"
		},
		{
			"bufferView":19,
			"componentType":5123,
			"count":12,
			"type":"SCALAR"
		},
		{
			"bufferView":20,
			"componentType":5126,
			"count":8,
			"max":[
				0.30000001192092896,
				-1.0281327962875366,
				1.749000072479248
			],
			"min":[
				-0.30000001192092896,
				-1.0281329154968262,
				-1.748999834060669
			],
			"type":"VEC3"
		},
		{
			"bufferView":21,
			"componentType":5126,
			"count":8,
			"type":"VEC3"
		},
		{
			"bufferView":22,
			"componentType":5126,
			"count":8,
			"type":"VEC2"
		},
		{
			"bufferView":23,
			"componentType":5126,
			"count":8,
			"type":"VEC4"
		},
		{
			"bufferView":24,
			"componentType":5123,
			"count":12,
			"type":"SCALAR"
		},
		{
			"bufferView":25,
			"componentType":5126,
			"count":8,
			"max":[
				0.9000000357627869,
				-1.0281327962875366,
				1.749000072479248
			],
			"min":[
				-0.9000000357627869,
				-1.0281329154968262,
				-1.748999834060669
			],
			"type":"VEC3"
		},
		{
			"bufferView":26,
			"componentType":5126,
			"count":8,
			"type":"VEC3"
		},
		{
			"bufferView":27,
			"componentType":5126,
			"count":8,
			"type":"VEC2"
		},
		{
			"bufferView":28,
			"componentType":5126,
			"count":8,
			"type":"VEC4"
		},
		{
			"bufferView":29,
			"componentType":5123,
			"count":12,
			"type":"SCALAR"
		},
		{
			"bufferView":30,
			"componentType":5126,
			"count":36,
			"max":[
				1.75,
				4.924999713897705,
				0.30000030994415283
			],
			"min":[
				-1.75,
				-1.0749999284744263,
				-0.30000007152557373
			],
			"type":"VEC3"
		},
		{
			"bufferView":31,
			"componentType":5126,
			"count":36,
			"type":"VEC3"
		},
		{
			"bufferView":32,
			"componentType":5126,
			"count":36,
			"type":"VEC2"
		},
		{
			"bufferView":33,
			"componentType":5126,
			"count":36,
			"type":"VEC4"
		},
		{
			"bufferView":34,
			"componentType":5123,
			"count":54,
			"type":"SCALAR"
		},
		{
			"bufferView":35,
			"componentType":5126,
			"count":144,
			"max":[
				0.7069776058197021,
				1.1611301898956299,
				3.1435184478759766
			],
			"min":[
				0.09069495648145676,
				0.4842093288898468,
				0.25532418489456177
			],
			"type":"VEC3"
		},
		{
			"bufferView":36,
			"componentType":5126,
			"count":144,
			"type":"VEC3"
		},
		{
			"bufferView":37,
			"componentType":5126,
			"count":144,
			"type":"VEC2"
		},
		{
			"bufferView":38,
			"componentType":5126,
			"count":144,
			"type":"VEC4"
		},
		{
			"bufferView":39,
			"componentType":5123,
			"count":252,
			"type":"SCALAR"
		},
		{
			"bufferView":40,
			"componentType":5126,
			"count":146,
			"max":[
				1.79994535446167,
				1.1462593078613281,
				1.029148817062378
			],
			"min":[
				-1.8169832229614258,
				-1,
				-1.0028915405273438
			],
			"type":"VEC3"
		},
		{
			"bufferView":41,
			"componentType":5126,
			"count":146,
			"type":"VEC3"
		},
		{
			"bufferView":42,
			"componentType":5126,
			"count":146,
			"type":"VEC2"
		},
		{
			"bufferView":43,
			"componentType":5126,
			"count":146,
			"type":"VEC4"
		},
		{
			"bufferView":44,
			"componentType":5123,
			"count":360,
			"type":"SCALAR"
		}
	],
	"bufferViews":[
		{
			"buffer":0,
			"byteLength":1056,
			"byteOffset":0,
			"target":34962
		},
		{
			"buffer":0,
			"byteLength":1056,
			"byteOffset":1056,
			"target":34962
		},
		{
			"buffer":0,
			"byteLength":704,
			"byteOffset":2112,
			"target":34962
		},
		{
			"buffer":0,
			"byteLength":1408,
			"byteOffset":2816,
			"target":34962
		},
		{
			"buffer":0,
			"byteLength":360,
			"byteOffset":4224,
			"target":34963
		},
		{
			"buffer":0,
			"byteLength":1152,
			"byteOffset":4584,
			"target":34962
		},
		{
			"buffer":0,
			"byteLength":1152,
			"byteOffset":5736,
			"target":34962
		},
		{
			"buffer":0,
			"byteLength":768,
			"byteOffset":6888,
			"target":34962
		},
		{
			"buffer":0,
			"byteLength":1536,
			"byteOffset":7656,
			"target":34962
		},
		{
			"buffer":0,
			"byteLength":288,
			"byteOffset":9192,
			"target":34963
		},
		{
			"buffer":0,
			"byteLength":1344,
			"byteOffset":9480,
			"target":34962
		},
		{
			"buffer":0,
			"byteLength":1344,
			"byteOffset":10824,
			"target":34962
		},
		{
			"buffer":0,
			"byteLength":896,
			"byteOffset":12168,
			"target":34962
		},
		{
			"buffer":0,
			"byteLength":1792,
			"byteOffset":13064,
			"target":34962
		},
		{
			"buffer":0,
			"byteLength":360,
			"byteOffset":14856,
			"target":34963
		},
		{
			"buffer":0,
			"byteLength":96,
			"byteOffset":15216,
			"target":34962
		},
		{
			"buffer":0,
			"byteLength":96,
			"byteOffset":15312,
			"target":34962
		},
		{
			"buffer":0,
			"byteLength":64,
			"byteOffset":15408,
			"target":34962
		},
		{
			"buffer":0,
			"byteLength":128,
			"byteOffset":15472,
			"target":34962
		},
		{
			"buffer":0,
			"byteLength":24,
			"byteOffset":15600,
			"target":34963
		},
		{
			"buffer":0,
			"byteLength":96,
			"byteOffset":15624,
			"target":34962
		},
		{
			"buffer":0,
			"byteLength":96,
			"byteOffset":15720,
			"target":34962
		},
		{
			"buffer":0,
			"byteLength":64,
			"byteOffset":15816,
			"target":34962
		},
		{
			"buffer":0,
			"byteLength":128,
			"byteOffset":15880,
			"target":34962
		},
		{
			"buffer":0,
			"byteLength":24,
			"byteOffset":16008,
			"target":34963
		},
		{
			"buffer":0,
			"byteLength":96,
			"byteOffset":16032,
			"target":34962
		},
		{
			"buffer":0,
			"byteLength":96,
			"byteOffset":16128,
			"target":34962
		},
		{
			"buffer":0,
			"byteLength":64,
			"byteOffset":16224,
			"target":34962
		},
		{
			"buffer":0,
			"byteLength":128,
			"byteOffset":16288,
			"target":34962
		},
		{
			"buffer":0,
			"byteLength":24,
			"byteOffset":16416,
			"target":34963
		},
		{
			"buffer":0,
			"byteLength":432,
			"byteOffset":16440,
			"target":34962
		},
		{
			"buffer":0,
			"byteLength":432,
			"byteOffset":16872,
			"target":34962
		},
		{
			"buffer":0,
			"byteLength":288,
			"byteOffset":17304,
			"target":34962
		},
		{
			"buffer":0,
			"byteLength":576,
			"byteOffset":17592,
			"target":34962
		},
		{
			"buffer":0,
			"byteLength":108,
			"byteOffset":18168,
			"target":34963
		},
		{
			"buffer":0,
			"byteLength":1728,
			"byteOffset":18276,
			"target":34962
		},
		{
			"buffer":0,
			"byteLength":1728,
			"byteOffset":20004,
			"target":34962
		},
		{
			"buffer":0,
			"byteLength":1152,
			"byteOffset":21732,
			"target":34962
		},
		{
			"buffer":0,
			"byteLength":2304,
			"byteOffset":22884,
			"target":34962
		},
		{
			"buffer":0,
			"byteLength":504,
			"byteOffset":25188,
			"target":34963
		},
		{
			"buffer":0,
			"byteLength":1752,
			"byteOffset":25692,
			"target":34962
		},
		{
			"buffer":0,
			"byteLength":1752,
			"byteOffset":27444,
			"target":34962
		},
		{
			"buffer":0,
			"byteLength":1168,
			"byteOffset":29196,
			"target":34962
		},
		{
			"buffer":0,
			"byteLength":2336,
			"byteOffset":30364,
			"target":34962
		},
		{
			"buffer":0,
			"byteLength":720,
			"byteOffset":32700,
			"target":34963
		}
	],
	"samplers":[
		{
			"magFilter":9729,
			"minFilter":9987
		}
	],
	"buffers":[
		{
			"byteLength":33420,
			"uri":"LConTesla001-5bd0dbc7decc9f25effc47cba79479a2.bin"
		}
	]
}
