{
	"asset":{
		"generator":"Khronos glTF Blender I/O v4.4.56",
		"version":"2.0"
	},
	"scene":0,
	"scenes":[
		{
			"name":"Scene",
			"nodes":[
				0,
				1,
				2,
				3,
				4
			]
		}
	],
	"nodes":[
		{
			"mesh":0,
			"name":"room-col"
		},
		{
			"mesh":1,
			"name":"tesla gate-col"
		},
		{
			"mesh":2,
			"name":"plate-col"
		},
		{
			"mesh":3,
			"name":"TAble-col"
		},
		{
			"mesh":4,
			"name":"BENCH-col.001"
		}
	],
	"materials":[
		{
			"name":"wallbottom",
			"normalTexture":{
				"index":0
			},
			"pbrMetallicRoughness":{
				"baseColorTexture":{
					"index":1
				},
				"metallicFactor":0,
				"roughnessFactor":0
			}
		},
		{
			"name":"Material.002",
			"normalTexture":{
				"index":2
			},
			"pbrMetallicRoughness":{
				"baseColorTexture":{
					"index":3
				},
				"metallicFactor":0,
				"roughnessFactor":0.5
			}
		},
		{
			"name":"floor",
			"normalTexture":{
				"index":4
			},
			"pbrMetallicRoughness":{
				"baseColorTexture":{
					"index":5
				},
				"metallicFactor":0,
				"roughnessFactor":0.5
			}
		},
		{
			"alphaMode":"BLEND",
			"name":"glass",
			"pbrMetallicRoughness":{
				"baseColorFactor":[
					1,
					1,
					1,
					0.9904040098190308
				],
				"baseColorTexture":{
					"index":6
				},
				"metallicFactor":0.21212121844291687,
				"roughnessFactor":0
			}
		},
		{
			"name":"Material.003",
			"pbrMetallicRoughness":{
				"baseColorTexture":{
					"index":7
				},
				"metallicFactor":0,
				"roughnessFactor":0.5
			}
		},
		{
			"name":"Material.004",
			"pbrMetallicRoughness":{
				"baseColorTexture":{
					"index":8
				},
				"metallicFactor":0,
				"roughnessFactor":0.5
			}
		},
		{
			"doubleSided":true,
			"name":"Material.006",
			"pbrMetallicRoughness":{
				"baseColorTexture":{
					"index":9
				},
				"metallicFactor":0,
				"roughnessFactor":0.5
			}
		},
		{
			"doubleSided":true,
			"name":"Material",
			"pbrMetallicRoughness":{
				"baseColorTexture":{
					"index":10
				},
				"metallicFactor":0,
				"roughnessFactor":0.5
			}
		},
		{
			"doubleSided":true,
			"name":"Material.001",
			"pbrMetallicRoughness":{
				"baseColorTexture":{
					"index":11
				},
				"metallicFactor":0,
				"roughnessFactor":0.5
			}
		}
	],
	"meshes":[
		{
			"name":"Cube",
			"primitives":[
				{
					"attributes":{
						"POSITION":0,
						"NORMAL":1,
						"TEXCOORD_0":2,
						"TANGENT":3
					},
					"indices":4,
					"material":0
				},
				{
					"attributes":{
						"POSITION":5,
						"NORMAL":6,
						"TEXCOORD_0":7,
						"TANGENT":8
					},
					"indices":9,
					"material":1
				},
				{
					"attributes":{
						"POSITION":10,
						"NORMAL":11,
						"TEXCOORD_0":12,
						"TANGENT":13
					},
					"indices":14,
					"material":2
				},
				{
					"attributes":{
						"POSITION":15,
						"NORMAL":16,
						"TEXCOORD_0":17,
						"TANGENT":18
					},
					"indices":19,
					"material":3
				}
			]
		},
		{
			"name":"Cube.001",
			"primitives":[
				{
					"attributes":{
						"POSITION":20,
						"NORMAL":21,
						"TEXCOORD_0":22,
						"TANGENT":23
					},
					"indices":24,
					"material":4
				}
			]
		},
		{
			"name":"Cube.002",
			"primitives":[
				{
					"attributes":{
						"POSITION":25,
						"NORMAL":26,
						"TEXCOORD_0":27,
						"TANGENT":28
					},
					"indices":29,
					"material":4
				},
				{
					"attributes":{
						"POSITION":30,
						"NORMAL":31,
						"TEXCOORD_0":32,
						"TANGENT":33
					},
					"indices":34,
					"material":5
				},
				{
					"attributes":{
						"POSITION":35,
						"NORMAL":36,
						"TEXCOORD_0":37,
						"TANGENT":38
					},
					"indices":39,
					"material":6
				}
			]
		},
		{
			"name":"Cube.003",
			"primitives":[
				{
					"attributes":{
						"POSITION":40,
						"NORMAL":41,
						"TEXCOORD_0":42,
						"TANGENT":43
					},
					"indices":44,
					"material":0
				},
				{
					"attributes":{
						"POSITION":45,
						"NORMAL":46,
						"TEXCOORD_0":47,
						"TANGENT":48
					},
					"indices":49,
					"material":7
				}
			]
		},
		{
			"name":"Cube.004",
			"primitives":[
				{
					"attributes":{
						"POSITION":50,
						"NORMAL":51,
						"TEXCOORD_0":52,
						"TANGENT":53
					},
					"indices":54,
					"material":8
				}
			]
		}
	],
	"textures":[
		{
			"sampler":0,
			"source":0
		},
		{
			"sampler":0,
			"source":1
		},
		{
			"sampler":0,
			"source":2
		},
		{
			"sampler":0,
			"source":3
		},
		{
			"sampler":0,
			"source":4
		},
		{
			"sampler":0,
			"source":5
		},
		{
			"sampler":0,
			"source":6
		},
		{
			"sampler":0,
			"source":7
		},
		{
			"sampler":0,
			"source":8
		},
		{
			"sampler":0,
			"source":9
		},
		{
			"sampler":0,
			"source":10
		},
		{
			"sampler":0,
			"source":11
		}
	],
	"images":[
		{
			"mimeType":"image/png",
			"name":"whitewall1_specular.png",
			"uri":"../../rooms/Textures/normals/whitewall1_specular.png"
		},
		{
			"mimeType":"image/png",
			"name":"whitewall1.png",
			"uri":"../../rooms/Textures/whitewall1.png"
		},
		{
			"mimeType":"image/png",
			"name":"whitewall_specular.png",
			"uri":"../../rooms/Textures/normals/whitewall_specular.png"
		},
		{
			"mimeType":"image/jpeg",
			"name":"whitewall.jpg",
			"uri":"../../rooms/Textures/whitewall.jpg"
		},
		{
			"mimeType":"image/png",
			"name":"concrete_floor.png",
			"uri":"../../rooms/Textures/normals/concrete_floor.png"
		},
		{
			"mimeType":"image/jpeg",
			"name":"concretefloor.jpg",
			"uri":"../../rooms/Textures/concretefloor.jpg"
		},
		{
			"mimeType":"image/png",
			"name":"glass.png",
			"uri":"../../rooms/Textures/glass.png"
		},
		{
			"mimeType":"image/jpeg",
			"name":"metalpanels2.jpg",
			"uri":"../../rooms/Textures/metalpanels2.jpg"
		},
		{
			"mimeType":"image/jpeg",
			"name":"metal3.jpg",
			"uri":"../../rooms/Textures/metal3.jpg"
		},
		{
			"mimeType":"image/png",
			"name":"misc_signs(0).png",
			"uri":"../../rooms/Textures/misc_signs%280%29.png"
		},
		{
			"mimeType":"image/jpeg",
			"name":"bed-table.jpg",
			"uri":"../../rooms/Textures/bed-table.jpg"
		},
		{
			"mimeType":"image/jpeg",
			"name":"metal_darker.jpg",
			"uri":"../../rooms/Textures/metal_darker.jpg"
		}
	],
	"accessors":[
		{
			"bufferView":0,
			"componentType":5126,
			"count":136,
			"max":[
				7.5,
				1.9186677932739258,
				2.1500000953674316
			],
			"min":[
				-7.5,
				-1.0814992189407349,
				-3.25
			],
			"type":"VEC3"
		},
		{
			"bufferView":1,
			"componentType":5126,
			"count":136,
			"type":"VEC3"
		},
		{
			"bufferView":2,
			"componentType":5126,
			"count":136,
			"type":"VEC2"
		},
		{
			"bufferView":3,
			"componentType":5126,
			"count":136,
			"type":"VEC4"
		},
		{
			"bufferView":4,
			"componentType":5123,
			"count":276,
			"type":"SCALAR"
		},
		{
			"bufferView":5,
			"componentType":5126,
			"count":95,
			"max":[
				7.300000190734863,
				4.91584587097168,
				5.650000095367432
			],
			"min":[
				-7.300000190734863,
				-1.0814992189407349,
				-3.25
			],
			"type":"VEC3"
		},
		{
			"bufferView":6,
			"componentType":5126,
			"count":95,
			"type":"VEC3"
		},
		{
			"bufferView":7,
			"componentType":5126,
			"count":95,
			"type":"VEC2"
		},
		{
			"bufferView":8,
			"componentType":5126,
			"count":95,
			"type":"VEC4"
		},
		{
			"bufferView":9,
			"componentType":5123,
			"count":186,
			"type":"SCALAR"
		},
		{
			"bufferView":10,
			"componentType":5126,
			"count":79,
			"max":[
				7.5,
				4.91584587097168,
				5.650000095367432
			],
			"min":[
				-7.5,
				-1.0814992189407349,
				-3.25
			],
			"type":"VEC3"
		},
		{
			"bufferView":11,
			"componentType":5126,
			"count":79,
			"type":"VEC3"
		},
		{
			"bufferView":12,
			"componentType":5126,
			"count":79,
			"type":"VEC2"
		},
		{
			"bufferView":13,
			"componentType":5126,
			"count":79,
			"type":"VEC4"
		},
		{
			"bufferView":14,
			"componentType":5123,
			"count":240,
			"type":"SCALAR"
		},
		{
			"bufferView":15,
			"componentType":5126,
			"count":8,
			"max":[
				6,
				1.368500828742981,
				2.055253028869629
			],
			"min":[
				1.399999976158142,
				-0.5314992666244507,
				1.8552523851394653
			],
			"type":"VEC3"
		},
		{
			"bufferView":16,
			"componentType":5126,
			"count":8,
			"type":"VEC3"
		},
		{
			"bufferView":17,
			"componentType":5126,
			"count":8,
			"type":"VEC2"
		},
		{
			"bufferView":18,
			"componentType":5126,
			"count":8,
			"type":"VEC4"
		},
		{
			"bufferView":19,
			"componentType":5123,
			"count":12,
			"type":"SCALAR"
		},
		{
			"bufferView":20,
			"componentType":5126,
			"count":36,
			"max":[
				0.30000001192092896,
				4.924999713897705,
				1.7500001192092896
			],
			"min":[
				-0.30000001192092896,
				-1.0749999284744263,
				-1.7499998807907104
			],
			"type":"VEC3"
		},
		{
			"bufferView":21,
			"componentType":5126,
			"count":36,
			"type":"VEC3"
		},
		{
			"bufferView":22,
			"componentType":5126,
			"count":36,
			"type":"VEC2"
		},
		{
			"bufferView":23,
			"componentType":5126,
			"count":36,
			"type":"VEC4"
		},
		{
			"bufferView":24,
			"componentType":5123,
			"count":54,
			"type":"SCALAR"
		},
		{
			"bufferView":25,
			"componentType":5126,
			"count":8,
			"max":[
				1.013953685760498,
				-1.0281327962875366,
				1.749000072479248
			],
			"min":[
				-1.0349197387695312,
				-1.0855751037597656,
				-1.748999834060669
			],
			"type":"VEC3"
		},
		{
			"bufferView":26,
			"componentType":5126,
			"count":8,
			"type":"VEC3"
		},
		{
			"bufferView":27,
			"componentType":5126,
			"count":8,
			"type":"VEC2"
		},
		{
			"bufferView":28,
			"componentType":5126,
			"count":8,
			"type":"VEC4"
		},
		{
			"bufferView":29,
			"componentType":5123,
			"count":12,
			"type":"SCALAR"
		},
		{
			"bufferView":30,
			"componentType":5126,
			"count":8,
			"max":[
				0.30000001192092896,
				-1.0281327962875366,
				1.749000072479248
			],
			"min":[
				-0.30000001192092896,
				-1.0281329154968262,
				-1.748999834060669
			],
			"type":"VEC3"
		},
		{
			"bufferView":31,
			"componentType":5126,
			"count":8,
			"type":"VEC3"
		},
		{
			"bufferView":32,
			"componentType":5126,
			"count":8,
			"type":"VEC2"
		},
		{
			"bufferView":33,
			"componentType":5126,
			"count":8,
			"type":"VEC4"
		},
		{
			"bufferView":34,
			"componentType":5123,
			"count":12,
			"type":"SCALAR"
		},
		{
			"bufferView":35,
			"componentType":5126,
			"count":8,
			"max":[
				0.9000000357627869,
				-1.0281327962875366,
				1.749000072479248
			],
			"min":[
				-0.9000000357627869,
				-1.0281329154968262,
				-1.748999834060669
			],
			"type":"VEC3"
		},
		{
			"bufferView":36,
			"componentType":5126,
			"count":8,
			"type":"VEC3"
		},
		{
			"bufferView":37,
			"componentType":5126,
			"count":8,
			"type":"VEC2"
		},
		{
			"bufferView":38,
			"componentType":5126,
			"count":8,
			"type":"VEC4"
		},
		{
			"bufferView":39,
			"componentType":5123,
			"count":12,
			"type":"SCALAR"
		},
		{
			"bufferView":40,
			"componentType":5126,
			"count":154,
			"max":[
				4.663252830505371,
				0.10422539710998535,
				-2.1616969108581543
			],
			"min":[
				2.843662738800049,
				-1.0879247188568115,
				-2.998887777328491
			],
			"type":"VEC3"
		},
		{
			"bufferView":41,
			"componentType":5126,
			"count":154,
			"type":"VEC3"
		},
		{
			"bufferView":42,
			"componentType":5126,
			"count":154,
			"type":"VEC2"
		},
		{
			"bufferView":43,
			"componentType":5126,
			"count":154,
			"type":"VEC4"
		},
		{
			"bufferView":44,
			"componentType":5123,
			"count":312,
			"type":"SCALAR"
		},
		{
			"bufferView":45,
			"componentType":5126,
			"count":144,
			"max":[
				4.949999809265137,
				0.20448732376098633,
				-2.163914680480957
			],
			"min":[
				2.5500001907348633,
				-0.6689515113830566,
				-2.977626323699951
			],
			"type":"VEC3"
		},
		{
			"bufferView":46,
			"componentType":5126,
			"count":144,
			"type":"VEC3"
		},
		{
			"bufferView":47,
			"componentType":5126,
			"count":144,
			"type":"VEC2"
		},
		{
			"bufferView":48,
			"componentType":5126,
			"count":144,
			"type":"VEC4"
		},
		{
			"bufferView":49,
			"componentType":5123,
			"count":216,
			"type":"SCALAR"
		},
		{
			"bufferView":50,
			"componentType":5126,
			"count":116,
			"max":[
				5.730474472045898,
				-0.09443455934524536,
				3.478909730911255
			],
			"min":[
				1.745727777481079,
				-1.0505428314208984,
				2.2289092540740967
			],
			"type":"VEC3"
		},
		{
			"bufferView":51,
			"componentType":5126,
			"count":116,
			"type":"VEC3"
		},
		{
			"bufferView":52,
			"componentType":5126,
			"count":116,
			"type":"VEC2"
		},
		{
			"bufferView":53,
			"componentType":5126,
			"count":116,
			"type":"VEC4"
		},
		{
			"bufferView":54,
			"componentType":5123,
			"count":174,
			"type":"SCALAR"
		}
	],
	"bufferViews":[
		{
			"buffer":0,
			"byteLength":1632,
			"byteOffset":0,
			"target":34962
		},
		{
			"buffer":0,
			"byteLength":1632,
			"byteOffset":1632,
			"target":34962
		},
		{
			"buffer":0,
			"byteLength":1088,
			"byteOffset":3264,
			"target":34962
		},
		{
			"buffer":0,
			"byteLength":2176,
			"byteOffset":4352,
			"target":34962
		},
		{
			"buffer":0,
			"byteLength":552,
			"byteOffset":6528,
			"target":34963
		},
		{
			"buffer":0,
			"byteLength":1140,
			"byteOffset":7080,
			"target":34962
		},
		{
			"buffer":0,
			"byteLength":1140,
			"byteOffset":8220,
			"target":34962
		},
		{
			"buffer":0,
			"byteLength":760,
			"byteOffset":9360,
			"target":34962
		},
		{
			"buffer":0,
			"byteLength":1520,
			"byteOffset":10120,
			"target":34962
		},
		{
			"buffer":0,
			"byteLength":372,
			"byteOffset":11640,
			"target":34963
		},
		{
			"buffer":0,
			"byteLength":948,
			"byteOffset":12012,
			"target":34962
		},
		{
			"buffer":0,
			"byteLength":948,
			"byteOffset":12960,
			"target":34962
		},
		{
			"buffer":0,
			"byteLength":632,
			"byteOffset":13908,
			"target":34962
		},
		{
			"buffer":0,
			"byteLength":1264,
			"byteOffset":14540,
			"target":34962
		},
		{
			"buffer":0,
			"byteLength":480,
			"byteOffset":15804,
			"target":34963
		},
		{
			"buffer":0,
			"byteLength":96,
			"byteOffset":16284,
			"target":34962
		},
		{
			"buffer":0,
			"byteLength":96,
			"byteOffset":16380,
			"target":34962
		},
		{
			"buffer":0,
			"byteLength":64,
			"byteOffset":16476,
			"target":34962
		},
		{
			"buffer":0,
			"byteLength":128,
			"byteOffset":16540,
			"target":34962
		},
		{
			"buffer":0,
			"byteLength":24,
			"byteOffset":16668,
			"target":34963
		},
		{
			"buffer":0,
			"byteLength":432,
			"byteOffset":16692,
			"target":34962
		},
		{
			"buffer":0,
			"byteLength":432,
			"byteOffset":17124,
			"target":34962
		},
		{
			"buffer":0,
			"byteLength":288,
			"byteOffset":17556,
			"target":34962
		},
		{
			"buffer":0,
			"byteLength":576,
			"byteOffset":17844,
			"target":34962
		},
		{
			"buffer":0,
			"byteLength":108,
			"byteOffset":18420,
			"target":34963
		},
		{
			"buffer":0,
			"byteLength":96,
			"byteOffset":18528,
			"target":34962
		},
		{
			"buffer":0,
			"byteLength":96,
			"byteOffset":18624,
			"target":34962
		},
		{
			"buffer":0,
			"byteLength":64,
			"byteOffset":18720,
			"target":34962
		},
		{
			"buffer":0,
			"byteLength":128,
			"byteOffset":18784,
			"target":34962
		},
		{
			"buffer":0,
			"byteLength":24,
			"byteOffset":18912,
			"target":34963
		},
		{
			"buffer":0,
			"byteLength":96,
			"byteOffset":18936,
			"target":34962
		},
		{
			"buffer":0,
			"byteLength":96,
			"byteOffset":19032,
			"target":34962
		},
		{
			"buffer":0,
			"byteLength":64,
			"byteOffset":19128,
			"target":34962
		},
		{
			"buffer":0,
			"byteLength":128,
			"byteOffset":19192,
			"target":34962
		},
		{
			"buffer":0,
			"byteLength":24,
			"byteOffset":19320,
			"target":34963
		},
		{
			"buffer":0,
			"byteLength":96,
			"byteOffset":19344,
			"target":34962
		},
		{
			"buffer":0,
			"byteLength":96,
			"byteOffset":19440,
			"target":34962
		},
		{
			"buffer":0,
			"byteLength":64,
			"byteOffset":19536,
			"target":34962
		},
		{
			"buffer":0,
			"byteLength":128,
			"byteOffset":19600,
			"target":34962
		},
		{
			"buffer":0,
			"byteLength":24,
			"byteOffset":19728,
			"target":34963
		},
		{
			"buffer":0,
			"byteLength":1848,
			"byteOffset":19752,
			"target":34962
		},
		{
			"buffer":0,
			"byteLength":1848,
			"byteOffset":21600,
			"target":34962
		},
		{
			"buffer":0,
			"byteLength":1232,
			"byteOffset":23448,
			"target":34962
		},
		{
			"buffer":0,
			"byteLength":2464,
			"byteOffset":24680,
			"target":34962
		},
		{
			"buffer":0,
			"byteLength":624,
			"byteOffset":27144,
			"target":34963
		},
		{
			"buffer":0,
			"byteLength":1728,
			"byteOffset":27768,
			"target":34962
		},
		{
			"buffer":0,
			"byteLength":1728,
			"byteOffset":29496,
			"target":34962
		},
		{
			"buffer":0,
			"byteLength":1152,
			"byteOffset":31224,
			"target":34962
		},
		{
			"buffer":0,
			"byteLength":2304,
			"byteOffset":32376,
			"target":34962
		},
		{
			"buffer":0,
			"byteLength":432,
			"byteOffset":34680,
			"target":34963
		},
		{
			"buffer":0,
			"byteLength":1392,
			"byteOffset":35112,
			"target":34962
		},
		{
			"buffer":0,
			"byteLength":1392,
			"byteOffset":36504,
			"target":34962
		},
		{
			"buffer":0,
			"byteLength":928,
			"byteOffset":37896,
			"target":34962
		},
		{
			"buffer":0,
			"byteLength":1856,
			"byteOffset":38824,
			"target":34962
		},
		{
			"buffer":0,
			"byteLength":348,
			"byteOffset":40680,
			"target":34963
		}
	],
	"samplers":[
		{
			"magFilter":9729,
			"minFilter":9987
		}
	],
	"buffers":[
		{
			"byteLength":41028,
			"uri":"LConTeslaOffice-64f745de60295459556867ed8c50f0bb.bin"
		}
	]
}
