{
	"asset":{
		"generator":"Khronos glTF Blender I/O v4.4.56",
		"version":"2.0"
	},
	"scene":0,
	"scenes":[
		{
			"name":"Scene",
			"nodes":[
				0
			]
		}
	],
	"nodes":[
		{
			"mesh":0,
			"name":"Concrete floor-col"
		}
	],
	"materials":[
		{
			"name":"Concrete Floor",
			"normalTexture":{
				"index":0
			},
			"pbrMetallicRoughness":{
				"baseColorTexture":{
					"index":1
				},
				"metallicFactor":0,
				"roughnessFactor":0.5
			}
		},
		{
			"name":"Material.002",
			"normalTexture":{
				"index":2
			},
			"pbrMetallicRoughness":{
				"baseColorTexture":{
					"index":3
				},
				"metallicFactor":0,
				"roughnessFactor":0.5
			}
		},
		{
			"doubleSided":true,
			"name":"Material",
			"normalTexture":{
				"index":4
			},
			"pbrMetallicRoughness":{
				"baseColorTexture":{
					"index":5
				},
				"metallicFactor":0,
				"roughnessFactor":0.5
			}
		},
		{
			"doubleSided":true,
			"name":"Material.003",
			"normalTexture":{
				"index":6
			},
			"pbrMetallicRoughness":{
				"baseColorTexture":{
					"index":7
				},
				"metallicFactor":0,
				"roughnessFactor":0.5
			}
		}
	],
	"meshes":[
		{
			"name":"Cube.002",
			"primitives":[
				{
					"attributes":{
						"POSITION":0,
						"NORMAL":1,
						"TEXCOORD_0":2
					},
					"indices":3,
					"material":0
				},
				{
					"attributes":{
						"POSITION":4,
						"NORMAL":5,
						"TEXCOORD_0":6
					},
					"indices":7,
					"material":1
				},
				{
					"attributes":{
						"POSITION":8,
						"NORMAL":9,
						"TEXCOORD_0":10
					},
					"indices":11,
					"material":2
				},
				{
					"attributes":{
						"POSITION":12,
						"NORMAL":13,
						"TEXCOORD_0":14
					},
					"indices":15,
					"material":3
				}
			]
		}
	],
	"textures":[
		{
			"sampler":0,
			"source":0
		},
		{
			"sampler":0,
			"source":1
		},
		{
			"sampler":0,
			"source":2
		},
		{
			"sampler":0,
			"source":3
		},
		{
			"sampler":0,
			"source":4
		},
		{
			"sampler":0,
			"source":5
		},
		{
			"sampler":0,
			"source":6
		},
		{
			"sampler":0,
			"source":7
		}
	],
	"images":[
		{
			"mimeType":"image/png",
			"name":"concrete_floor.png",
			"uri":"../../rooms/Textures/normals/concrete_floor.png"
		},
		{
			"mimeType":"image/jpeg",
			"name":"concretefloor.jpg",
			"uri":"../../rooms/Textures/concretefloor.jpg"
		},
		{
			"mimeType":"image/png",
			"name":"whitewall_specular.png",
			"uri":"../../rooms/Textures/normals/whitewall_specular.png"
		},
		{
			"mimeType":"image/jpeg",
			"name":"whitewall.jpg",
			"uri":"../../rooms/Textures/whitewall.jpg"
		},
		{
			"mimeType":"image/png",
			"name":"metal3_specular.png",
			"uri":"../../rooms/Textures/normals/metal3_specular.png"
		},
		{
			"mimeType":"image/jpeg",
			"name":"metal3.jpg",
			"uri":"../../rooms/Textures/metal3.jpg"
		},
		{
			"mimeType":"image/png",
			"name":"metalpanels.png",
			"uri":"../../rooms/Textures/normals/metalpanels.png"
		},
		{
			"mimeType":"image/jpeg",
			"name":"metalpanels.jpg",
			"uri":"../../rooms/Textures/metalpanels.jpg"
		}
	],
	"accessors":[
		{
			"bufferView":0,
			"componentType":5126,
			"count":82,
			"max":[
				6.900032043457031,
				1.8519333600997925,
				7.5000319480896
			],
			"min":[
				-4.501104354858398,
				-1.1502749919891357,
				-7.5000319480896
			],
			"type":"VEC3"
		},
		{
			"bufferView":1,
			"componentType":5126,
			"count":82,
			"type":"VEC3"
		},
		{
			"bufferView":2,
			"componentType":5126,
			"count":82,
			"type":"VEC2"
		},
		{
			"bufferView":3,
			"componentType":5123,
			"count":180,
			"type":"SCALAR"
		},
		{
			"bufferView":4,
			"componentType":5126,
			"count":186,
			"max":[
				6.900032043457031,
				1.8519333600997925,
				7.5000319480896
			],
			"min":[
				-4.501104354858398,
				-1.1502749919891357,
				-7.5000319480896
			],
			"type":"VEC3"
		},
		{
			"bufferView":5,
			"componentType":5126,
			"count":186,
			"type":"VEC3"
		},
		{
			"bufferView":6,
			"componentType":5126,
			"count":186,
			"type":"VEC2"
		},
		{
			"bufferView":7,
			"componentType":5123,
			"count":312,
			"type":"SCALAR"
		},
		{
			"bufferView":8,
			"componentType":5126,
			"count":4,
			"max":[
				6.899477481842041,
				-1.148066759109497,
				-1.8999987840652466
			],
			"min":[
				1.9005866050720215,
				-1.148066759109497,
				-6.799998760223389
			],
			"type":"VEC3"
		},
		{
			"bufferView":9,
			"componentType":5126,
			"count":4,
			"type":"VEC3"
		},
		{
			"bufferView":10,
			"componentType":5126,
			"count":4,
			"type":"VEC2"
		},
		{
			"bufferView":11,
			"componentType":5123,
			"count":6,
			"type":"SCALAR"
		},
		{
			"bufferView":12,
			"componentType":5126,
			"count":56,
			"max":[
				6.899477481842041,
				1.8519316911697388,
				-1.6999987363815308
			],
			"min":[
				1.9005866050720215,
				-1.148066759109497,
				-6.799998760223389
			],
			"type":"VEC3"
		},
		{
			"bufferView":13,
			"componentType":5126,
			"count":56,
			"type":"VEC3"
		},
		{
			"bufferView":14,
			"componentType":5126,
			"count":56,
			"type":"VEC2"
		},
		{
			"bufferView":15,
			"componentType":5123,
			"count":96,
			"type":"SCALAR"
		}
	],
	"bufferViews":[
		{
			"buffer":0,
			"byteLength":984,
			"byteOffset":0,
			"target":34962
		},
		{
			"buffer":0,
			"byteLength":984,
			"byteOffset":984,
			"target":34962
		},
		{
			"buffer":0,
			"byteLength":656,
			"byteOffset":1968,
			"target":34962
		},
		{
			"buffer":0,
			"byteLength":360,
			"byteOffset":2624,
			"target":34963
		},
		{
			"buffer":0,
			"byteLength":2232,
			"byteOffset":2984,
			"target":34962
		},
		{
			"buffer":0,
			"byteLength":2232,
			"byteOffset":5216,
			"target":34962
		},
		{
			"buffer":0,
			"byteLength":1488,
			"byteOffset":7448,
			"target":34962
		},
		{
			"buffer":0,
			"byteLength":624,
			"byteOffset":8936,
			"target":34963
		},
		{
			"buffer":0,
			"byteLength":48,
			"byteOffset":9560,
			"target":34962
		},
		{
			"buffer":0,
			"byteLength":48,
			"byteOffset":9608,
			"target":34962
		},
		{
			"buffer":0,
			"byteLength":32,
			"byteOffset":9656,
			"target":34962
		},
		{
			"buffer":0,
			"byteLength":12,
			"byteOffset":9688,
			"target":34963
		},
		{
			"buffer":0,
			"byteLength":672,
			"byteOffset":9700,
			"target":34962
		},
		{
			"buffer":0,
			"byteLength":672,
			"byteOffset":10372,
			"target":34962
		},
		{
			"buffer":0,
			"byteLength":448,
			"byteOffset":11044,
			"target":34962
		},
		{
			"buffer":0,
			"byteLength":192,
			"byteOffset":11492,
			"target":34963
		}
	],
	"samplers":[
		{
			"magFilter":9729,
			"minFilter":9987
		}
	],
	"buffers":[
		{
			"byteLength":11684,
			"uri":"LConHallTestingOffice001-99c297a71a00c85c13f909bfdc15c088.bin"
		}
	]
}
