{
	"asset":{
		"generator":"Khronos glTF Blender I/O v4.3.47",
		"version":"2.0"
	},
	"scene":0,
	"scenes":[
		{
			"name":"Scene",
			"nodes":[
				0
			]
		}
	],
	"nodes":[
		{
			"mesh":0,
			"name":"Cube"
		}
	],
	"meshes":[
		{
			"name":"Cube.001",
			"primitives":[
				{
					"attributes":{
						"POSITION":0,
						"NORMAL":1,
						"TEXCOORD_0":2,
						"TANGENT":3
					},
					"indices":4
				}
			]
		}
	],
	"accessors":[
		{
			"bufferView":0,
			"componentType":5126,
			"count":139,
			"max":[
				2.5,
				1.2133334875106812,
				1.5
			],
			"min":[
				-7.5,
				-1.7866665124893188,
				-7.5
			],
			"type":"VEC3"
		},
		{
			"bufferView":1,
			"componentType":5126,
			"count":139,
			"type":"VEC3"
		},
		{
			"bufferView":2,
			"componentType":5126,
			"count":139,
			"type":"VEC2"
		},
		{
			"bufferView":3,
			"componentType":5126,
			"count":139,
			"type":"VEC4"
		},
		{
			"bufferView":4,
			"componentType":5123,
			"count":402,
			"type":"SCALAR"
		}
	],
	"bufferViews":[
		{
			"buffer":0,
			"byteLength":1668,
			"byteOffset":0,
			"target":34962
		},
		{
			"buffer":0,
			"byteLength":1668,
			"byteOffset":1668,
			"target":34962
		},
		{
			"buffer":0,
			"byteLength":1112,
			"byteOffset":3336,
			"target":34962
		},
		{
			"buffer":0,
			"byteLength":2224,
			"byteOffset":4448,
			"target":34962
		},
		{
			"buffer":0,
			"byteLength":804,
			"byteOffset":6672,
			"target":34963
		}
	],
	"buffers":[
		{
			"byteLength":7476,
			"uri":"LConBend001-b6ad2bb044f49a9cacfea6d675b61e24.bin"
		}
	]
}
