{
	"asset":{
		"generator":"Khronos glTF Blender I/O v4.3.47",
		"version":"2.0"
	},
	"scene":0,
	"scenes":[
		{
			"name":"Scene",
			"nodes":[
				0,
				1
			]
		}
	],
	"nodes":[
		{
			"mesh":0,
			"name":"base"
		},
		{
			"mesh":1,
			"name":"handle",
			"translation":[
				0,
				0,
				-0.09099999815225601
			]
		}
	],
	"materials":[
		{
			"name":"Material",
			"pbrMetallicRoughness":{
				"baseColorTexture":{
					"index":0
				},
				"metallicFactor":0.25,
				"roughnessFactor":0.5
			}
		},
		{
			"name":"Material.001",
			"pbrMetallicRoughness":{
				"baseColorTexture":{
					"index":1
				},
				"metallicFactor":0.25,
				"roughnessFactor":0.5
			}
		}
	],
	"meshes":[
		{
			"name":"Cube.002",
			"primitives":[
				{
					"attributes":{
						"POSITION":0,
						"NORMAL":1,
						"TEXCOORD_0":2,
						"TANGENT":3
					},
					"indices":4,
					"material":0
				}
			]
		},
		{
			"name":"Cube",
			"primitives":[
				{
					"attributes":{
						"POSITION":5,
						"NORMAL":6,
						"TEXCOORD_0":7,
						"TANGENT":8
					},
					"indices":9,
					"material":1
				}
			]
		}
	],
	"textures":[
		{
			"sampler":0,
			"source":0
		},
		{
			"sampler":0,
			"source":0
		}
	],
	"images":[
		{
			"mimeType":"image/jpeg",
			"name":"mechanical_lever.jpg",
			"uri":"../../rooms/Textures/mechanical_lever.jpg"
		}
	],
	"accessors":[
		{
			"bufferView":0,
			"componentType":5126,
			"count":432,
			"max":[
				0.15000000596046448,
				0.25200003385543823,
				0.04500000178813934
			],
			"min":[
				-0.15000000596046448,
				-0.25200003385543823,
				-0.10640894621610641
			],
			"type":"VEC3"
		},
		{
			"bufferView":1,
			"componentType":5126,
			"count":432,
			"type":"VEC3"
		},
		{
			"bufferView":2,
			"componentType":5126,
			"count":432,
			"type":"VEC2"
		},
		{
			"bufferView":3,
			"componentType":5126,
			"count":432,
			"type":"VEC4"
		},
		{
			"bufferView":4,
			"componentType":5123,
			"count":756,
			"type":"SCALAR"
		},
		{
			"bufferView":5,
			"componentType":5126,
			"count":168,
			"max":[
				0.08014682680368423,
				-0.00016771256923675537,
				0.013818196952342987
			],
			"min":[
				-0.08014682680368423,
				-0.21248413622379303,
				-0.021209649741649628
			],
			"type":"VEC3"
		},
		{
			"bufferView":6,
			"componentType":5126,
			"count":168,
			"type":"VEC3"
		},
		{
			"bufferView":7,
			"componentType":5126,
			"count":168,
			"type":"VEC2"
		},
		{
			"bufferView":8,
			"componentType":5126,
			"count":168,
			"type":"VEC4"
		},
		{
			"bufferView":9,
			"componentType":5123,
			"count":264,
			"type":"SCALAR"
		}
	],
	"bufferViews":[
		{
			"buffer":0,
			"byteLength":5184,
			"byteOffset":0,
			"target":34962
		},
		{
			"buffer":0,
			"byteLength":5184,
			"byteOffset":5184,
			"target":34962
		},
		{
			"buffer":0,
			"byteLength":3456,
			"byteOffset":10368,
			"target":34962
		},
		{
			"buffer":0,
			"byteLength":6912,
			"byteOffset":13824,
			"target":34962
		},
		{
			"buffer":0,
			"byteLength":1512,
			"byteOffset":20736,
			"target":34963
		},
		{
			"buffer":0,
			"byteLength":2016,
			"byteOffset":22248,
			"target":34962
		},
		{
			"buffer":0,
			"byteLength":2016,
			"byteOffset":24264,
			"target":34962
		},
		{
			"buffer":0,
			"byteLength":1344,
			"byteOffset":26280,
			"target":34962
		},
		{
			"buffer":0,
			"byteLength":2688,
			"byteOffset":27624,
			"target":34962
		},
		{
			"buffer":0,
			"byteLength":528,
			"byteOffset":30312,
			"target":34963
		}
	],
	"samplers":[
		{
			"magFilter":9729,
			"minFilter":9987
		}
	],
	"buffers":[
		{
			"byteLength":30840,
			"uri":"lever_base-cf5a936e4891483a0a7d4fba89518a4a.bin"
		}
	]
}
