{
	"asset":{
		"generator":"Khronos glTF Blender I/O v4.3.47",
		"version":"2.0"
	},
	"scene":0,
	"scenes":[
		{
			"name":"Scene",
			"nodes":[
				0
			]
		}
	],
	"nodes":[
		{
			"mesh":0,
			"name":"Cylinder"
		}
	],
	"materials":[
		{
			"name":"Material",
			"pbrMetallicRoughness":{
				"baseColorTexture":{
					"index":0
				},
				"metallicFactor":0
			}
		}
	],
	"meshes":[
		{
			"name":"Cylinder",
			"primitives":[
				{
					"attributes":{
						"POSITION":0,
						"NORMAL":1,
						"TEXCOORD_0":2
					},
					"indices":3,
					"material":0
				}
			]
		}
	],
	"textures":[
		{
			"sampler":0,
			"source":0
		}
	],
	"images":[
		{
			"mimeType":"image/jpeg",
			"name":"pd_rockmoss.jpg",
			"uri":"../../rooms/Textures/pd_rockmoss.jpg"
		}
	],
	"accessors":[
		{
			"bufferView":0,
			"componentType":5126,
			"count":318,
			"max":[
				29.428281784057617,
				7,
				29.428281784057617
			],
			"min":[
				-29.428281784057617,
				-5,
				-29.428281784057617
			],
			"type":"VEC3"
		},
		{
			"bufferView":1,
			"componentType":5126,
			"count":318,
			"type":"VEC3"
		},
		{
			"bufferView":2,
			"componentType":5126,
			"count":318,
			"type":"VEC2"
		},
		{
			"bufferView":3,
			"componentType":5123,
			"count":516,
			"type":"SCALAR"
		}
	],
	"bufferViews":[
		{
			"buffer":0,
			"byteLength":3816,
			"byteOffset":0,
			"target":34962
		},
		{
			"buffer":0,
			"byteLength":3816,
			"byteOffset":3816,
			"target":34962
		},
		{
			"buffer":0,
			"byteLength":2544,
			"byteOffset":7632,
			"target":34962
		},
		{
			"buffer":0,
			"byteLength":1032,
			"byteOffset":10176,
			"target":34963
		}
	],
	"samplers":[
		{
			"magFilter":9729,
			"minFilter":9987
		}
	],
	"buffers":[
		{
			"byteLength":11208,
			"uri":"PD8way-3408c1875da82fb91826ccbae0aa7da2.bin"
		}
	]
}
