{
	"asset":{
		"generator":"Khronos glTF Blender I/O v4.3.47",
		"version":"2.0"
	},
	"scene":0,
	"scenes":[
		{
			"name":"Scene",
			"nodes":[
				0
			]
		}
	],
	"nodes":[
		{
			"mesh":0,
			"name":"Cube-col"
		}
	],
	"materials":[
		{
			"doubleSided":true,
			"name":"Material",
			"pbrMetallicRoughness":{
				"baseColorTexture":{
					"index":0
				},
				"metallicFactor":0,
				"roughnessFactor":0.5
			}
		},
		{
			"doubleSided":true,
			"name":"Material.001",
			"pbrMetallicRoughness":{
				"baseColorTexture":{
					"index":1
				},
				"metallicFactor":0,
				"roughnessFactor":0.5
			}
		}
	],
	"meshes":[
		{
			"name":"Cube",
			"primitives":[
				{
					"attributes":{
						"POSITION":0,
						"NORMAL":1,
						"TEXCOORD_0":2,
						"TANGENT":3
					},
					"indices":4,
					"material":0
				},
				{
					"attributes":{
						"POSITION":5,
						"NORMAL":6,
						"TEXCOORD_0":7,
						"TANGENT":8
					},
					"indices":9,
					"material":1
				}
			]
		}
	],
	"textures":[
		{
			"sampler":0,
			"source":0
		},
		{
			"sampler":0,
			"source":1
		}
	],
	"images":[
		{
			"mimeType":"image/jpeg",
			"name":"dirtymetal.jpg",
			"uri":"../../rooms/Textures/dirtymetal.jpg"
		},
		{
			"mimeType":"image/png",
			"name":"white.png",
			"uri":"../../rooms/Textures/white.png"
		}
	],
	"accessors":[
		{
			"bufferView":0,
			"componentType":5126,
			"count":80,
			"max":[
				0.6254944205284119,
				2.0156409740448,
				0.2558431327342987
			],
			"min":[
				-0.6254944205284119,
				-0.015640808269381523,
				-0.2558431327342987
			],
			"type":"VEC3"
		},
		{
			"bufferView":1,
			"componentType":5126,
			"count":80,
			"type":"VEC3"
		},
		{
			"bufferView":2,
			"componentType":5126,
			"count":80,
			"type":"VEC2"
		},
		{
			"bufferView":3,
			"componentType":5126,
			"count":80,
			"type":"VEC4"
		},
		{
			"bufferView":4,
			"componentType":5123,
			"count":120,
			"type":"SCALAR"
		},
		{
			"bufferView":5,
			"componentType":5126,
			"count":48,
			"max":[
				0.6406409740447998,
				2.0435233116149902,
				0.28142744302749634
			],
			"min":[
				-0.640640914440155,
				-0.36436450481414795,
				-0.28142744302749634
			],
			"type":"VEC3"
		},
		{
			"bufferView":6,
			"componentType":5126,
			"count":48,
			"type":"VEC3"
		},
		{
			"bufferView":7,
			"componentType":5126,
			"count":48,
			"type":"VEC2"
		},
		{
			"bufferView":8,
			"componentType":5126,
			"count":48,
			"type":"VEC4"
		},
		{
			"bufferView":9,
			"componentType":5123,
			"count":72,
			"type":"SCALAR"
		}
	],
	"bufferViews":[
		{
			"buffer":0,
			"byteLength":960,
			"byteOffset":0,
			"target":34962
		},
		{
			"buffer":0,
			"byteLength":960,
			"byteOffset":960,
			"target":34962
		},
		{
			"buffer":0,
			"byteLength":640,
			"byteOffset":1920,
			"target":34962
		},
		{
			"buffer":0,
			"byteLength":1280,
			"byteOffset":2560,
			"target":34962
		},
		{
			"buffer":0,
			"byteLength":240,
			"byteOffset":3840,
			"target":34963
		},
		{
			"buffer":0,
			"byteLength":576,
			"byteOffset":4080,
			"target":34962
		},
		{
			"buffer":0,
			"byteLength":576,
			"byteOffset":4656,
			"target":34962
		},
		{
			"buffer":0,
			"byteLength":384,
			"byteOffset":5232,
			"target":34962
		},
		{
			"buffer":0,
			"byteLength":768,
			"byteOffset":5616,
			"target":34962
		},
		{
			"buffer":0,
			"byteLength":144,
			"byteOffset":6384,
			"target":34963
		}
	],
	"samplers":[
		{
			"magFilter":9729,
			"minFilter":9987
		}
	],
	"buffers":[
		{
			"byteLength":6528,
			"uri":"shelf02-6b9f8d6e2f24d96d98410e498c575ad8.bin"
		}
	]
}
