{
	"asset":{
		"generator":"Khronos glTF Blender I/O v4.3.47",
		"version":"2.0"
	},
	"scene":0,
	"scenes":[
		{
			"name":"Scene",
			"nodes":[
				0,
				1,
				2
			]
		}
	],
	"nodes":[
		{
			"mesh":0,
			"name":"Cube-col.001",
			"translation":[
				0,
				0.3199999928474426,
				0
			]
		},
		{
			"mesh":1,
			"name":"Cube-col",
			"translation":[
				-14.979999542236328,
				3,
				0.699999988079071
			]
		},
		{
			"mesh":2,
			"name":"plane-col",
			"rotation":[
				0.5,
				0.5,
				0.5,
				0.5000000596046448
			],
			"translation":[
				-14.979999542236328,
				3.3299999237060547,
				8.390000343322754
			]
		}
	],
	"materials":[
		{
			"name":"Material.006",
			"pbrMetallicRoughness":{
				"baseColorTexture":{
					"index":0
				},
				"metallicFactor":0,
				"roughnessFactor":0.5
			}
		},
		{
			"name":"Material",
			"normalTexture":{
				"index":1
			},
			"pbrMetallicRoughness":{
				"baseColorTexture":{
					"index":2
				},
				"metallicFactor":0,
				"roughnessFactor":0.5
			}
		},
		{
			"name":"Material.001",
			"normalTexture":{
				"index":3
			},
			"pbrMetallicRoughness":{
				"baseColorTexture":{
					"index":4
				},
				"metallicFactor":0,
				"roughnessFactor":0.5
			}
		},
		{
			"name":"Material.002",
			"normalTexture":{
				"index":5
			},
			"pbrMetallicRoughness":{
				"baseColorTexture":{
					"index":6
				},
				"metallicFactor":0,
				"roughnessFactor":0.5
			}
		},
		{
			"name":"Material.003",
			"pbrMetallicRoughness":{
				"baseColorTexture":{
					"index":7
				},
				"metallicFactor":0,
				"roughnessFactor":0.5
			}
		},
		{
			"name":"Material.004",
			"pbrMetallicRoughness":{
				"baseColorTexture":{
					"index":8
				},
				"metallicFactor":0,
				"roughnessFactor":0.5
			}
		},
		{
			"name":"Material.005",
			"normalTexture":{
				"index":9
			},
			"pbrMetallicRoughness":{
				"baseColorTexture":{
					"index":10
				},
				"metallicFactor":0,
				"roughnessFactor":0.5
			}
		},
		{
			"name":"Material.007",
			"normalTexture":{
				"index":11
			},
			"pbrMetallicRoughness":{
				"baseColorTexture":{
					"index":12
				},
				"metallicFactor":0,
				"roughnessFactor":0.5
			}
		},
		{
			"name":"Material.008",
			"normalTexture":{
				"index":13
			},
			"pbrMetallicRoughness":{
				"baseColorTexture":{
					"index":14
				},
				"metallicFactor":0,
				"roughnessFactor":0.5
			}
		}
	],
	"meshes":[
		{
			"name":"Cube",
			"primitives":[
				{
					"attributes":{
						"POSITION":0,
						"NORMAL":1,
						"TEXCOORD_0":2,
						"TANGENT":3
					},
					"indices":4,
					"material":0
				}
			]
		},
		{
			"name":"Cube.001",
			"primitives":[
				{
					"attributes":{
						"POSITION":5,
						"NORMAL":6,
						"TEXCOORD_0":7,
						"TANGENT":8
					},
					"indices":9,
					"material":1
				},
				{
					"attributes":{
						"POSITION":10,
						"NORMAL":11,
						"TEXCOORD_0":12,
						"TANGENT":13
					},
					"indices":14,
					"material":2
				},
				{
					"attributes":{
						"POSITION":15,
						"NORMAL":16,
						"TEXCOORD_0":17,
						"TANGENT":18
					},
					"indices":19,
					"material":3
				}
			]
		},
		{
			"name":"Plane",
			"primitives":[
				{
					"attributes":{
						"POSITION":20,
						"NORMAL":21,
						"TEXCOORD_0":22
					},
					"indices":23,
					"material":4
				},
				{
					"attributes":{
						"POSITION":24,
						"NORMAL":25,
						"TEXCOORD_0":26
					},
					"indices":27,
					"material":5
				},
				{
					"attributes":{
						"POSITION":28,
						"NORMAL":29,
						"TEXCOORD_0":30
					},
					"indices":31,
					"material":6
				},
				{
					"attributes":{
						"POSITION":32,
						"NORMAL":33,
						"TEXCOORD_0":34
					},
					"indices":35,
					"material":7
				},
				{
					"attributes":{
						"POSITION":36,
						"NORMAL":37,
						"TEXCOORD_0":38
					},
					"indices":39,
					"material":8
				}
			]
		}
	],
	"textures":[
		{
			"sampler":0,
			"source":0
		},
		{
			"sampler":0,
			"source":1
		},
		{
			"sampler":0,
			"source":2
		},
		{
			"sampler":0,
			"source":3
		},
		{
			"sampler":0,
			"source":4
		},
		{
			"sampler":0,
			"source":5
		},
		{
			"sampler":0,
			"source":6
		},
		{
			"sampler":0,
			"source":7
		},
		{
			"sampler":0,
			"source":2
		},
		{
			"sampler":0,
			"source":5
		},
		{
			"sampler":0,
			"source":6
		},
		{
			"sampler":0,
			"source":8
		},
		{
			"sampler":0,
			"source":9
		},
		{
			"sampler":0,
			"source":10
		},
		{
			"sampler":0,
			"source":11
		}
	],
	"images":[
		{
			"mimeType":"image/png",
			"name":"concrete_wall_006_diff_2k.png",
			"uri":"../../rooms/Textures/concrete_wall_006_diff_2k.png"
		},
		{
			"mimeType":"image/png",
			"name":"concrete_floor.png",
			"uri":"../../rooms/Textures/normals/concrete_floor.png"
		},
		{
			"mimeType":"image/jpeg",
			"name":"concretefloor.jpg",
			"uri":"../../rooms/Textures/concretefloor.jpg"
		},
		{
			"mimeType":"image/png",
			"name":"whitewall1_specular.png",
			"uri":"../../rooms/Textures/normals/whitewall1_specular.png"
		},
		{
			"mimeType":"image/png",
			"name":"whitewall1.png",
			"uri":"../../rooms/Textures/whitewall1.png"
		},
		{
			"mimeType":"image/png",
			"name":"whitewall_specular.png",
			"uri":"../../rooms/Textures/normals/whitewall_specular.png"
		},
		{
			"mimeType":"image/jpeg",
			"name":"whitewall.jpg",
			"uri":"../../rooms/Textures/whitewall.jpg"
		},
		{
			"mimeType":"image/jpeg",
			"name":"Door02.jpg",
			"uri":"../../rooms/Textures/Door02.jpg"
		},
		{
			"mimeType":"image/png",
			"name":"tile_floor.png",
			"uri":"../../rooms/Textures/normals/tile_floor.png"
		},
		{
			"mimeType":"image/jpeg",
			"name":"tilefloor.jpg",
			"uri":"../../rooms/Textures/tilefloor.jpg"
		},
		{
			"mimeType":"image/png",
			"name":"tile_ceiling.png",
			"uri":"../../rooms/Textures/normals/tile_ceiling.png"
		},
		{
			"mimeType":"image/jpeg",
			"name":"ceiling.jpg",
			"uri":"../../rooms/Textures/ceiling.jpg"
		}
	],
	"accessors":[
		{
			"bufferView":0,
			"componentType":5126,
			"count":193,
			"max":[
				19.27544593811035,
				4.503671169281006,
				7.275445938110352
			],
			"min":[
				-7.475445747375488,
				-1.5200130939483643,
				-7.475445747375488
			],
			"type":"VEC3"
		},
		{
			"bufferView":1,
			"componentType":5126,
			"count":193,
			"type":"VEC3"
		},
		{
			"bufferView":2,
			"componentType":5126,
			"count":193,
			"type":"VEC2"
		},
		{
			"bufferView":3,
			"componentType":5126,
			"count":193,
			"type":"VEC4"
		},
		{
			"bufferView":4,
			"componentType":5123,
			"count":444,
			"type":"SCALAR"
		},
		{
			"bufferView":5,
			"componentType":5126,
			"count":56,
			"max":[
				7.5,
				4.827272891998291,
				7.49545431137085
			],
			"min":[
				-7.5,
				-1.1727274656295776,
				-7.50454568862915
			],
			"type":"VEC3"
		},
		{
			"bufferView":6,
			"componentType":5126,
			"count":56,
			"type":"VEC3"
		},
		{
			"bufferView":7,
			"componentType":5126,
			"count":56,
			"type":"VEC2"
		},
		{
			"bufferView":8,
			"componentType":5126,
			"count":56,
			"type":"VEC4"
		},
		{
			"bufferView":9,
			"componentType":5123,
			"count":180,
			"type":"SCALAR"
		},
		{
			"bufferView":10,
			"componentType":5126,
			"count":136,
			"max":[
				7.5,
				1.8272725343704224,
				7.49545431137085
			],
			"min":[
				-7.5,
				-1.1727274656295776,
				-7.50454568862915
			],
			"type":"VEC3"
		},
		{
			"bufferView":11,
			"componentType":5126,
			"count":136,
			"type":"VEC3"
		},
		{
			"bufferView":12,
			"componentType":5126,
			"count":136,
			"type":"VEC2"
		},
		{
			"bufferView":13,
			"componentType":5126,
			"count":136,
			"type":"VEC4"
		},
		{
			"bufferView":14,
			"componentType":5123,
			"count":216,
			"type":"SCALAR"
		},
		{
			"bufferView":15,
			"componentType":5126,
			"count":64,
			"max":[
				7.300000190734863,
				4.827272891998291,
				7.295454502105713
			],
			"min":[
				-7.300000190734863,
				1.8272720575332642,
				-7.304545879364014
			],
			"type":"VEC3"
		},
		{
			"bufferView":16,
			"componentType":5126,
			"count":64,
			"type":"VEC3"
		},
		{
			"bufferView":17,
			"componentType":5126,
			"count":64,
			"type":"VEC2"
		},
		{
			"bufferView":18,
			"componentType":5126,
			"count":64,
			"type":"VEC4"
		},
		{
			"bufferView":19,
			"componentType":5123,
			"count":96,
			"type":"SCALAR"
		},
		{
			"bufferView":20,
			"componentType":5126,
			"count":64,
			"max":[
				0.8999984860420227,
				33.20000457763672,
				1.5999999046325684
			],
			"min":[
				-1.500002145767212,
				1,
				-1.7000001668930054
			],
			"type":"VEC3"
		},
		{
			"bufferView":21,
			"componentType":5126,
			"count":64,
			"type":"VEC3"
		},
		{
			"bufferView":22,
			"componentType":5126,
			"count":64,
			"type":"VEC2"
		},
		{
			"bufferView":23,
			"componentType":5123,
			"count":96,
			"type":"SCALAR"
		},
		{
			"bufferView":24,
			"componentType":5126,
			"count":14,
			"max":[
				1.4999977350234985,
				34.20013427734375,
				3.7056758403778076
			],
			"min":[
				-1.500001072883606,
				16.39940643310547,
				-6.900000095367432
			],
			"type":"VEC3"
		},
		{
			"bufferView":25,
			"componentType":5126,
			"count":14,
			"type":"VEC3"
		},
		{
			"bufferView":26,
			"componentType":5126,
			"count":14,
			"type":"VEC2"
		},
		{
			"bufferView":27,
			"componentType":5123,
			"count":24,
			"type":"SCALAR"
		},
		{
			"bufferView":28,
			"componentType":5126,
			"count":463,
			"max":[
				1.5000001192092896,
				34.20013427734375,
				3.7056758403778076
			],
			"min":[
				-1.5000028610229492,
				-0.20000000298023224,
				-6.900000095367432
			],
			"type":"VEC3"
		},
		{
			"bufferView":29,
			"componentType":5126,
			"count":463,
			"type":"VEC3"
		},
		{
			"bufferView":30,
			"componentType":5126,
			"count":463,
			"type":"VEC2"
		},
		{
			"bufferView":31,
			"componentType":5123,
			"count":816,
			"type":"SCALAR"
		},
		{
			"bufferView":32,
			"componentType":5126,
			"count":114,
			"max":[
				-1.5000001192092896,
				34.20013427734375,
				3.505675792694092
			],
			"min":[
				-1.5000028610229492,
				-0.20000000298023224,
				-6.900000095367432
			],
			"type":"VEC3"
		},
		{
			"bufferView":33,
			"componentType":5126,
			"count":114,
			"type":"VEC3"
		},
		{
			"bufferView":34,
			"componentType":5126,
			"count":114,
			"type":"VEC2"
		},
		{
			"bufferView":35,
			"componentType":5123,
			"count":336,
			"type":"SCALAR"
		},
		{
			"bufferView":36,
			"componentType":5126,
			"count":30,
			"max":[
				1.5000001192092896,
				34.20000076293945,
				3.505675792694092
			],
			"min":[
				1.497123122215271,
				4.529874431113967e-08,
				-3.490208625793457
			],
			"type":"VEC3"
		},
		{
			"bufferView":37,
			"componentType":5126,
			"count":30,
			"type":"VEC3"
		},
		{
			"bufferView":38,
			"componentType":5126,
			"count":30,
			"type":"VEC2"
		},
		{
			"bufferView":39,
			"componentType":5123,
			"count":66,
			"type":"SCALAR"
		}
	],
	"bufferViews":[
		{
			"buffer":0,
			"byteLength":2316,
			"byteOffset":0,
			"target":34962
		},
		{
			"buffer":0,
			"byteLength":2316,
			"byteOffset":2316,
			"target":34962
		},
		{
			"buffer":0,
			"byteLength":1544,
			"byteOffset":4632,
			"target":34962
		},
		{
			"buffer":0,
			"byteLength":3088,
			"byteOffset":6176,
			"target":34962
		},
		{
			"buffer":0,
			"byteLength":888,
			"byteOffset":9264,
			"target":34963
		},
		{
			"buffer":0,
			"byteLength":672,
			"byteOffset":10152,
			"target":34962
		},
		{
			"buffer":0,
			"byteLength":672,
			"byteOffset":10824,
			"target":34962
		},
		{
			"buffer":0,
			"byteLength":448,
			"byteOffset":11496,
			"target":34962
		},
		{
			"buffer":0,
			"byteLength":896,
			"byteOffset":11944,
			"target":34962
		},
		{
			"buffer":0,
			"byteLength":360,
			"byteOffset":12840,
			"target":34963
		},
		{
			"buffer":0,
			"byteLength":1632,
			"byteOffset":13200,
			"target":34962
		},
		{
			"buffer":0,
			"byteLength":1632,
			"byteOffset":14832,
			"target":34962
		},
		{
			"buffer":0,
			"byteLength":1088,
			"byteOffset":16464,
			"target":34962
		},
		{
			"buffer":0,
			"byteLength":2176,
			"byteOffset":17552,
			"target":34962
		},
		{
			"buffer":0,
			"byteLength":432,
			"byteOffset":19728,
			"target":34963
		},
		{
			"buffer":0,
			"byteLength":768,
			"byteOffset":20160,
			"target":34962
		},
		{
			"buffer":0,
			"byteLength":768,
			"byteOffset":20928,
			"target":34962
		},
		{
			"buffer":0,
			"byteLength":512,
			"byteOffset":21696,
			"target":34962
		},
		{
			"buffer":0,
			"byteLength":1024,
			"byteOffset":22208,
			"target":34962
		},
		{
			"buffer":0,
			"byteLength":192,
			"byteOffset":23232,
			"target":34963
		},
		{
			"buffer":0,
			"byteLength":768,
			"byteOffset":23424,
			"target":34962
		},
		{
			"buffer":0,
			"byteLength":768,
			"byteOffset":24192,
			"target":34962
		},
		{
			"buffer":0,
			"byteLength":512,
			"byteOffset":24960,
			"target":34962
		},
		{
			"buffer":0,
			"byteLength":192,
			"byteOffset":25472,
			"target":34963
		},
		{
			"buffer":0,
			"byteLength":168,
			"byteOffset":25664,
			"target":34962
		},
		{
			"buffer":0,
			"byteLength":168,
			"byteOffset":25832,
			"target":34962
		},
		{
			"buffer":0,
			"byteLength":112,
			"byteOffset":26000,
			"target":34962
		},
		{
			"buffer":0,
			"byteLength":48,
			"byteOffset":26112,
			"target":34963
		},
		{
			"buffer":0,
			"byteLength":5556,
			"byteOffset":26160,
			"target":34962
		},
		{
			"buffer":0,
			"byteLength":5556,
			"byteOffset":31716,
			"target":34962
		},
		{
			"buffer":0,
			"byteLength":3704,
			"byteOffset":37272,
			"target":34962
		},
		{
			"buffer":0,
			"byteLength":1632,
			"byteOffset":40976,
			"target":34963
		},
		{
			"buffer":0,
			"byteLength":1368,
			"byteOffset":42608,
			"target":34962
		},
		{
			"buffer":0,
			"byteLength":1368,
			"byteOffset":43976,
			"target":34962
		},
		{
			"buffer":0,
			"byteLength":912,
			"byteOffset":45344,
			"target":34962
		},
		{
			"buffer":0,
			"byteLength":672,
			"byteOffset":46256,
			"target":34963
		},
		{
			"buffer":0,
			"byteLength":360,
			"byteOffset":46928,
			"target":34962
		},
		{
			"buffer":0,
			"byteLength":360,
			"byteOffset":47288,
			"target":34962
		},
		{
			"buffer":0,
			"byteLength":240,
			"byteOffset":47648,
			"target":34962
		},
		{
			"buffer":0,
			"byteLength":132,
			"byteOffset":47888,
			"target":34963
		}
	],
	"samplers":[
		{
			"magFilter":9729,
			"minFilter":9987
		}
	],
	"buffers":[
		{
			"byteLength":48020,
			"uri":"SpawnRoom-77e585b2d4414c567acc3731301eb823.bin"
		}
	]
}
